<svg xmlns="http://www.w3.org/2000/svg" xmlns:xlink="http://www.w3.org/1999/xlink" width="550" height="377.621" viewBox="0 0 550 377.621"><defs><clipPath id="a"><rect width="550" height="377.622" fill="none"/></clipPath><clipPath id="b"><rect width="549.999" height="377.621" fill="none"/></clipPath><clipPath id="c"><rect width="538.67" height="68.674" fill="none"/></clipPath><clipPath id="e"><rect width="98.404" height="34.242" fill="none"/></clipPath><clipPath id="f"><rect width="68.66" height="23.893" fill="none"/></clipPath><clipPath id="g"><rect width="77.697" height="30.088" fill="none"/></clipPath><clipPath id="h"><rect width="4.461" height="5.844" fill="none"/></clipPath><clipPath id="i"><rect width="4.158" height="5.605" fill="none"/></clipPath><clipPath id="j"><rect width="160.63" height="172.35" fill="none"/></clipPath><clipPath id="k"><rect width="55.287" height="43.633" fill="none"/></clipPath><clipPath id="l"><rect width="104.921" height="104.922" fill="none"/></clipPath><clipPath id="m"><rect width="74.338" height="74.338" fill="none"/></clipPath></defs><g clip-path="url(#a)"><g transform="translate(0 0.001)"><g clip-path="url(#b)"><g transform="translate(11.33 308.947)" opacity="0.5"><g clip-path="url(#c)"><path d="M580.446,1173.5c0,18.964-120.585,34.337-269.335,34.337S41.777,1192.463,41.777,1173.5s120.585-34.337,269.335-34.337,269.335,15.373,269.335,34.337" transform="translate(-41.777 -1139.162)" fill="#b8d5dc"/></g></g></g></g><path d="M235.365,1040.517h-8.529l7.637-69.209H243Z" transform="translate(-165.317 -707.884)" fill="#99c4cc"/><path d="M0,781.316l18.885,73.2H142.4l-18.885-73.2Z" transform="translate(0 -569.419)" fill="#99c4cc"/><path d="M159.791,854.517H36.277l-18.885-73.2H140.906Z" transform="translate(-12.676 -569.419)" fill="#b8d5dc"/><rect width="123.514" height="1.05" transform="translate(9.441 229.69)" fill="#99c4cc"/><rect width="123.514" height="1.05" transform="translate(14.159 247.974)" fill="#99c4cc"/><rect width="123.512" height="1.05" transform="translate(18.876 266.255)" fill="#99c4cc"/><rect width="1.048" height="75.598" transform="translate(26.317 212.029) rotate(-14.467)" fill="#99c4cc"/><rect width="1.048" height="75.598" transform="translate(52.43 212.029) rotate(-14.465)" fill="#99c4cc"/><rect width="1.048" height="75.598" transform="matrix(0.968, -0.25, 0.25, 0.968, 78.541, 212.029)" fill="#99c4cc"/><rect width="1.048" height="75.598" transform="translate(104.654 212.029) rotate(-14.465)" fill="#99c4cc"/><g transform="translate(0 0.001)"><g clip-path="url(#b)"><path d="M235.571,1203.275h14.457a6.3,6.3,0,0,1,6.3,6.3H235.571Z" transform="translate(-171.683 -876.941)" fill="#99c4cc"/><path d="M717.938,1080.549h-5.612l5.025-45.535h5.612Z" transform="translate(-519.139 -754.313)" fill="#99c4cc"/><path d="M656.772,994.384H575.509l-12.425-48.161h81.263Z" transform="translate(-410.372 -689.603)" fill="#99c4cc"/><path d="M668.214,994.384H586.951l-12.425-48.161H655.79Z" transform="translate(-418.712 -689.603)" fill="#b8d5dc"/><rect width="81.264" height="0.693" transform="translate(158.924 268.325)" fill="#99c4cc"/><rect width="81.264" height="0.693" transform="translate(162.027 280.353)" fill="#99c4cc"/><rect width="81.262" height="0.693" transform="translate(165.131 292.383)" fill="#99c4cc"/><rect width="0.69" height="49.74" transform="matrix(0.968, -0.25, 0.25, 0.968, 170.027, 256.706)" fill="#99c4cc"/><rect width="0.69" height="49.741" transform="translate(187.206 256.706) rotate(-14.465)" fill="#99c4cc"/><rect width="0.69" height="49.741" transform="translate(204.387 256.706) rotate(-14.465)" fill="#99c4cc"/><rect width="0.69" height="49.741" transform="translate(221.566 256.706) rotate(-14.465)" fill="#99c4cc"/><path d="M718.073,1187.632h9.512a4.144,4.144,0,0,1,4.144,4.144H718.073Z" transform="translate(-523.327 -865.54)" fill="#99c4cc"/><g transform="translate(388.315 48.838)" opacity="0.8"><g clip-path="url(#e)"><path d="M1501.005,189.683s-5.641-10.849-19.914-9.489-12.574,12.234-19.371,11.215-16.312,0-18.351,6.8-11.215,3.058-11.554,8.836,10.535,9.855,23.109,4.758,18.691,3.96,36.363,2.32,19.861-3.679,30.321-2.66,10.212-6.142,5.454-10.9-24.017-4.305-26.056-10.876" transform="translate(-1431.807 -180.077)" fill="#fff"/></g></g><g transform="translate(210.05 -0.001)" opacity="0.6"><g clip-path="url(#f)"><path d="M822.786,6.706S818.85-.863,808.891.085s-8.773,8.536-13.516,7.825-11.382,0-12.8,4.742-7.825,2.134-8.062,6.165,7.351,6.876,16.124,3.32S803.675,24.9,816,23.756s13.858-2.567,21.156-1.856,7.125-4.286,3.805-7.605-16.757-3-18.18-7.588" transform="translate(-774.504 -0.002)" fill="#fff"/></g></g><g transform="translate(35.111 62.081)" opacity="0.6"><g clip-path="url(#g)"><path d="M184.1,237.351a15.643,15.643,0,0,0-15.723-8.338c-11.27,1.194-9.928,10.749-15.295,9.853s-12.88,0-14.49,5.972-8.855,2.687-9.123,7.763,8.318,8.659,18.246,4.18,14.758,3.48,28.711,2.038,15.682-3.233,23.94-2.337,8.063-5.4,4.306-9.577-18.963-3.782-20.573-9.555" transform="translate(-129.463 -228.91)" fill="#fff"/></g></g><path d="M1841.116,865.525h-6.925l.579-50.984.885-78.092h3.138l1.241,68.988Z" transform="translate(-1336.748 -536.72)" fill="#fff"/><path d="M1841.591,805.437a79.537,79.537,0,0,0-5.265,9.1l.885-78.092h3.138Z" transform="translate(-1338.304 -536.721)" fill="#b8d5dc"/><path d="M1838.339,604.141l-1.413-4.278a14.192,14.192,0,0,1,2.445-13.378l26.964-33.319a.624.624,0,0,1,1.041.678l-25.944,50.538a1.681,1.681,0,0,1-3.092-.241" transform="translate(-1338.219 -402.972)" fill="#fff"/><path d="M1844.553,731.468l4.5-.2a14.192,14.192,0,0,1,12.217,5.974l24.777,34.976a.624.624,0,0,1-.934.818l-41.63-38.654a1.681,1.681,0,0,1,1.069-2.912" transform="translate(-1343.127 -532.932)" fill="#fff"/><path d="M1699.76,729l-2.291,3.88a14.193,14.193,0,0,1-11.68,6.965l-42.831,1.631a.624.624,0,0,1-.175-1.229l55.123-13.733A1.681,1.681,0,0,1,1699.76,729" transform="translate(-1196.905 -529.44)" fill="#fff"/><path d="M1834.293,729.289a3.663,3.663,0,1,1,4.927,1.6,3.663,3.663,0,0,1-4.927-1.6" transform="translate(-1336.53 -527.62)" fill="#366f90"/><path d="M1826.239,1200.419H1801.68a7.3,7.3,0,0,1,7.3-7.3h9.954a7.3,7.3,0,0,1,7.3,7.3" transform="translate(-1313.054 -869.537)" fill="#fff"/><path d="M1695.064,767.552h-11.38l.951-70.248,1.455-107.6h5.157l2.041,95.055Z" transform="translate(-1227.059 -429.775)" fill="#fff"/><path d="M1695.843,684.76a106.966,106.966,0,0,0-8.653,12.544l1.455-107.6h5.157Z" transform="translate(-1229.614 -429.774)" fill="#b8d5dc"/><path d="M1607.858,578.491l2.767,6.178a21.324,21.324,0,0,1-1.6,20.37l-35.195,53.934a.938.938,0,0,1-1.659-.853l31.031-79.515a2.526,2.526,0,0,1,4.659-.115" transform="translate(-1145.734 -420.513)" fill="#fff"/><path d="M1514.138,446.979l-6.7.992a21.324,21.324,0,0,1-19.176-7.056l-42.4-48.479a.938.938,0,0,1,1.271-1.366l68.149,51.394a2.526,2.526,0,0,1-1.151,4.516" transform="translate(-1053.564 -284.863)" fill="#fff"/><path d="M1689.151,519.39l2.83-6.15a21.324,21.324,0,0,1,16.391-12.2l63.769-9a.938.938,0,0,1,.449,1.811L1692.3,522.822a2.526,2.526,0,0,1-3.153-3.432" transform="translate(-1230.869 -358.585)" fill="#fff"/><path d="M1689.449,571.654a5.5,5.5,0,1,1-7.609-1.635,5.5,5.5,0,0,1,7.609,1.635" transform="translate(-1223.881 -414.785)" fill="#366f90"/><path d="M1670.616,1225.8h-40.362a12,12,0,0,1,12-12h16.359a12,12,0,0,1,12,12" transform="translate(-1188.12 -884.612)" fill="#fff"/><path d="M494.834,820.3c.436,12.833,1.465,25.637,2.166,38.456.282,5.159.612,10.293-.848,15.318a21.326,21.326,0,0,1-6.751,10.419c-8.906,7.541-21.462,6.925-32.379,7.966-9.428.9-20.039,3.528-26.18,11.349-6.731,8.572-4.851,20.215,1.7,28.3,7.156,8.837,19.021,12.073,29.854,13.248a88.246,88.246,0,0,0,37.679-4.154,51.346,51.346,0,0,0,8.56-3.695,78.08,78.08,0,0,0,7.712-5.253,56.7,56.7,0,0,1,15.108-8.043c23.1-7.876,47.644-.986,69.01,8.778,2.837,1.3,5.647,2.647,8.443,4.027,2.453,1.211,4.616-2.466,2.153-3.682-21.485-10.607-44.924-19.539-69.287-15.973a64.264,64.264,0,0,0-16.126,4.553c-5.429,2.337-10.023,5.705-14.811,9.105-10.11,7.178-23.243,9.972-35.467,10.492-11.256.479-23.914-.675-33.62-6.911-7.895-5.072-14.039-15.873-9.486-25.129,4.166-8.468,14.56-11.638,23.272-12.6,11.435-1.262,23.752-.546,33.812-7.08,7.942-5.157,11.83-13.586,12.174-22.888.229-6.191-.5-12.493-.883-18.67-.4-6.357-.82-12.713-1.153-19.074q-.232-4.43-.388-8.864c-.093-2.737-4.358-2.75-4.265,0" transform="translate(-310.92 -596.328)" fill="#acab58"/><path d="M500.34,820.3c.436,12.833,1.465,25.637,2.166,38.456.282,5.159.612,10.293-.848,15.318a21.324,21.324,0,0,1-6.751,10.419c-8.906,7.541-21.462,6.925-32.379,7.966-9.428.9-20.039,3.528-26.18,11.349-6.731,8.572-4.851,20.215,1.7,28.3,7.155,8.837,19.021,12.073,29.854,13.248a88.246,88.246,0,0,0,37.679-4.154,51.359,51.359,0,0,0,8.56-3.695,78.087,78.087,0,0,0,7.712-5.253,56.694,56.694,0,0,1,15.108-8.043c23.1-7.876,47.644-.986,69.01,8.778,2.837,1.3,5.647,2.647,8.443,4.027,2.453,1.211,4.616-2.466,2.153-3.682-21.485-10.607-44.924-19.539-69.287-15.973a64.264,64.264,0,0,0-16.126,4.553c-5.429,2.337-10.023,5.705-14.811,9.105-10.11,7.178-23.243,9.972-35.467,10.492-11.256.479-23.914-.675-33.62-6.911-7.895-5.072-14.039-15.873-9.486-25.129,4.166-8.468,14.56-11.638,23.272-12.6,11.435-1.262,23.752-.546,33.812-7.08,7.942-5.157,11.83-13.586,12.174-22.888.229-6.191-.5-12.493-.883-18.67-.4-6.357-.82-12.713-1.153-19.074q-.232-4.43-.388-8.864c-.093-2.737-4.358-2.75-4.265,0" transform="translate(-314.932 -596.328)" fill="#d6d944"/><path d="M668.806,853.58h0a10.748,10.748,0,0,1-10.748-10.748V836.09a10.748,10.748,0,1,1,21.5,0v6.743a10.748,10.748,0,0,1-10.748,10.748" transform="translate(-479.589 -601.505)" fill="#acab58"/><path d="M486.791,143.885v104.9a11.283,11.283,0,0,1-7.97,10.75,11.1,11.1,0,0,1-3.27.489,11.273,11.273,0,0,1-11.239-11.239v-104.9a11.273,11.273,0,0,1,11.239-11.239,11.1,11.1,0,0,1,3.27.489,11.287,11.287,0,0,1,7.97,10.75" transform="translate(-338.388 -96.672)" fill="#b8d5dc"/><path d="M504.364,145.2V250.1a11.283,11.283,0,0,1-7.97,10.75,11.283,11.283,0,0,1-7.969-10.75V145.2a11.283,11.283,0,0,1,7.969-10.75,11.287,11.287,0,0,1,7.97,10.75" transform="translate(-355.961 -97.986)" fill="#fff"/><path d="M842.84,143.885v104.9a11.283,11.283,0,0,1-7.97,10.75,11.1,11.1,0,0,1-3.27.489,11.273,11.273,0,0,1-11.239-11.239v-104.9A11.273,11.273,0,0,1,831.6,132.646a11.1,11.1,0,0,1,3.27.489,11.287,11.287,0,0,1,7.97,10.75" transform="translate(-597.874 -96.672)" fill="#b8d5dc"/><path d="M860.413,145.2V250.1a8.329,8.329,0,1,1-15.939,0V145.2a8.082,8.082,0,1,1,15.939,0" transform="translate(-615.448 -97.986)" fill="#fff"/><path d="M502.243,516.181H373.354a14.5,14.5,0,0,1-14.5-14.5V395.262a14.5,14.5,0,0,1,14.5-14.5H502.243a14.5,14.5,0,0,1,14.5,14.5V501.683a14.5,14.5,0,0,1-14.5,14.5" transform="translate(-261.532 -277.499)" fill="#25ffff"/><path d="M570.211,516.181H450.824a14.008,14.008,0,0,1-14.008-14.009v-107.4a14.008,14.008,0,0,1,14.008-14.009H570.211a14.009,14.009,0,0,1,14.009,14.009v107.4a14.009,14.009,0,0,1-14.009,14.009" transform="translate(-318.349 -277.499)" fill="#25ffff"/><path d="M623.061,577.225l20.262-29.917H620.69l28.573-45.566h18.764l-23.669,35.9h23.669Z" transform="translate(-452.355 -365.667)" fill="#acab58"/><path d="M612.241,577.225l16.235-29.917H605.844l28.573-45.566h18.764l-23.669,35.9h23.669Z" transform="translate(-441.536 -365.667)" fill="#fff"/><path d="M1595.122,1047.133c-.182,1.075-.074,3.324-.236,4.4-.07.468-.2,2.07.242,2.249.385.155,1.073-1.009,1.334-1.612,1.619,3.7,5.029,7.943,2.125.4l.01,0c.3.631,2.324,5.325,3.174,4.643.623-.5-1.156-4.317-1.634-5.359l.025-.015c.57,1.023,2.133,4.2,2.752,3.752.815-.586-1.324-4.619-1.324-4.619s1.7,3.386,2.3,2.369c.342-.574-.723-2.548-1.4-3.768h0c-.142-.256-.268-.479-.36-.649a2.072,2.072,0,0,0-.244-.358,18.486,18.486,0,0,0-2.358-3.058,2.36,2.36,0,0,0-2.8-.752,3.4,3.4,0,0,0-1.612,2.371" transform="translate(-1162.29 -761.267)" fill="#ffb27d"/><path d="M1321.842,854.269c-.117-1.084-.831-3.212-.969-4.295-.06-.469-.37-2.045-.844-2.089-.412-.038-.757,1.278-.843,1.93-2.56-3.085-6.988-6.178-2.151.223l-.008.006c-.456-.52-3.679-4.443-4.31-3.544-.462.658,2.283,3.811,3.025,4.673l-.02.021c-.825-.818-3.189-3.415-3.663-2.81-.624.8,2.526,4.053,2.526,4.053s-2.55-2.763-2.855-1.612c-.172.649,1.387,2.237,2.371,3.214h0c.207.2.388.383.522.519a2.02,2.02,0,0,0,.331.274,18.054,18.054,0,0,0,3.1,2.257,2.345,2.345,0,0,0,2.89-.082,3.461,3.461,0,0,0,.9-2.739" transform="translate(-955.971 -616.774)" fill="#ffb27d"/><path d="M1462.37,1289.484s.089,2.473-1.6,3.267-6.652,1.7-4.683,3.186c1.13.851,6.151-.022,7.579-.1s2.806.446,3.81-.538c1.1-1.083-.375-6.079-.375-6.079a5.836,5.836,0,0,1-2.3.725,4.681,4.681,0,0,1-2.431-.458" transform="translate(-1060.859 -939.576)" fill="#331832"/><path d="M1572.03,1246.062s3.667,9.74,2.923,11.486-3.862,5.828-1.432,5.583c1.394-.141,4.578-4.233,5.592-5.271s2.384-1.591,2.5-3.012c.124-1.564-4.74-6.551-4.74-6.551s-.471-7.1-1.278-6.316c-1.162,1.134-3.561,4.082-3.561,4.082" transform="translate(-1145.687 -905.104)" fill="#331832"/><path d="M1484.357,844.819s.285-4.264,4.171-3.91,2.5,2.983,3.063,3.827-1.584,2.614-3.472,2.544-3.762-2.461-3.762-2.461" transform="translate(-1081.791 -612.835)" fill="#ef8062"/><path d="M1431.723,1055.836c.7-7.838,16.8,1.234,16.8,1.234s5.635,54.02,2.334,61.507c-.652,1.478-3.314,1.393-4.557,1.224-8.793-1.191-10.367-28.16-12.4-40.044-1.019-5.962-2.6-19.181-2.179-23.921" transform="translate(-1043.38 -767.163)" fill="#2e0877"/><path d="M1461.958,1048.313c-.507,1.917-7.941,3.771-16.736,1.526s-15.646-4.574-15.139-6.491,8.18-2.7,16.975-.452,15.407,3.5,14.9,5.417" transform="translate(-1042.217 -759.061)" fill="#331832"/><path d="M1434.26,928.209a27.818,27.818,0,0,1-4.107-2.463s4.85-7.946,14.629-7.189c1.354.1,7.456,1.323,8.764,1.585,16.794,3.37,8.56,37.767,8.482,38.513a57.272,57.272,0,0,0-31.875-4.964,92.537,92.537,0,0,1,4.107-25.482" transform="translate(-1042.287 -669.403)" fill="#ad84ff"/><path d="M1460.1,1055.584s-14.753-4.975-27.061-4.5a1.1,1.1,0,0,0-1.071.991s-.343,4.409-.268,5.878c.167,3.251,29.35,2.725,29.35,2.725Z" transform="translate(-1043.41 -765.999)" fill="#2e0877"/><path d="M1490.131,890.088a6.513,6.513,0,0,1-5.408,2.1c-3.311-.075-1.692-3.336-1.692-3.336a1.2,1.2,0,0,0,1.353-1.171l.1-.961.051-.477.165-1.523.148-1.367.606-5.608,1.4,5.756.238.978.818,3.374a3.11,3.11,0,0,0,2.206,2.234l.017,0" transform="translate(-1080.536 -639.694)" fill="#ffb27d"/><path d="M1492.2,902.571a3.908,3.908,0,0,1-2.552,1.764l.166-1.523c.962-.162,2.387-.241,2.387-.241" transform="translate(-1085.646 -657.789)" fill="#331832"/><path d="M1506.812,884.286a6.092,6.092,0,0,0-.888,2.69c-.432,2.844-3.9,2.551-4.329,1.49-.053-.131,2.051-4.352,2.051-4.352l1.205-.117Z" transform="translate(-1094.353 -644.253)" fill="#ef8062"/><path d="M1474.774,861.56c1.514-3.271,4.97-4.919,7.72-3.68s3.753,4.9,2.239,8.166-4.97,4.919-7.72,3.68-3.752-4.9-2.239-8.166" transform="translate(-1074.293 -624.918)" fill="#ffb27d"/><path d="M1482.918,855.321c.054.244-2.14,2.938,3.379,6.3s5.17-5.068.922-7.169c-6.135-3.033-8.914.6-8.988,2.326s4.687-1.461,4.687-1.461" transform="translate(-1077.325 -621.872)" fill="#ef8062"/><path d="M1505.334,879.379s1.267,3.51-.713,5.622c0,0,2.064-.837,2.347-1.369a22.431,22.431,0,0,0,.827-2.669Z" transform="translate(-1096.559 -640.887)" fill="#ef8062"/><path d="M1504.412,884.82a1.374,1.374,0,0,1-1.817-.675,1.428,1.428,0,0,1,1.1-1.635,1.374,1.374,0,0,1,1.817.675,1.428,1.428,0,0,1-1.1,1.635" transform="translate(-1095.051 -643.099)" fill="#ffb27d"/><path d="M1493.035,879.666a.122.122,0,0,1-.046-.1.12.12,0,0,1,.129-.113,1.372,1.372,0,0,1,1.321.976.119.119,0,0,1-.076.153.14.14,0,0,1-.158-.076,2.175,2.175,0,0,0-1.1-.811.128.128,0,0,1-.073-.029" transform="translate(-1088.082 -640.941)" fill="#080435"/><path d="M1492.337,884.4a.473.473,0,0,1-.563.33.464.464,0,0,1-.157-.628.473.473,0,0,1,.563-.329.464.464,0,0,1,.157.628" transform="translate(-1087.043 -644.075)" fill="#080435"/><path d="M1477.042,874.739a.125.125,0,0,1-.08-.075.118.118,0,0,1,.073-.153,1.381,1.381,0,0,1,1.595.42.118.118,0,0,1-.01.17.139.139,0,0,1-.175-.012,2.2,2.2,0,0,0-1.324-.35.125.125,0,0,1-.078,0" transform="translate(-1076.395 -637.266)" fill="#080435"/><path d="M1478.661,879.249c0,.288-.172.518-.387.515s-.39-.239-.391-.526.173-.519.387-.515.39.239.391.526" transform="translate(-1077.073 -640.409)" fill="#080435"/><g transform="translate(403.435 237.001)" opacity="0.3"><g clip-path="url(#h)"><path d="M1491.991,876.615c-.2,1.61-1.34,3-2.557,3.106s-2.045-1.115-1.849-2.725,1.34-3,2.557-3.106,2.045,1.115,1.849,2.725" transform="translate(-1487.557 -873.883)" fill="#fff"/></g></g><g transform="translate(398.453 235.666)" opacity="0.3"><g clip-path="url(#i)"><path d="M1473.231,871.663c-.373,1.547-1.555,2.845-2.641,2.9s-1.663-1.154-1.29-2.7,1.555-2.845,2.641-2.9,1.663,1.154,1.29,2.7" transform="translate(-1469.188 -868.96)" fill="#fff"/></g></g><path d="M1491.193,876.07a4.235,4.235,0,0,0,.152-.624c.013-.073.025-.148.033-.221.014-.125.024-.247.027-.37a2.8,2.8,0,0,0-.715-2.081,1.738,1.738,0,0,0-1.41-.523,2.015,2.015,0,0,0-.329.055,3.826,3.826,0,0,0-2.259,2.379,4.193,4.193,0,0,0-.2.883,3.975,3.975,0,0,0-.008.845,2.6,2.6,0,0,0,.7,1.606,1.862,1.862,0,0,0,.528.372,1.812,1.812,0,0,0,.176.07,1.763,1.763,0,0,0,.706.082,2.154,2.154,0,0,0,.757-.207,3.537,3.537,0,0,0,1.542-1.558c.041-.071.078-.146.113-.222a4.4,4.4,0,0,0,.191-.485m-4.258,1.243a2.806,2.806,0,0,1-.245-.916,3.567,3.567,0,0,1,.006-.8,4.219,4.219,0,0,1,.176-.8,3.592,3.592,0,0,1,.135-.359,3.172,3.172,0,0,1,2.047-1.943,1.588,1.588,0,0,1,.247-.038,1.54,1.54,0,0,1,1.243.461,2.191,2.191,0,0,1,.543.984,2.9,2.9,0,0,1,.09.495c0,.01,0,.018,0,.028a.055.055,0,0,1,0,.016,2.153,2.153,0,0,1,.014.27,3.465,3.465,0,0,1-.024.5,3.912,3.912,0,0,1-.1.538c-.029.119-.064.234-.1.348s-.089.238-.139.351v0a3.445,3.445,0,0,1-1.48,1.668,1.991,1.991,0,0,1-.78.234,1.582,1.582,0,0,1-.791-.138,1.557,1.557,0,0,1-.453-.323,1.973,1.973,0,0,1-.385-.558.045.045,0,0,0-.006-.01" transform="translate(-1083.327 -635.687)" fill="#331832"/><path d="M1472.662,871.224c.032-.08.061-.159.088-.241a.7.7,0,0,0-.079.009,4.648,4.648,0,0,1-.539,1.2.008.008,0,0,1,0-.005c.028-.039.054-.078.08-.118,0-.006.009-.014.012-.02.031-.046.062-.1.09-.145.044-.072.088-.146.129-.223s.079-.153.115-.233.067-.151.1-.229m0,0c.032-.08.061-.159.088-.241a.7.7,0,0,0-.079.009,4.648,4.648,0,0,1-.539,1.2.008.008,0,0,1,0-.005c.028-.039.054-.078.08-.118,0-.006.009-.014.012-.02.031-.046.062-.1.09-.145.044-.072.088-.146.129-.223s.079-.153.115-.233.067-.151.1-.229m0,0c.032-.08.061-.159.088-.241a.7.7,0,0,0-.079.009,4.648,4.648,0,0,1-.539,1.2.008.008,0,0,1,0-.005c.028-.039.054-.078.08-.118,0-.006.009-.014.012-.02.031-.046.062-.1.09-.145.044-.072.088-.146.129-.223s.079-.153.115-.233.067-.151.1-.229m0,0c.032-.08.061-.159.088-.241a.7.7,0,0,0-.079.009,4.648,4.648,0,0,1-.539,1.2.008.008,0,0,1,0-.005c.028-.039.054-.078.08-.118,0-.006.009-.014.012-.02.031-.046.062-.1.09-.145.044-.072.088-.146.129-.223s.079-.153.115-.233.067-.151.1-.229m0,0c.032-.08.061-.159.088-.241a.7.7,0,0,0-.079.009,4.648,4.648,0,0,1-.539,1.2.008.008,0,0,1,0-.005c.028-.039.054-.078.08-.118,0-.006.009-.014.012-.02.031-.046.062-.1.09-.145.044-.072.088-.146.129-.223s.079-.153.115-.233.067-.151.1-.229m0,0c.032-.08.061-.159.088-.241a.7.7,0,0,0-.079.009,4.648,4.648,0,0,1-.539,1.2.008.008,0,0,1,0-.005c.028-.039.054-.078.08-.118,0-.006.009-.014.012-.02.031-.046.062-.1.09-.145.044-.072.088-.146.129-.223s.079-.153.115-.233.067-.151.1-.229m0,0c.032-.08.061-.159.088-.241a.7.7,0,0,0-.079.009,4.648,4.648,0,0,1-.539,1.2.008.008,0,0,1,0-.005c.028-.039.054-.078.08-.118,0-.006.009-.014.012-.02.031-.046.062-.1.09-.145.044-.072.088-.146.129-.223s.079-.153.115-.233.067-.151.1-.229m0,0c.032-.08.061-.159.088-.241a.7.7,0,0,0-.079.009,4.648,4.648,0,0,1-.539,1.2.008.008,0,0,1,0-.005c.028-.039.054-.078.08-.118,0-.006.009-.014.012-.02.031-.046.062-.1.09-.145.044-.072.088-.146.129-.223s.079-.153.115-.233.067-.151.1-.229m.225-.246c.035-.12.064-.244.088-.367.013-.066.023-.133.034-.2a2.986,2.986,0,0,0-.58-2.5,1.5,1.5,0,0,0-.4-.292,1.327,1.327,0,0,0-.372-.12,1.385,1.385,0,0,0-.286-.015h0c-.023,0-.05,0-.074,0-1.165.1-2.316,1.557-2.562,3.245a2.987,2.987,0,0,0,.581,2.5,1.416,1.416,0,0,0,.438.311,1.355,1.355,0,0,0,.607.117h.008c.026,0,.052,0,.079,0a2.121,2.121,0,0,0,1.218-.59v0h0a4.119,4.119,0,0,0,.943-1.322,4.531,4.531,0,0,0,.276-.764m-.787,1.266a3.278,3.278,0,0,1-.79.85,1.784,1.784,0,0,1-.755.34s0,0-.006,0a0,0,0,0,1,0,0,.071.071,0,0,1-.028,0,.625.625,0,0,1-.1.014.816.816,0,0,1-.113,0,1.148,1.148,0,0,1-.848-.365,2.768,2.768,0,0,1-.532-2.287s0-.005,0-.007a.08.08,0,0,0,0-.009l0,0,0-.021c.235-1.6,1.3-2.984,2.382-3.078a1.21,1.21,0,0,1,.2,0,1.1,1.1,0,0,1,.383.1,1.231,1.231,0,0,1,.374.265.264.264,0,0,1,.025.029,2.059,2.059,0,0,1,.469.951,3.724,3.724,0,0,1,.032,1.349c-.012.076-.024.153-.039.228-.026.13-.058.259-.094.387a4.648,4.648,0,0,1-.539,1.2.446.446,0,0,0-.032.047m.562-1.02c.032-.08.061-.159.088-.241a.7.7,0,0,0-.079.009,4.648,4.648,0,0,1-.539,1.2.008.008,0,0,1,0-.005c.028-.039.054-.078.08-.118,0-.006.009-.014.012-.02.031-.046.062-.1.09-.145.044-.072.088-.146.129-.223s.079-.153.115-.233.067-.151.1-.229m0,0c.032-.08.061-.159.088-.241a.7.7,0,0,0-.079.009,4.648,4.648,0,0,1-.539,1.2.008.008,0,0,1,0-.005c.028-.039.054-.078.08-.118,0-.006.009-.014.012-.02.031-.046.062-.1.09-.145.044-.072.088-.146.129-.223s.079-.153.115-.233.067-.151.1-.229m0,0c.032-.08.061-.159.088-.241a.7.7,0,0,0-.079.009,4.648,4.648,0,0,1-.539,1.2.008.008,0,0,1,0-.005c.028-.039.054-.078.08-.118,0-.006.009-.014.012-.02.031-.046.062-.1.09-.145.044-.072.088-.146.129-.223s.079-.153.115-.233.067-.151.1-.229m0,0c.032-.08.061-.159.088-.241a.7.7,0,0,0-.079.009,4.648,4.648,0,0,1-.539,1.2.008.008,0,0,1,0-.005c.028-.039.054-.078.08-.118,0-.006.009-.014.012-.02.031-.046.062-.1.09-.145.044-.072.088-.146.129-.223s.079-.153.115-.233.067-.151.1-.229m0,0c.032-.08.061-.159.088-.241a.7.7,0,0,0-.079.009,4.648,4.648,0,0,1-.539,1.2.008.008,0,0,1,0-.005c.028-.039.054-.078.08-.118,0-.006.009-.014.012-.02.031-.046.062-.1.09-.145.044-.072.088-.146.129-.223s.079-.153.115-.233.067-.151.1-.229m0,0c.032-.08.061-.159.088-.241a.7.7,0,0,0-.079.009,4.648,4.648,0,0,1-.539,1.2.008.008,0,0,1,0-.005c.028-.039.054-.078.08-.118,0-.006.009-.014.012-.02.031-.046.062-.1.09-.145.044-.072.088-.146.129-.223s.079-.153.115-.233.067-.151.1-.229m0,0c.032-.08.061-.159.088-.241a.7.7,0,0,0-.079.009,4.648,4.648,0,0,1-.539,1.2.008.008,0,0,1,0-.005c.028-.039.054-.078.08-.118,0-.006.009-.014.012-.02.031-.046.062-.1.09-.145.044-.072.088-.146.129-.223s.079-.153.115-.233.067-.151.1-.229" transform="translate(-1070.369 -632.218)" fill="#331832"/><path d="M1482.563,879.368a.193.193,0,0,1-.108-.127.183.183,0,0,1,.14-.224,2.165,2.165,0,0,1,1.671.462.184.184,0,0,1,.038.262.2.2,0,0,1-.269.033,1.78,1.78,0,0,0-1.347-.393.2.2,0,0,1-.125-.013" transform="translate(-1080.4 -640.604)" fill="#331832"/><path d="M1514.6,857.874s2.251-3.638,5.577-1.609,1.716,3.626.963,4.732a3.689,3.689,0,0,1-4.31.712c-1.663-.9-2.229-3.834-2.229-3.834" transform="translate(-1103.835 -623.593)" fill="#ef8062"/><path d="M1503.386,905.848a.117.117,0,0,1-.1-.054,5.219,5.219,0,0,0-2.142-1.705.117.117,0,0,1-.062-.153.111.111,0,0,1,.154-.064,5.36,5.36,0,0,1,2.248,1.794.118.118,0,0,1-.034.162.124.124,0,0,1-.065.019" transform="translate(-1093.974 -658.73)" fill="#ef8062"/><path d="M1481.445,893.431a1.88,1.88,0,0,1-1.764-.786.066.066,0,0,1,.03-.086.069.069,0,0,1,.084.029c.441.922,2.123.7,2.135.687a.075.075,0,0,1,.072.054.066.066,0,0,1-.052.073,4.236,4.236,0,0,1-.5.028" transform="translate(-1078.379 -650.49)" fill="#020202"/><path d="M1477.763,918.27s-1.45,3.187,1.693,3.337c0,0-1.688,1.562-2.829.894s-.021-1.214-.5-1.653-1.016-.761-.513-1.249.032-1.377.032-1.377a4.611,4.611,0,0,1,2.122.048" transform="translate(-1075.268 -669.115)" fill="#daebe8"/><path d="M1476.715,946.763a.495.495,0,1,0-.505.467.487.487,0,0,0,.505-.467" transform="translate(-1075.501 -689.639)" fill="#daebe8"/><path d="M1467.778,1003.181a.495.495,0,1,0-.505.467.486.486,0,0,0,.505-.467" transform="translate(-1068.988 -730.757)" fill="#daebe8"/><path d="M1468.362,977.539a.495.495,0,1,0-.505.467.486.486,0,0,0,.505-.467" transform="translate(-1069.413 -712.069)" fill="#daebe8"/><path d="M1361.909,897.352s-2,7.356-2.229,19.5l12.417-32.355a66.092,66.092,0,0,1-16.669-2.006c-5.669-1.411-15.78-9.978-16.839-10.592-1.143-.663-5.217,4.239-5.217,4.239-.91,1.6,13.371,17.59,28.537,21.216" transform="translate(-971.724 -635.389)" fill="#ad84ff"/><path d="M1510.918,925.01s10.823.246,25.854,31.627a1.9,1.9,0,0,1-.793,2.486l-3.493,1.862a3.265,3.265,0,0,1-4.292-1.137c-3.169-4.9-10.42-15.364-16.355-18.46-7.835-4.087-.921-16.378-.921-16.378" transform="translate(-1099.095 -674.143)" fill="#ad84ff"/><path d="M1495.45,923.265l2.228.473a1.125,1.125,0,0,1-.733,1.466c-1.1.332-1.324.327-1.693,1.139s-1.736.817-2.209.521-1.339.755-2.117.737-1.207-1.362-.884-2.24a14.507,14.507,0,0,0,5.408-2.1" transform="translate(-1085.855 -672.871)" fill="#daebe8"/><path d="M1539.01,998.039a.077.077,0,0,1-.07-.044c-1.656-3.614-5.831-6.569-5.874-6.6a.078.078,0,0,1,.089-.127c.042.032,4.25,3.009,5.925,6.661a.078.078,0,0,1-.038.1.105.105,0,0,1-.032.006" transform="translate(-1117.267 -722.423)" fill="#331832"/><path d="M1438.5,959.174a.049.049,0,0,1-.022,0,.075.075,0,0,1-.051-.1l.766-2.465a.086.086,0,0,1,.1-.051.075.075,0,0,1,.051.1l-.767,2.466a.076.076,0,0,1-.073.054" transform="translate(-1048.317 -697.134)" fill="#331832"/><path d="M1465.375,1066.553s9.527,42.281,26.271,57.4a5.22,5.22,0,0,0,5.889.771l3.065-1.562a4.376,4.376,0,0,0,1.884-5.82c-4.337-8.8-14.626-31.081-17.833-50.46Z" transform="translate(-1067.957 -777.299)" fill="#2e0877"/><path d="M1470.614,1113.941c-.043-.114-4.29-11.331-5.712-17.677a12.758,12.758,0,0,0-6.417-8.6l.087-.2a13,13,0,0,1,6.537,8.757c1.42,6.327,5.662,17.534,5.705,17.645Z" transform="translate(-1062.936 -792.537)" fill="#331832"/><path d="M643.21,187.457a7.833,7.833,0,0,0-8.213-3.48c-5.848.888-9.893,7.312-14.437,3.456s-9.34-3.685-12.134-.179.757,7.814-6.544,6.592-7.52,5.224-2.256,11.48,20.569,9.313,27.333,6.233,14.43-7.344,17.051-10.35,3.659-11.1-.8-13.753" transform="translate(-434.358 -133.995)" fill="#331832"/><path d="M684.753,185.026c-.01-.05-1.1-5.025-5.618-5.172-3.137-.1-5.82,1.474-8.175,2.866-2.26,1.335-4.212,2.488-5.819,1.515-4.007-2.427-6.923-3.37-10.85-1.4l-.142-.283c4.459-2.231,7.821-.6,11.156,1.416,1.444.875,3.232-.181,5.494-1.517,2.392-1.413,5.1-3.018,8.347-2.91,4.771.156,5.907,5.372,5.918,5.425Z" transform="translate(-476.74 -130.843)" fill="#331832"/><path d="M675.009,204.929c-1.828,0-3.951-.932-6.146-2.764a.055.055,0,0,1-.006-.076.062.062,0,0,1,.073-.006c3.758,3.136,7.291,3.607,9.458,1.263,2.318-2.516,5.643-3.5,8.283-2.434a4.13,4.13,0,0,0,4.493-.77.053.053,0,0,1,.075,0,.051.051,0,0,1,0,.073,4.16,4.16,0,0,1-2.865,1.152,4.608,4.608,0,0,1-1.743-.356c-2.607-1.05-5.882-.073-8.169,2.408a4.548,4.548,0,0,1-3.456,1.514" transform="translate(-487.45 -145.851)" fill="#331832"/><path d="M634.976,211.847a41.788,41.788,0,0,1-5.913-11.241l5.652-1.019c3.1,8.009,12.078,14.085,19.852,13.257l6.316,9.006c-4.477,1.678-18.57-.85-25.906-10" transform="translate(-458.457 -145.459)" fill="#ffb27d"/><path d="M628.807,181.821c.219-.911.241-2.847.442-3.764.087-.4.287-1.764-.1-1.943-.334-.155-1.008.806-1.27,1.308-1.245-3.264-4.054-7.1-1.869-.466l-.009,0c-.231-.557-1.786-4.7-2.578-4.161-.58.394.8,3.768,1.17,4.688l-.023.011c-.453-.909-1.676-3.72-2.25-3.372-.756.457.934,4.036.934,4.036s-1.33-3-1.923-2.161c-.334.473.509,2.226,1.049,3.311h0c.113.227.213.426.286.577a1.8,1.8,0,0,0,.2.321,16.025,16.025,0,0,0,1.935,2.755,2.145,2.145,0,0,0,2.446.8,2.913,2.913,0,0,0,1.558-1.944" transform="translate(-452.77 -125.9)" fill="#ffb27d"/><path d="M632.782,506.931s.13,4.915-.57,6.3-3.494,4.491-1.445,4.519c1.176.016,4.025-3.092,4.921-3.861s2.17-1.09,2.225-2.273c.026-.562-.926-1.353-1.291-2.339a16.855,16.855,0,0,1-.817-3.6s-1.482-1.661-2.193-1.082a2.805,2.805,0,0,0-.83,2.34" transform="translate(-459.162 -367.655)" fill="#331832"/><path d="M712.735,350.908c-.537,1.8-7.41,1.341-15.351-1.027s-13.944-5.747-13.406-7.548,7.41-1.341,15.351,1.027,13.943,5.747,13.406,7.548" transform="translate(-498.454 -248.69)" fill="#331832"/><path d="M515.347,419.965s-4.544,1.663-6.034,1.432-5.181-1.907-4.624.045c.32,1.12,4.029,2.849,5,3.458s1.634,1.717,2.753,1.4c.531-.151,1-1.3,1.812-1.957a16.793,16.793,0,0,1,3.126-1.9s1.125-1.926.384-2.419a2.679,2.679,0,0,0-2.417-.055" transform="translate(-367.773 -305.868)" fill="#331832"/><path d="M708.028,255.586s-1.768-6.05-9.326-6.252c-3.572-.1-6.941-.24-9.078,5.88-1.919,5.5-3.025,8.117-5.558,20.124a37.851,37.851,0,0,1,28.758,8.575c1.669-5.666,1.567-18.37.431-27.06-.355-2.715-4.611.674-5.227-1.267" transform="translate(-498.544 -181.695)" fill="#ef8062"/><path d="M726.666,250.736l-1.727,7.016s-21.917,2.732-23.7-.5c-2.66-4.814-1.243-11.036-1.243-11.036a92.278,92.278,0,0,0,9.564.184c2.935-.166,3.714-.5,7.132.542,7.851,2.4,9.977,3.793,9.977,3.793" transform="translate(-509.876 -179.441)" fill="#ef8062"/><path d="M780.339,262.085c.553.807-.222,3.64-1.9,5.605-1.747,2.052-3.489,3.575-4.62,2.851-1.593-1.02.543-4.9,2.255-6.656,2.234-2.287,3.867-2.376,4.261-1.8" transform="translate(-563.549 -190.79)" fill="#331832"/><path d="M735.269,224.925c-.992-.486-.062-2.561-.062-2.561.861-.079,1.424-.186,1.57-.839l.177-.8.087-.4.282-1.27.252-1.141,1.034-4.68.6,4.993.1.848s.121,3.1,2,3.559c.067-.034-3.886,3.348-6.043,2.291" transform="translate(-535.526 -155.405)" fill="#ffb27d"/><path d="M745.3,234.673a3.241,3.241,0,0,1-2.268,1.25l.281-1.27c.806-.046,1.987.02,1.987.02" transform="translate(-541.516 -171.003)" fill="#f09962"/><path d="M758.628,216.168a5.308,5.308,0,0,0-.427,2.37c-.035,2.445-2.912,2.611-3.385,1.769-.058-.1,1.2-3.906,1.2-3.906l.976-.242Z" transform="translate(-550.104 -157.536)" fill="#331832"/><path d="M730.481,199.717c.875-2.933,3.527-4.731,5.922-4.016s3.628,3.672,2.753,6.6-3.526,4.731-5.922,4.016-3.628-3.672-2.753-6.6" transform="translate(-532.165 -142.512)" fill="#ffb27d"/><path d="M745.5,214.893a.1.1,0,0,1,.044-.189,1.121,1.121,0,0,1,1.193.664.1.1,0,0,1-.045.137.114.114,0,0,1-.139-.045,1.773,1.773,0,0,0-.99-.552.1.1,0,0,1-.064-.015" transform="translate(-543.278 -156.468)" fill="#080435"/><path d="M746.579,219.022c-.062.236-.252.39-.425.344a.4.4,0,0,1-.2-.51c.062-.236.253-.39.425-.344a.4.4,0,0,1,.2.509" transform="translate(-543.633 -159.245)" fill="#080435"/><path d="M731.85,212.5a.1.1,0,0,1-.075-.054.1.1,0,0,1,.043-.138,1.12,1.12,0,0,1,1.355.163.1.1,0,0,1,.011.144.113.113,0,0,1-.145.011,1.776,1.776,0,0,0-1.126-.137.1.1,0,0,1-.064.01" transform="translate(-533.305 -154.615)" fill="#080435"/><path d="M735.065,215.938c.033.242-.083.457-.26.48s-.346-.154-.379-.4.083-.456.26-.479.346.154.379.4" transform="translate(-535.241 -157.085)" fill="#080435"/><path d="M735.485,225.022a1.611,1.611,0,0,0,.987,1.28,1.383,1.383,0,0,0,1.58-.709,5.84,5.84,0,0,1-2.567-.571" transform="translate(-536.017 -163.996)" fill="#fff"/><path d="M648.185,354.528s-17.123,10.39-20.432,17.946-3.576,22.6-.262,24.579,6.62,2.1,8.448-4.5,2-15.528,8.093-18.018,23.6-11.156,21.443-14.972-14.657-6.711-17.29-5.031" transform="translate(-455.595 -258.023)" fill="#73b3ce"/><path d="M579.935,347.051s-19.057,2.957-24.27,6-15.472,10.08-15.273,13.521,3.626,5.246,6.652,4.656,15.17-8.293,19.5-9.33a180.6,180.6,0,0,1,24.569-3.7l2.52-8.7a37.437,37.437,0,0,0-13.692-2.449" transform="translate(-393.832 -252.928)" fill="#73b3ce"/><path d="M650.922,379.47l-.153-.146c1.974-2.1,9.462-7.787,9.538-7.844l.127.165c-.075.057-7.55,5.739-9.513,7.825" transform="translate(-474.277 -270.733)" fill="#331832"/><path d="M732.614,194.212a2.539,2.539,0,0,1-2.942,1.752,4.964,4.964,0,0,0-4.068,2.03l1.236-6.361,5.82-.462,3.242,1.438.439,5.531-.5,2.5-.529-2.112s-1.128-3.865-2.7-4.314" transform="translate(-528.816 -139.325)" fill="#331832"/><path d="M758.084,218.675a1.118,1.118,0,0,1-1.566-.351,1.228,1.228,0,0,1,.716-1.506,1.118,1.118,0,0,1,1.566.351,1.228,1.228,0,0,1-.716,1.506" transform="translate(-551.29 -157.896)" fill="#ffb27d"/><path d="M791.248,286.4a41.787,41.787,0,0,1-3.222,12.286l-4.858-3.062c2.956-7.588.2-18.79-5.463-23.881a1.637,1.637,0,0,1-.253-1.88c1.12-3.03,4.6-6.489,6.053-4.686,3.849,4.762,8.254,13.392,7.744,21.223" transform="translate(-566.475 -192.9)" fill="#ffb27d"/><path d="M792.98,373.026c-.776.525-2.1,1.938-2.866,2.48-.333.235-1.4,1.108-1.239,1.5.143.34,1.287.085,1.82-.108-1.284,3.249-1.8,7.972,1.065,1.6l.008,0c-.206.567-1.852,4.672-.906,4.81.693.1,1.952-3.321,2.3-4.25l.025.008c-.28.977-1.274,3.876-.615,4.007.866.173,2.034-3.609,2.034-3.609s-1.043,3.112-.04,2.892c.565-.123,1.127-1.986,1.46-3.151h0c.07-.244.13-.458.178-.619a1.793,1.793,0,0,0,.071-.37,16.041,16.041,0,0,0,.431-3.339,2.145,2.145,0,0,0-1.265-2.242,2.914,2.914,0,0,0-2.461.383" transform="translate(-574.915 -271.474)" fill="#ffb27d"/><g transform="translate(233.465 143.664)" opacity="0.6"><g clip-path="url(#j)"><path d="M944.3,529.775c-44.118-1.657-81.716,38.408-83.4,76.375-1.057,23.863,12.327,41.216,33.368,51.229,28.584,14.867,27.341,43.251,27.341,43.251l38.494,1.446c1.142-25.787,27.454-42.51,30.818-44.545,16.077-9.418,26.9-26.634,30.214-56.009,4.261-37.78-32.72-70.089-76.838-71.747" transform="translate(-860.84 -529.726)" fill="#fff"/></g></g><path d="M1105,1121s5.416,8.211-.5,15.76c-1.652,2.11-6.053,3.233-11.609,3.659-14.324,1.109-36.311-2.405-38.517-5.541-3.062-4.356-1.217-9.229,2.314-10.275,0,0-4.737-4.026-3.233-8.757s4.1-5.575,4.1-5.575-3.625-2.255-3.688-8.615c-.026-2.516,1.137-5.271,4.833-7.279,5.644-3.068,17.2-4.39,39.436-.443,0,0,10.037,1.874,7.1,13.067,0,0,6.8,7.907-.242,14" transform="translate(-767.295 -795.469)" fill="#d6d944"/><g transform="translate(257.993 160.892)" opacity="0.9"><g clip-path="url(#k)"><path d="M1003.532,611.563s-18.3,4.373-29.375,18.621-25.666,3.572-22.411-11.538,22.468-27.716,33.582-25.033,28.243,8.267,18.2,17.95" transform="translate(-951.283 -593.25)" fill="#fff"/></g></g><path d="M1158.491,1190.975a.7.7,0,0,1-.328-.047,47.38,47.38,0,0,0-9.415-2.353,51.584,51.584,0,0,0-21.723,1.19.7.7,0,1,1-.386-1.349A53,53,0,0,1,1149,1187.2a47.723,47.723,0,0,1,9.682,2.431.7.7,0,0,1-.194,1.349" transform="translate(-820.717 -864.743)" fill="#acab58"/><path d="M1152.913,1139.432a.7.7,0,0,1-.261-.024,90.279,90.279,0,0,0-11.787-2.326c-6.115-.8-14.86-1.266-21.8,1.04a.7.7,0,1,1-.442-1.331c7.194-2.392,16.175-1.917,22.442-1.1a91.8,91.8,0,0,1,11.97,2.365.7.7,0,0,1-.125,1.372" transform="translate(-814.898 -827.202)" fill="#acab58"/><path d="M1092.9,1148.187c-14.324,1.109-36.311-2.405-38.517-5.542-3.062-4.356-1.217-9.229,2.314-10.275,0,0-4.737-4.026-3.233-8.757s4.1-5.576,4.1-5.576-3.625-2.255-3.688-8.615c-.025-2.516,1.137-5.271,4.833-7.279l.009,0s-4.814,12.311,6.559,16.1a1.464,1.464,0,0,1,.381,2.462c-1.421,1.518.285,9.857,3.884,11.563s-.853,8.245,3.7,11.563c3.5,2.55,14.688,3.878,19.661,4.353" transform="translate(-767.295 -803.235)" fill="#acab58"/><path d="M1045.827,715.78c-7.873-10.9-3.98-34.341,27.854-46.654,28.066-10.855,37.1-24.277,37.1-24.277s10.589,33.322-4.593,59.051c-18.529,31.4-50.175,25.978-60.364,11.879" transform="translate(-759.648 -469.963)" fill="#d6d944"/><path d="M1059.355,736.428a1.148,1.148,0,0,1-1.125-.926c-.054-.277-5.042-27.815,29.219-48.9,27.877-17.161,33.529-44.792,33.583-45.068a1.149,1.149,0,0,1,2.255.436c-.056.289-5.869,28.88-34.637,46.586-32.917,20.26-28.22,46.239-28.169,46.5a1.147,1.147,0,0,1-.9,1.349,1.074,1.074,0,0,1-.224.022" transform="translate(-771.026 -466.868)" fill="#acab58"/><path d="M1106.788,798.088a1.15,1.15,0,0,1-1.1-.817c-3.58-11.856-.1-20.123.044-20.467a1.148,1.148,0,0,1,2.109.91c-.033.076-3.278,7.886.044,18.9a1.149,1.149,0,0,1-.766,1.431,1.212,1.212,0,0,1-.333.048" transform="translate(-804.644 -565.629)" fill="#acab58"/><path d="M1181.032,797.616c-3.286,0-5.56-.149-5.815-.169a1.147,1.147,0,0,1-1.065-1.224,1.127,1.127,0,0,1,1.225-1.066c.168.006,17.4,1.145,27.082-3.022a1.149,1.149,0,0,1,.906,2.112c-6.629,2.85-16.226,3.369-22.332,3.369" transform="translate(-855.713 -577.235)" fill="#acab58"/><path d="M927.457,935.937a7.85,7.85,0,0,1-3.161-1.121c-3.209-1.972-5.362-6.139-6.979-13.511a35.953,35.953,0,0,0-2.943-7.527l7.233-3.88a43.941,43.941,0,0,1,3.727,9.647c.562,2.561.861-13.6,2.245-15.132.848-.937,4.267.6,4.267.6a81.69,81.69,0,0,1,2.712,12.823,62.95,62.95,0,0,1,.6,9.543,15.688,15.688,0,0,1-.623,4.195,5.754,5.754,0,0,1-4.017,4.143,8.179,8.179,0,0,1-3.061.215" transform="translate(-666.391 -658.912)" fill="#ffb27d"/><path d="M962.328,1014.266c-.889,0-1.586-.344-1.587-.786a.507.507,0,0,1,.164-.359,2.135,2.135,0,0,1,1.432-.433h.013c.889,0,1.586.344,1.587.786s-.7.792-1.6.792Zm.008-1.361a1.941,1.941,0,0,0-1.28.369.3.3,0,0,0-.1.207c0,.27.565.569,1.374.569h.013c.814,0,1.382-.3,1.382-.576s-.565-.57-1.374-.57Z" transform="translate(-700.182 -738.042)" fill="#e9845c"/><path d="M951.2,969.407a.11.11,0,0,1-.107-.1,16.884,16.884,0,0,1,1.121-8.093.1.1,0,0,1,.143-.051.107.107,0,0,1,.051.14,16.648,16.648,0,0,0-1.1,7.978.107.107,0,0,1-.094.118s-.008,0-.013,0" transform="translate(-693.089 -700.483)" fill="#e9845c"/><path d="M966.723,901.923s4.4.374,6.116-1.341,2.622-5.206,1.33-4.369a16.011,16.011,0,0,0-2.648,2.361s2.744-3.394,1.672-3.692-3.429,2.677-3.429,2.677,2.943-4.3,1.839-4.252-3.316,3.328-3.316,3.328,2.578-4.109,1.3-4.025-2.108,3.41-3.18,3.112-5.234-1.321-5.234,1.684Z" transform="translate(-700.495 -650.529)" fill="#ffb27d"/><path d="M993.953,915.583a.087.087,0,0,1-.089-.083.088.088,0,0,1,.083-.1c.7-.044,1.318-1.075,1.323-1.084a.087.087,0,0,1,.124-.032.09.09,0,0,1,.032.121c-.027.048-.668,1.123-1.467,1.174Z" transform="translate(-724.323 -666.319)" fill="#e9845c"/><path d="M986.474,912.064a.089.089,0,0,1-.024-.175,3.03,3.03,0,0,0,1.611-1.307.09.09,0,1,1,.156.089,3.147,3.147,0,0,1-1.719,1.39.059.059,0,0,1-.024,0" transform="translate(-718.871 -663.595)" fill="#e9845c"/><path d="M981.423,908.569h-.016a.088.088,0,0,1-.087-.092.087.087,0,0,1,.089-.086h.016c.744,0,1.463-1.212,1.47-1.225a.086.086,0,0,1,.122-.032.089.089,0,0,1,.033.121c-.032.054-.779,1.314-1.627,1.314" transform="translate(-715.18 -661.105)" fill="#e9845c"/><path d="M883.657,1293.334s.127,2.451,1.806,3.1,6.5,1.141,4.749,2.767c-1.006.932-5.88.479-7.252.516s-2.643.67-3.688-.221c-1.149-.98-.163-6.036-.163-6.036a5.481,5.481,0,0,0,2.264.528,4.368,4.368,0,0,0,2.284-.651" transform="translate(-640.403 -942.575)" fill="#331832"/><path d="M888.262,1019.031s.629,11.058-2.33,32.384c-2.136,15.4-4.73,30.922-6.007,38.366a5.779,5.779,0,0,1-5.269,4.837l-1.417.1a4.851,4.851,0,0,1-5.1-5.119l2.232-50.19.438-16.511Z" transform="translate(-632.688 -742.665)" fill="#0f58b9"/><path d="M825.71,1294.9s.127,2.451,1.806,3.1,6.5,1.141,4.749,2.766c-1.006.932-5.88.479-7.252.516s-2.643.67-3.687-.221c-1.149-.98-.163-6.036-.163-6.036a5.482,5.482,0,0,0,2.264.528,4.369,4.369,0,0,0,2.284-.651" transform="translate(-598.171 -943.713)" fill="#331832"/><path d="M830.315,1020.594s.629,11.058-2.33,32.384c-2.137,15.4-4.73,30.921-6.007,38.365a5.779,5.779,0,0,1-5.269,4.837l-1.417.095a4.85,4.85,0,0,1-5.1-5.119l2.232-50.19.438-16.511Z" transform="translate(-590.456 -743.804)" fill="#0f58b9"/><path d="M814.517,1056.5c.07,1.334,8.158,1.647,18.136,1.066s17.92-2.177,17.85-3.511-8.126-1.9-18.1-1.321-17.952,2.432-17.882,3.766" transform="translate(-593.615 -767.064)" fill="#331832"/><path d="M813.962,907.495s1.577-7.046,14.6-7.469c18.786-.609,17.511,16.7,19.957,42.891,0,0-18.577-2.118-36,2.117,0,0-2.348-26.735,1.443-37.539" transform="translate(-591.635 -655.923)" fill="#ad84ff"/><path d="M801.94,906.469l8.636,4.479s18.677,1.19,23.6.241,6.183-4.617,6.183-4.617a27.271,27.271,0,0,0-14.408-6.522c-.845-.115-1.72-.193-2.627-.227a25.729,25.729,0,0,0-4.524.212c-11.314,1.585-16.863,6.434-16.863,6.434" transform="translate(-584.449 -655.772)" fill="#ad84ff"/><path d="M860.443,868.513l.9-3.2.261-.932,1.537-5.479.367,5.4.22,3.24.07,1.026c.047.7.476.832,1.009,1.423.216.24,1.6,1.692.094,2.4-1.873.889-5.45-.284-6.842-1.909.01,0,2.1-.939,2.387-1.973" transform="translate(-625.346 -625.964)" fill="#ffb27d"/><path d="M852.078,1060.109s-10.906-2.891-33.2,2.082l-.086,3.228,32.881.275Z" transform="translate(-596.733 -771.993)" fill="#0f58b9"/><path d="M800.754,923.462c-.694,1.04.423,3.028,2.5,4.44s4.314,1.713,5.008.673-.423-3.028-2.495-4.44-4.314-1.713-5.008-.673" transform="translate(-583.434 -672.563)" fill="#331832"/><path d="M775.3,968.938c.551-8.645,1.917-21.53,5.767-31.405a29.564,29.564,0,0,1,1.976-4.4c.571-1.01-.559-3.166-2.276-4.162-1.612-.935-4.077-.708-4.454-.214a26.08,26.08,0,0,0-2.344,4.971c-3.6,8.8-6.25,20.586-6.789,35.1Z" transform="translate(-559.116 -676.557)" fill="#ffb27d"/><path d="M883.488,847.681a7.142,7.142,0,0,1,.6,2.9c0,1.685-2.464-1.949-2.464-1.949Z" transform="translate(-642.52 -617.786)" fill="#5c305d"/><path d="M866.218,848.814c-1.052-3.04-3.948-4.8-6.469-3.924s-3.712,4.044-2.66,7.084,3.948,4.8,6.469,3.924,3.712-4.044,2.66-7.084" transform="translate(-624.363 -615.589)" fill="#ffb27d"/><path d="M845.355,840.708,847.6,840a1.7,1.7,0,0,0,1.083-1c.318-.831.805-1.324,2.958-1.683,2.726-.454,4.181-2.434,4.182-3.909a1.65,1.65,0,0,0-2.8-1.233c-1.217.968-.981-.841-2.325-.752-2.511.167-2.581,2.143-4.593,2.492-2.637.458-6.923,3.415-3.749,7.571Z" transform="translate(-613.082 -605.932)" fill="#331832"/><path d="M872.841,864.263a.1.1,0,0,0,.029-.082.1.1,0,0,0-.108-.085,1.06,1.06,0,0,0-.976.856.1.1,0,0,0,.07.12.107.107,0,0,0,.12-.069,1.678,1.678,0,0,1,.81-.712.1.1,0,0,0,.056-.027" transform="translate(-635.35 -629.748)" fill="#080435"/><path d="M874.922,868.113c.106.208.314.315.465.239a.379.379,0,0,0,.082-.516c-.105-.209-.314-.315-.465-.239a.379.379,0,0,0-.083.516" transform="translate(-637.595 -632.282)" fill="#080435"/><path d="M885.9,860.263a.072.072,0,0,0,.042-.059.118.118,0,0,0-.064-.122.687.687,0,0,0-.955.312.116.116,0,0,0,.025.135.073.073,0,0,0,.109-.008,1.027,1.027,0,0,1,.793-.26.066.066,0,0,0,.049,0" transform="translate(-644.915 -626.762)" fill="#080435"/><path d="M886.067,864.065c.018.233.17.411.339.4s.291-.213.273-.446-.17-.411-.339-.4-.291.213-.273.446" transform="translate(-645.759 -629.401)" fill="#080435"/><path d="M845.374,863.908s2.282,3.088,4.577,2.878c0,0-2.348-2.228,1.149-4.6,0,0-3.623.169-5.726,1.721" transform="translate(-616.104 -628.358)" fill="#5c305d"/><path d="M856.569,868.161a.945.945,0,1,0-.648-1.252,1,1,0,0,0,.648,1.252" transform="translate(-623.75 -631.377)" fill="#ffb27d"/><path d="M862.826,862.843s.282,2.927.977,3.349,4.472-.289,6.125-1.352l.012.006a3.933,3.933,0,0,1-2.174,4.538,5.551,5.551,0,0,1-1.864.381,3.821,3.821,0,0,1-3.39-1.29,11.134,11.134,0,0,1-.221-2.6,2.523,2.523,0,0,0-.973-1.831,3.725,3.725,0,0,1,1.508-1.2" transform="translate(-627.724 -628.836)" fill="#5c305d"/><path d="M880.823,832.276a.72.72,0,0,1-.69-.484l.127-.038a.575.575,0,0,0,.565.388.954.954,0,0,0,.219-.025l.029.127a1.046,1.046,0,0,1-.25.032" transform="translate(-641.436 -606.178)" fill="#331832"/><path d="M881.778,839.13l-.032-.057c.028-.016,2.731-1.457,2.545-2.968a.991.991,0,0,0-.388-.8c-.339-.184-.833.044-1.266.242-.068.032-.134.063-.2.089l-.026-.057c.062-.029.127-.06.194-.089.453-.21.956-.442,1.328-.242a1.054,1.054,0,0,1,.421.856c.191,1.552-2.467,2.971-2.58,3.032" transform="translate(-642.611 -608.665)" fill="#fff"/><path d="M855.44,837.681l0-.064a4.776,4.776,0,0,0,3.927-2.074l.057.032a4.829,4.829,0,0,1-3.981,2.106" transform="translate(-623.438 -608.94)" fill="#fff"/><path d="M784.236,995.6a.745.745,0,0,1-.119-.01.993.993,0,0,1-.661-.41,2.008,2.008,0,0,1-.314-1.457h0a2.148,2.148,0,0,1,.5-1.135,1.052,1.052,0,0,1,.947-.4c.666.089,1.1.929.976,1.87-.122.881-.7,1.543-1.325,1.543m.226-3.1a.812.812,0,0,0-.585.3,1.806,1.806,0,0,0-.415.964h0a1.687,1.687,0,0,0,.253,1.218.7.7,0,0,0,.448.286.6.6,0,0,0,.075,0c.456,0,.907-.553,1.005-1.263.1-.763-.212-1.441-.7-1.508a.626.626,0,0,0-.078,0" transform="translate(-570.733 -723.094)" fill="#ec865c"/><path d="M763.978,1067.017s6.963.208,7.2.712c.548,1.162,1.107,3.7,1.632,4.867.228.508.875,2.269.4,2.561-.414.254-1.595-.9-2.09-1.522-.689,3.6-2.665,8.577-2.422.895h-.013c-.162.766-.971,5.571-2.087,5.421-.849-.114-.23-4.636.023-5.9l-.035-.011c-.369,1.261-.989,5.043-1.955,4.82-.823-.19-.062-5.437-.062-5.437s-1.039,4.276-1.737,3.458c-.641-.751.221-4.783.477-6.006.266-1.27.67-3.859.67-3.859" transform="translate(-555.778 -777.637)" fill="#ffb27d"/><path d="M924.94,927.094a17.086,17.086,0,0,0-2.49-4.352l.169-.133a17.362,17.362,0,0,1,2.524,4.421Z" transform="translate(-672.277 -672.393)" fill="#331832"/><path d="M873.49,1106.057l-.213-.026c.013-.092,1.223-9.155,2.136-12.409.923-3.286,5.165-6.12,5.207-6.149l.118.178c-.042.029-4.218,2.818-5.118,6.028-.908,3.241-2.119,12.288-2.13,12.377" transform="translate(-636.439 -792.545)" fill="#331832"/><path d="M877.515,875.708a6.811,6.811,0,0,0,3.128-.569,1.4,1.4,0,0,1-1.054,1.422,1.68,1.68,0,0,1-2.073-.853" transform="translate(-639.528 -637.797)" fill="#fff"/><g transform="translate(273.969 11.474)" opacity="0.1"><g clip-path="url(#l)"><path d="M1010.186,94.768a52.461,52.461,0,1,1,52.461,52.461,52.461,52.461,0,0,1-52.461-52.461" transform="translate(-1010.187 -42.308)" fill="#ffe690"/></g></g><g transform="translate(289.26 26.922)" opacity="0.4"><g clip-path="url(#m)"><path d="M1066.574,136.443a37.169,37.169,0,1,1,37.169,37.168,37.168,37.168,0,0,1-37.169-37.168" transform="translate(-1066.573 -99.274)" fill="#ffe690"/></g></g><path d="M1107.05,165.942a26.191,26.191,0,1,1,26.191,26.191,26.191,26.191,0,0,1-26.191-26.191" transform="translate(-806.812 -101.851)" fill="#ffc600"/></g></g></g></svg>