<svg xmlns="http://www.w3.org/2000/svg" width="150.28" height="132.889" viewBox="0 0 150.28 132.889"><g transform="translate(-352.965 -53.876)"><path d="M1607.858,578.491l2.767,6.178a21.324,21.324,0,0,1-1.6,20.37l-35.195,53.934a.938.938,0,0,1-1.659-.853l31.031-79.515a2.526,2.526,0,0,1,4.659-.115" transform="translate(-1184.832 -472.643)" fill="#fff"/><path d="M1514.138,446.979l-6.7.992a21.324,21.324,0,0,1-19.176-7.056l-42.4-48.479a.938.938,0,0,1,1.271-1.366l68.149,51.394a2.526,2.526,0,0,1-1.151,4.516" transform="translate(-1092.661 -336.992)" fill="#fff"/><path d="M1689.151,519.39l2.83-6.15a21.324,21.324,0,0,1,16.391-12.2l63.769-9a.938.938,0,0,1,.449,1.811L1692.3,522.822a2.526,2.526,0,0,1-3.153-3.432" transform="translate(-1269.967 -410.714)" fill="#fff"/><path d="M1689.449,571.654a5.5,5.5,0,1,1-7.609-1.635,5.5,5.5,0,0,1,7.609,1.635" transform="translate(-1262.979 -466.914)" fill="#366f90"/></g></svg>