<svg xmlns="http://www.w3.org/2000/svg" width="97.64" height="90.318" viewBox="0 0 97.64 90.318"><g transform="translate(11659.93 12191.163)"><path d="M1838.339,604.141l-1.413-4.278a14.192,14.192,0,0,1,2.445-13.378l26.964-33.319a.624.624,0,0,1,1.041.678l-25.944,50.538a1.681,1.681,0,0,1-3.092-.241" transform="translate(-13443.552 -12744.092)" fill="#fff"/><path d="M1844.553,731.468l4.5-.2a14.192,14.192,0,0,1,12.217,5.974l24.777,34.976a.624.624,0,0,1-.934.818l-41.63-38.654a1.681,1.681,0,0,1,1.069-2.912" transform="translate(-13448.46 -12874.053)" fill="#fff"/><path d="M1699.76,729l-2.291,3.88a14.193,14.193,0,0,1-11.68,6.965l-42.831,1.631a.624.624,0,0,1-.175-1.229l55.123-13.733A1.681,1.681,0,0,1,1699.76,729" transform="translate(-13302.238 -12870.56)" fill="#fff"/><path d="M1834.293,729.289a3.663,3.663,0,1,1,4.927,1.6,3.663,3.663,0,0,1-4.927-1.6" transform="translate(-13441.863 -12868.74)" fill="#366f90"/></g></svg>