<svg xmlns="http://www.w3.org/2000/svg" width="111" height="111" viewBox="0 0 111 111"><g transform="translate(-535 -4205)"><circle cx="55.5" cy="55.5" r="55.5" transform="translate(535 4205)" fill="#fff"/><g transform="translate(545 4215.308)"><circle cx="45" cy="45" r="45" fill="#ff7069"/><path d="M260.539,335.915l9.161-5.526c2.122-1.282,3.257,1.177,1.975,1.891l-7.165,3.95Z" transform="translate(-214.712 -271.976)" fill="#fec982"/><g transform="translate(1.24 53.711)"><path d="M283.356,330.465l9.834-6.051c2.311-1.429,3.53,1.471,2.269,2.206l-6.745,3.95-5.358-.084v-.021Z" transform="translate(-234.755 -320.741)" fill="#ffd190"/><path d="M31.884,317.187l-18.659,4.265a45.254,45.254,0,0,1-6.178-14.2l23.3-1.534c3.74-.525,7.186-.5,8.72.336,2.711,1.513,2.416,4.812,8.615,6.535l8.846,1.534,14.2-3.488c2.606-.462,3.131,2.458,1.408,3.152l-19.079,6.766C50.5,321.453,44.323,319.372,31.884,317.187Z" transform="translate(-7.048 -305.362)" fill="#ffd190"/></g><path d="M196.877,351.209c.967,1.03-.967,1.6-3.719,2.185-1.975.42-4.623.924-5.9,1.24-2.479.084-8.846-1.429-13.322-3.068,2.29-.042,11.872,2.816,13.385,2.521s8.762-2.206,9.245-2.479S196.814,351.377,196.877,351.209Z" transform="translate(-143.338 -289.434)" fill="#f0b97d"/><path d="M20.658,300.558l2.5,18.512-9.1,1.6a44.665,44.665,0,0,1-8.8-18.911Z" transform="translate(-4.332 -247.692)" fill="#6b7f9e"/><path d="M96.181,301.275l2.437,17.356-3.362.441L92.819,301.7Z" transform="translate(-76.493 -248.283)" fill="#fff"/><path d="M86.251,386.3a1.229,1.229,0,1,1-1.387-1.093A1.241,1.241,0,0,1,86.251,386.3Z" transform="translate(-69.063 -317.446)" fill="#8597b1"/><path d="M159.808,305.248c4.644-.735,7.732,2,10.065,5.274l4.223.988s3.95-.862,6.073-.21c2.1.651,2.753,2.353,1.933,2.816s-7.732,1.681-9.245,1.975c-1.534.294-10.149-1.492-13.364-2.5-3.215-.988-5.106-7.186.315-8.363Z" transform="translate(-128.878 -251.458)" fill="#ffd190"/><path d="M366.722,348.92l2.248-.735c.273-.084.042-.8-.315-.8s-2.4.5-2.4.5A1.377,1.377,0,0,1,366.722,348.92Z" transform="translate(-301.837 -286.283)" fill="#fff1df"/><path d="M282.728,349.633l2.858-.63c.231-.042.042-1.156-.5-1.387a10.879,10.879,0,0,0-2.921.273,5.363,5.363,0,0,1,.546,1.723Z" transform="translate(-232.531 -286.429)" fill="#fff"/><path d="M223.174,140.209l6.22-.483a12.981,12.981,0,0,0,3.236-1.534l-2.248-3.782-5.8-.693-4.476,4.118-1.723,3.53c-1.03,1.849-4.412,1.492-3.593-.862l1.954-5.9s4.9-5.274,6.7-6.009,14.519-1.366,14.519-1.366,10.4,5.673,14.267,8.132l12.271-.168a45.129,45.129,0,0,1,2.269,10.548l-15.465-.357s-9.834,1.912-13.175,1.429a64.179,64.179,0,0,1-8.006-1.933s-5.862.1-7.522-.651c-2.353-.819-2.164-3.8.588-4.013h-.021Z" transform="translate(-176.905 -104.845)" fill="#ffd190"/><path d="M213.645,198.562l.672.273-.567,1.723s-.672.315-.567-.42a7.936,7.936,0,0,1,.462-1.6v.021Z" transform="translate(-175.676 -163.619)" fill="#fff"/><path d="M194.374,168.772c-.063-.273-.126-.546-.21-.819a8.752,8.752,0,0,0-1.933-3.278,8.6,8.6,0,1,0,.841,10.758,8.332,8.332,0,0,0,1.261-2.816c.063-.252.1-.5.147-.757a8.845,8.845,0,0,0,.105-1.3,8.7,8.7,0,0,0-.189-1.828h0Z" transform="translate(-146.193 -133.493)" fill="#ffe356"/><path d="M195.746,170.826c-.063-.252-.126-.525-.21-.777a8.069,8.069,0,0,0-1.849-3.11,8.195,8.195,0,1,0,.8,10.275,7.985,7.985,0,0,0,1.2-2.69c.063-.231.105-.483.147-.735a8.022,8.022,0,0,0,.084-1.24,7.919,7.919,0,0,0-.189-1.744h0Z" transform="translate(-147.965 -135.462)" fill="#fcd34e"/><g transform="translate(33.367 30.699)"><path d="M196.109,174.529a6.409,6.409,0,1,0,6.409,6.409,6.407,6.407,0,0,0-6.409-6.409Zm0,.8a5.61,5.61,0,1,1-5.61,5.61A5.623,5.623,0,0,1,196.109,175.328Z" transform="translate(-189.7 -174.529)" fill="#ffe356"/><path d="M215.589,196.582v-.9a3.814,3.814,0,0,1-1.639-.42l.294-1.135a3.255,3.255,0,0,0,1.6.42c.546,0,.924-.21.924-.588,0-.357-.315-.588-1.009-.84-1.03-.336-1.723-.819-1.723-1.765a1.756,1.756,0,0,1,1.618-1.7v-.9h.946v.84a3.367,3.367,0,0,1,1.387.315l-.273,1.093a3.189,3.189,0,0,0-1.387-.336c-.63,0-.819.273-.819.546,0,.315.336.525,1.156.819,1.135.4,1.6.924,1.6,1.807a1.859,1.859,0,0,1-1.7,1.786v.988h-.946Z" transform="translate(-209.685 -186.244)" fill="#ffe356"/></g><path d="M252.648,191.6c2.753-.21,5.316-.441,6.22-.483a12.981,12.981,0,0,0,3.236-1.534s6.114,2.521,5.715,5.064-.946,2.626-1.639,3.32c-3.11-.609-6.6-1.681-6.6-1.681s-5.862.105-7.522-.651c-2.353-.819-2.164-3.8.588-4.013V191.6Z" transform="translate(-206.379 -156.235)" fill="#ffd190"/><path d="M431.843,158.675l1.03,16.305,4.307-.273L436.15,158.4Z" transform="translate(-355.884 -130.54)" fill="#fff"/><path d="M451.934,146.286l1.261,19.73,9.287-.147v-.757a45,45,0,0,0-4.37-19.373l-6.2.525Z" transform="translate(-372.424 -120.104)" fill="#6b7f9e"/><path d="M251.176,214.034l2.984-.084v1.807s-2.584.1-3.068-.294a.926.926,0,0,1,.084-1.408Z" transform="translate(-206.694 -176.318)" fill="#fff"/><path d="M471.625,240.443a1.229,1.229,0,1,1-1.387-1.093A1.242,1.242,0,0,1,471.625,240.443Z" transform="translate(-386.652 -197.242)" fill="#8597b1"/></g></g></svg>