<svg xmlns="http://www.w3.org/2000/svg" xmlns:xlink="http://www.w3.org/1999/xlink" width="610" height="188.985" viewBox="0 0 610 188.985"><defs><linearGradient id="a" x1="0.973" y1="0.5" x2="0.031" y2="0.5" gradientUnits="objectBoundingBox"><stop offset="0" stop-color="#0396ff"/><stop offset="1" stop-color="#f55555"/></linearGradient><clipPath id="b"><rect width="190" height="188.986" fill="none"/></clipPath></defs><g transform="translate(-495 -4433)"><path d="M39.746,11.922H35.074v3.5h5.461V17H33.1V5.625H40.48V7.219H35.074v3.141h4.672Zm1.859.781a5,5,0,0,1,.906-3.148,2.945,2.945,0,0,1,2.453-1.164,2.768,2.768,0,0,1,2.242.992l.109-.836H49v11.7h-1.9V16.281a2.834,2.834,0,0,1-2.156.875,2.917,2.917,0,0,1-2.43-1.184A5.23,5.23,0,0,1,41.605,12.7Zm1.9.164a3.528,3.528,0,0,0,.512,2.035,1.631,1.631,0,0,0,1.418.738,1.8,1.8,0,0,0,1.672-.961V10.836a1.8,1.8,0,0,0-1.656-.922,1.659,1.659,0,0,0-1.426.727A3.849,3.849,0,0,0,43.5,12.867Zm12.664,3.3a2.944,2.944,0,0,1-2.375.984,2.624,2.624,0,0,1-2.082-.8A3.423,3.423,0,0,1,51,14.023V8.547h1.9V14q0,1.609,1.336,1.609a1.876,1.876,0,0,0,1.867-.992V8.547H58V17H56.215ZM61.957,17h-1.9V8.547h1.9ZM59.941,6.352a1.008,1.008,0,0,1,.277-.727,1.048,1.048,0,0,1,.793-.289,1.061,1.061,0,0,1,.8.289,1,1,0,0,1,.281.727.977.977,0,0,1-.281.715,1.069,1.069,0,0,1-.8.285,1.056,1.056,0,0,1-.793-.285A.984.984,0,0,1,59.941,6.352ZM66.043,17h-1.9V5h1.9Zm4.086,0h-1.9V8.547h1.9ZM68.113,6.352a1.008,1.008,0,0,1,.277-.727,1.048,1.048,0,0,1,.793-.289,1.061,1.061,0,0,1,.8.289,1,1,0,0,1,.281.727.977.977,0,0,1-.281.715,1.069,1.069,0,0,1-.8.285,1.056,1.056,0,0,1-.793-.285A.984.984,0,0,1,68.113,6.352Zm11.5,6.508a5.078,5.078,0,0,1-.879,3.133,2.863,2.863,0,0,1-2.418,1.164A2.758,2.758,0,0,1,74,16.086L73.91,17H72.191V5h1.9V9.359A2.748,2.748,0,0,1,76.3,8.391a2.9,2.9,0,0,1,2.43,1.148,5.162,5.162,0,0,1,.883,3.211Zm-1.9-.164a3.589,3.589,0,0,0-.484-2.062,1.613,1.613,0,0,0-1.406-.687,1.763,1.763,0,0,0-1.734,1.078v3.484a1.781,1.781,0,0,0,1.75,1.1,1.6,1.6,0,0,0,1.375-.664,3.477,3.477,0,0,0,.5-2.008Zm7.914-2.414a4.7,4.7,0,0,0-.773-.062,1.741,1.741,0,0,0-1.758,1V17H81.2V8.547h1.813l.047.945a2.139,2.139,0,0,1,1.906-1.1,1.777,1.777,0,0,1,.672.109ZM88.848,17h-1.9V8.547h1.9ZM86.832,6.352a1.008,1.008,0,0,1,.277-.727,1.048,1.048,0,0,1,.793-.289,1.061,1.061,0,0,1,.8.289,1,1,0,0,1,.281.727.977.977,0,0,1-.281.715,1.069,1.069,0,0,1-.8.285,1.056,1.056,0,0,1-.793-.285A.984.984,0,0,1,86.832,6.352ZM90.559,12.7a4.984,4.984,0,0,1,.492-2.238,3.6,3.6,0,0,1,1.383-1.531,3.9,3.9,0,0,1,2.047-.535,3.692,3.692,0,0,1,2.777,1.1,4.333,4.333,0,0,1,1.152,2.922l.008.445a5.029,5.029,0,0,1-.48,2.234,3.551,3.551,0,0,1-1.375,1.523,3.925,3.925,0,0,1-2.066.539,3.667,3.667,0,0,1-2.863-1.191,4.563,4.563,0,0,1-1.074-3.176Zm1.9.164A3.406,3.406,0,0,0,93,14.9a1.752,1.752,0,0,0,1.5.738,1.733,1.733,0,0,0,1.5-.75,3.762,3.762,0,0,0,.535-2.2,3.362,3.362,0,0,0-.551-2.031A1.856,1.856,0,0,0,93,10.652,3.691,3.691,0,0,0,92.457,12.859Zm13.93-6.367V8.547h1.492V9.953h-1.492v4.719a1.039,1.039,0,0,0,.191.7.888.888,0,0,0,.684.215,2.925,2.925,0,0,0,.664-.078v1.469a4.676,4.676,0,0,1-1.25.18q-2.188,0-2.187-2.414V9.953H103.1V8.547h1.391V6.492Zm6.664,10.664a3.928,3.928,0,0,1-2.926-1.137A4.124,4.124,0,0,1,109,12.992v-.234a5.072,5.072,0,0,1,.488-2.262,3.716,3.716,0,0,1,1.371-1.551,3.625,3.625,0,0,1,1.969-.555,3.318,3.318,0,0,1,2.668,1.1,4.658,4.658,0,0,1,.941,3.117v.766h-5.523a2.539,2.539,0,0,0,.7,1.656,2.1,2.1,0,0,0,1.543.609,2.571,2.571,0,0,0,2.125-1.055l1.023.977a3.418,3.418,0,0,1-1.355,1.176A4.244,4.244,0,0,1,113.051,17.156Zm-.227-7.242a1.6,1.6,0,0,0-1.262.547,2.835,2.835,0,0,0-.613,1.523h3.617v-.141a2.307,2.307,0,0,0-.508-1.441A1.586,1.586,0,0,0,112.824,9.914ZM113.254,5h2.164l-2.164,2.367-1.523,0Zm9.086,5.281a4.7,4.7,0,0,0-.773-.062,1.741,1.741,0,0,0-1.758,1V17h-1.9V8.547h1.813l.047.945a2.139,2.139,0,0,1,1.906-1.1,1.777,1.777,0,0,1,.672.109Zm2.984-1.734.055.883a3.042,3.042,0,0,1,2.438-1.039,2.337,2.337,0,0,1,2.32,1.3,3,3,0,0,1,2.594-1.3,2.636,2.636,0,0,1,2.082.773,3.405,3.405,0,0,1,.7,2.281V17h-1.9V11.5a1.681,1.681,0,0,0-.352-1.18,1.539,1.539,0,0,0-1.164-.375,1.581,1.581,0,0,0-1.059.348,1.833,1.833,0,0,0-.574.91l.008,5.8h-1.9V11.438a1.354,1.354,0,0,0-1.523-1.492,1.671,1.671,0,0,0-1.617.93V17h-1.9V8.547ZM139.48,17h-1.9V8.547h1.9ZM137.465,6.352a1.008,1.008,0,0,1,.277-.727,1.048,1.048,0,0,1,.793-.289,1.061,1.061,0,0,1,.8.289,1,1,0,0,1,.281.727.977.977,0,0,1-.281.715,1.069,1.069,0,0,1-.8.285,1.056,1.056,0,0,1-.793-.285A.984.984,0,0,1,137.465,6.352Zm7.555,9.289a1.716,1.716,0,0,0,1.18-.414,1.415,1.415,0,0,0,.5-1.023h1.789A2.788,2.788,0,0,1,148,15.676a3.228,3.228,0,0,1-1.25,1.082,3.725,3.725,0,0,1-1.7.4,3.6,3.6,0,0,1-2.812-1.148,4.555,4.555,0,0,1-1.039-3.172v-.2a4.479,4.479,0,0,1,1.031-3.09,3.571,3.571,0,0,1,2.813-1.16,3.473,3.473,0,0,1,2.457.879,3.148,3.148,0,0,1,1,2.309H146.7a1.738,1.738,0,0,0-.5-1.2,1.6,1.6,0,0,0-1.184-.469,1.671,1.671,0,0,0-1.422.668,3.408,3.408,0,0,0-.508,2.027v.3a3.465,3.465,0,0,0,.5,2.051A1.669,1.669,0,0,0,145.02,15.641Zm4.547-2.945a4.984,4.984,0,0,1,.492-2.238,3.6,3.6,0,0,1,1.383-1.531,3.9,3.9,0,0,1,2.047-.535,3.692,3.692,0,0,1,2.777,1.1,4.333,4.333,0,0,1,1.152,2.922l.008.445a5.029,5.029,0,0,1-.48,2.234,3.551,3.551,0,0,1-1.375,1.523,3.925,3.925,0,0,1-2.066.539,3.667,3.667,0,0,1-2.863-1.191,4.563,4.563,0,0,1-1.074-3.176Zm1.9.164A3.406,3.406,0,0,0,152,14.9a1.752,1.752,0,0,0,1.5.738,1.733,1.733,0,0,0,1.5-.75,3.762,3.762,0,0,0,.535-2.2,3.362,3.362,0,0,0-.551-2.031,1.856,1.856,0,0,0-2.973-.012A3.691,3.691,0,0,0,151.465,12.859Z" transform="translate(704 4572)" fill="#12263f"/><path d="M44.566,13.3a4.107,4.107,0,0,1-1.344,2.84,4.581,4.581,0,0,1-3.117,1.02,4.436,4.436,0,0,1-2.395-.645,4.231,4.231,0,0,1-1.6-1.832,6.611,6.611,0,0,1-.586-2.758V10.859a6.659,6.659,0,0,1,.57-2.836,4.3,4.3,0,0,1,1.637-1.891A4.566,4.566,0,0,1,40.2,5.469a4.4,4.4,0,0,1,3.031,1.02,4.26,4.26,0,0,1,1.336,2.887H42.6a2.81,2.81,0,0,0-.715-1.77A2.363,2.363,0,0,0,40.2,7.063,2.308,2.308,0,0,0,38.219,8a4.709,4.709,0,0,0-.707,2.764v1.009a5,5,0,0,0,.66,2.815,2.191,2.191,0,0,0,1.934.97,2.555,2.555,0,0,0,1.75-.523A2.729,2.729,0,0,0,42.6,13.3ZM51.2,17a2.93,2.93,0,0,1-.219-.789,3.193,3.193,0,0,1-4.3.219,2.325,2.325,0,0,1-.8-1.8,2.4,2.4,0,0,1,1-2.074,4.865,4.865,0,0,1,2.871-.723h1.164v-.555a1.481,1.481,0,0,0-.367-1.051,1.456,1.456,0,0,0-1.117-.395,1.672,1.672,0,0,0-1.062.324,1,1,0,0,0-.414.824h-1.9a2.107,2.107,0,0,1,.461-1.3,3.071,3.071,0,0,1,1.254-.949,4.4,4.4,0,0,1,1.77-.344,3.547,3.547,0,0,1,2.367.746,2.661,2.661,0,0,1,.906,2.1v3.813a4.321,4.321,0,0,0,.32,1.82V17Zm-2.086-1.367a2.159,2.159,0,0,0,1.059-.273,1.827,1.827,0,0,0,.746-.734V13.031H49.895a2.8,2.8,0,0,0-1.586.367,1.189,1.189,0,0,0-.531,1.039,1.109,1.109,0,0,0,.363.871A1.407,1.407,0,0,0,49.113,15.633ZM56.824,17h-1.9V5h1.9Zm1.711-4.3a4.984,4.984,0,0,1,.492-2.238A3.6,3.6,0,0,1,60.41,8.926a3.9,3.9,0,0,1,2.047-.535,3.692,3.692,0,0,1,2.777,1.1,4.333,4.333,0,0,1,1.152,2.922l.008.445a5.029,5.029,0,0,1-.48,2.234,3.551,3.551,0,0,1-1.375,1.523,3.925,3.925,0,0,1-2.066.539,3.667,3.667,0,0,1-2.863-1.191,4.563,4.563,0,0,1-1.074-3.176Zm1.9.164a3.406,3.406,0,0,0,.539,2.043,1.752,1.752,0,0,0,1.5.738,1.733,1.733,0,0,0,1.5-.75,3.762,3.762,0,0,0,.535-2.2,3.362,3.362,0,0,0-.551-2.031,1.856,1.856,0,0,0-2.973-.012A3.691,3.691,0,0,0,60.434,12.859Zm11.992-2.578a4.7,4.7,0,0,0-.773-.062,1.741,1.741,0,0,0-1.758,1V17H68V8.547h1.813l.047.945a2.139,2.139,0,0,1,1.906-1.1,1.777,1.777,0,0,1,.672.109Zm7.563-3.789V8.547H81.48V9.953H79.988v4.719a1.039,1.039,0,0,0,.191.7.888.888,0,0,0,.684.215,2.925,2.925,0,0,0,.664-.078v1.469a4.676,4.676,0,0,1-1.25.18q-2.188,0-2.187-2.414V9.953H76.7V8.547H78.09V6.492Zm7.367,3.789a4.7,4.7,0,0,0-.773-.062,1.741,1.741,0,0,0-1.758,1V17h-1.9V8.547h1.813l.047.945a2.139,2.139,0,0,1,1.906-1.1,1.777,1.777,0,0,1,.672.109ZM93.371,17a2.93,2.93,0,0,1-.219-.789,3.193,3.193,0,0,1-4.3.219,2.325,2.325,0,0,1-.8-1.8,2.4,2.4,0,0,1,1-2.074,4.865,4.865,0,0,1,2.871-.723H93.09v-.555a1.481,1.481,0,0,0-.367-1.051,1.456,1.456,0,0,0-1.117-.395,1.672,1.672,0,0,0-1.062.324,1,1,0,0,0-.414.824h-1.9a2.107,2.107,0,0,1,.461-1.3,3.071,3.071,0,0,1,1.254-.949,4.4,4.4,0,0,1,1.77-.344,3.547,3.547,0,0,1,2.367.746,2.661,2.661,0,0,1,.906,2.1v3.813a4.321,4.321,0,0,0,.32,1.82V17Zm-2.086-1.367a2.159,2.159,0,0,0,1.059-.273,1.827,1.827,0,0,0,.746-.734V13.031H92.066a2.8,2.8,0,0,0-1.586.367,1.189,1.189,0,0,0-.531,1.039,1.109,1.109,0,0,0,.363.871A1.407,1.407,0,0,0,91.285,15.633Zm7.453-7.086.055.977a3.039,3.039,0,0,1,2.461-1.133q2.641,0,2.688,3.023V17h-1.9V11.523a1.741,1.741,0,0,0-.348-1.191,1.462,1.462,0,0,0-1.137-.387,1.829,1.829,0,0,0-1.711,1.039V17h-1.9V8.547ZM110.613,14.7a.861.861,0,0,0-.418-.773,4.445,4.445,0,0,0-1.387-.469,7.129,7.129,0,0,1-1.617-.516,2.158,2.158,0,0,1-1.422-1.992,2.25,2.25,0,0,1,.922-1.828,3.644,3.644,0,0,1,2.344-.734,3.792,3.792,0,0,1,2.449.75,2.38,2.38,0,0,1,.934,1.945h-1.9a1.17,1.17,0,0,0-.406-.91,1.557,1.557,0,0,0-1.078-.363,1.682,1.682,0,0,0-1.02.289.911.911,0,0,0-.395.773.769.769,0,0,0,.367.68,5.049,5.049,0,0,0,1.484.488,7.027,7.027,0,0,1,1.754.586,2.484,2.484,0,0,1,.945.816,2.082,2.082,0,0,1,.309,1.156,2.2,2.2,0,0,1-.945,1.848,4.031,4.031,0,0,1-2.477.707,4.371,4.371,0,0,1-1.852-.375,3.047,3.047,0,0,1-1.266-1.031,2.441,2.441,0,0,1-.453-1.414h1.844a1.338,1.338,0,0,0,.508,1.035,1.973,1.973,0,0,0,1.242.363,1.92,1.92,0,0,0,1.141-.285A.883.883,0,0,0,110.613,14.7ZM114.8,17V9.953h-1.289V8.547H114.8V7.773a2.9,2.9,0,0,1,.781-2.172,2.993,2.993,0,0,1,2.188-.766,4.388,4.388,0,0,1,1.063.141l-.047,1.484a3.739,3.739,0,0,0-.727-.062A1.219,1.219,0,0,0,116.7,7.8v.75h1.719V9.953H116.7V17Zm8.727.156A3.928,3.928,0,0,1,120.6,16.02a4.124,4.124,0,0,1-1.121-3.027v-.234a5.072,5.072,0,0,1,.488-2.262,3.716,3.716,0,0,1,1.371-1.551,3.625,3.625,0,0,1,1.969-.555,3.318,3.318,0,0,1,2.668,1.1,4.658,4.658,0,0,1,.941,3.117v.766h-5.523a2.539,2.539,0,0,0,.7,1.656,2.1,2.1,0,0,0,1.543.609,2.571,2.571,0,0,0,2.125-1.055l1.023.977a3.418,3.418,0,0,1-1.355,1.176A4.244,4.244,0,0,1,123.527,17.156ZM123.3,9.914a1.6,1.6,0,0,0-1.262.547,2.835,2.835,0,0,0-.613,1.523h3.617v-.141a2.307,2.307,0,0,0-.508-1.441A1.586,1.586,0,0,0,123.3,9.914Zm9.516.367a4.7,4.7,0,0,0-.773-.062,1.741,1.741,0,0,0-1.758,1V17h-1.9V8.547H130.2l.047.945a2.139,2.139,0,0,1,1.906-1.1,1.777,1.777,0,0,1,.672.109ZM136.035,17h-1.9V8.547h1.9ZM134.02,6.352a1.008,1.008,0,0,1,.277-.727,1.048,1.048,0,0,1,.793-.289,1.061,1.061,0,0,1,.8.289,1,1,0,0,1,.281.727.977.977,0,0,1-.281.715,1.069,1.069,0,0,1-.8.285,1.056,1.056,0,0,1-.793-.285A.984.984,0,0,1,134.02,6.352Zm3.727,6.359a5.026,5.026,0,0,1,.906-3.137,2.9,2.9,0,0,1,2.43-1.184,2.759,2.759,0,0,1,2.172.938V5h1.9V17h-1.719l-.094-.875a2.8,2.8,0,0,1-2.273,1.031,2.887,2.887,0,0,1-2.4-1.2A5.21,5.21,0,0,1,137.746,12.711Zm1.9.164a3.519,3.519,0,0,0,.5,2.012,1.61,1.61,0,0,0,1.41.723,1.793,1.793,0,0,0,1.7-1.039V10.961a1.766,1.766,0,0,0-1.687-1.016,1.622,1.622,0,0,0-1.422.73A3.919,3.919,0,0,0,139.645,12.875Zm7.133-.18a4.984,4.984,0,0,1,.492-2.238,3.6,3.6,0,0,1,1.383-1.531,3.9,3.9,0,0,1,2.047-.535,3.692,3.692,0,0,1,2.777,1.1,4.333,4.333,0,0,1,1.152,2.922l.008.445a5.029,5.029,0,0,1-.48,2.234,3.551,3.551,0,0,1-1.375,1.523,3.925,3.925,0,0,1-2.066.539,3.667,3.667,0,0,1-2.863-1.191,4.563,4.563,0,0,1-1.074-3.176Zm1.9.164a3.406,3.406,0,0,0,.539,2.043,1.752,1.752,0,0,0,1.5.738,1.733,1.733,0,0,0,1.5-.75,3.762,3.762,0,0,0,.535-2.2,3.362,3.362,0,0,0-.551-2.031,1.856,1.856,0,0,0-2.973-.012A3.691,3.691,0,0,0,148.676,12.859Z" transform="translate(704 4461)" fill="#12263f"/><g transform="translate(657 4506)" stroke="#ccc" stroke-width="7" fill="url(#a)"><rect width="283" height="54" stroke="none"/><rect x="3.5" y="3.5" width="276" height="47" fill="none"/></g><g transform="translate(495 4433)"><g clip-path="url(#b)"><path d="M185.092,18.665,174.545,34.676a10.24,10.24,0,0,0-1.691,5.624V151.21a34.577,34.577,0,0,1-34.575,34.575H51.327A34.579,34.579,0,0,1,16.742,151.21V40.3a10.238,10.238,0,0,0-1.681-5.624L4.5,18.665A10.236,10.236,0,0,1,13.049,2.8H176.556a10.229,10.229,0,0,1,8.537,15.862" transform="translate(0.2 0.2)" fill="#fff"/><path d="M185.092,18.665,174.545,34.676a10.24,10.24,0,0,0-1.691,5.624V151.21a34.577,34.577,0,0,1-34.575,34.575H51.327A34.579,34.579,0,0,1,16.742,151.21V40.3a10.238,10.238,0,0,0-1.681-5.624L4.5,18.665A10.236,10.236,0,0,1,13.049,2.8H176.556A10.229,10.229,0,0,1,185.092,18.665Z" transform="translate(0.2 0.2)" fill="none" stroke="#ccc" stroke-miterlimit="10" stroke-width="5.605"/><path d="M50.794,177.246a26.6,26.6,0,0,1-26.579-26.569V39.768a18.179,18.179,0,0,0-3-10.029L10.654,13.725a2.23,2.23,0,0,1,1.863-3.449H176.024a2.223,2.223,0,0,1,1.85,3.451L167.327,29.739a18.186,18.186,0,0,0-3.011,10.029V150.676a26.6,26.6,0,0,1-26.569,26.569Z" transform="translate(0.732 0.732)" fill="#d7f2ff"/><path d="M49.867,173.753a26.6,26.6,0,0,1-26.579-26.569V59.652c2.643.934,137.066-1.1,140.1,0v87.531a26.6,26.6,0,0,1-26.569,26.569Z" transform="translate(1.659 4.225)" fill="#f55555"/><path d="M48.181,103.587c5.8,0,5.8-9.007,0-9.007s-5.8,9.007,0,9.007" transform="translate(3.122 6.736)" fill="#fff"/><path d="M57.523,148.428c5.8,0,5.8-9.007,0-9.007s-5.8,9.007,0,9.007" transform="translate(3.787 9.929)" fill="#fff"/><path d="M119.179,153.722c5.8,0,5.8-9.007,0-9.007s-5.8,9.007,0,9.007" transform="translate(8.178 10.306)" fill="#fff"/><path d="M136.305,107.324c5.8,0,5.8-9.007,0-9.007s-5.8,9.007,0,9.007" transform="translate(9.398 7.002)" fill="#fff"/><path d="M117.246,111.239c4.508,0,4.515-7,0-7s-4.515,7,0,7" transform="translate(8.109 7.423)" fill="#fff"/><path d="M138.292,128.1a1.5,1.5,0,0,0,0-3,1.5,1.5,0,0,0,0,3" transform="translate(9.746 8.909)" fill="#fff"/><path d="M61.689,110.039a1.5,1.5,0,0,0,0-3,1.5,1.5,0,0,0,0,3" transform="translate(4.29 7.623)" fill="#fff"/><path d="M37.089,126.231a1.5,1.5,0,0,0,0-3,1.5,1.5,0,0,0,0,3" transform="translate(2.538 8.776)" fill="#fff"/><path d="M80.684,146.16a1.5,1.5,0,0,0,0-3,1.5,1.5,0,0,0,0,3" transform="translate(5.643 10.196)" fill="#fff"/></g></g><g transform="translate(915 4433)"><g clip-path="url(#b)"><path d="M185.092,18.665,174.545,34.676a10.24,10.24,0,0,0-1.691,5.624V151.21a34.577,34.577,0,0,1-34.575,34.575H51.327A34.579,34.579,0,0,1,16.742,151.21V40.3a10.238,10.238,0,0,0-1.681-5.624L4.5,18.665A10.236,10.236,0,0,1,13.049,2.8H176.556a10.229,10.229,0,0,1,8.537,15.862" transform="translate(0.2 0.2)" fill="#fff"/><path d="M185.092,18.665,174.545,34.676a10.24,10.24,0,0,0-1.691,5.624V151.21a34.577,34.577,0,0,1-34.575,34.575H51.327A34.579,34.579,0,0,1,16.742,151.21V40.3a10.238,10.238,0,0,0-1.681-5.624L4.5,18.665A10.236,10.236,0,0,1,13.049,2.8H176.556A10.229,10.229,0,0,1,185.092,18.665Z" transform="translate(0.2 0.2)" fill="none" stroke="#ccc" stroke-miterlimit="10" stroke-width="5.605"/><path d="M50.794,177.246a26.6,26.6,0,0,1-26.579-26.569V39.768a18.179,18.179,0,0,0-3-10.029L10.654,13.725a2.23,2.23,0,0,1,1.863-3.449H176.024a2.223,2.223,0,0,1,1.85,3.451L167.327,29.739a18.186,18.186,0,0,0-3.011,10.029V150.676a26.6,26.6,0,0,1-26.569,26.569Z" transform="translate(0.732 0.732)" fill="#d7f2ff"/><path d="M49.867,173.753a26.6,26.6,0,0,1-26.579-26.569V59.652c2.643.934,137.066-1.1,140.1,0v87.531a26.6,26.6,0,0,1-26.569,26.569Z" transform="translate(1.659 4.225)" fill="#0396ff"/><path d="M48.181,103.587c5.8,0,5.8-9.007,0-9.007s-5.8,9.007,0,9.007" transform="translate(3.122 6.736)" fill="#fff"/><path d="M57.523,148.428c5.8,0,5.8-9.007,0-9.007s-5.8,9.007,0,9.007" transform="translate(3.787 9.929)" fill="#fff"/><path d="M119.179,153.722c5.8,0,5.8-9.007,0-9.007s-5.8,9.007,0,9.007" transform="translate(8.178 10.306)" fill="#fff"/><path d="M136.305,107.324c5.8,0,5.8-9.007,0-9.007s-5.8,9.007,0,9.007" transform="translate(9.398 7.002)" fill="#fff"/><path d="M117.246,111.239c4.508,0,4.515-7,0-7s-4.515,7,0,7" transform="translate(8.109 7.423)" fill="#fff"/><path d="M138.292,128.1a1.5,1.5,0,0,0,0-3,1.5,1.5,0,0,0,0,3" transform="translate(9.746 8.909)" fill="#fff"/><path d="M61.689,110.039a1.5,1.5,0,0,0,0-3,1.5,1.5,0,0,0,0,3" transform="translate(4.29 7.623)" fill="#fff"/><path d="M37.089,126.231a1.5,1.5,0,0,0,0-3,1.5,1.5,0,0,0,0,3" transform="translate(2.538 8.776)" fill="#fff"/><path d="M80.684,146.16a1.5,1.5,0,0,0,0-3,1.5,1.5,0,0,0,0,3" transform="translate(5.643 10.196)" fill="#fff"/></g></g><path d="M12.316,7.219H8.77V17H6.809V7.219H3.293V5.625h9.023Zm5.031,9.938a3.928,3.928,0,0,1-2.926-1.137A4.124,4.124,0,0,1,13.3,12.992v-.234a5.072,5.072,0,0,1,.488-2.262A3.716,3.716,0,0,1,15.16,8.945a3.625,3.625,0,0,1,1.969-.555,3.318,3.318,0,0,1,2.668,1.1,4.658,4.658,0,0,1,.941,3.117v.766H15.215a2.539,2.539,0,0,0,.7,1.656,2.1,2.1,0,0,0,1.543.609,2.571,2.571,0,0,0,2.125-1.055l1.023.977a3.418,3.418,0,0,1-1.355,1.176A4.244,4.244,0,0,1,17.348,17.156Zm-.227-7.242a1.6,1.6,0,0,0-1.262.547,2.835,2.835,0,0,0-.613,1.523h3.617v-.141a2.307,2.307,0,0,0-.508-1.441A1.586,1.586,0,0,0,17.121,9.914ZM24,8.547l.055.883a3.042,3.042,0,0,1,2.438-1.039,2.337,2.337,0,0,1,2.32,1.3,3,3,0,0,1,2.594-1.3,2.636,2.636,0,0,1,2.082.773,3.405,3.405,0,0,1,.7,2.281V17h-1.9V11.5a1.681,1.681,0,0,0-.352-1.18,1.539,1.539,0,0,0-1.164-.375,1.581,1.581,0,0,0-1.059.348,1.833,1.833,0,0,0-.574.91l.008,5.8h-1.9V11.438a1.354,1.354,0,0,0-1.523-1.492,1.671,1.671,0,0,0-1.617.93V17h-1.9V8.547Zm19.539,4.313a5.033,5.033,0,0,1-.891,3.129,3.094,3.094,0,0,1-4.617.254V20.25h-1.9V8.547h1.75l.078.859A2.788,2.788,0,0,1,40.23,8.391a2.881,2.881,0,0,1,2.426,1.152,5.167,5.167,0,0,1,.879,3.2ZM41.645,12.7a3.526,3.526,0,0,0-.5-2.008A1.638,1.638,0,0,0,39.7,9.945a1.747,1.747,0,0,0-1.672.961v3.75a1.763,1.763,0,0,0,1.688.984,1.636,1.636,0,0,0,1.418-.73A3.881,3.881,0,0,0,41.645,12.7Zm7.219,4.461a3.928,3.928,0,0,1-2.926-1.137,4.124,4.124,0,0,1-1.121-3.027v-.234A5.072,5.072,0,0,1,45.3,10.5a3.716,3.716,0,0,1,1.371-1.551,3.625,3.625,0,0,1,1.969-.555,3.318,3.318,0,0,1,2.668,1.1,4.658,4.658,0,0,1,.941,3.117v.766H46.73a2.539,2.539,0,0,0,.7,1.656,2.1,2.1,0,0,0,1.543.609A2.571,2.571,0,0,0,51.1,14.586l1.023.977a3.418,3.418,0,0,1-1.355,1.176A4.244,4.244,0,0,1,48.863,17.156Zm-.227-7.242a1.6,1.6,0,0,0-1.262.547,2.835,2.835,0,0,0-.613,1.523h3.617v-.141a2.307,2.307,0,0,0-.508-1.441A1.586,1.586,0,0,0,48.637,9.914Zm9.516.367a4.7,4.7,0,0,0-.773-.062,1.741,1.741,0,0,0-1.758,1V17h-1.9V8.547h1.813l.047.945a2.139,2.139,0,0,1,1.906-1.1,1.777,1.777,0,0,1,.672.109ZM64.168,17a2.93,2.93,0,0,1-.219-.789,3.193,3.193,0,0,1-4.3.219,2.325,2.325,0,0,1-.8-1.8,2.4,2.4,0,0,1,1-2.074,4.865,4.865,0,0,1,2.871-.723h1.164v-.555a1.481,1.481,0,0,0-.367-1.051A1.456,1.456,0,0,0,62.4,9.836a1.672,1.672,0,0,0-1.062.324,1,1,0,0,0-.414.824h-1.9a2.107,2.107,0,0,1,.461-1.3,3.071,3.071,0,0,1,1.254-.949,4.4,4.4,0,0,1,1.77-.344,3.547,3.547,0,0,1,2.367.746,2.661,2.661,0,0,1,.906,2.1v3.813a4.321,4.321,0,0,0,.32,1.82V17Zm-2.086-1.367a2.159,2.159,0,0,0,1.059-.273,1.827,1.827,0,0,0,.746-.734V13.031H62.863a2.8,2.8,0,0,0-1.586.367,1.189,1.189,0,0,0-.531,1.039,1.109,1.109,0,0,0,.363.871A1.407,1.407,0,0,0,62.082,15.633Zm8.07-9.141V8.547h1.492V9.953H70.152v4.719a1.039,1.039,0,0,0,.191.7.888.888,0,0,0,.684.215,2.925,2.925,0,0,0,.664-.078v1.469a4.676,4.676,0,0,1-1.25.18q-2.188,0-2.187-2.414V9.953H66.863V8.547h1.391V6.492Zm8.063,9.68a2.944,2.944,0,0,1-2.375.984,2.624,2.624,0,0,1-2.082-.8,3.423,3.423,0,0,1-.707-2.328V8.547h1.9V14q0,1.609,1.336,1.609a1.876,1.876,0,0,0,1.867-.992V8.547h1.9V17H78.262Zm8.2-5.891a4.7,4.7,0,0,0-.773-.062,1.741,1.741,0,0,0-1.758,1V17h-1.9V8.547h1.813l.047.945a2.139,2.139,0,0,1,1.906-1.1,1.777,1.777,0,0,1,.672.109ZM92.426,17a2.93,2.93,0,0,1-.219-.789,3.193,3.193,0,0,1-4.3.219,2.325,2.325,0,0,1-.8-1.8,2.4,2.4,0,0,1,1-2.074,4.865,4.865,0,0,1,2.871-.723h1.164v-.555a1.481,1.481,0,0,0-.367-1.051,1.456,1.456,0,0,0-1.117-.395,1.672,1.672,0,0,0-1.062.324,1,1,0,0,0-.414.824h-1.9a2.107,2.107,0,0,1,.461-1.3A3.071,3.071,0,0,1,89,8.734a4.4,4.4,0,0,1,1.77-.344,3.547,3.547,0,0,1,2.367.746,2.661,2.661,0,0,1,.906,2.1v3.813a4.321,4.321,0,0,0,.32,1.82V17ZM90.34,15.633a2.159,2.159,0,0,0,1.059-.273,1.827,1.827,0,0,0,.746-.734V13.031H91.121a2.8,2.8,0,0,0-1.586.367A1.189,1.189,0,0,0,89,14.438a1.109,1.109,0,0,0,.363.871A1.407,1.407,0,0,0,90.34,15.633ZM41.664,41a2.93,2.93,0,0,1-.219-.789,3.193,3.193,0,0,1-4.3.219,2.325,2.325,0,0,1-.8-1.8,2.4,2.4,0,0,1,1-2.074,4.865,4.865,0,0,1,2.871-.723h1.164v-.555a1.481,1.481,0,0,0-.367-1.051,1.456,1.456,0,0,0-1.117-.395,1.672,1.672,0,0,0-1.062.324,1,1,0,0,0-.414.824h-1.9a2.107,2.107,0,0,1,.461-1.3,3.071,3.071,0,0,1,1.254-.949,4.4,4.4,0,0,1,1.77-.344,3.547,3.547,0,0,1,2.367.746,2.661,2.661,0,0,1,.906,2.1v3.813a4.321,4.321,0,0,0,.32,1.82V41Zm-2.086-1.367a2.159,2.159,0,0,0,1.059-.273,1.827,1.827,0,0,0,.746-.734V37.031H40.359a2.8,2.8,0,0,0-1.586.367,1.189,1.189,0,0,0-.531,1.039,1.109,1.109,0,0,0,.363.871A1.407,1.407,0,0,0,39.578,39.633ZM47.289,41h-1.9V29h1.9Zm4.445-10.508v2.055h1.492v1.406H51.734v4.719a1.039,1.039,0,0,0,.191.7.888.888,0,0,0,.684.215,2.925,2.925,0,0,0,.664-.078v1.469a4.676,4.676,0,0,1-1.25.18q-2.187,0-2.187-2.414V33.953H48.445V32.547h1.391V30.492ZM59.727,41a2.93,2.93,0,0,1-.219-.789,3.193,3.193,0,0,1-4.3.219,2.325,2.325,0,0,1-.8-1.8,2.4,2.4,0,0,1,1-2.074,4.865,4.865,0,0,1,2.871-.723h1.164v-.555a1.481,1.481,0,0,0-.367-1.051,1.456,1.456,0,0,0-1.117-.395,1.672,1.672,0,0,0-1.062.324,1,1,0,0,0-.414.824h-1.9a2.107,2.107,0,0,1,.461-1.3,3.071,3.071,0,0,1,1.254-.949,4.4,4.4,0,0,1,1.77-.344,3.547,3.547,0,0,1,2.367.746,2.661,2.661,0,0,1,.906,2.1v3.813a4.321,4.321,0,0,0,.32,1.82V41Zm-2.086-1.367a2.159,2.159,0,0,0,1.059-.273,1.827,1.827,0,0,0,.746-.734V37.031H58.422a2.8,2.8,0,0,0-1.586.367,1.189,1.189,0,0,0-.531,1.039,1.109,1.109,0,0,0,.363.871A1.407,1.407,0,0,0,57.641,39.633Z" transform="translate(541 4449)" fill="#12263f"/><path d="M12.316,7.219H8.77V17H6.809V7.219H3.293V5.625h9.023Zm5.031,9.938a3.928,3.928,0,0,1-2.926-1.137A4.124,4.124,0,0,1,13.3,12.992v-.234a5.072,5.072,0,0,1,.488-2.262A3.716,3.716,0,0,1,15.16,8.945a3.625,3.625,0,0,1,1.969-.555,3.318,3.318,0,0,1,2.668,1.1,4.658,4.658,0,0,1,.941,3.117v.766H15.215a2.539,2.539,0,0,0,.7,1.656,2.1,2.1,0,0,0,1.543.609,2.571,2.571,0,0,0,2.125-1.055l1.023.977a3.418,3.418,0,0,1-1.355,1.176A4.244,4.244,0,0,1,17.348,17.156Zm-.227-7.242a1.6,1.6,0,0,0-1.262.547,2.835,2.835,0,0,0-.613,1.523h3.617v-.141a2.307,2.307,0,0,0-.508-1.441A1.586,1.586,0,0,0,17.121,9.914ZM24,8.547l.055.883a3.042,3.042,0,0,1,2.438-1.039,2.337,2.337,0,0,1,2.32,1.3,3,3,0,0,1,2.594-1.3,2.636,2.636,0,0,1,2.082.773,3.405,3.405,0,0,1,.7,2.281V17h-1.9V11.5a1.681,1.681,0,0,0-.352-1.18,1.539,1.539,0,0,0-1.164-.375,1.581,1.581,0,0,0-1.059.348,1.833,1.833,0,0,0-.574.91l.008,5.8h-1.9V11.438a1.354,1.354,0,0,0-1.523-1.492,1.671,1.671,0,0,0-1.617.93V17h-1.9V8.547Zm19.539,4.313a5.033,5.033,0,0,1-.891,3.129,3.094,3.094,0,0,1-4.617.254V20.25h-1.9V8.547h1.75l.078.859A2.788,2.788,0,0,1,40.23,8.391a2.881,2.881,0,0,1,2.426,1.152,5.167,5.167,0,0,1,.879,3.2ZM41.645,12.7a3.526,3.526,0,0,0-.5-2.008A1.638,1.638,0,0,0,39.7,9.945a1.747,1.747,0,0,0-1.672.961v3.75a1.763,1.763,0,0,0,1.688.984,1.636,1.636,0,0,0,1.418-.73A3.881,3.881,0,0,0,41.645,12.7Zm7.219,4.461a3.928,3.928,0,0,1-2.926-1.137,4.124,4.124,0,0,1-1.121-3.027v-.234A5.072,5.072,0,0,1,45.3,10.5a3.716,3.716,0,0,1,1.371-1.551,3.625,3.625,0,0,1,1.969-.555,3.318,3.318,0,0,1,2.668,1.1,4.658,4.658,0,0,1,.941,3.117v.766H46.73a2.539,2.539,0,0,0,.7,1.656,2.1,2.1,0,0,0,1.543.609A2.571,2.571,0,0,0,51.1,14.586l1.023.977a3.418,3.418,0,0,1-1.355,1.176A4.244,4.244,0,0,1,48.863,17.156Zm-.227-7.242a1.6,1.6,0,0,0-1.262.547,2.835,2.835,0,0,0-.613,1.523h3.617v-.141a2.307,2.307,0,0,0-.508-1.441A1.586,1.586,0,0,0,48.637,9.914Zm9.516.367a4.7,4.7,0,0,0-.773-.062,1.741,1.741,0,0,0-1.758,1V17h-1.9V8.547h1.813l.047.945a2.139,2.139,0,0,1,1.906-1.1,1.777,1.777,0,0,1,.672.109ZM64.168,17a2.93,2.93,0,0,1-.219-.789,3.193,3.193,0,0,1-4.3.219,2.325,2.325,0,0,1-.8-1.8,2.4,2.4,0,0,1,1-2.074,4.865,4.865,0,0,1,2.871-.723h1.164v-.555a1.481,1.481,0,0,0-.367-1.051A1.456,1.456,0,0,0,62.4,9.836a1.672,1.672,0,0,0-1.062.324,1,1,0,0,0-.414.824h-1.9a2.107,2.107,0,0,1,.461-1.3,3.071,3.071,0,0,1,1.254-.949,4.4,4.4,0,0,1,1.77-.344,3.547,3.547,0,0,1,2.367.746,2.661,2.661,0,0,1,.906,2.1v3.813a4.321,4.321,0,0,0,.32,1.82V17Zm-2.086-1.367a2.159,2.159,0,0,0,1.059-.273,1.827,1.827,0,0,0,.746-.734V13.031H62.863a2.8,2.8,0,0,0-1.586.367,1.189,1.189,0,0,0-.531,1.039,1.109,1.109,0,0,0,.363.871A1.407,1.407,0,0,0,62.082,15.633Zm8.07-9.141V8.547h1.492V9.953H70.152v4.719a1.039,1.039,0,0,0,.191.7.888.888,0,0,0,.684.215,2.925,2.925,0,0,0,.664-.078v1.469a4.676,4.676,0,0,1-1.25.18q-2.188,0-2.187-2.414V9.953H66.863V8.547h1.391V6.492Zm8.063,9.68a2.944,2.944,0,0,1-2.375.984,2.624,2.624,0,0,1-2.082-.8,3.423,3.423,0,0,1-.707-2.328V8.547h1.9V14q0,1.609,1.336,1.609a1.876,1.876,0,0,0,1.867-.992V8.547h1.9V17H78.262Zm8.2-5.891a4.7,4.7,0,0,0-.773-.062,1.741,1.741,0,0,0-1.758,1V17h-1.9V8.547h1.813l.047.945a2.139,2.139,0,0,1,1.906-1.1,1.777,1.777,0,0,1,.672.109ZM92.426,17a2.93,2.93,0,0,1-.219-.789,3.193,3.193,0,0,1-4.3.219,2.325,2.325,0,0,1-.8-1.8,2.4,2.4,0,0,1,1-2.074,4.865,4.865,0,0,1,2.871-.723h1.164v-.555a1.481,1.481,0,0,0-.367-1.051,1.456,1.456,0,0,0-1.117-.395,1.672,1.672,0,0,0-1.062.324,1,1,0,0,0-.414.824h-1.9a2.107,2.107,0,0,1,.461-1.3A3.071,3.071,0,0,1,89,8.734a4.4,4.4,0,0,1,1.77-.344,3.547,3.547,0,0,1,2.367.746,2.661,2.661,0,0,1,.906,2.1v3.813a4.321,4.321,0,0,0,.32,1.82V17ZM90.34,15.633a2.159,2.159,0,0,0,1.059-.273,1.827,1.827,0,0,0,.746-.734V13.031H91.121a2.8,2.8,0,0,0-1.586.367A1.189,1.189,0,0,0,89,14.438a1.109,1.109,0,0,0,.363.871A1.407,1.407,0,0,0,90.34,15.633ZM42.227,36.859a5.078,5.078,0,0,1-.879,3.133,2.863,2.863,0,0,1-2.418,1.164,2.758,2.758,0,0,1-2.312-1.07L36.523,41H34.8V29h1.9v4.359a2.748,2.748,0,0,1,2.211-.969,2.9,2.9,0,0,1,2.43,1.148,5.162,5.162,0,0,1,.883,3.211Zm-1.9-.164a3.589,3.589,0,0,0-.484-2.062,1.613,1.613,0,0,0-1.406-.687A1.763,1.763,0,0,0,36.7,35.023v3.484a1.781,1.781,0,0,0,1.75,1.1,1.6,1.6,0,0,0,1.375-.664,3.477,3.477,0,0,0,.5-2.008ZM48.867,41a2.93,2.93,0,0,1-.219-.789,3.193,3.193,0,0,1-4.3.219,2.325,2.325,0,0,1-.8-1.8,2.4,2.4,0,0,1,1-2.074,4.865,4.865,0,0,1,2.871-.723h1.164v-.555a1.481,1.481,0,0,0-.367-1.051,1.456,1.456,0,0,0-1.117-.395,1.672,1.672,0,0,0-1.062.324,1,1,0,0,0-.414.824h-1.9a2.107,2.107,0,0,1,.461-1.3,3.071,3.071,0,0,1,1.254-.949,4.4,4.4,0,0,1,1.77-.344,3.547,3.547,0,0,1,2.367.746,2.661,2.661,0,0,1,.906,2.1v3.813a4.321,4.321,0,0,0,.32,1.82V41Zm-2.086-1.367a2.159,2.159,0,0,0,1.059-.273,1.827,1.827,0,0,0,.746-.734V37.031H47.563a2.8,2.8,0,0,0-1.586.367,1.189,1.189,0,0,0-.531,1.039,1.109,1.109,0,0,0,.363.871A1.407,1.407,0,0,0,46.781,39.633Zm7.672-7.086v9.2a2.781,2.781,0,0,1-.645,1.98,2.47,2.47,0,0,1-1.887.684,3.794,3.794,0,0,1-1.008-.133v-1.5a2.925,2.925,0,0,0,.672.07q.945,0,.969-1.031V32.547Zm-2.062-2.2a1.008,1.008,0,0,1,.277-.727,1.048,1.048,0,0,1,.793-.289,1.061,1.061,0,0,1,.8.289,1,1,0,0,1,.281.727.977.977,0,0,1-.281.715,1.069,1.069,0,0,1-.8.285,1.056,1.056,0,0,1-.793-.285A.984.984,0,0,1,52.391,30.352ZM61.531,41a2.93,2.93,0,0,1-.219-.789,3.193,3.193,0,0,1-4.3.219,2.325,2.325,0,0,1-.8-1.8,2.4,2.4,0,0,1,1-2.074,4.865,4.865,0,0,1,2.871-.723H61.25v-.555a1.481,1.481,0,0,0-.367-1.051,1.456,1.456,0,0,0-1.117-.395,1.672,1.672,0,0,0-1.062.324,1,1,0,0,0-.414.824h-1.9a2.107,2.107,0,0,1,.461-1.3,3.071,3.071,0,0,1,1.254-.949,4.4,4.4,0,0,1,1.77-.344,3.547,3.547,0,0,1,2.367.746,2.661,2.661,0,0,1,.906,2.1v3.813a4.321,4.321,0,0,0,.32,1.82V41Zm-2.086-1.367a2.159,2.159,0,0,0,1.059-.273,1.827,1.827,0,0,0,.746-.734V37.031H60.227a2.8,2.8,0,0,0-1.586.367,1.189,1.189,0,0,0-.531,1.039,1.109,1.109,0,0,0,.363.871A1.407,1.407,0,0,0,59.445,39.633Z" transform="translate(961 4449)" fill="#12263f"/></g></svg>