<svg xmlns="http://www.w3.org/2000/svg" xmlns:xlink="http://www.w3.org/1999/xlink" width="610" height="231.721" viewBox="0 0 610 231.721"><defs><linearGradient id="a" x1="0.5" y1="1.061" x2="0.5" y2="-1.066" gradientUnits="objectBoundingBox"><stop offset="0" stop-color="#fff"/><stop offset="1" stop-color="#7a7a7a"/></linearGradient><linearGradient id="b" x1="-0.666" y1="0.49" x2="1.089" y2="0.504" gradientUnits="objectBoundingBox"><stop offset="0" stop-color="#fff"/><stop offset="1"/></linearGradient><radialGradient id="g" cx="0.5" cy="0.5" r="0.5" gradientUnits="objectBoundingBox"><stop offset="0" stop-color="#d6c1ff"/><stop offset="1" stop-color="#8c62de"/></radialGradient></defs><g transform="translate(-495 -3110.529)"><g transform="translate(0 -67.835)"><g transform="translate(258 3061.254)"><g transform="translate(237 118.581)"><path d="M426.671,386.425c0,8.618-42.458,15.6-94.835,15.6S237,395.043,237,386.425s42.459-15.607,94.837-15.607S426.671,377.8,426.671,386.425Z" transform="translate(-237 -171.779)" fill="url(#a)" style="mix-blend-mode:multiply;isolation:isolate"/><g transform="translate(13.458)"><g transform="translate(0 22.599)" opacity="0.9"><path d="M423.066,191.251c0-13.359.431-17.14-15.626-32.013-4.5-4.271-8.338-8.285-11.637-12.018H281.5c-3.3,3.732-7.139,7.747-11.638,12.018-16.057,14.873-15.621,18.653-15.621,32.013V306.691c0,24.7-7.381,41.334,71.173,41.84h26.474c78.555-.506,71.179-17.139,71.179-41.84Z" transform="translate(-254.055 -147.22)" fill="#dfe9ef" stroke="#98aeb9" stroke-miterlimit="10" stroke-width="2.943"/></g><g transform="translate(0 22.599)"><path d="M423.066,191.251c0-13.359.431-17.14-15.626-32.013-4.5-4.271-8.338-8.285-11.637-12.018H281.5c-3.3,3.732-7.139,7.747-11.638,12.018-16.057,14.873-15.621,18.653-15.621,32.013V306.691c0,24.7-7.381,41.334,71.173,41.84h26.474c78.555-.506,71.179-17.139,71.179-41.84Z" transform="translate(-254.055 -147.22)" fill="none" stroke="#98aeb9" stroke-miterlimit="10" stroke-width="2.943"/></g><path d="M423.066,306.691V191.251c0-13.359.431-17.14-15.626-32.013-4.5-4.271-8.338-8.285-11.637-12.018H281.5c-3.3,3.732-7.139,7.747-11.638,12.018-16.057,14.873-15.621,18.653-15.621,32.013V306.691c0,24.7-7.381,41.334,71.173,41.84h26.474C430.442,348.026,423.066,331.392,423.066,306.691Zm-86.343,14.226c-1.9,9.218-11.66,13.558-11.66,13.558-28.473,11.66-53.692-1.628-53.692-1.628-11.66-6.779-11.388-29.556-11.388-29.556s-.544-98.978,0-114.436,13.828-23.319,13.828-23.319c14.643,8.407,53.963,7.865,53.963,7.865,8.407,4.611,8.949,16,8.949,16S338.621,311.7,336.724,320.917Z" transform="translate(-254.055 -124.621)" fill="#d9f1fd" opacity="0.6" style="mix-blend-mode:multiply;isolation:isolate"/><g transform="translate(1.005 22.599)"><path d="M272.892,337.743s25.219,13.288,53.692,1.628c0,0,9.76-4.34,11.66-13.558s0-131.52,0-131.52-.542-11.385-8.949-16c0,0-39.32.542-53.963-7.865,0,0-13.287,7.865-13.828,23.319s0,114.436,0,114.436S261.231,330.964,272.892,337.743Z" transform="translate(-256.579 -152.115)" fill="none"/><path d="M423.335,306.691V191.251c0-13.359.431-17.14-15.626-32.013-4.5-4.271-8.338-8.285-11.637-12.018H281.767c-3.3,3.732-7.139,7.747-11.638,12.018-1.9,1.765-3.573,3.369-5.042,4.858,3.495-1.87,7.11-3.189,9.808-2.673,0,0,25.489,7.1,51.521,6.824s35.513-2.44,43.789,14.372c0,0,4.75,9.763,5.293,26.3s0,116.332,0,116.332,2.44,11.39-12.475,15.457-97.7,10.16-107.695-12.954h0c3.332,12.667,17.077,20.43,70.353,20.773h26.474C430.711,348.026,423.335,331.392,423.335,306.691Z" transform="translate(-255.328 -147.22)" fill="#c5dbe6" opacity="0.6" style="mix-blend-mode:multiply;isolation:isolate"/></g><g transform="translate(8.102)"><path d="M264.323,129.581v16.6c0,7.472,34.248,13.531,76.5,13.531s76.492-6.059,76.492-13.531v-16.6Z" transform="translate(-264.323 -120.901)" fill="#bf6c2c" stroke="#7e3e15" stroke-miterlimit="10" stroke-width="2.943"/><path d="M267.116,151.284a47.6,47.6,0,0,0-2.793-6.213v4.38c0,1.445,1.294,2.836,3.665,4.142C267.7,152.821,267.419,152.05,267.116,151.284Z" transform="translate(-264.323 -124.168)" fill="#bf6c2c" opacity="0.4" style="mix-blend-mode:screen;isolation:isolate"/><path d="M264.323,130.838v3.631a54.636,54.636,0,0,1,6.549,11.478c.975,2.213,1.622,4.58,2.43,6.857.2.065.41.13.612.2C270.67,145.631,269.223,137.241,264.323,130.838Z" transform="translate(-264.323 -121.166)" fill="#bf6c2c" opacity="0.4" style="mix-blend-mode:screen;isolation:isolate"/><path d="M277.124,150.2c-2.99-7.274-6.388-14.515-11.409-20.618h-.632c5.322,6.778,6.641,15.843,10.3,23.554,1.059.312,2.192.615,3.384.909C278.18,152.758,277.642,151.458,277.124,150.2Z" transform="translate(-264.483 -120.901)" fill="#bf6c2c" opacity="0.4" style="mix-blend-mode:screen;isolation:isolate"/><path d="M280.445,148.579c-3.19-6.613-6.756-13.314-11.461-19h-1.313a73.491,73.491,0,0,1,9.758,17.22c1.008,2.393,1.982,5.039,3.182,7.556.924.213,1.889.424,2.882.63C282.41,152.862,281.452,150.668,280.445,148.579Z" transform="translate(-265.029 -120.901)" fill="#bf6c2c" opacity="0.4" style="mix-blend-mode:screen;isolation:isolate"/><path d="M285.765,149.844a113.967,113.967,0,0,0-12.243-20.263h-2.406a93.253,93.253,0,0,1,10.365,17.168c1.331,2.7,2.545,5.69,4.025,8.491,1.086.213,2.224.417,3.382.618C287.749,153.906,286.729,151.871,285.765,149.844Z" transform="translate(-265.756 -120.901)" fill="#bf6c2c" opacity="0.4" style="mix-blend-mode:screen;isolation:isolate"/><path d="M293.01,156.731q-2.157-3.251-4.3-6.517c.344.688.712,1.361,1.044,2.059A89.573,89.573,0,0,0,294,160.446c.535.088,1.091.171,1.64.255C294.716,159.339,293.844,157.984,293.01,156.731Z" transform="translate(-269.467 -125.253)" fill="#bf6c2c" opacity="0.4" style="mix-blend-mode:screen;isolation:isolate"/><path d="M299.745,151.215c-5.113-7.47-10.837-14.464-16.335-21.634h-.975c4.306,5.618,7.438,12.177,11.047,18.228,1.76,2.954,3.707,6.212,5.947,9.268,1.692.221,3.439.429,5.231.626A75.307,75.307,0,0,1,299.745,151.215Z" transform="translate(-268.143 -120.901)" fill="#bf6c2c" opacity="0.4" style="mix-blend-mode:screen;isolation:isolate"/><path d="M316.608,147.1c-4.18-3.69-8.551-7.055-12.231-11.283a60.107,60.107,0,0,1-4.776-6.238h-4.534a61.081,61.081,0,0,0,4.278,4.937c3.7,3.885,7.532,7.709,11.407,11.424,6.39,6.123,13.76,11.045,22.059,13.52.241.009.495.013.737.021C327.044,157.3,321.956,151.824,316.608,147.1Z" transform="translate(-270.807 -120.901)" fill="#bf6c2c" opacity="0.4" style="mix-blend-mode:screen;isolation:isolate"/><path d="M339.068,139.422c3.409,2.333,8.159,5.358,12.432,3.623,3.441-1.4,5.845-4.356,8.231-7.073,1.933-2.2,3.945-4.358,6.047-6.391H328.3C331.189,133.592,335.474,136.961,339.068,139.422Z" transform="translate(-277.815 -120.901)" fill="#bf6c2c" opacity="0.4" style="mix-blend-mode:screen;isolation:isolate"/><path d="M360.061,135.173c-2.241,2.467-4.312,5.281-7.052,7.231-6.78,4.823-13.743.055-19.4-4.335a39.489,39.489,0,0,1-8.392-8.488H319.6c2.592,3.727,6.64,6.83,9.911,9.24,5.993,4.417,14.01,9.756,21.582,6.117,7.133-3.425,12.188-9.932,17.854-15.237.045-.041.089-.078.133-.12h-3.642C363.581,131.377,361.805,133.249,360.061,135.173Z" transform="translate(-275.98 -120.901)" fill="#bf6c2c" opacity="0.4" style="mix-blend-mode:screen;isolation:isolate"/><path d="M365.007,133.838c-5.049,5.11-11.279,12.39-18.9,13.333-7.372.91-14.721-4.424-20.213-8.767-3.052-2.414-6.557-5.331-8.841-8.823h-3.571c2.833,3.322,5.611,6.692,8.595,9.883a60.739,60.739,0,0,0,9.364,8.477c3.518,2.455,7.989,5.345,12.421,5.36,10.166.027,16.584-9.887,22.1-17.014a42.063,42.063,0,0,1,6.2-6.7h-2.722C367.913,130.918,366.468,132.363,365.007,133.838Z" transform="translate(-274.691 -120.901)" fill="#bf6c2c" opacity="0.4" style="mix-blend-mode:screen;isolation:isolate"/><path d="M361.735,140.587c-4.627,6.089-11.615,14.368-20.2,13.8-8.345-.557-15.948-7.2-21.445-12.983-3.606-3.792-6.915-7.859-10.332-11.821h-7.32a53.043,53.043,0,0,0,4.854,6.134c3.407,3.7,7.256,6.75,11.011,10.069,3.736,3.3,7.115,7.171,11.308,9.911a20.4,20.4,0,0,0,16.406,3.071c5.607-1.358,8.777-4.618,12.684-8.577s7.275-8.4,10.894-12.628a45.687,45.687,0,0,1,8.384-7.979h-6.356C367.642,132.628,364.8,136.551,361.735,140.587Z" transform="translate(-272.362 -120.901)" fill="#bf6c2c" opacity="0.4" style="mix-blend-mode:screen;isolation:isolate"/><path d="M379.629,141.368a156.3,156.3,0,0,1-11.659,13.013,20.317,20.317,0,0,1-9.572,5.313c.759,0,1.5.021,2.265.021q4.414,0,8.7-.089a36.443,36.443,0,0,0,8.213-3.473c5.857-3.4,9.427-8.861,13.3-14.226a87.723,87.723,0,0,1,10.316-12.346H391.8C386.918,132.678,383.313,136.892,379.629,141.368Z" transform="translate(-284.164 -120.901)" fill="#bf6c2c" opacity="0.4" style="mix-blend-mode:screen;isolation:isolate"/><path d="M308.956,146.711c-4.43-4.312-9.011-8.621-13.1-13.265-1.1-1.244-2.15-2.533-3.136-3.865h-2.531c1.694,1.632,3.408,3.191,4.778,4.746,4.855,5.518,9.351,11.313,14.059,16.951a62.182,62.182,0,0,0,7,7.32c3.907.3,7.992.544,12.2.727A56.124,56.124,0,0,1,308.956,146.711Z" transform="translate(-269.779 -120.901)" fill="#bf6c2c" opacity="0.4" style="mix-blend-mode:screen;isolation:isolate"/><path d="M401.186,142.877c3.336-4.448,6.579-9.034,10.154-13.3h-4.683c-5.293,4.981-9.425,10.818-13.657,16.69-3.906,5.415-8.259,9.887-14.482,12.579-.565.245-1.14.467-1.714.689q4.048-.115,7.938-.306A86.9,86.9,0,0,0,401.186,142.877Z" transform="translate(-288.046 -120.901)" fill="#bf6c2c" opacity="0.4" style="mix-blend-mode:screen;isolation:isolate"/><path d="M405.82,148.619c6.185-6.174,12.493-12.3,18.06-19.038h-8.465c-4.35,5.1-8.163,10.714-12.288,16a80.89,80.89,0,0,1-13.754,13.554q3.132-.168,6.143-.381C399.125,155.56,402.407,152.023,405.82,148.619Z" transform="translate(-290.697 -120.901)" fill="#bf6c2c" opacity="0.4" style="mix-blend-mode:screen;isolation:isolate"/><path d="M414.789,149.747c4.415-5.585,7.759-11.858,11.2-18.064-5.384,6.38-11.38,12.242-17.281,18.144-3.089,3.089-6.061,6.29-9.273,9.238q3.59-.276,6.98-.608A82.435,82.435,0,0,0,414.789,149.747Z" transform="translate(-292.819 -121.344)" fill="#bf6c2c" opacity="0.4" style="mix-blend-mode:screen;isolation:isolate"/><path d="M429.131,140.751c2.858-3.673,5.586-7.462,8.4-11.17H430.5c-3.6,6.419-6.919,13.077-11.4,18.934a74.634,74.634,0,0,1-7.825,8.6c-.252.242-.509.478-.763.72,1.064-.111,2.1-.226,3.131-.348C418.806,151.912,424.453,146.765,429.131,140.751Z" transform="translate(-295.156 -120.901)" fill="#bf6c2c" opacity="0.4" style="mix-blend-mode:screen;isolation:isolate"/><path d="M430.986,144.6a39.353,39.353,0,0,1,11.1-9.629c2.446-1.446,4.933-2.823,7.323-4.35v-1.043h-9.23c-2.844,3.717-5.581,7.523-8.459,11.219-4.6,5.918-10.122,11.027-15.226,16.5,2-.247,3.9-.516,5.755-.793C425.511,152.792,427.909,148.47,430.986,144.6Z" transform="translate(-296.416 -120.901)" fill="#bf6c2c" opacity="0.4" style="mix-blend-mode:screen;isolation:isolate"/><path d="M435.32,145.247c-1.718,2.158-3.208,4.5-4.764,6.778,4.824-6.17,11.581-10.874,18.5-14.344,1.095-.549,2.2-1.1,3.321-1.627v-3.482C446.373,136.4,439.923,139.463,435.32,145.247Z" transform="translate(-299.382 -121.532)" fill="#bf6c2c" opacity="0.4" style="mix-blend-mode:screen;isolation:isolate"/><path d="M434.193,152.47c5.256-4.562,11.411-7.727,17.7-10.587v-3.369q-2.12,1-4.2,2.085c-7.641,3.935-15,9.71-19.394,17.232.451-.073.88-.154,1.321-.234A27.162,27.162,0,0,1,434.193,152.47Z" transform="translate(-298.907 -122.785)" fill="#bf6c2c" opacity="0.4" style="mix-blend-mode:screen;isolation:isolate"/><path d="M447.429,150.237a33.8,33.8,0,0,1,5.216-2.41v-3.565a75,75,0,0,0-13.724,7.617,32.737,32.737,0,0,0-7.077,6.667c2.4-.451,4.625-.932,6.66-1.437A40.257,40.257,0,0,1,447.429,150.237Z" transform="translate(-299.654 -123.997)" fill="#bf6c2c" opacity="0.4" style="mix-blend-mode:screen;isolation:isolate"/><path d="M451.106,152.03a43.921,43.921,0,0,0-8.028,5.786c7.55-2.1,11.937-4.58,11.937-7.249v-.208A22.014,22.014,0,0,0,451.106,152.03Z" transform="translate(-302.023 -125.283)" fill="#bf6c2c" opacity="0.4" style="mix-blend-mode:screen;isolation:isolate"/><path d="M308.368,153.355c-5.337-6.294-10.328-12.863-15.835-19.019-1.413-1.58-3.123-3.13-4.787-4.755h-2.269c4.923,6.3,10.014,12.473,14.494,19.1a85.268,85.268,0,0,0,6.942,9.195c2.053.215,4.189.4,6.359.583A53.541,53.541,0,0,1,308.368,153.355Z" transform="translate(-268.785 -120.901)" fill="#bf6c2c" opacity="0.4" style="mix-blend-mode:screen;isolation:isolate"/><path d="M293,150.8c-4.288-6.961-7.8-14.79-12.955-21.222h-2.482c4.106,7.127,8.634,14.007,13.139,20.89,1.223,1.872,2.526,4,3.972,6.09q1.14.17,2.318.33C295.543,154.861,294.218,152.784,293,150.8Z" transform="translate(-267.115 -120.901)" fill="#bf6c2c" opacity="0.4" style="mix-blend-mode:screen;isolation:isolate"/><path d="M270.695,149.96a49.037,49.037,0,0,0-6.372-12.273v4.043c1.833,2.677,3.541,7.248,4.916,10.938.821.385,1.751.761,2.759,1.128C271.559,152.521,271.146,151.232,270.695,149.96Z" transform="translate(-264.323 -122.611)" fill="#bf6c2c" opacity="0.4" style="mix-blend-mode:screen;isolation:isolate"/><g transform="translate(0 8.68)" style="mix-blend-mode:multiply;isolation:isolate"><path d="M264.323,131.522c0,5.647,34.248,10.227,76.5,10.227s76.492-4.581,76.492-10.227v-1.941H264.323Z" transform="translate(-264.323 -129.581)" fill="#b8840f"/></g><path d="M269.2,129.581h-4.875v16.6c0,1.674,1.73,3.277,4.875,4.757Z" transform="translate(-264.323 -120.901)" fill="#b8840f" style="mix-blend-mode:multiply;isolation:isolate"/><path d="M293.18,129.581h-5.153v25.462c1.627.331,3.353.649,5.153.951Z" transform="translate(-269.322 -120.901)" fill="#f9b8bb" opacity="0.3" style="mix-blend-mode:screen;isolation:isolate"/><path d="M402.461,129.581v28.85c25.986-2.161,43.987-6.83,43.987-12.247v-16.6Z" transform="translate(-293.457 -120.901)" fill="#b8840f" style="mix-blend-mode:multiply;isolation:isolate"/><path d="M417.314,127.259c0,4.8-34.25,8.682-76.492,8.682s-76.5-3.885-76.5-8.682,34.248-8.678,76.5-8.678S417.314,122.464,417.314,127.259Z" transform="translate(-264.323 -118.581)" fill="#bf6c2c" stroke="#7e3e15" stroke-miterlimit="10" stroke-width="2.943"/><g opacity="0.3" style="mix-blend-mode:screen;isolation:isolate"><path d="M426.872,128.059c3.96.647,8.409-1.129,12.119-2.333,1.577-.51,3.182-.975,4.771-1.478a122.622,122.622,0,0,0-12.437-2.083c-.165.1-.337.19-.5.288C429.739,123.1,422.811,127.395,426.872,128.059Z" transform="translate(-298.339 -119.337)" fill="#bf6c2c"/><path d="M421.729,128.046c-1.7-1.625,1.155-4.091,4.713-6.253-1.035-.119-2.11-.234-3.2-.35-1.192.654-2.357,1.335-3.483,2.005-1.724,1.026-10.243,5.682-8.382,8.652,1.511,2.411,7.826,1.2,10.152.8a134.03,134.03,0,0,0,13.622-3.439c3.9-1.1,7.828-2.255,11.8-3.206a17.718,17.718,0,0,0-4.137-1.616c-3.152,1.139-6.448,2-9.558,2.908C430.3,128.409,424.42,130.621,421.729,128.046Z" transform="translate(-295.281 -119.185)" fill="#bf6c2c"/><path d="M402.561,119.873c-3.13,2.526-6.692,4.519-9.918,7.01-2.218,1.712-7.178,5.821-5.2,9,1.768-.056,3.525-.116,5.238-.188-2.576-3.058,2.323-7.5,4.989-9.268a76.237,76.237,0,0,1,9.932-5.543c.4-.185.866-.378,1.363-.585C406.9,120.146,404.75,120.008,402.561,119.873Z" transform="translate(-290.193 -118.853)" fill="#bf6c2c"/><path d="M299.135,126.9a156.852,156.852,0,0,0-19.065,4.562c-.443.143-.9.269-1.348.4,1.472.271,3.058.53,4.772.781,11.117-2.38,21.7-6.808,32.631-10.085,3.88-1.165,7.728-2.367,11.524-3.722q-3.274.079-6.437.19A73.25,73.25,0,0,1,299.135,126.9Z" transform="translate(-267.36 -118.634)" fill="#bf6c2c"/><path d="M271.289,126.6c4.724-1.483,9.447-2.954,14.107-4.6-13.053,1.557-21.074,3.66-21.074,5.978a1.1,1.1,0,0,0,.085.388C266.719,127.856,269.025,127.315,271.289,126.6Z" transform="translate(-264.323 -119.303)" fill="#bf6c2c"/><path d="M290.1,121.069c-5.421,2.1-10.962,3.886-16.528,5.582-2.723.834-5.525,1.458-8.333,2.079a8.223,8.223,0,0,0,2.08,1.136c5.677-1.186,11.306-2.587,16.9-4.128,6.641-1.833,13.23-3.822,19.854-5.708.143-.04.288-.075.431-.115C299.305,120.236,294.475,120.623,290.1,121.069Z" transform="translate(-264.516 -118.863)" fill="#bf6c2c"/><path d="M308.411,120.095c-6.624,1.824-13.164,3.955-19.807,5.715-6.059,1.6-12.1,3.262-18.225,4.595q1.832.561,4.293,1.079c.789-.209,1.576-.428,2.349-.674a153.67,153.67,0,0,1,18.015-4.5A82.968,82.968,0,0,0,316.89,119.2q-2.87.112-5.63.253C310.275,119.646,309.309,119.845,308.411,120.095Z" transform="translate(-265.6 -118.711)" fill="#bf6c2c"/><path d="M333.05,118.706c-5.4,2.068-10.928,3.731-16.475,5.414-9.432,2.866-18.562,6.523-28.052,8.873,1.134.144,2.294.288,3.51.424.322-.029.643-.058.967-.1a54.938,54.938,0,0,0,7.931-1.615c4.466-1.25,8.821-2.761,13.143-4.431a91.286,91.286,0,0,1,12.863-4.312c2.439-.548,6.6-1.84,9.033-.77,3.418,1.506-2.872,6.318-3.977,7.252-2.3,1.952-4.469,4.087-6.674,6.175q1.375.046,2.773.085a40.18,40.18,0,0,1,7.893-6.974c4.688-3.383,9.386-6.913,14.268-10.126-1.436-.009-2.868-.021-4.327-.021Q339.341,118.581,333.05,118.706Z" transform="translate(-269.427 -118.581)" fill="#bf6c2c"/><path d="M333.9,130.473a2.252,2.252,0,0,0-2.258-.944,19.659,19.659,0,0,0-3.56.641,31.889,31.889,0,0,0-6.172,2.541c-2.542,1.365-5.016,2.945-7.521,4.445,3.264.205,6.679.381,10.212.533a32.845,32.845,0,0,0,7.971-5.391A4.159,4.159,0,0,0,333.9,130.473Z" transform="translate(-274.882 -120.882)" fill="#bf6c2c"/><path d="M336.891,124.245a24.775,24.775,0,0,0-4.813.392c-7.307,1.287-13.886,4.517-20.871,6.837a106.723,106.723,0,0,1-10.959,3.224c-.661.142-1.331.251-2,.347,3.382.329,7.031.623,10.887.88,5.835-3.392,11.387-7.535,18.2-8.495,2.6-.367,5.848.788,3.377,3.674a26.6,26.6,0,0,1-7.477,5.558c.849.032,1.7.066,2.56.1,2.255-2.123,4.45-4.327,6.808-6.321a38.155,38.155,0,0,0,4.084-3.735C337.288,126.022,338.88,124.291,336.891,124.245Z" transform="translate(-271.478 -119.774)" fill="#bf6c2c"/><path d="M349.862,127.974c-2.646,1.823-6.8,4.529-9.576,7.77q3.8.093,7.738.148a59.383,59.383,0,0,1,6.6-6.946A95.5,95.5,0,0,1,369.2,118.713q-2.916-.058-5.9-.087C358.731,121.6,354.352,124.878,349.862,127.974Z" transform="translate(-280.344 -118.59)" fill="#bf6c2c"/><path d="M360.7,127.323a63.4,63.4,0,0,0-8.869,8.622q3.68.038,7.448.04h.219a62.554,62.554,0,0,1,4.834-5.109,85.251,85.251,0,0,1,15.281-11.934c-1.973-.064-3.985-.114-6.018-.159A102.21,102.21,0,0,0,360.7,127.323Z" transform="translate(-282.779 -118.624)" fill="#bf6c2c"/><path d="M369.354,129.923a79.355,79.355,0,0,0-6,6.115c2.729-.006,5.431-.028,8.083-.064a13.565,13.565,0,0,1,3.624-5.315,58.936,58.936,0,0,1,8.893-7.022c2.206-1.462,4.473-2.824,6.756-4.163.07-.042.148-.083.22-.123q-3.4-.163-6.961-.285A79.991,79.991,0,0,0,369.354,129.923Z" transform="translate(-285.209 -118.683)" fill="#bf6c2c"/><path d="M393.742,120.514a89.511,89.511,0,0,0-9.18,5.88,47.274,47.274,0,0,0-6.758,5.666,11.863,11.863,0,0,0-2.666,4c2.943-.047,5.841-.114,8.667-.2a5.093,5.093,0,0,1,.208-3.93c1.385-3.418,5.218-5.907,8.159-7.872,2.126-1.42,4.313-2.789,6.342-4.341-1-.057-2.029-.111-3.056-.163C394.871,119.874,394.29,120.191,393.742,120.514Z" transform="translate(-287.695 -118.786)" fill="#bf6c2c"/><path d="M444.481,126.933c-6.823,1.581-13.53,3.878-20.273,5.58-4.252,1.07-8.8,2.061-13.22,1.776-1.584-.1-3.922-.482-4.277-2.423-.7-3.823,4.988-7.047,7.611-8.674,1.142-.706,2.32-1.417,3.522-2.111q-2.47-.238-5.12-.454c-2.548,1.224-5.074,2.441-7.573,3.772-2.548,1.357-14.268,8.256-9.374,11.395,28.662-1.253,49.012-4.408,49.012-8.1A1.25,1.25,0,0,0,444.481,126.933Z" transform="translate(-291.798 -119.013)" fill="#bf6c2c"/></g><g transform="translate(7.301 3.134)" opacity="0.3" style="mix-blend-mode:screen;isolation:isolate"><path d="M371.3,128.1c0,3.064-21.878,5.548-48.862,5.548s-48.865-2.484-48.865-5.548,21.875-5.544,48.865-5.544S371.3,125.035,371.3,128.1Z" transform="translate(-273.575 -122.553)" fill="#f9b8bb"/></g></g><path d="M275.255,180.741s-8.673,5.694-8.614,15.457,0,112.537,0,112.537-1.135,23.507,14.16,30.371c0,0-4.339-15.533-4.339-28.649V198.1s1.628-10.3,9.627-14.373Z" transform="translate(-256.705 -131.691)" fill="url(#b)" style="mix-blend-mode:screen;isolation:isolate"/></g></g><ellipse cx="83.548" cy="9.812" rx="83.548" ry="9.812" transform="translate(251.462 262.499)" fill="#c5dbe6" opacity="0.6" style="mix-blend-mode:multiply;isolation:isolate"/><ellipse cx="75.719" cy="6.203" rx="75.719" ry="6.203" transform="translate(259.291 266.108)" fill="#c3dadd"/><path d="M256.157,279.915V186.262s-1.48-8.1,6.421-14.843l10.553-10.836s20.3,7.56,66.445,6.6,65.38-6.6,65.38-6.6,16.707,13.535,17.619,26.257v94.329s-.57-9.146-83-9.812C339.575,271.358,263.456,272.174,256.157,279.915Z" transform="translate(-4.017 -8.858)" fill="#fff" opacity="0.71"/></g><g transform="translate(468.328 3061.254)"><g transform="translate(237 118.581)"><path d="M426.671,386.425c0,8.618-42.458,15.6-94.835,15.6S237,395.043,237,386.425s42.459-15.607,94.837-15.607S426.671,377.8,426.671,386.425Z" transform="translate(-237 -171.779)" fill="url(#a)" style="mix-blend-mode:multiply;isolation:isolate"/><g transform="translate(13.458)"><g transform="translate(0 22.599)" opacity="0.9"><path d="M423.066,191.251c0-13.359.431-17.14-15.626-32.013-4.5-4.271-8.338-8.285-11.637-12.018H281.5c-3.3,3.732-7.139,7.747-11.638,12.018-16.057,14.873-15.621,18.653-15.621,32.013V306.691c0,24.7-7.381,41.334,71.173,41.84h26.474c78.555-.506,71.179-17.139,71.179-41.84Z" transform="translate(-254.055 -147.22)" fill="#dfe9ef" stroke="#98aeb9" stroke-miterlimit="10" stroke-width="2.943"/></g><g transform="translate(0 22.599)"><path d="M423.066,191.251c0-13.359.431-17.14-15.626-32.013-4.5-4.271-8.338-8.285-11.637-12.018H281.5c-3.3,3.732-7.139,7.747-11.638,12.018-16.057,14.873-15.621,18.653-15.621,32.013V306.691c0,24.7-7.381,41.334,71.173,41.84h26.474c78.555-.506,71.179-17.139,71.179-41.84Z" transform="translate(-254.055 -147.22)" fill="none" stroke="#98aeb9" stroke-miterlimit="10" stroke-width="2.943"/></g><path d="M423.066,306.691V191.251c0-13.359.431-17.14-15.626-32.013-4.5-4.271-8.338-8.285-11.637-12.018H281.5c-3.3,3.732-7.139,7.747-11.638,12.018-16.057,14.873-15.621,18.653-15.621,32.013V306.691c0,24.7-7.381,41.334,71.173,41.84h26.474C430.442,348.026,423.066,331.392,423.066,306.691Zm-86.343,14.226c-1.9,9.218-11.66,13.558-11.66,13.558-28.473,11.66-53.692-1.628-53.692-1.628-11.66-6.779-11.388-29.556-11.388-29.556s-.544-98.978,0-114.436,13.828-23.319,13.828-23.319c14.643,8.407,53.963,7.865,53.963,7.865,8.407,4.611,8.949,16,8.949,16S338.621,311.7,336.724,320.917Z" transform="translate(-254.055 -124.621)" fill="#d9f1fd" opacity="0.6" style="mix-blend-mode:multiply;isolation:isolate"/><g transform="translate(1.005 22.599)"><path d="M272.892,337.743s25.219,13.288,53.692,1.628c0,0,9.76-4.34,11.66-13.558s0-131.52,0-131.52-.542-11.385-8.949-16c0,0-39.32.542-53.963-7.865,0,0-13.287,7.865-13.828,23.319s0,114.436,0,114.436S261.231,330.964,272.892,337.743Z" transform="translate(-256.579 -152.115)" fill="none"/><path d="M423.335,306.691V191.251c0-13.359.431-17.14-15.626-32.013-4.5-4.271-8.338-8.285-11.637-12.018H281.767c-3.3,3.732-7.139,7.747-11.638,12.018-1.9,1.765-3.573,3.369-5.042,4.858,3.495-1.87,7.11-3.189,9.808-2.673,0,0,25.489,7.1,51.521,6.824s35.513-2.44,43.789,14.372c0,0,4.75,9.763,5.293,26.3s0,116.332,0,116.332,2.44,11.39-12.475,15.457-97.7,10.16-107.695-12.954h0c3.332,12.667,17.077,20.43,70.353,20.773h26.474C430.711,348.026,423.335,331.392,423.335,306.691Z" transform="translate(-255.328 -147.22)" fill="#c5dbe6" opacity="0.6" style="mix-blend-mode:multiply;isolation:isolate"/></g><g transform="translate(8.102)"><path d="M264.323,129.581v16.6c0,7.472,34.248,13.531,76.5,13.531s76.492-6.059,76.492-13.531v-16.6Z" transform="translate(-264.323 -120.901)" fill="#bf6c2c" stroke="#7e3e15" stroke-miterlimit="10" stroke-width="2.943"/><path d="M267.116,151.284a47.6,47.6,0,0,0-2.793-6.213v4.38c0,1.445,1.294,2.836,3.665,4.142C267.7,152.821,267.419,152.05,267.116,151.284Z" transform="translate(-264.323 -124.168)" fill="#bf6c2c" opacity="0.4" style="mix-blend-mode:screen;isolation:isolate"/><path d="M264.323,130.838v3.631a54.636,54.636,0,0,1,6.549,11.478c.975,2.213,1.622,4.58,2.43,6.857.2.065.41.13.612.2C270.67,145.631,269.223,137.241,264.323,130.838Z" transform="translate(-264.323 -121.166)" fill="#bf6c2c" opacity="0.4" style="mix-blend-mode:screen;isolation:isolate"/><path d="M277.124,150.2c-2.99-7.274-6.388-14.515-11.409-20.618h-.632c5.322,6.778,6.641,15.843,10.3,23.554,1.059.312,2.192.615,3.384.909C278.18,152.758,277.642,151.458,277.124,150.2Z" transform="translate(-264.483 -120.901)" fill="#bf6c2c" opacity="0.4" style="mix-blend-mode:screen;isolation:isolate"/><path d="M280.445,148.579c-3.19-6.613-6.756-13.314-11.461-19h-1.313a73.491,73.491,0,0,1,9.758,17.22c1.008,2.393,1.982,5.039,3.182,7.556.924.213,1.889.424,2.882.63C282.41,152.862,281.452,150.668,280.445,148.579Z" transform="translate(-265.029 -120.901)" fill="#bf6c2c" opacity="0.4" style="mix-blend-mode:screen;isolation:isolate"/><path d="M285.765,149.844a113.967,113.967,0,0,0-12.243-20.263h-2.406a93.253,93.253,0,0,1,10.365,17.168c1.331,2.7,2.545,5.69,4.025,8.491,1.086.213,2.224.417,3.382.618C287.749,153.906,286.729,151.871,285.765,149.844Z" transform="translate(-265.756 -120.901)" fill="#bf6c2c" opacity="0.4" style="mix-blend-mode:screen;isolation:isolate"/><path d="M293.01,156.731q-2.157-3.251-4.3-6.517c.344.688.712,1.361,1.044,2.059A89.573,89.573,0,0,0,294,160.446c.535.088,1.091.171,1.64.255C294.716,159.339,293.844,157.984,293.01,156.731Z" transform="translate(-269.467 -125.253)" fill="#bf6c2c" opacity="0.4" style="mix-blend-mode:screen;isolation:isolate"/><path d="M299.745,151.215c-5.113-7.47-10.837-14.464-16.335-21.634h-.975c4.306,5.618,7.438,12.177,11.047,18.228,1.76,2.954,3.707,6.212,5.947,9.268,1.692.221,3.439.429,5.231.626A75.307,75.307,0,0,1,299.745,151.215Z" transform="translate(-268.143 -120.901)" fill="#bf6c2c" opacity="0.4" style="mix-blend-mode:screen;isolation:isolate"/><path d="M316.608,147.1c-4.18-3.69-8.551-7.055-12.231-11.283a60.107,60.107,0,0,1-4.776-6.238h-4.534a61.081,61.081,0,0,0,4.278,4.937c3.7,3.885,7.532,7.709,11.407,11.424,6.39,6.123,13.76,11.045,22.059,13.52.241.009.495.013.737.021C327.044,157.3,321.956,151.824,316.608,147.1Z" transform="translate(-270.807 -120.901)" fill="#bf6c2c" opacity="0.4" style="mix-blend-mode:screen;isolation:isolate"/><path d="M339.068,139.422c3.409,2.333,8.159,5.358,12.432,3.623,3.441-1.4,5.845-4.356,8.231-7.073,1.933-2.2,3.945-4.358,6.047-6.391H328.3C331.189,133.592,335.474,136.961,339.068,139.422Z" transform="translate(-277.815 -120.901)" fill="#bf6c2c" opacity="0.4" style="mix-blend-mode:screen;isolation:isolate"/><path d="M360.061,135.173c-2.241,2.467-4.312,5.281-7.052,7.231-6.78,4.823-13.743.055-19.4-4.335a39.489,39.489,0,0,1-8.392-8.488H319.6c2.592,3.727,6.64,6.83,9.911,9.24,5.993,4.417,14.01,9.756,21.582,6.117,7.133-3.425,12.188-9.932,17.854-15.237.045-.041.089-.078.133-.12h-3.642C363.581,131.377,361.805,133.249,360.061,135.173Z" transform="translate(-275.98 -120.901)" fill="#bf6c2c" opacity="0.4" style="mix-blend-mode:screen;isolation:isolate"/><path d="M365.007,133.838c-5.049,5.11-11.279,12.39-18.9,13.333-7.372.91-14.721-4.424-20.213-8.767-3.052-2.414-6.557-5.331-8.841-8.823h-3.571c2.833,3.322,5.611,6.692,8.595,9.883a60.739,60.739,0,0,0,9.364,8.477c3.518,2.455,7.989,5.345,12.421,5.36,10.166.027,16.584-9.887,22.1-17.014a42.063,42.063,0,0,1,6.2-6.7h-2.722C367.913,130.918,366.468,132.363,365.007,133.838Z" transform="translate(-274.691 -120.901)" fill="#bf6c2c" opacity="0.4" style="mix-blend-mode:screen;isolation:isolate"/><path d="M361.735,140.587c-4.627,6.089-11.615,14.368-20.2,13.8-8.345-.557-15.948-7.2-21.445-12.983-3.606-3.792-6.915-7.859-10.332-11.821h-7.32a53.043,53.043,0,0,0,4.854,6.134c3.407,3.7,7.256,6.75,11.011,10.069,3.736,3.3,7.115,7.171,11.308,9.911a20.4,20.4,0,0,0,16.406,3.071c5.607-1.358,8.777-4.618,12.684-8.577s7.275-8.4,10.894-12.628a45.687,45.687,0,0,1,8.384-7.979h-6.356C367.642,132.628,364.8,136.551,361.735,140.587Z" transform="translate(-272.362 -120.901)" fill="#bf6c2c" opacity="0.4" style="mix-blend-mode:screen;isolation:isolate"/><path d="M379.629,141.368a156.3,156.3,0,0,1-11.659,13.013,20.317,20.317,0,0,1-9.572,5.313c.759,0,1.5.021,2.265.021q4.414,0,8.7-.089a36.443,36.443,0,0,0,8.213-3.473c5.857-3.4,9.427-8.861,13.3-14.226a87.723,87.723,0,0,1,10.316-12.346H391.8C386.918,132.678,383.313,136.892,379.629,141.368Z" transform="translate(-284.164 -120.901)" fill="#bf6c2c" opacity="0.4" style="mix-blend-mode:screen;isolation:isolate"/><path d="M308.956,146.711c-4.43-4.312-9.011-8.621-13.1-13.265-1.1-1.244-2.15-2.533-3.136-3.865h-2.531c1.694,1.632,3.408,3.191,4.778,4.746,4.855,5.518,9.351,11.313,14.059,16.951a62.182,62.182,0,0,0,7,7.32c3.907.3,7.992.544,12.2.727A56.124,56.124,0,0,1,308.956,146.711Z" transform="translate(-269.779 -120.901)" fill="#bf6c2c" opacity="0.4" style="mix-blend-mode:screen;isolation:isolate"/><path d="M401.186,142.877c3.336-4.448,6.579-9.034,10.154-13.3h-4.683c-5.293,4.981-9.425,10.818-13.657,16.69-3.906,5.415-8.259,9.887-14.482,12.579-.565.245-1.14.467-1.714.689q4.048-.115,7.938-.306A86.9,86.9,0,0,0,401.186,142.877Z" transform="translate(-288.046 -120.901)" fill="#bf6c2c" opacity="0.4" style="mix-blend-mode:screen;isolation:isolate"/><path d="M405.82,148.619c6.185-6.174,12.493-12.3,18.06-19.038h-8.465c-4.35,5.1-8.163,10.714-12.288,16a80.89,80.89,0,0,1-13.754,13.554q3.132-.168,6.143-.381C399.125,155.56,402.407,152.023,405.82,148.619Z" transform="translate(-290.697 -120.901)" fill="#bf6c2c" opacity="0.4" style="mix-blend-mode:screen;isolation:isolate"/><path d="M414.789,149.747c4.415-5.585,7.759-11.858,11.2-18.064-5.384,6.38-11.38,12.242-17.281,18.144-3.089,3.089-6.061,6.29-9.273,9.238q3.59-.276,6.98-.608A82.435,82.435,0,0,0,414.789,149.747Z" transform="translate(-292.819 -121.344)" fill="#bf6c2c" opacity="0.4" style="mix-blend-mode:screen;isolation:isolate"/><path d="M429.131,140.751c2.858-3.673,5.586-7.462,8.4-11.17H430.5c-3.6,6.419-6.919,13.077-11.4,18.934a74.634,74.634,0,0,1-7.825,8.6c-.252.242-.509.478-.763.72,1.064-.111,2.1-.226,3.131-.348C418.806,151.912,424.453,146.765,429.131,140.751Z" transform="translate(-295.156 -120.901)" fill="#bf6c2c" opacity="0.4" style="mix-blend-mode:screen;isolation:isolate"/><path d="M430.986,144.6a39.353,39.353,0,0,1,11.1-9.629c2.446-1.446,4.933-2.823,7.323-4.35v-1.043h-9.23c-2.844,3.717-5.581,7.523-8.459,11.219-4.6,5.918-10.122,11.027-15.226,16.5,2-.247,3.9-.516,5.755-.793C425.511,152.792,427.909,148.47,430.986,144.6Z" transform="translate(-296.416 -120.901)" fill="#bf6c2c" opacity="0.4" style="mix-blend-mode:screen;isolation:isolate"/><path d="M435.32,145.247c-1.718,2.158-3.208,4.5-4.764,6.778,4.824-6.17,11.581-10.874,18.5-14.344,1.095-.549,2.2-1.1,3.321-1.627v-3.482C446.373,136.4,439.923,139.463,435.32,145.247Z" transform="translate(-299.382 -121.532)" fill="#bf6c2c" opacity="0.4" style="mix-blend-mode:screen;isolation:isolate"/><path d="M434.193,152.47c5.256-4.562,11.411-7.727,17.7-10.587v-3.369q-2.12,1-4.2,2.085c-7.641,3.935-15,9.71-19.394,17.232.451-.073.88-.154,1.321-.234A27.162,27.162,0,0,1,434.193,152.47Z" transform="translate(-298.907 -122.785)" fill="#bf6c2c" opacity="0.4" style="mix-blend-mode:screen;isolation:isolate"/><path d="M447.429,150.237a33.8,33.8,0,0,1,5.216-2.41v-3.565a75,75,0,0,0-13.724,7.617,32.737,32.737,0,0,0-7.077,6.667c2.4-.451,4.625-.932,6.66-1.437A40.257,40.257,0,0,1,447.429,150.237Z" transform="translate(-299.654 -123.997)" fill="#bf6c2c" opacity="0.4" style="mix-blend-mode:screen;isolation:isolate"/><path d="M451.106,152.03a43.921,43.921,0,0,0-8.028,5.786c7.55-2.1,11.937-4.58,11.937-7.249v-.208A22.014,22.014,0,0,0,451.106,152.03Z" transform="translate(-302.023 -125.283)" fill="#bf6c2c" opacity="0.4" style="mix-blend-mode:screen;isolation:isolate"/><path d="M308.368,153.355c-5.337-6.294-10.328-12.863-15.835-19.019-1.413-1.58-3.123-3.13-4.787-4.755h-2.269c4.923,6.3,10.014,12.473,14.494,19.1a85.268,85.268,0,0,0,6.942,9.195c2.053.215,4.189.4,6.359.583A53.541,53.541,0,0,1,308.368,153.355Z" transform="translate(-268.785 -120.901)" fill="#bf6c2c" opacity="0.4" style="mix-blend-mode:screen;isolation:isolate"/><path d="M293,150.8c-4.288-6.961-7.8-14.79-12.955-21.222h-2.482c4.106,7.127,8.634,14.007,13.139,20.89,1.223,1.872,2.526,4,3.972,6.09q1.14.17,2.318.33C295.543,154.861,294.218,152.784,293,150.8Z" transform="translate(-267.115 -120.901)" fill="#bf6c2c" opacity="0.4" style="mix-blend-mode:screen;isolation:isolate"/><path d="M270.695,149.96a49.037,49.037,0,0,0-6.372-12.273v4.043c1.833,2.677,3.541,7.248,4.916,10.938.821.385,1.751.761,2.759,1.128C271.559,152.521,271.146,151.232,270.695,149.96Z" transform="translate(-264.323 -122.611)" fill="#bf6c2c" opacity="0.4" style="mix-blend-mode:screen;isolation:isolate"/><g transform="translate(0 8.68)" style="mix-blend-mode:multiply;isolation:isolate"><path d="M264.323,131.522c0,5.647,34.248,10.227,76.5,10.227s76.492-4.581,76.492-10.227v-1.941H264.323Z" transform="translate(-264.323 -129.581)" fill="#b8840f"/></g><path d="M269.2,129.581h-4.875v16.6c0,1.674,1.73,3.277,4.875,4.757Z" transform="translate(-264.323 -120.901)" fill="#b8840f" style="mix-blend-mode:multiply;isolation:isolate"/><path d="M293.18,129.581h-5.153v25.462c1.627.331,3.353.649,5.153.951Z" transform="translate(-269.322 -120.901)" fill="#f9b8bb" opacity="0.3" style="mix-blend-mode:screen;isolation:isolate"/><path d="M402.461,129.581v28.85c25.986-2.161,43.987-6.83,43.987-12.247v-16.6Z" transform="translate(-293.457 -120.901)" fill="#b8840f" style="mix-blend-mode:multiply;isolation:isolate"/><path d="M417.314,127.259c0,4.8-34.25,8.682-76.492,8.682s-76.5-3.885-76.5-8.682,34.248-8.678,76.5-8.678S417.314,122.464,417.314,127.259Z" transform="translate(-264.323 -118.581)" fill="#bf6c2c" stroke="#7e3e15" stroke-miterlimit="10" stroke-width="2.943"/><g opacity="0.3" style="mix-blend-mode:screen;isolation:isolate"><path d="M426.872,128.059c3.96.647,8.409-1.129,12.119-2.333,1.577-.51,3.182-.975,4.771-1.478a122.622,122.622,0,0,0-12.437-2.083c-.165.1-.337.19-.5.288C429.739,123.1,422.811,127.395,426.872,128.059Z" transform="translate(-298.339 -119.337)" fill="#bf6c2c"/><path d="M421.729,128.046c-1.7-1.625,1.155-4.091,4.713-6.253-1.035-.119-2.11-.234-3.2-.35-1.192.654-2.357,1.335-3.483,2.005-1.724,1.026-10.243,5.682-8.382,8.652,1.511,2.411,7.826,1.2,10.152.8a134.03,134.03,0,0,0,13.622-3.439c3.9-1.1,7.828-2.255,11.8-3.206a17.718,17.718,0,0,0-4.137-1.616c-3.152,1.139-6.448,2-9.558,2.908C430.3,128.409,424.42,130.621,421.729,128.046Z" transform="translate(-295.281 -119.185)" fill="#bf6c2c"/><path d="M402.561,119.873c-3.13,2.526-6.692,4.519-9.918,7.01-2.218,1.712-7.178,5.821-5.2,9,1.768-.056,3.525-.116,5.238-.188-2.576-3.058,2.323-7.5,4.989-9.268a76.237,76.237,0,0,1,9.932-5.543c.4-.185.866-.378,1.363-.585C406.9,120.146,404.75,120.008,402.561,119.873Z" transform="translate(-290.193 -118.853)" fill="#bf6c2c"/><path d="M299.135,126.9a156.852,156.852,0,0,0-19.065,4.562c-.443.143-.9.269-1.348.4,1.472.271,3.058.53,4.772.781,11.117-2.38,21.7-6.808,32.631-10.085,3.88-1.165,7.728-2.367,11.524-3.722q-3.274.079-6.437.19A73.25,73.25,0,0,1,299.135,126.9Z" transform="translate(-267.36 -118.634)" fill="#bf6c2c"/><path d="M271.289,126.6c4.724-1.483,9.447-2.954,14.107-4.6-13.053,1.557-21.074,3.66-21.074,5.978a1.1,1.1,0,0,0,.085.388C266.719,127.856,269.025,127.315,271.289,126.6Z" transform="translate(-264.323 -119.303)" fill="#bf6c2c"/><path d="M290.1,121.069c-5.421,2.1-10.962,3.886-16.528,5.582-2.723.834-5.525,1.458-8.333,2.079a8.223,8.223,0,0,0,2.08,1.136c5.677-1.186,11.306-2.587,16.9-4.128,6.641-1.833,13.23-3.822,19.854-5.708.143-.04.288-.075.431-.115C299.305,120.236,294.475,120.623,290.1,121.069Z" transform="translate(-264.516 -118.863)" fill="#bf6c2c"/><path d="M308.411,120.095c-6.624,1.824-13.164,3.955-19.807,5.715-6.059,1.6-12.1,3.262-18.225,4.595q1.832.561,4.293,1.079c.789-.209,1.576-.428,2.349-.674a153.67,153.67,0,0,1,18.015-4.5A82.968,82.968,0,0,0,316.89,119.2q-2.87.112-5.63.253C310.275,119.646,309.309,119.845,308.411,120.095Z" transform="translate(-265.6 -118.711)" fill="#bf6c2c"/><path d="M333.05,118.706c-5.4,2.068-10.928,3.731-16.475,5.414-9.432,2.866-18.562,6.523-28.052,8.873,1.134.144,2.294.288,3.51.424.322-.029.643-.058.967-.1a54.938,54.938,0,0,0,7.931-1.615c4.466-1.25,8.821-2.761,13.143-4.431a91.286,91.286,0,0,1,12.863-4.312c2.439-.548,6.6-1.84,9.033-.77,3.418,1.506-2.872,6.318-3.977,7.252-2.3,1.952-4.469,4.087-6.674,6.175q1.375.046,2.773.085a40.18,40.18,0,0,1,7.893-6.974c4.688-3.383,9.386-6.913,14.268-10.126-1.436-.009-2.868-.021-4.327-.021Q339.341,118.581,333.05,118.706Z" transform="translate(-269.427 -118.581)" fill="#bf6c2c"/><path d="M333.9,130.473a2.252,2.252,0,0,0-2.258-.944,19.659,19.659,0,0,0-3.56.641,31.889,31.889,0,0,0-6.172,2.541c-2.542,1.365-5.016,2.945-7.521,4.445,3.264.205,6.679.381,10.212.533a32.845,32.845,0,0,0,7.971-5.391A4.159,4.159,0,0,0,333.9,130.473Z" transform="translate(-274.882 -120.882)" fill="#bf6c2c"/><path d="M336.891,124.245a24.775,24.775,0,0,0-4.813.392c-7.307,1.287-13.886,4.517-20.871,6.837a106.723,106.723,0,0,1-10.959,3.224c-.661.142-1.331.251-2,.347,3.382.329,7.031.623,10.887.88,5.835-3.392,11.387-7.535,18.2-8.495,2.6-.367,5.848.788,3.377,3.674a26.6,26.6,0,0,1-7.477,5.558c.849.032,1.7.066,2.56.1,2.255-2.123,4.45-4.327,6.808-6.321a38.155,38.155,0,0,0,4.084-3.735C337.288,126.022,338.88,124.291,336.891,124.245Z" transform="translate(-271.478 -119.774)" fill="#bf6c2c"/><path d="M349.862,127.974c-2.646,1.823-6.8,4.529-9.576,7.77q3.8.093,7.738.148a59.383,59.383,0,0,1,6.6-6.946A95.5,95.5,0,0,1,369.2,118.713q-2.916-.058-5.9-.087C358.731,121.6,354.352,124.878,349.862,127.974Z" transform="translate(-280.344 -118.59)" fill="#bf6c2c"/><path d="M360.7,127.323a63.4,63.4,0,0,0-8.869,8.622q3.68.038,7.448.04h.219a62.554,62.554,0,0,1,4.834-5.109,85.251,85.251,0,0,1,15.281-11.934c-1.973-.064-3.985-.114-6.018-.159A102.21,102.21,0,0,0,360.7,127.323Z" transform="translate(-282.779 -118.624)" fill="#bf6c2c"/><path d="M369.354,129.923a79.355,79.355,0,0,0-6,6.115c2.729-.006,5.431-.028,8.083-.064a13.565,13.565,0,0,1,3.624-5.315,58.936,58.936,0,0,1,8.893-7.022c2.206-1.462,4.473-2.824,6.756-4.163.07-.042.148-.083.22-.123q-3.4-.163-6.961-.285A79.991,79.991,0,0,0,369.354,129.923Z" transform="translate(-285.209 -118.683)" fill="#bf6c2c"/><path d="M393.742,120.514a89.511,89.511,0,0,0-9.18,5.88,47.274,47.274,0,0,0-6.758,5.666,11.863,11.863,0,0,0-2.666,4c2.943-.047,5.841-.114,8.667-.2a5.093,5.093,0,0,1,.208-3.93c1.385-3.418,5.218-5.907,8.159-7.872,2.126-1.42,4.313-2.789,6.342-4.341-1-.057-2.029-.111-3.056-.163C394.871,119.874,394.29,120.191,393.742,120.514Z" transform="translate(-287.695 -118.786)" fill="#bf6c2c"/><path d="M444.481,126.933c-6.823,1.581-13.53,3.878-20.273,5.58-4.252,1.07-8.8,2.061-13.22,1.776-1.584-.1-3.922-.482-4.277-2.423-.7-3.823,4.988-7.047,7.611-8.674,1.142-.706,2.32-1.417,3.522-2.111q-2.47-.238-5.12-.454c-2.548,1.224-5.074,2.441-7.573,3.772-2.548,1.357-14.268,8.256-9.374,11.395,28.662-1.253,49.012-4.408,49.012-8.1A1.25,1.25,0,0,0,444.481,126.933Z" transform="translate(-291.798 -119.013)" fill="#bf6c2c"/></g><g transform="translate(7.301 3.134)" opacity="0.3" style="mix-blend-mode:screen;isolation:isolate"><path d="M371.3,128.1c0,3.064-21.878,5.548-48.862,5.548s-48.865-2.484-48.865-5.548,21.875-5.544,48.865-5.544S371.3,125.035,371.3,128.1Z" transform="translate(-273.575 -122.553)" fill="#f9b8bb"/></g></g><path d="M275.255,180.741s-8.673,5.694-8.614,15.457,0,112.537,0,112.537-1.135,23.507,14.16,30.371c0,0-4.339-15.533-4.339-28.649V198.1s1.628-10.3,9.627-14.373Z" transform="translate(-256.705 -131.691)" fill="url(#b)" style="mix-blend-mode:screen;isolation:isolate"/></g></g><ellipse cx="83.548" cy="9.812" rx="83.548" ry="9.812" transform="translate(251.462 262.499)" fill="#c5dbe6" opacity="0.6" style="mix-blend-mode:multiply;isolation:isolate"/><ellipse cx="75.719" cy="6.203" rx="75.719" ry="6.203" transform="translate(259.291 266.108)" fill="#c3dadd"/><path d="M256.157,279.915V186.262s-1.48-8.1,6.421-14.843l10.553-10.836s20.3,7.56,66.445,6.6,65.38-6.6,65.38-6.6,16.707,13.535,17.619,26.257v94.329s-.57-9.146-83-9.812C339.575,271.358,263.456,272.174,256.157,279.915Z" transform="translate(-4.017 -8.858)" fill="#fff" opacity="0.71"/></g><g transform="translate(678.328 3061.254)"><g transform="translate(237 118.581)"><path d="M426.671,386.425c0,8.618-42.458,15.6-94.835,15.6S237,395.043,237,386.425s42.459-15.607,94.837-15.607S426.671,377.8,426.671,386.425Z" transform="translate(-237 -171.779)" fill="url(#a)" style="mix-blend-mode:multiply;isolation:isolate"/><g transform="translate(13.458)"><g transform="translate(0 22.599)" opacity="0.9"><path d="M423.066,191.251c0-13.359.431-17.14-15.626-32.013-4.5-4.271-8.338-8.285-11.637-12.018H281.5c-3.3,3.732-7.139,7.747-11.638,12.018-16.057,14.873-15.621,18.653-15.621,32.013V306.691c0,24.7-7.381,41.334,71.173,41.84h26.474c78.555-.506,71.179-17.139,71.179-41.84Z" transform="translate(-254.055 -147.22)" fill="#dfe9ef" stroke="#98aeb9" stroke-miterlimit="10" stroke-width="2.943"/></g><g transform="translate(0 22.599)"><path d="M423.066,191.251c0-13.359.431-17.14-15.626-32.013-4.5-4.271-8.338-8.285-11.637-12.018H281.5c-3.3,3.732-7.139,7.747-11.638,12.018-16.057,14.873-15.621,18.653-15.621,32.013V306.691c0,24.7-7.381,41.334,71.173,41.84h26.474c78.555-.506,71.179-17.139,71.179-41.84Z" transform="translate(-254.055 -147.22)" fill="none" stroke="#98aeb9" stroke-miterlimit="10" stroke-width="2.943"/></g><path d="M423.066,306.691V191.251c0-13.359.431-17.14-15.626-32.013-4.5-4.271-8.338-8.285-11.637-12.018H281.5c-3.3,3.732-7.139,7.747-11.638,12.018-16.057,14.873-15.621,18.653-15.621,32.013V306.691c0,24.7-7.381,41.334,71.173,41.84h26.474C430.442,348.026,423.066,331.392,423.066,306.691Zm-86.343,14.226c-1.9,9.218-11.66,13.558-11.66,13.558-28.473,11.66-53.692-1.628-53.692-1.628-11.66-6.779-11.388-29.556-11.388-29.556s-.544-98.978,0-114.436,13.828-23.319,13.828-23.319c14.643,8.407,53.963,7.865,53.963,7.865,8.407,4.611,8.949,16,8.949,16S338.621,311.7,336.724,320.917Z" transform="translate(-254.055 -124.621)" fill="#d9f1fd" opacity="0.6" style="mix-blend-mode:multiply;isolation:isolate"/><g transform="translate(1.005 22.599)"><path d="M272.892,337.743s25.219,13.288,53.692,1.628c0,0,9.76-4.34,11.66-13.558s0-131.52,0-131.52-.542-11.385-8.949-16c0,0-39.32.542-53.963-7.865,0,0-13.287,7.865-13.828,23.319s0,114.436,0,114.436S261.231,330.964,272.892,337.743Z" transform="translate(-256.579 -152.115)" fill="none"/><path d="M423.335,306.691V191.251c0-13.359.431-17.14-15.626-32.013-4.5-4.271-8.338-8.285-11.637-12.018H281.767c-3.3,3.732-7.139,7.747-11.638,12.018-1.9,1.765-3.573,3.369-5.042,4.858,3.495-1.87,7.11-3.189,9.808-2.673,0,0,25.489,7.1,51.521,6.824s35.513-2.44,43.789,14.372c0,0,4.75,9.763,5.293,26.3s0,116.332,0,116.332,2.44,11.39-12.475,15.457-97.7,10.16-107.695-12.954h0c3.332,12.667,17.077,20.43,70.353,20.773h26.474C430.711,348.026,423.335,331.392,423.335,306.691Z" transform="translate(-255.328 -147.22)" fill="#c5dbe6" opacity="0.6" style="mix-blend-mode:multiply;isolation:isolate"/></g><g transform="translate(8.102)"><path d="M264.323,129.581v16.6c0,7.472,34.248,13.531,76.5,13.531s76.492-6.059,76.492-13.531v-16.6Z" transform="translate(-264.323 -120.901)" fill="#bf6c2c" stroke="#7e3e15" stroke-miterlimit="10" stroke-width="2.943"/><path d="M267.116,151.284a47.6,47.6,0,0,0-2.793-6.213v4.38c0,1.445,1.294,2.836,3.665,4.142C267.7,152.821,267.419,152.05,267.116,151.284Z" transform="translate(-264.323 -124.168)" fill="#bf6c2c" opacity="0.4" style="mix-blend-mode:screen;isolation:isolate"/><path d="M264.323,130.838v3.631a54.636,54.636,0,0,1,6.549,11.478c.975,2.213,1.622,4.58,2.43,6.857.2.065.41.13.612.2C270.67,145.631,269.223,137.241,264.323,130.838Z" transform="translate(-264.323 -121.166)" fill="#bf6c2c" opacity="0.4" style="mix-blend-mode:screen;isolation:isolate"/><path d="M277.124,150.2c-2.99-7.274-6.388-14.515-11.409-20.618h-.632c5.322,6.778,6.641,15.843,10.3,23.554,1.059.312,2.192.615,3.384.909C278.18,152.758,277.642,151.458,277.124,150.2Z" transform="translate(-264.483 -120.901)" fill="#bf6c2c" opacity="0.4" style="mix-blend-mode:screen;isolation:isolate"/><path d="M280.445,148.579c-3.19-6.613-6.756-13.314-11.461-19h-1.313a73.491,73.491,0,0,1,9.758,17.22c1.008,2.393,1.982,5.039,3.182,7.556.924.213,1.889.424,2.882.63C282.41,152.862,281.452,150.668,280.445,148.579Z" transform="translate(-265.029 -120.901)" fill="#bf6c2c" opacity="0.4" style="mix-blend-mode:screen;isolation:isolate"/><path d="M285.765,149.844a113.967,113.967,0,0,0-12.243-20.263h-2.406a93.253,93.253,0,0,1,10.365,17.168c1.331,2.7,2.545,5.69,4.025,8.491,1.086.213,2.224.417,3.382.618C287.749,153.906,286.729,151.871,285.765,149.844Z" transform="translate(-265.756 -120.901)" fill="#bf6c2c" opacity="0.4" style="mix-blend-mode:screen;isolation:isolate"/><path d="M293.01,156.731q-2.157-3.251-4.3-6.517c.344.688.712,1.361,1.044,2.059A89.573,89.573,0,0,0,294,160.446c.535.088,1.091.171,1.64.255C294.716,159.339,293.844,157.984,293.01,156.731Z" transform="translate(-269.467 -125.253)" fill="#bf6c2c" opacity="0.4" style="mix-blend-mode:screen;isolation:isolate"/><path d="M299.745,151.215c-5.113-7.47-10.837-14.464-16.335-21.634h-.975c4.306,5.618,7.438,12.177,11.047,18.228,1.76,2.954,3.707,6.212,5.947,9.268,1.692.221,3.439.429,5.231.626A75.307,75.307,0,0,1,299.745,151.215Z" transform="translate(-268.143 -120.901)" fill="#bf6c2c" opacity="0.4" style="mix-blend-mode:screen;isolation:isolate"/><path d="M316.608,147.1c-4.18-3.69-8.551-7.055-12.231-11.283a60.107,60.107,0,0,1-4.776-6.238h-4.534a61.081,61.081,0,0,0,4.278,4.937c3.7,3.885,7.532,7.709,11.407,11.424,6.39,6.123,13.76,11.045,22.059,13.52.241.009.495.013.737.021C327.044,157.3,321.956,151.824,316.608,147.1Z" transform="translate(-270.807 -120.901)" fill="#bf6c2c" opacity="0.4" style="mix-blend-mode:screen;isolation:isolate"/><path d="M339.068,139.422c3.409,2.333,8.159,5.358,12.432,3.623,3.441-1.4,5.845-4.356,8.231-7.073,1.933-2.2,3.945-4.358,6.047-6.391H328.3C331.189,133.592,335.474,136.961,339.068,139.422Z" transform="translate(-277.815 -120.901)" fill="#bf6c2c" opacity="0.4" style="mix-blend-mode:screen;isolation:isolate"/><path d="M360.061,135.173c-2.241,2.467-4.312,5.281-7.052,7.231-6.78,4.823-13.743.055-19.4-4.335a39.489,39.489,0,0,1-8.392-8.488H319.6c2.592,3.727,6.64,6.83,9.911,9.24,5.993,4.417,14.01,9.756,21.582,6.117,7.133-3.425,12.188-9.932,17.854-15.237.045-.041.089-.078.133-.12h-3.642C363.581,131.377,361.805,133.249,360.061,135.173Z" transform="translate(-275.98 -120.901)" fill="#bf6c2c" opacity="0.4" style="mix-blend-mode:screen;isolation:isolate"/><path d="M365.007,133.838c-5.049,5.11-11.279,12.39-18.9,13.333-7.372.91-14.721-4.424-20.213-8.767-3.052-2.414-6.557-5.331-8.841-8.823h-3.571c2.833,3.322,5.611,6.692,8.595,9.883a60.739,60.739,0,0,0,9.364,8.477c3.518,2.455,7.989,5.345,12.421,5.36,10.166.027,16.584-9.887,22.1-17.014a42.063,42.063,0,0,1,6.2-6.7h-2.722C367.913,130.918,366.468,132.363,365.007,133.838Z" transform="translate(-274.691 -120.901)" fill="#bf6c2c" opacity="0.4" style="mix-blend-mode:screen;isolation:isolate"/><path d="M361.735,140.587c-4.627,6.089-11.615,14.368-20.2,13.8-8.345-.557-15.948-7.2-21.445-12.983-3.606-3.792-6.915-7.859-10.332-11.821h-7.32a53.043,53.043,0,0,0,4.854,6.134c3.407,3.7,7.256,6.75,11.011,10.069,3.736,3.3,7.115,7.171,11.308,9.911a20.4,20.4,0,0,0,16.406,3.071c5.607-1.358,8.777-4.618,12.684-8.577s7.275-8.4,10.894-12.628a45.687,45.687,0,0,1,8.384-7.979h-6.356C367.642,132.628,364.8,136.551,361.735,140.587Z" transform="translate(-272.362 -120.901)" fill="#bf6c2c" opacity="0.4" style="mix-blend-mode:screen;isolation:isolate"/><path d="M379.629,141.368a156.3,156.3,0,0,1-11.659,13.013,20.317,20.317,0,0,1-9.572,5.313c.759,0,1.5.021,2.265.021q4.414,0,8.7-.089a36.443,36.443,0,0,0,8.213-3.473c5.857-3.4,9.427-8.861,13.3-14.226a87.723,87.723,0,0,1,10.316-12.346H391.8C386.918,132.678,383.313,136.892,379.629,141.368Z" transform="translate(-284.164 -120.901)" fill="#bf6c2c" opacity="0.4" style="mix-blend-mode:screen;isolation:isolate"/><path d="M308.956,146.711c-4.43-4.312-9.011-8.621-13.1-13.265-1.1-1.244-2.15-2.533-3.136-3.865h-2.531c1.694,1.632,3.408,3.191,4.778,4.746,4.855,5.518,9.351,11.313,14.059,16.951a62.182,62.182,0,0,0,7,7.32c3.907.3,7.992.544,12.2.727A56.124,56.124,0,0,1,308.956,146.711Z" transform="translate(-269.779 -120.901)" fill="#bf6c2c" opacity="0.4" style="mix-blend-mode:screen;isolation:isolate"/><path d="M401.186,142.877c3.336-4.448,6.579-9.034,10.154-13.3h-4.683c-5.293,4.981-9.425,10.818-13.657,16.69-3.906,5.415-8.259,9.887-14.482,12.579-.565.245-1.14.467-1.714.689q4.048-.115,7.938-.306A86.9,86.9,0,0,0,401.186,142.877Z" transform="translate(-288.046 -120.901)" fill="#bf6c2c" opacity="0.4" style="mix-blend-mode:screen;isolation:isolate"/><path d="M405.82,148.619c6.185-6.174,12.493-12.3,18.06-19.038h-8.465c-4.35,5.1-8.163,10.714-12.288,16a80.89,80.89,0,0,1-13.754,13.554q3.132-.168,6.143-.381C399.125,155.56,402.407,152.023,405.82,148.619Z" transform="translate(-290.697 -120.901)" fill="#bf6c2c" opacity="0.4" style="mix-blend-mode:screen;isolation:isolate"/><path d="M414.789,149.747c4.415-5.585,7.759-11.858,11.2-18.064-5.384,6.38-11.38,12.242-17.281,18.144-3.089,3.089-6.061,6.29-9.273,9.238q3.59-.276,6.98-.608A82.435,82.435,0,0,0,414.789,149.747Z" transform="translate(-292.819 -121.344)" fill="#bf6c2c" opacity="0.4" style="mix-blend-mode:screen;isolation:isolate"/><path d="M429.131,140.751c2.858-3.673,5.586-7.462,8.4-11.17H430.5c-3.6,6.419-6.919,13.077-11.4,18.934a74.634,74.634,0,0,1-7.825,8.6c-.252.242-.509.478-.763.72,1.064-.111,2.1-.226,3.131-.348C418.806,151.912,424.453,146.765,429.131,140.751Z" transform="translate(-295.156 -120.901)" fill="#bf6c2c" opacity="0.4" style="mix-blend-mode:screen;isolation:isolate"/><path d="M430.986,144.6a39.353,39.353,0,0,1,11.1-9.629c2.446-1.446,4.933-2.823,7.323-4.35v-1.043h-9.23c-2.844,3.717-5.581,7.523-8.459,11.219-4.6,5.918-10.122,11.027-15.226,16.5,2-.247,3.9-.516,5.755-.793C425.511,152.792,427.909,148.47,430.986,144.6Z" transform="translate(-296.416 -120.901)" fill="#bf6c2c" opacity="0.4" style="mix-blend-mode:screen;isolation:isolate"/><path d="M435.32,145.247c-1.718,2.158-3.208,4.5-4.764,6.778,4.824-6.17,11.581-10.874,18.5-14.344,1.095-.549,2.2-1.1,3.321-1.627v-3.482C446.373,136.4,439.923,139.463,435.32,145.247Z" transform="translate(-299.382 -121.532)" fill="#bf6c2c" opacity="0.4" style="mix-blend-mode:screen;isolation:isolate"/><path d="M434.193,152.47c5.256-4.562,11.411-7.727,17.7-10.587v-3.369q-2.12,1-4.2,2.085c-7.641,3.935-15,9.71-19.394,17.232.451-.073.88-.154,1.321-.234A27.162,27.162,0,0,1,434.193,152.47Z" transform="translate(-298.907 -122.785)" fill="#bf6c2c" opacity="0.4" style="mix-blend-mode:screen;isolation:isolate"/><path d="M447.429,150.237a33.8,33.8,0,0,1,5.216-2.41v-3.565a75,75,0,0,0-13.724,7.617,32.737,32.737,0,0,0-7.077,6.667c2.4-.451,4.625-.932,6.66-1.437A40.257,40.257,0,0,1,447.429,150.237Z" transform="translate(-299.654 -123.997)" fill="#bf6c2c" opacity="0.4" style="mix-blend-mode:screen;isolation:isolate"/><path d="M451.106,152.03a43.921,43.921,0,0,0-8.028,5.786c7.55-2.1,11.937-4.58,11.937-7.249v-.208A22.014,22.014,0,0,0,451.106,152.03Z" transform="translate(-302.023 -125.283)" fill="#bf6c2c" opacity="0.4" style="mix-blend-mode:screen;isolation:isolate"/><path d="M308.368,153.355c-5.337-6.294-10.328-12.863-15.835-19.019-1.413-1.58-3.123-3.13-4.787-4.755h-2.269c4.923,6.3,10.014,12.473,14.494,19.1a85.268,85.268,0,0,0,6.942,9.195c2.053.215,4.189.4,6.359.583A53.541,53.541,0,0,1,308.368,153.355Z" transform="translate(-268.785 -120.901)" fill="#bf6c2c" opacity="0.4" style="mix-blend-mode:screen;isolation:isolate"/><path d="M293,150.8c-4.288-6.961-7.8-14.79-12.955-21.222h-2.482c4.106,7.127,8.634,14.007,13.139,20.89,1.223,1.872,2.526,4,3.972,6.09q1.14.17,2.318.33C295.543,154.861,294.218,152.784,293,150.8Z" transform="translate(-267.115 -120.901)" fill="#bf6c2c" opacity="0.4" style="mix-blend-mode:screen;isolation:isolate"/><path d="M270.695,149.96a49.037,49.037,0,0,0-6.372-12.273v4.043c1.833,2.677,3.541,7.248,4.916,10.938.821.385,1.751.761,2.759,1.128C271.559,152.521,271.146,151.232,270.695,149.96Z" transform="translate(-264.323 -122.611)" fill="#bf6c2c" opacity="0.4" style="mix-blend-mode:screen;isolation:isolate"/><g transform="translate(0 8.68)" style="mix-blend-mode:multiply;isolation:isolate"><path d="M264.323,131.522c0,5.647,34.248,10.227,76.5,10.227s76.492-4.581,76.492-10.227v-1.941H264.323Z" transform="translate(-264.323 -129.581)" fill="#b8840f"/></g><path d="M269.2,129.581h-4.875v16.6c0,1.674,1.73,3.277,4.875,4.757Z" transform="translate(-264.323 -120.901)" fill="#b8840f" style="mix-blend-mode:multiply;isolation:isolate"/><path d="M293.18,129.581h-5.153v25.462c1.627.331,3.353.649,5.153.951Z" transform="translate(-269.322 -120.901)" fill="#f9b8bb" opacity="0.3" style="mix-blend-mode:screen;isolation:isolate"/><path d="M402.461,129.581v28.85c25.986-2.161,43.987-6.83,43.987-12.247v-16.6Z" transform="translate(-293.457 -120.901)" fill="#b8840f" style="mix-blend-mode:multiply;isolation:isolate"/><path d="M417.314,127.259c0,4.8-34.25,8.682-76.492,8.682s-76.5-3.885-76.5-8.682,34.248-8.678,76.5-8.678S417.314,122.464,417.314,127.259Z" transform="translate(-264.323 -118.581)" fill="#bf6c2c" stroke="#7e3e15" stroke-miterlimit="10" stroke-width="2.943"/><g opacity="0.3" style="mix-blend-mode:screen;isolation:isolate"><path d="M426.872,128.059c3.96.647,8.409-1.129,12.119-2.333,1.577-.51,3.182-.975,4.771-1.478a122.622,122.622,0,0,0-12.437-2.083c-.165.1-.337.19-.5.288C429.739,123.1,422.811,127.395,426.872,128.059Z" transform="translate(-298.339 -119.337)" fill="#bf6c2c"/><path d="M421.729,128.046c-1.7-1.625,1.155-4.091,4.713-6.253-1.035-.119-2.11-.234-3.2-.35-1.192.654-2.357,1.335-3.483,2.005-1.724,1.026-10.243,5.682-8.382,8.652,1.511,2.411,7.826,1.2,10.152.8a134.03,134.03,0,0,0,13.622-3.439c3.9-1.1,7.828-2.255,11.8-3.206a17.718,17.718,0,0,0-4.137-1.616c-3.152,1.139-6.448,2-9.558,2.908C430.3,128.409,424.42,130.621,421.729,128.046Z" transform="translate(-295.281 -119.185)" fill="#bf6c2c"/><path d="M402.561,119.873c-3.13,2.526-6.692,4.519-9.918,7.01-2.218,1.712-7.178,5.821-5.2,9,1.768-.056,3.525-.116,5.238-.188-2.576-3.058,2.323-7.5,4.989-9.268a76.237,76.237,0,0,1,9.932-5.543c.4-.185.866-.378,1.363-.585C406.9,120.146,404.75,120.008,402.561,119.873Z" transform="translate(-290.193 -118.853)" fill="#bf6c2c"/><path d="M299.135,126.9a156.852,156.852,0,0,0-19.065,4.562c-.443.143-.9.269-1.348.4,1.472.271,3.058.53,4.772.781,11.117-2.38,21.7-6.808,32.631-10.085,3.88-1.165,7.728-2.367,11.524-3.722q-3.274.079-6.437.19A73.25,73.25,0,0,1,299.135,126.9Z" transform="translate(-267.36 -118.634)" fill="#bf6c2c"/><path d="M271.289,126.6c4.724-1.483,9.447-2.954,14.107-4.6-13.053,1.557-21.074,3.66-21.074,5.978a1.1,1.1,0,0,0,.085.388C266.719,127.856,269.025,127.315,271.289,126.6Z" transform="translate(-264.323 -119.303)" fill="#bf6c2c"/><path d="M290.1,121.069c-5.421,2.1-10.962,3.886-16.528,5.582-2.723.834-5.525,1.458-8.333,2.079a8.223,8.223,0,0,0,2.08,1.136c5.677-1.186,11.306-2.587,16.9-4.128,6.641-1.833,13.23-3.822,19.854-5.708.143-.04.288-.075.431-.115C299.305,120.236,294.475,120.623,290.1,121.069Z" transform="translate(-264.516 -118.863)" fill="#bf6c2c"/><path d="M308.411,120.095c-6.624,1.824-13.164,3.955-19.807,5.715-6.059,1.6-12.1,3.262-18.225,4.595q1.832.561,4.293,1.079c.789-.209,1.576-.428,2.349-.674a153.67,153.67,0,0,1,18.015-4.5A82.968,82.968,0,0,0,316.89,119.2q-2.87.112-5.63.253C310.275,119.646,309.309,119.845,308.411,120.095Z" transform="translate(-265.6 -118.711)" fill="#bf6c2c"/><path d="M333.05,118.706c-5.4,2.068-10.928,3.731-16.475,5.414-9.432,2.866-18.562,6.523-28.052,8.873,1.134.144,2.294.288,3.51.424.322-.029.643-.058.967-.1a54.938,54.938,0,0,0,7.931-1.615c4.466-1.25,8.821-2.761,13.143-4.431a91.286,91.286,0,0,1,12.863-4.312c2.439-.548,6.6-1.84,9.033-.77,3.418,1.506-2.872,6.318-3.977,7.252-2.3,1.952-4.469,4.087-6.674,6.175q1.375.046,2.773.085a40.18,40.18,0,0,1,7.893-6.974c4.688-3.383,9.386-6.913,14.268-10.126-1.436-.009-2.868-.021-4.327-.021Q339.341,118.581,333.05,118.706Z" transform="translate(-269.427 -118.581)" fill="#bf6c2c"/><path d="M333.9,130.473a2.252,2.252,0,0,0-2.258-.944,19.659,19.659,0,0,0-3.56.641,31.889,31.889,0,0,0-6.172,2.541c-2.542,1.365-5.016,2.945-7.521,4.445,3.264.205,6.679.381,10.212.533a32.845,32.845,0,0,0,7.971-5.391A4.159,4.159,0,0,0,333.9,130.473Z" transform="translate(-274.882 -120.882)" fill="#bf6c2c"/><path d="M336.891,124.245a24.775,24.775,0,0,0-4.813.392c-7.307,1.287-13.886,4.517-20.871,6.837a106.723,106.723,0,0,1-10.959,3.224c-.661.142-1.331.251-2,.347,3.382.329,7.031.623,10.887.88,5.835-3.392,11.387-7.535,18.2-8.495,2.6-.367,5.848.788,3.377,3.674a26.6,26.6,0,0,1-7.477,5.558c.849.032,1.7.066,2.56.1,2.255-2.123,4.45-4.327,6.808-6.321a38.155,38.155,0,0,0,4.084-3.735C337.288,126.022,338.88,124.291,336.891,124.245Z" transform="translate(-271.478 -119.774)" fill="#bf6c2c"/><path d="M349.862,127.974c-2.646,1.823-6.8,4.529-9.576,7.77q3.8.093,7.738.148a59.383,59.383,0,0,1,6.6-6.946A95.5,95.5,0,0,1,369.2,118.713q-2.916-.058-5.9-.087C358.731,121.6,354.352,124.878,349.862,127.974Z" transform="translate(-280.344 -118.59)" fill="#bf6c2c"/><path d="M360.7,127.323a63.4,63.4,0,0,0-8.869,8.622q3.68.038,7.448.04h.219a62.554,62.554,0,0,1,4.834-5.109,85.251,85.251,0,0,1,15.281-11.934c-1.973-.064-3.985-.114-6.018-.159A102.21,102.21,0,0,0,360.7,127.323Z" transform="translate(-282.779 -118.624)" fill="#bf6c2c"/><path d="M369.354,129.923a79.355,79.355,0,0,0-6,6.115c2.729-.006,5.431-.028,8.083-.064a13.565,13.565,0,0,1,3.624-5.315,58.936,58.936,0,0,1,8.893-7.022c2.206-1.462,4.473-2.824,6.756-4.163.07-.042.148-.083.22-.123q-3.4-.163-6.961-.285A79.991,79.991,0,0,0,369.354,129.923Z" transform="translate(-285.209 -118.683)" fill="#bf6c2c"/><path d="M393.742,120.514a89.511,89.511,0,0,0-9.18,5.88,47.274,47.274,0,0,0-6.758,5.666,11.863,11.863,0,0,0-2.666,4c2.943-.047,5.841-.114,8.667-.2a5.093,5.093,0,0,1,.208-3.93c1.385-3.418,5.218-5.907,8.159-7.872,2.126-1.42,4.313-2.789,6.342-4.341-1-.057-2.029-.111-3.056-.163C394.871,119.874,394.29,120.191,393.742,120.514Z" transform="translate(-287.695 -118.786)" fill="#bf6c2c"/><path d="M444.481,126.933c-6.823,1.581-13.53,3.878-20.273,5.58-4.252,1.07-8.8,2.061-13.22,1.776-1.584-.1-3.922-.482-4.277-2.423-.7-3.823,4.988-7.047,7.611-8.674,1.142-.706,2.32-1.417,3.522-2.111q-2.47-.238-5.12-.454c-2.548,1.224-5.074,2.441-7.573,3.772-2.548,1.357-14.268,8.256-9.374,11.395,28.662-1.253,49.012-4.408,49.012-8.1A1.25,1.25,0,0,0,444.481,126.933Z" transform="translate(-291.798 -119.013)" fill="#bf6c2c"/></g><g transform="translate(7.301 3.134)" opacity="0.3" style="mix-blend-mode:screen;isolation:isolate"><path d="M371.3,128.1c0,3.064-21.878,5.548-48.862,5.548s-48.865-2.484-48.865-5.548,21.875-5.544,48.865-5.544S371.3,125.035,371.3,128.1Z" transform="translate(-273.575 -122.553)" fill="#f9b8bb"/></g></g><path d="M275.255,180.741s-8.673,5.694-8.614,15.457,0,112.537,0,112.537-1.135,23.507,14.16,30.371c0,0-4.339-15.533-4.339-28.649V198.1s1.628-10.3,9.627-14.373Z" transform="translate(-256.705 -131.691)" fill="url(#b)" style="mix-blend-mode:screen;isolation:isolate"/></g></g><ellipse cx="83.548" cy="9.812" rx="83.548" ry="9.812" transform="translate(251.462 262.499)" fill="#c5dbe6" opacity="0.6" style="mix-blend-mode:multiply;isolation:isolate"/><ellipse cx="75.719" cy="6.203" rx="75.719" ry="6.203" transform="translate(259.291 266.108)" fill="#c3dadd"/><path d="M256.157,279.915V186.262s-1.48-8.1,6.421-14.843l10.553-10.836s20.3,7.56,66.445,6.6,65.38-6.6,65.38-6.6,16.707,13.535,17.619,26.257v94.329s-.57-9.146-83-9.812C339.575,271.358,263.456,272.174,256.157,279.915Z" transform="translate(-4.017 -8.858)" fill="#fff" opacity="0.71"/></g><circle cx="6" cy="6" r="6" transform="translate(525 3349.295)" fill="url(#g)"/><circle cx="6" cy="6" r="6" transform="translate(735.328 3349.295)" fill="url(#g)"/><circle cx="6" cy="6" r="6" transform="translate(945.328 3349.295)" fill="url(#g)"/><circle cx="6" cy="6" r="6" transform="translate(527 3363.295)" fill="url(#g)"/><circle cx="6" cy="6" r="6" transform="translate(737.328 3363.295)" fill="url(#g)"/><circle cx="6" cy="6" r="6" transform="translate(947.328 3363.295)" fill="url(#g)"/><circle cx="6" cy="6" r="6" transform="translate(539 3355.295)" fill="url(#g)"/><circle cx="6" cy="6" r="6" transform="translate(749.328 3355.295)" fill="url(#g)"/><circle cx="6" cy="6" r="6" transform="translate(959.328 3355.295)" fill="url(#g)"/><circle cx="6" cy="6" r="6" transform="translate(543 3368.295)" fill="url(#g)"/><circle cx="6" cy="6" r="6" transform="translate(753.328 3368.295)" fill="url(#g)"/><circle cx="6" cy="6" r="6" transform="translate(963.328 3368.295)" fill="url(#g)"/><circle cx="6" cy="6" r="6" transform="translate(532 3375.295)" fill="url(#g)"/><circle cx="6" cy="6" r="6" transform="translate(742.328 3375.295)" fill="url(#g)"/><circle cx="6" cy="6" r="6" transform="translate(952.328 3375.295)" fill="url(#g)"/><circle cx="6" cy="6" r="6" transform="translate(541 3386.295)" fill="url(#g)"/><circle cx="6" cy="6" r="6" transform="translate(751.328 3386.295)" fill="url(#g)"/><circle cx="6" cy="6" r="6" transform="translate(961.328 3386.295)" fill="url(#g)"/><circle cx="6" cy="6" r="6" transform="translate(555 3388.295)" fill="url(#g)"/><circle cx="6" cy="6" r="6" transform="translate(765.328 3388.295)" fill="url(#g)"/><circle cx="6" cy="6" r="6" transform="translate(975.328 3388.295)" fill="url(#g)"/><circle cx="6" cy="6" r="6" transform="translate(571 3389.295)" fill="url(#g)"/><circle cx="6" cy="6" r="6" transform="translate(781.328 3389.295)" fill="url(#g)"/><circle cx="6" cy="6" r="6" transform="translate(991.328 3389.295)" fill="url(#g)"/><circle cx="6" cy="6" r="6" transform="translate(587 3390.295)" fill="url(#g)"/><circle cx="6" cy="6" r="6" transform="translate(797.328 3390.295)" fill="url(#g)"/><circle cx="6" cy="6" r="6" transform="translate(1007.328 3390.295)" fill="url(#g)"/><circle cx="6" cy="6" r="6" transform="translate(601 3389.295)" fill="url(#g)"/><circle cx="6" cy="6" r="6" transform="translate(811.328 3389.295)" fill="url(#g)"/><circle cx="6" cy="6" r="6" transform="translate(1021.328 3389.295)" fill="url(#g)"/><circle cx="6" cy="6" r="6" transform="translate(616 3388.295)" fill="url(#g)"/><circle cx="6" cy="6" r="6" transform="translate(826.328 3388.295)" fill="url(#g)"/><circle cx="6" cy="6" r="6" transform="translate(1036.328 3388.295)" fill="url(#g)"/><circle cx="6" cy="6" r="6" transform="translate(629 3387.295)" fill="url(#g)"/><circle cx="6" cy="6" r="6" transform="translate(839.328 3387.295)" fill="url(#g)"/><circle cx="6" cy="6" r="6" transform="translate(1049.328 3387.295)" fill="url(#g)"/><circle cx="6" cy="6" r="6" transform="translate(643 3384.295)" fill="url(#g)"/><circle cx="6" cy="6" r="6" transform="translate(853.328 3384.295)" fill="url(#g)"/><circle cx="6" cy="6" r="6" transform="translate(1063.328 3384.295)" fill="url(#g)"/><circle cx="6" cy="6" r="6" transform="translate(656 3380.295)" fill="url(#g)"/><circle cx="6" cy="6" r="6" transform="translate(866.328 3380.295)" fill="url(#g)"/><circle cx="6" cy="6" r="6" transform="translate(1076.328 3380.295)" fill="url(#g)"/><circle cx="6" cy="6" r="6" transform="translate(661 3368.295)" fill="url(#g)"/><circle cx="6" cy="6" r="6" transform="translate(871.328 3368.295)" fill="url(#g)"/><circle cx="6" cy="6" r="6" transform="translate(1081.328 3368.295)" fill="url(#g)"/><circle cx="6" cy="6" r="6" transform="translate(664 3355.295)" fill="url(#g)"/><circle cx="6" cy="6" r="6" transform="translate(874.328 3355.295)" fill="url(#g)"/><circle cx="6" cy="6" r="6" transform="translate(1084.328 3355.295)" fill="url(#g)"/><circle cx="6" cy="6" r="6" transform="translate(554 3374.295)" fill="url(#g)"/><circle cx="6" cy="6" r="6" transform="translate(764.328 3374.295)" fill="url(#g)"/><circle cx="6" cy="6" r="6" transform="translate(974.328 3374.295)" fill="url(#g)"/><circle cx="6" cy="6" r="6" transform="translate(568 3376.295)" fill="url(#g)"/><circle cx="6" cy="6" r="6" transform="translate(778.328 3376.295)" fill="url(#g)"/><circle cx="6" cy="6" r="6" transform="translate(988.328 3376.295)" fill="url(#g)"/><circle cx="6" cy="6" r="6" transform="translate(567 3362.295)" fill="url(#g)"/><circle cx="6" cy="6" r="6" transform="translate(777.328 3362.295)" fill="url(#g)"/><circle cx="6" cy="6" r="6" transform="translate(987.328 3362.295)" fill="url(#g)"/><circle cx="6" cy="6" r="6" transform="translate(581 3378.295)" fill="url(#g)"/><circle cx="6" cy="6" r="6" transform="translate(791.328 3378.295)" fill="url(#g)"/><circle cx="6" cy="6" r="6" transform="translate(1001.328 3378.295)" fill="url(#g)"/><circle cx="6" cy="6" r="6" transform="translate(595 3375.295)" fill="url(#g)"/><circle cx="6" cy="6" r="6" transform="translate(805.328 3375.295)" fill="url(#g)"/><circle cx="6" cy="6" r="6" transform="translate(1015.328 3375.295)" fill="url(#g)"/><circle cx="6" cy="6" r="6" transform="translate(608 3377.295)" fill="url(#g)"/><circle cx="6" cy="6" r="6" transform="translate(818.328 3377.295)" fill="url(#g)"/><circle cx="6" cy="6" r="6" transform="translate(1028.328 3377.295)" fill="url(#g)"/><circle cx="6" cy="6" r="6" transform="translate(622 3375.295)" fill="url(#g)"/><circle cx="6" cy="6" r="6" transform="translate(832.328 3375.295)" fill="url(#g)"/><circle cx="6" cy="6" r="6" transform="translate(1042.328 3375.295)" fill="url(#g)"/><circle cx="6" cy="6" r="6" transform="translate(635 3372.295)" fill="url(#g)"/><circle cx="6" cy="6" r="6" transform="translate(845.328 3372.295)" fill="url(#g)"/><circle cx="6" cy="6" r="6" transform="translate(1055.328 3372.295)" fill="url(#g)"/><circle cx="6" cy="6" r="6" transform="translate(648 3369.295)" fill="url(#g)"/><circle cx="6" cy="6" r="6" transform="translate(858.328 3369.295)" fill="url(#g)"/><circle cx="6" cy="6" r="6" transform="translate(1068.328 3369.295)" fill="url(#g)"/><circle cx="6" cy="6" r="6" transform="translate(651 3356.295)" fill="url(#g)"/><circle cx="6" cy="6" r="6" transform="translate(861.328 3356.295)" fill="url(#g)"/><circle cx="6" cy="6" r="6" transform="translate(1071.328 3356.295)" fill="url(#g)"/><circle cx="6" cy="6" r="6" transform="translate(637 3358.295)" fill="url(#g)"/><circle cx="6" cy="6" r="6" transform="translate(847.328 3358.295)" fill="url(#g)"/><circle cx="6" cy="6" r="6" transform="translate(1057.328 3358.295)" fill="url(#g)"/><circle cx="6" cy="6" r="6" transform="translate(624 3362.295)" fill="url(#g)"/><circle cx="6" cy="6" r="6" transform="translate(834.328 3362.295)" fill="url(#g)"/><circle cx="6" cy="6" r="6" transform="translate(1044.328 3362.295)" fill="url(#g)"/><circle cx="6" cy="6" r="6" transform="translate(610 3362.295)" fill="url(#g)"/><circle cx="6" cy="6" r="6" transform="translate(820.328 3362.295)" fill="url(#g)"/><circle cx="6" cy="6" r="6" transform="translate(1030.328 3362.295)" fill="url(#g)"/><circle cx="6" cy="6" r="6" transform="translate(597 3360.295)" fill="url(#g)"/><circle cx="6" cy="6" r="6" transform="translate(807.328 3360.295)" fill="url(#g)"/><circle cx="6" cy="6" r="6" transform="translate(1017.328 3360.295)" fill="url(#g)"/><circle cx="6" cy="6" r="6" transform="translate(588 3349.295)" fill="url(#g)"/><circle cx="6" cy="6" r="6" transform="translate(798.328 3349.295)" fill="url(#g)"/><circle cx="6" cy="6" r="6" transform="translate(1008.328 3349.295)" fill="url(#g)"/><circle cx="6" cy="6" r="6" transform="translate(605 3349.295)" fill="url(#g)"/><circle cx="6" cy="6" r="6" transform="translate(815.328 3349.295)" fill="url(#g)"/><circle cx="6" cy="6" r="6" transform="translate(1025.328 3349.295)" fill="url(#g)"/><circle cx="6" cy="6" r="6" transform="translate(618 3351.295)" fill="url(#g)"/><circle cx="6" cy="6" r="6" transform="translate(828.328 3351.295)" fill="url(#g)"/><circle cx="6" cy="6" r="6" transform="translate(1038.328 3351.295)" fill="url(#g)"/><circle cx="6" cy="6" r="6" transform="translate(631 3347.295)" fill="url(#g)"/><circle cx="6" cy="6" r="6" transform="translate(841.328 3347.295)" fill="url(#g)"/><circle cx="6" cy="6" r="6" transform="translate(1051.328 3347.295)" fill="url(#g)"/><circle cx="6" cy="6" r="6" transform="translate(645 3344.295)" fill="url(#g)"/><circle cx="6" cy="6" r="6" transform="translate(855.328 3344.295)" fill="url(#g)"/><circle cx="6" cy="6" r="6" transform="translate(1065.328 3344.295)" fill="url(#g)"/><circle cx="6" cy="6" r="6" transform="translate(659 3341.295)" fill="url(#g)"/><circle cx="6" cy="6" r="6" transform="translate(869.328 3341.295)" fill="url(#g)"/><circle cx="6" cy="6" r="6" transform="translate(1079.328 3341.295)" fill="url(#g)"/><circle cx="6" cy="6" r="6" transform="translate(562 3347.295)" fill="url(#g)"/><circle cx="6" cy="6" r="6" transform="translate(772.328 3347.295)" fill="url(#g)"/><circle cx="6" cy="6" r="6" transform="translate(982.328 3347.295)" fill="url(#g)"/><circle cx="6" cy="6" r="6" transform="translate(849.328 3323.295)" fill="url(#g)"/><circle cx="6" cy="6" r="6" transform="translate(826.328 3307.295)" fill="url(#g)"/><circle cx="6" cy="6" r="6" transform="translate(810 3326.295)" fill="url(#g)"/><circle cx="6" cy="6" r="6" transform="translate(785 3305.295)" fill="url(#g)"/><circle cx="6" cy="6" r="6" transform="translate(769 3326.295)" fill="url(#g)"/><circle cx="6" cy="6" r="6" transform="translate(744 3307.295)" fill="url(#g)"/><circle cx="6" cy="6" r="6" transform="translate(584 3362.295)" fill="url(#g)"/><circle cx="6" cy="6" r="6" transform="translate(794.328 3362.295)" fill="url(#g)"/><circle cx="6" cy="6" r="6" transform="translate(1004.328 3362.295)" fill="url(#g)"/><circle cx="6" cy="6" r="6" transform="translate(575 3351.295)" fill="url(#g)"/><circle cx="6" cy="6" r="6" transform="translate(785.328 3351.295)" fill="url(#g)"/><circle cx="6" cy="6" r="6" transform="translate(995.328 3351.295)" fill="url(#g)"/><circle cx="6" cy="6" r="6" transform="translate(549 3345.295)" fill="url(#g)"/><circle cx="6" cy="6" r="6" transform="translate(759.328 3345.295)" fill="url(#g)"/><circle cx="6" cy="6" r="6" transform="translate(969.328 3345.295)" fill="url(#g)"/><circle cx="6" cy="6" r="6" transform="translate(535 3342.295)" fill="url(#g)"/><circle cx="6" cy="6" r="6" transform="translate(745.328 3342.295)" fill="url(#g)"/><circle cx="6" cy="6" r="6" transform="translate(955.328 3342.295)" fill="url(#g)"/><circle cx="6" cy="6" r="6" transform="translate(554 3358.295)" fill="url(#g)"/><circle cx="6" cy="6" r="6" transform="translate(764.328 3358.295)" fill="url(#g)"/><circle cx="6" cy="6" r="6" transform="translate(974.328 3358.295)" fill="url(#g)"/><circle cx="6" cy="6" r="6" transform="translate(519 3381.295)" fill="url(#g)"/><circle cx="6" cy="6" r="6" transform="translate(729.328 3381.295)" fill="url(#g)"/><circle cx="6" cy="6" r="6" transform="translate(939.328 3381.295)" fill="url(#g)"/><circle cx="6" cy="6" r="6" transform="translate(513 3355.295)" fill="url(#g)"/><circle cx="6" cy="6" r="6" transform="translate(723.328 3355.295)" fill="url(#g)"/><circle cx="6" cy="6" r="6" transform="translate(933.328 3355.295)" fill="url(#g)"/><circle cx="6" cy="6" r="6" transform="translate(515 3369.295)" fill="url(#g)"/><circle cx="6" cy="6" r="6" transform="translate(725.328 3369.295)" fill="url(#g)"/><circle cx="6" cy="6" r="6" transform="translate(935.328 3369.295)" fill="url(#g)"/><circle cx="6" cy="6" r="6" transform="translate(512 3341.295)" fill="url(#g)"/><circle cx="6" cy="6" r="6" transform="translate(722.328 3341.295)" fill="url(#g)"/><circle cx="6" cy="6" r="6" transform="translate(932.328 3341.295)" fill="url(#g)"/><g transform="translate(39.5 -1598.667)"><path d="M3.5,0,7,8H0Z" transform="translate(748 4879)" fill="#2e0877"/><path d="M-8456.5-6814.577v18.539" transform="translate(9208 11700)" fill="none" stroke="#2e0977" stroke-width="1"/></g><g transform="translate(107 -1577.705)"><circle cx="6" cy="6" r="6" transform="translate(902 4879.038) rotate(180)" fill="url(#g)"/><g transform="translate(1647.5 9783) rotate(180)"><path d="M3.5,0,7,8H0Z" transform="translate(748 4879)" fill="#2e0877"/><path d="M-8456.5-6814.577v18.539" transform="translate(9208 11700)" fill="none" stroke="#2e0977" stroke-width="1"/></g></g><g transform="translate(107 -1626.667)"><circle cx="6" cy="6" r="6" transform="translate(902 4879.038) rotate(180)" fill="url(#g)"/><g transform="translate(1647.5 9783) rotate(180)"><path d="M3.5,0,7,8H0Z" transform="translate(748 4879)" fill="#2e0877"/><path d="M-8456.5-6814.577v18.539" transform="translate(9208 11700)" fill="none" stroke="#2e0977" stroke-width="1"/></g></g><g transform="translate(881.686 -1637.524) rotate(9)"><path d="M3.5,0,7,8H0Z" transform="translate(748 4879)" fill="#2e0877"/><path d="M-8456.5-6814.577v18.539" transform="translate(9208 11700)" fill="none" stroke="#2e0977" stroke-width="1"/></g><g transform="translate(105 -1586.705)"><circle cx="6" cy="6" r="6" transform="translate(954.328 4910)" fill="url(#g)"/><g transform="translate(986.686 -50.819) rotate(9)"><path d="M3.5,0,7,8H0Z" transform="translate(748 4879)" fill="#2e0877"/><path d="M-8456.5-6814.577v18.539" transform="translate(9208 11700)" fill="none" stroke="#2e0977" stroke-width="1"/></g></g><g transform="translate(105 -1635.667)"><circle cx="6" cy="6" r="6" transform="translate(954.328 4910)" fill="url(#g)"/><g transform="translate(986.686 -50.819) rotate(9)"><path d="M3.5,0,7,8H0Z" transform="translate(748 4879)" fill="#2e0877"/><path d="M-8456.5-6814.577v18.539" transform="translate(9208 11700)" fill="none" stroke="#2e0977" stroke-width="1"/></g></g><g transform="translate(-1301.433 -1180.071) rotate(-16)"><path d="M3.5,0,7,8H0Z" transform="translate(748 4879)" fill="#2e0877"/><path d="M-8456.5-6814.577v18.539" transform="translate(9208 11700)" fill="none" stroke="#2e0977" stroke-width="1"/></g><g transform="translate(105 -1586.705)"><circle cx="6" cy="6" r="6" transform="translate(874 4913)" fill="url(#g)"/><g transform="translate(-1196.433 406.634) rotate(-16)"><path d="M3.5,0,7,8H0Z" transform="translate(748 4879)" fill="#2e0877"/><path d="M-8456.5-6814.577v18.539" transform="translate(9208 11700)" fill="none" stroke="#2e0977" stroke-width="1"/></g></g><g transform="translate(105 -1635.667)"><circle cx="6" cy="6" r="6" transform="translate(874 4913)" fill="url(#g)"/><g transform="translate(-1196.433 406.634) rotate(-16)"><path d="M3.5,0,7,8H0Z" transform="translate(748 4879)" fill="#2e0877"/><path d="M-8456.5-6814.577v18.539" transform="translate(9208 11700)" fill="none" stroke="#2e0977" stroke-width="1"/></g></g><g transform="translate(-509.711 -1491.172) rotate(-6)"><path d="M3.5,0,7,8H0Z" transform="translate(748 4879)" fill="#2e0877"/><path d="M-8456.5-6814.577v18.539" transform="translate(9208 11700)" fill="none" stroke="#2e0977" stroke-width="1"/></g><g transform="translate(107 -1577.705)"><circle cx="6" cy="6" r="6" transform="matrix(-0.966, -0.259, 0.259, -0.966, 862.492, 4882.663)" fill="url(#g)"/><g transform="translate(831.55 9842.11) rotate(-171)"><path d="M3.5,0,7,8H0Z" transform="translate(748 4879)" fill="#2e0877"/><path d="M-8456.5-6814.577v18.539" transform="translate(9208 11700)" fill="none" stroke="#2e0977" stroke-width="1"/></g></g><g transform="translate(107 -1626.667)"><circle cx="6" cy="6" r="6" transform="matrix(-0.966, -0.259, 0.259, -0.966, 862.492, 4882.663)" fill="url(#g)"/><g transform="translate(831.55 9842.11) rotate(-171)"><path d="M3.5,0,7,8H0Z" transform="translate(748 4879)" fill="#2e0877"/><path d="M-8456.5-6814.577v18.539" transform="translate(9208 11700)" fill="none" stroke="#2e0977" stroke-width="1"/></g></g><g transform="translate(-595.03 -1444.329) rotate(-8)"><path d="M3.5,0,7,8H0Z" transform="translate(748 4879)" fill="#2e0877"/><path d="M-8456.5-6814.577v18.539" transform="translate(9208 11700)" fill="none" stroke="#2e0977" stroke-width="1"/></g><g transform="translate(107 -1577.705)"><circle cx="6" cy="6" r="6" transform="translate(941.716 4880.818) rotate(180)" fill="url(#g)"/><g transform="translate(2363.074 9632.442) rotate(172)"><path d="M3.5,0,7,8H0Z" transform="translate(748 4879)" fill="#2e0877"/><path d="M-8456.5-6814.577v18.539" transform="translate(9208 11700)" fill="none" stroke="#2e0977" stroke-width="1"/></g></g><g transform="translate(107 -1626.667)"><circle cx="6" cy="6" r="6" transform="translate(941.716 4880.818) rotate(180)" fill="url(#g)"/><g transform="translate(2363.074 9632.442) rotate(172)"><path d="M3.5,0,7,8H0Z" transform="translate(748 4879)" fill="#2e0877"/><path d="M-8456.5-6814.577v18.539" transform="translate(9208 11700)" fill="none" stroke="#2e0977" stroke-width="1"/></g></g><g transform="matrix(0.998, 0.07, -0.07, 0.998, 408.509, -1618.387)"><path d="M3.5,0,7,8H0Z" transform="translate(748 4879)" fill="#2e0877"/><path d="M-8456.5-6814.577v18.539" transform="translate(9208 11700)" fill="none" stroke="#2e0977" stroke-width="1"/></g><g transform="translate(105 -1586.705)"><circle cx="6" cy="6" r="6" transform="translate(915 4913)" fill="url(#g)"/><g transform="matrix(0.998, 0.07, -0.07, 0.998, 513.509, -31.682)"><path d="M3.5,0,7,8H0Z" transform="translate(748 4879)" fill="#2e0877"/><path d="M-8456.5-6814.577v18.539" transform="translate(9208 11700)" fill="none" stroke="#2e0977" stroke-width="1"/></g></g><g transform="translate(105 -1635.667)"><circle cx="6" cy="6" r="6" transform="translate(915 4913)" fill="url(#g)"/><g transform="matrix(0.998, 0.07, -0.07, 0.998, 513.509, -31.682)"><path d="M3.5,0,7,8H0Z" transform="translate(748 4879)" fill="#2e0877"/><path d="M-8456.5-6814.577v18.539" transform="translate(9208 11700)" fill="none" stroke="#2e0977" stroke-width="1"/></g></g></g></g></svg>