<svg xmlns="http://www.w3.org/2000/svg" xmlns:xlink="http://www.w3.org/1999/xlink" width="295" height="268.854" viewBox="0 0 295 268.854"><defs><clipPath id="a"><rect width="295" height="268.854" fill="none"/></clipPath></defs><g transform="translate(-254.697 -1773.102)"><g transform="translate(254.697 1773.102)"><g clip-path="url(#a)"><path d="M22.339,238.979c-8.689-3.015-15.455-8.324-19.37-16.774a31.093,31.093,0,0,1,21.076-43.532c.521-.127,1.031-.293,1.547-.441,2.537-2.559,5.781-1.633,8.658-1.384a31.731,31.731,0,0,1,20.121,9.6,24.121,24.121,0,0,1,2.545,3.44c8.816,10.695,8.422,26.892.342,38.207a8.53,8.53,0,0,1-2.066,2.081A29.559,29.559,0,0,1,37.527,240.6c-3.993.8-8.04.35-12.064.284-1.363-.023-2.256-.98-3.124-1.9" transform="translate(0 -81.286)" fill="#fefefe"/><path d="M168.165,433.586c-5.443,5.646-11.82,9.548-19.754,10.486a31.122,31.122,0,0,1-34.421-37.564c.163-.783.261-1.579.389-2.37a4.127,4.127,0,0,1,.307-3.364c4.445-9.617,11.582-16.1,21.94-18.851a15.9,15.9,0,0,1,3.18-.25c13.208-3.659,29.768,6.606,33.693,18.061.27.788.864,1.36,1.163,2.112,3.085,9.568,2.7,18.847-2.378,27.71-.984,1.718-2.1,3.35-4.12,4.029" transform="translate(-52.182 -175.451)" fill="#fefefe"/><path d="M470.462,186.154c4.894,2.043,9.585,4.362,13.371,8.252a31.105,31.105,0,0,1-10.617,50.74c-.412.169-.8.389-1.2.585-2.322,2.844-5.769,2.811-8.836,2.868-8.964.169-17.032-2.48-23.607-8.876-.991-1.5-2.52-2.5-3.611-3.939a32.58,32.58,0,0,1,.128-39.232c.72-.94,1.749-1.535,2.462-2.462,4.622-5.408,10.674-8.217,17.5-9.6a27.5,27.5,0,0,1,10.9-.086,6.49,6.49,0,0,1,3.514,1.744" transform="translate(-197.806 -84.706)" fill="#fefefe"/><path d="M118.642,37.729c-3.586-19.155,8.927-33.7,23.44-36.9,11.32-2.494,21.083.683,29.442,8.544a2.624,2.624,0,0,1,2.363,1.038,32.178,32.178,0,0,1,5.983,30.3c-.11.332-.364.615-.484.955-3.3,11.711-15.864,21.365-28.061,21.477-3.3.03-6.649.414-9.872-.731-8.61-2.144-15.1-7.19-19.874-14.565a28.212,28.212,0,0,1-3.047-6.576c-.379-1.151-.926-2.4.11-3.549" transform="translate(-54.361 0)" fill="#fefefe"/><path d="M338.837,12.559c5.318-4.811,11.344-8.132,18.6-8.95a31.127,31.127,0,0,1,33.573,39.616c-.146.513-.273,1.031-.41,1.547a3.346,3.346,0,0,1-.024,2.864c-4.134,9.479-13.836,17.515-24.886,18.678a30.435,30.435,0,0,1-22.833-5.28,28.747,28.747,0,0,1-11.9-15.694c-3.12-7.876-2.676-15.709.444-23.441a25.373,25.373,0,0,1,4.181-7.142,6,6,0,0,1,3.261-2.2" transform="translate(-151.455 -1.566)" fill="#fefefe"/><path d="M386.746,400.835c.276,2.932,1.109,5.775,1.173,8.754a31.1,31.1,0,0,1-52.5,23.541c-.523-.49-1.038-.989-1.557-1.484a4.508,4.508,0,0,1-3.2-2.22c-3.685-5.388-6.022-11.139-5.626-17.853.225-3.836-.234-7.728,1.4-11.38,1.461-2.838,2.284-5.939,4.3-8.577,5.7-7.467,13.134-11.6,22.355-13.1a24.114,24.114,0,0,1,10.818.889c7.08,1.045,12.627,4.807,17.343,9.94a27.761,27.761,0,0,1,5.041,7.9c.49,1.144,1.117,2.294.444,3.591" transform="translate(-149.695 -174.218)" fill="#fefefe"/><path d="M118.581,360.072c-11.816,2.229-20.019,8.855-24.463,20.071a14.421,14.421,0,0,1-.89,1.623c-3.4-2.374-6.121-5.487-8.864-8.525A122.864,122.864,0,0,1,68.02,350.648a3.924,3.924,0,0,1-.645-2.255c1.208-2.172,3.417-3.046,5.44-4.129q9.322-4.994,18.524-10.2c1.541-.871,3.016-1.993,4.967-1.65,1.685.054,2.486,1.26,3.2,2.522,4.642,8.167,10.848,15.036,17.594,21.49.891.852,3.276,1.536,1.478,3.65" transform="translate(-31.03 -153.079)" fill="#66b734"/><path d="M96.251,69.859c3.093,12.222,10.875,19.947,22.77,23.724.559,1.255-.258,2.091-1.019,2.791a103.293,103.293,0,0,0-17.7,21.341,3.715,3.715,0,0,1-1.131,1.128,2.157,2.157,0,0,1-.771.245c-3.408-.526-5.913-2.895-8.75-4.509-4.354-2.479-8.837-4.74-13.073-7.418-2.459-1.555-5.313-2.564-7.159-5A5.723,5.723,0,0,1,70.7,98.7a133.835,133.835,0,0,1,22.462-27.17c.843-.761,1.5-2.161,3.087-1.667" transform="translate(-31.97 -32.129)" fill="#3d1e7d"/><path d="M84.307,306.744c-3.579.684-6.285,3.131-9.387,4.754-6.079,3.182-11.984,6.7-17.977,10.045a6.2,6.2,0,0,1-1.545.395,28.711,28.711,0,0,1-5.288-9.63c-1.5-4.443-4.008-8.515-4.944-13.137-.754-3.725-2.74-7.14-2.761-11.018-.008-1.407-1.24-2.415-1.015-3.836,12.538,2.951,23.319-.129,32.3-9.406,1.945.086,1.761,1.815,2.091,2.953,1.071,3.692,1.662,7.507,2.866,11.177a98.434,98.434,0,0,0,5.418,13.151,6.058,6.058,0,0,1,1.053,3.548,1.479,1.479,0,0,1-.806,1" transform="translate(-19.052 -126.624)" fill="#0964a2"/><path d="M313.161,15.481c-6.318,7.172-9.543,15.407-8.664,25.07a43.99,43.99,0,0,0,1.662,7.566c-.4,1.987-1.866,1.507-3.112,1.252-3.144-.644-6.179-1.707-9.332-2.364A83.021,83.021,0,0,0,277.3,45.03a5.165,5.165,0,0,1-3.086-.7,2.189,2.189,0,0,1-.629-.812,7.177,7.177,0,0,1-.479-3.42q-.047-13.01,0-26.021c.006-1.5-.2-3.1,1.277-4.163a92.279,92.279,0,0,1,21.315,1.29,98.3,98.3,0,0,1,17.464,4.274" transform="translate(-125.779 -4.488)" fill="#bd002c"/><path d="M301.585,416.726a42.241,42.241,0,0,0-1.379,10.054c-.309,8.227,2.836,15.1,7.868,21.317-12.412,3.417-25,5.409-37.922,4.686a3.31,3.31,0,0,1-1.034-2.393c.013-8.852-.371-17.707.2-26.555.16-.617.836-1.073.841-1.645.038-3.742,2.746-4.15,5.479-4.388a59.907,59.907,0,0,1,6.109-.673c5.331.085,10.353-1.473,15.417-2.8a5.952,5.952,0,0,1,2.888-.284c1.437.333,2.267,1.077,1.528,2.681" transform="translate(-123.903 -190.669)" fill="#eda907"/><path d="M438.687,285.662c6.363,5.413,13.618,8.526,22.069,8.5a36.915,36.915,0,0,0,9.778-1.714c-2.192,13.143-7.57,25.1-13.734,36.757-.145.274-.531.42-.8.626a4.228,4.228,0,0,1-2.528-.749c-8.209-4.714-16.372-9.508-24.592-14.2a5.122,5.122,0,0,1-2.521-2.312,3.617,3.617,0,0,1,.579-2.824,114.1,114.1,0,0,0,8.687-21.932c.4-1.391.788-3.237,3.067-2.151" transform="translate(-196.328 -131.424)" fill="#de5a2f"/><path d="M411.1,335.555q13.923,8,27.849,15.987a2.245,2.245,0,0,1,1.255,1.316c-4.107,8.046-9.7,15.022-15.74,21.658-2.127,2.338-3.982,5-6.877,6.55-2.664-6.111-6.028-11.634-11.688-15.565a38.467,38.467,0,0,0-11.049-5.1c-3.578-1.352-3.756-2.113-.94-4.868A87.361,87.361,0,0,0,409.3,335.913a1.593,1.593,0,0,1,.611-.52,1.351,1.351,0,0,1,1.189.162" transform="translate(-180.54 -154.448)" fill="#eda907"/><path d="M396.037,100.637c12.1-2.226,20.3-9.173,24.839-20.538,3.974,2.187,6.6,5.84,9.346,9.2a115.262,115.262,0,0,1,9.955,13.961c.708,1.194,1.358,2.423,2.035,3.636-2.6,2.406-5.844,3.8-8.843,5.552-5.718,3.347-11.487,6.609-17.209,9.952-1.222.714-2.409,1.621-3.984,1.286a6.38,6.38,0,0,1-2.677-2.57,87.7,87.7,0,0,0-13.358-16.475,6.178,6.178,0,0,1-1.177-1.465c-.721-1.3-.534-2.222,1.073-2.541" transform="translate(-181.735 -36.893)" fill="#bd002c"/><path d="M426.22,146.018c8.172-4.66,16.315-9.373,24.54-13.939,1.711-.95,3.15-2.726,5.459-2.343a124.085,124.085,0,0,1,11.178,26,16.74,16.74,0,0,1,1,5.445c-4.245-.584-8.436-1.419-12.8-.782a33.936,33.936,0,0,0-18.6,9.361c-1.879.768-2.516-.733-2.82-1.905-1.31-5.054-3.631-9.688-5.611-14.47-1-2.411-2.468-4.525-3.591-6.844.175-.75.593-.918,1.247-.522" transform="translate(-195.742 -59.732)" fill="#de5a2f"/><path d="M245.609,423.947q-.161,14.584-.322,29.168a93.565,93.565,0,0,1-26.124-3.042c-1.375-.334-2.848-.251-4.144-.936,7.475-9.532,9.257-20.052,5.484-31.537-.366-2.573.177-3.324,2.513-2.726a109.76,109.76,0,0,0,20.778,3.186,2.63,2.63,0,0,1,1.86.939,9.365,9.365,0,0,1-.044,4.95" transform="translate(-99.037 -191.001)" fill="#66b734"/><path d="M248.648,9.948q-.052,16.935-.1,33.87c-.579,1.172-1.684,1.244-2.757,1.221-5.932-.13-11.695,1.091-17.5,2.038-1.317.215-3.236,1.394-4.027-1.027,3.6-12.023,1.284-22.748-7.051-32.154,3.563-1.809,7.551-2.036,11.357-2.72a86.041,86.041,0,0,1,20.082-1.229" transform="translate(-100.046 -4.519)" fill="#3d1e7d"/><path d="M59.3,129.831c3.627.626,6.245,3.237,9.337,4.887,6.715,3.583,13.184,7.626,19.754,11.48,1.021,1.505.057,2.8-.6,3.979a78.954,78.954,0,0,0-7.011,16.794c-.34,1.18-.521,3.148-2.721,1.869Q66.118,154.27,47.444,156.745a82.869,82.869,0,0,1,3.054-9.253,134.776,134.776,0,0,1,7.608-16.334c.305-.58.541-1.111,1.194-1.327" transform="translate(-21.853 -59.8)" fill="#0964a2"/><path d="M102.856,182.529c1,.249,1.241-.437,1.4-1.169,1.689-7.695,5.514-14.5,8.934-21.473a5.074,5.074,0,0,1,.508-.166c1.381-.523,2.431.275,3.488.921,10.93,6.675,22.087,12.956,33.278,19.179a21.214,21.214,0,0,1,5.247,3.693c.841,1.935-.3,3.478-1.085,5.039a40.328,40.328,0,0,0-4.543,20.385,46.455,46.455,0,0,0,4.689,17.983,4.6,4.6,0,0,1,.775,2.784c-2.76,2.9-6.465,4.356-9.853,6.247-9.972,5.567-20.029,10.985-30.064,16.44-1.144.622-2.236,1.211-3.441.18-5.176-9.066-8.224-18.887-10.284-29.054a3.066,3.066,0,0,0-.617-1.74c8.587-11.088,10.169-22.926,3.769-35.593-.64-1.266-1.462-2.439-2.2-3.655" transform="translate(-46.653 -73.489)" fill="#3480b3"/><path d="M48.571,216.533c0,1.884.019,3.769,0,5.653-.029,2.307-.032,4.309,2.123,6.169,2.6,2.246,2,6.516-.618,8.862a6.482,6.482,0,0,1-9.183-.469c-2.326-2.576-2.376-6.718.311-8.93,1.585-1.306,1.755-2.679,1.74-4.417-.044-4.755,0-9.511-.023-14.266-.009-2.092.068-4.242,2.882-4.171,2.765.07,2.8,2.222,2.773,4.3-.035,2.422-.008,4.845-.008,7.268Z" transform="translate(-18.038 -94.405)" fill="#0965a2"/><path d="M68.047,210.231c-.986,0-1.974.038-2.958-.011-.883-.044-1.6-.43-1.634-1.424a1.4,1.4,0,0,1,1.556-1.487c2.059-.051,4.122-.049,6.181.023.868.031,1.554.458,1.494,1.515a1.355,1.355,0,0,1-1.416,1.33c-1.069.079-2.148.02-3.223.02v.034" transform="translate(-29.227 -95.47)" fill="#236fa1"/><path d="M67.335,220.693c1.443.417,3.592-.677,3.66,1.486.071,2.25-2.1,1.2-3.334,1.477a.63.63,0,0,1-.268,0c-1.331-.3-3.679.856-3.7-1.358-.026-2.587,2.556-.9,3.643-1.605" transform="translate(-29.337 -101.651)" fill="#1a6a9c"/><path d="M66.5,237.352c-1.342-.076-3.023.289-2.989-1.537.033-1.781,1.7-1.483,2.914-1.473s2.9-.264,2.867,1.53-1.736,1.368-2.792,1.48" transform="translate(-29.252 -107.926)" fill="#2672a4"/><path d="M204.327,354.2c-.011,2.708-.442,5.3-2.249,7.471a79.631,79.631,0,0,1-22.4-3.134c-1.672-.475-2.589-.394-2.487,1.6-2.341-5.076-5.324-9.645-9.8-13.156-7.131-5.6-15.206-7.557-24.117-6.451.5-1.138-.62-1.365-1.127-1.834a103.35,103.35,0,0,1-17.973-21.026c-.9-1.429-1.036-3.555-3.193-4.013.092-.345.183-.7.275-1.041,3.522-1.041,6.462-3.236,9.639-4.941,10.524-5.664,20.956-11.511,31.4-17.309a3.777,3.777,0,0,1,1.785-.448c1.489.151,2.017,1.424,2.7,2.422a44.988,44.988,0,0,0,26.436,18.652,43.734,43.734,0,0,0,6.36,1.073c1.683.189,3.452.334,4.353,2.168a8.147,8.147,0,0,1,.388,3.447q.032,18.253,0,36.517" transform="translate(-55.725 -133.536)" fill="#93c173"/><path d="M153.524,444.7c1.105-4.411,2.106-8.851,3.363-13.218.583-2.025.053-2.472-1.913-2.479-2-.008-4.811,1.046-5.781-.533-.813-1.324,1.427-3.387,2.3-5.123,2.083-4.168,4.37-8.234,6.55-12.353a2.583,2.583,0,0,1,2.753-1.639c2.4.216,5.942-1.009,6.925.463,1.026,1.535-1.749,4.054-2.7,6.222a38.119,38.119,0,0,1-2.287,4.263c-.7,1.167-.432,1.583.9,1.567,2.689-.032,5.379-.009,8.895-.009l-18.544,23.084Z" transform="translate(-68.638 -188.424)" fill="#66b635"/><path d="M402.852,228.283c-1.111-.027-1.532.61-1.758,1.618-1.575,6.9-4.531,13.312-7.158,19.834-.766,1.9-2.325,3.4-2.88,5.421-.356.027-.712.059-1.063.092A5.261,5.261,0,0,1,387,254.191c-12.05-7.023-24.068-14.105-36.221-20.956-.847-.48-1.8-.847-2.255-1.829-.448-1.98.922-3.414,1.618-4.989,5.712-12.892,5.238-25.67-.442-38.4a6.972,6.972,0,0,1-.836-2.524,4.122,4.122,0,0,1,2.427-3.323c11.883-7.039,23.922-13.814,35.859-20.772a3.368,3.368,0,0,1,2.826-.5c2.924.858,3.166,3.733,4.148,5.885,2.3,5,4.822,9.936,5.933,15.405a2.121,2.121,0,0,0,1.683,1.883c-4.029,4.784-6.985,10.065-7.994,16.344-1.6,9.909,1.041,18.528,7.6,26.037.512.588,1.327.955,1.5,1.829" transform="translate(-160.491 -74.048)" fill="#e47955"/><path d="M457.355,231.361q0-5.368,0-10.735c0-.992-.079-2.206,1.256-2.274,1.508-.077,1.535,1.189,1.537,2.3q.014,11,.011,22.007c0,1.1-.09,2.376-1.572,2.282-1.313-.084-1.231-1.313-1.232-2.3q-.009-5.635,0-11.272" transform="translate(-210.656 -100.571)" fill="#ce6b47"/><path d="M513.4,231.544q0-5.381,0-10.763c0-1.091-.033-2.436,1.452-2.383,1.451.052,1.356,1.408,1.356,2.488q.006,10.763,0,21.526c0,1.076.092,2.465-1.342,2.5-1.71.047-1.449-1.479-1.455-2.61-.018-3.588-.006-7.175-.009-10.763" transform="translate(-236.472 -100.593)" fill="#cf6845"/><path d="M479.792,243.245c0-2.413-.026-4.826.013-7.238.015-.94.277-1.886,1.471-1.823,1,.053,1.274.91,1.279,1.752q.042,7.239.015,14.479c0,.963-.345,1.857-1.5,1.805-.992-.044-1.3-.907-1.319-1.737-.05-2.412-.018-4.825-.018-7.238Z" transform="translate(-220.958 -107.864)" fill="#d9704a"/><path d="M504.973,243.058q0,3.634,0,7.267c0,.962-.176,1.953-1.354,1.917-1.135-.035-1.334-1.019-1.335-1.979q-.006-7.132,0-14.264c0-.86.232-1.712,1.245-1.768,1.212-.067,1.428.859,1.432,1.83.01,2.332,0,4.665.006,7" transform="translate(-231.35 -107.885)" fill="#d9643d"/><path d="M471.289,243.08c0,2.424.015,4.847-.009,7.271-.009.922-.1,1.942-1.358,1.886-1.035-.046-1.228-.944-1.23-1.781q-.023-7.271.016-14.541c0-.838.214-1.713,1.267-1.744,1.307-.04,1.295,1.014,1.305,1.908.029,2.333.01,4.667.009,7" transform="translate(-215.875 -107.858)" fill="#d6683e"/><path d="M493.8,243.178c0,2.415.024,4.83-.01,7.245-.012.824-.2,1.749-1.212,1.8-1.164.056-1.438-.843-1.437-1.832q0-7.246.017-14.49c0-.873.277-1.686,1.312-1.674s1.3.878,1.312,1.709c.044,2.415.016,4.83.018,7.245" transform="translate(-226.217 -107.884)" fill="#d26138"/><path d="M206.9,118.262a4.274,4.274,0,0,1-.361,2.087,2.471,2.471,0,0,1-2.282,1.607c-5.216.367-10.038,2.39-15.087,3.447a6.615,6.615,0,0,0-2.217.939c-4.989,3.242-10.324,6.041-14.337,10.6-1.6,1.812-2.729,3.981-4.455,5.7-.7.7-1.187,1.667-2.411.976-2.81-.68-4.984-2.595-7.46-3.911-8.156-4.337-15.95-9.321-24.127-13.636-3.441-1.812-6.591-4.18-9.871-6.295,1.953-4.455,5.054-8.14,7.978-11.948C135.864,103.165,140.4,99.378,144.3,95c6.624,1.138,13.14,1.127,19.483-1.521,8.566-3.582,14.229-9.92,17.682-18.4,1.969.8,3.808-.183,5.653-.534a91.528,91.528,0,0,1,18.631-1.7l.237.032a4.682,4.682,0,0,1,.939,3c.038,14.127.059,28.248-.022,42.375" transform="translate(-57.25 -33.551)" fill="#604593"/><path d="M162.994,59.608c-2.8,1.674-4.094-1.728-6.227-2.8-.584-.293-.315-2.513-.244-3.838a6.08,6.08,0,0,0-1.7-4.791,11.739,11.739,0,0,1,.888-16.271,11.967,11.967,0,0,1,16.354.141,11.652,11.652,0,0,1,.641,16.262c-1.6,1.7-2.468,3.263-2.254,5.6.135,1.476.534,2.815-1.887,3.812-2.987,1.231-2.721,1.877-5.574,1.877" transform="translate(-69.995 -13.243)" fill="#3d1e7c"/><path d="M357.384,119.859c-.329.189-.658.378-.993.566-9.585,5.588-19.192,11.149-28.75,16.781-4,2.357-8.2,4.407-11.921,7.233-1.818.1-2.239-1.527-3.01-2.584-6.182-8.49-13.981-14.731-24.214-17.649a65.836,65.836,0,0,0-10.707-2.158c-.906-.1-1.8-.2-2.266-1.149q.057-24,.119-48a90.659,90.659,0,0,1,29.171,4.547c.874.275,1.721.566,2.47-.248a31.353,31.353,0,0,0,33.923,20.114c-1.133.788-.879,1.516.016,2.336,6.43,5.9,11.478,12.908,16.161,20.206" transform="translate(-126.906 -33.572)" fill="#ca2851"/><path d="M363.562,60.81a4.37,4.37,0,0,1-2.044-4.106c.052-4.216.029-8.434,0-12.651-.017-2.645,1.043-4.239,3.865-4.471,2.053-.17,3.706-1.03,3.716-3.424.009-2.226-1.482-3.157-3.444-3.392-1.356-.162-2.237-.621-2.176-2.128.064-1.6,1.162-1.805,2.438-1.8q6.058.015,12.115,0c1.226-.006,2.158.376,2.291,1.712a1.786,1.786,0,0,1-1.808,2.175c-2.252.176-3.93,1.183-3.858,3.577s1.912,3.259,4.063,3.428a2.232,2.232,0,0,1,1.4.631c.4,1.5-.355,2.032-1.722,2.384-2.882.742-3.79,1.977-3.778,4.975.014,3.845-.2,7.7.121,11.533.11,1.319-.36,1.739-1.6,1.826a65.748,65.748,0,0,1-9.581-.263" transform="translate(-166.514 -13.28)" fill="#bd012d"/><path d="M392.463,46.107c.579-2.389-1.125-3.115-2.831-3.619-1.01-.3-1.669-.667-1.617-1.746.064-1.3,1-1.548,2.084-1.549,3.229,0,6.459-.012,9.689-.008,1.053,0,2.041.189,2.107,1.515.062,1.243-.7,1.641-1.845,1.809-1.662.243-2.87,1.1-2.756,3.006.106,1.781,1.408,2.515,2.906,2.614,2.579.17,3.355,1.6,3.322,3.916-.047,3.318.03,6.638-.019,9.956-.043,2.927-.815,3.784-3.663,3.752-4.028-.046-8.069.352-12.085-.276a2.7,2.7,0,0,1-2.009-3.042c.076-3.575-.019-7.154.039-10.73.043-2.625.966-3.814,3.568-4.167,1.27-.172,2.023-1.082,3.109-1.431" transform="translate(-177.674 -18.048)" fill="#bd012c"/><path d="M383.049,51.178c-.331,1.661-1.664,1.984-3.014,2.118-2.114.21-2.948,1.391-2.936,3.4.021,3.578.063,7.157-.015,10.733a4.5,4.5,0,0,0,1.259,3.117c-4.334,1.481-8.682,1.094-13.035.1,3.048.044,6.1.068,9.142.143,1.233.03,1.6-.179,1.405-1.661a82.96,82.96,0,0,1-.172-13.422c.07-2.249,1.585-3.556,3.8-3.859,1.131-.154,2.167-.268,2.384-1.656l1.18.985" transform="translate(-168.26 -23.119)" fill="#f5d8e1"/><path d="M313.466,291.782c2.312.221,4.2,1.562,6.053,2.687,9.844,5.988,19.849,11.691,29.869,17.375,1.805,1.024,3.895,1.82,5.083,3.748.131,2.467-1.4,4.306-2.754,5.969-4.423,5.435-8.183,11.476-13.9,15.778-.877.66-.856,1.36.1,1.865.558.295,1.188.421,1.368,1.139a32.877,32.877,0,0,0-13.3-.035c-10.619,2.456-18.214,8.436-22.361,18.6a3.456,3.456,0,0,1-.971,1.548c-.159-2.058-1.731-2.033-2.948-1.571-8.2,3.111-16.9,3.063-25.419,4.132-1.342.168-1.924.646-1.918,1.985,0,.851.257,1.852-.826,2.344q-.108-2.406-.216-4.812c1.993-15.953.62-31.987,1.154-47.975.642-1.127,1.764-1.053,2.831-1.149,14.4-1.3,26.239-7.271,34.921-19.066.813-1.1,1.5-2.542,3.232-2.556" transform="translate(-124.973 -134.394)" fill="#eeba34"/><path d="M368.193,403.615c9.84-.584,19.1,8.636,18.684,18.838-.439,10.893-8.237,18.54-18.748,18.624-10.922.086-18.972-8.416-18.924-19.338.044-9.956,9.192-18.841,18.988-18.124" transform="translate(-160.843 -185.886)" fill="#eda907"/><path d="M275.874,231.952c-5.464,8.312-12.414,14.906-21.672,18.873a51.669,51.669,0,0,1-19.313,3.9c-11.265-.744-21.4-4.352-29.859-12.014a41.218,41.218,0,0,1-9.284-11.762,54.763,54.763,0,0,1-5.379-16.01c-1.922-10.213.566-19.356,5.1-28.25a3.773,3.773,0,0,0,.417-2.048c1.448-1.756,3-3.438,4.321-5.286a28.209,28.209,0,0,1,6.757-6.746c3.4-2.4,6.624-5.2,10.5-6.659a71.675,71.675,0,0,1,10.378-3.014A34.971,34.971,0,0,1,236,161.891c14.591.488,26.693,6.158,36.091,17.393a32.117,32.117,0,0,1,4.107,6.15c8.412,15.563,8.007,31.068-.322,46.518" transform="translate(-87.381 -74.564)" fill="#4b5c66"/><path d="M143.8,245.094c0,1.393.026,2.455-.01,3.514-.02.592.088,1.418-.827,1.375-.7-.032-.653-.745-.655-1.262q-.018-5.106.005-10.213c0-.526.007-1.2.748-1.161.688.039.7.7.73,1.237.051.8.084,1.594.134,2.557,2.534-.647,3.383-3.758,6.376-3.974a17.658,17.658,0,0,1-4.2,4.368c-1.447,1.207-1.255,2.077-.06,3.251a37.975,37.975,0,0,1,4.5,5.216c-3.039-.309-3.841-3.558-6.731-4.907" transform="translate(-65.543 -109.239)" fill="#3480b3"/><path d="M170.318,50.644c-.312-1.64.37-3.17.531-4.752.19-1.868-.621-2.308-2.166-1.615a5.172,5.172,0,0,1-4.524-.049c-1.207-.532-2.344-.35-2.043,1.53.266,1.664.436,3.343.659,5.091a8.259,8.259,0,0,1-5.35-8.934,8.955,8.955,0,0,1,17.627-.714c.822,3.976-1.532,8.794-4.734,9.442" transform="translate(-72.471 -15.729)" fill="#fdfcfc"/><path d="M172.272,58.086c1.355.119,2.52-.043,2.1,1.2s.567,3.56-1.627,3.54c-1.732-.016-.991-2.117-1.382-3.254-.415-1.208.409-1.563.907-1.485" transform="translate(-78.879 -26.75)" fill="#e7e0eb"/><path d="M334.564,349.158c-1.015-.228-1.7-.17-2.086.625-.437.91.316,1.308.859,1.714.49.367,1.167.506,1.61.912,1.18,1.082,2.076,2.35,1.039,3.988-1.071,1.694-2.726,1.449-4.33,1.043a.921.921,0,0,1-.621-1.288c.235-.549.68-.285,1.11-.068.97.489,1.983.626,2.43-.638.479-1.356-.5-1.838-1.555-2.331a3.012,3.012,0,0,1-1.857-3.937c.553-1.7,2.024-1.48,3.38-1.358.57.051,1.175.3,1.137.91-.076,1.195-.868.386-1.117.428" transform="translate(-152.436 -160.168)" fill="#eeba34"/><path d="M384.366,421.019v.269c.008,5,.008,4.99,5.026,5.148,1.027.032,2.473-.26,2.456,1.3-.015,1.422-1.4,1.365-2.457,1.436-8.06.544-8.061.541-8.047-7.448,0-1.433.06-2.868-.006-4.3-.053-1.148.19-1.962,1.527-1.933s1.535.931,1.5,2.029c-.037,1.163-.008,2.328-.008,3.492Z" transform="translate(-175.641 -191.377)" fill="#fbf8eb"/><path d="M244.916,247.369c-6.5.093-11.032-3.074-14.267-8.5-.736-1.234-.557-1.951.682-2.538.4-.191.768-.463,1.156-.688,1.474-.851,2.917-2.294,4.435-2.38,1.567-.088,1.924,2.3,3.14,3.338a7.9,7.9,0,0,0,4.19,2.258c2.3.261,4.359-.331,5.594-2.415,1.246-2.1.48-4.1-1.088-5.618-2.509-2.431-5.253-4.616-7.828-6.981a65.838,65.838,0,0,1-5.541-5.486c-3.771-4.4-4.392-9.305-1.953-13.692A13.227,13.227,0,0,1,246.5,198.4c4.569.549,7.917,3.118,10.925,6.338.82.879.717,1.507-.208,2.174-.507.365-.94.832-1.417,1.241-1.225,1.048-2.336,2.679-3.722,2.966-1.367.282-2.079-1.88-3.3-2.725a7.379,7.379,0,0,0-3.422-1.479c-1.7-.174-3.31.175-4.181,1.8-.855,1.591-.154,3,1.062,4.09,3.735,3.359,7.531,6.651,11.274,10,3.249,2.907,5.548,6.33,5.714,10.873.289,7.924-5.719,13.677-14.311,13.687" transform="translate(-106.037 -91.339)" fill="#fdfdfd"/><path d="M307.312,223.906c0,7-.04,14,.024,21,.015,1.665-.366,2.331-2.234,2.343-6.686.04-6.681.121-6.68-6.464,0-12.473.049-24.947-.045-37.419-.016-2.158.457-2.969,2.793-2.92,6.145.132,6.146.02,6.145,6.233q0,8.614,0,17.229" transform="translate(-137.432 -92.323)" fill="#fcfcfc"/><path d="M223.718,133a3.777,3.777,0,0,1,.035,7.55,3.71,3.71,0,0,1-3.718-3.762A3.666,3.666,0,0,1,223.718,133" transform="translate(-101.348 -61.262)" fill="#604892"/><path d="M346.9,136.809a3.394,3.394,0,0,1-3.832,3.493,3.539,3.539,0,0,1-3.555-3.578,3.77,3.77,0,0,1,3.8-3.686,3.476,3.476,0,0,1,3.583,3.771" transform="translate(-156.379 -61.277)" fill="#c82c54"/></g></g><text transform="translate(422.31 1833.482)" fill="#fff" font-size="20" font-family="Roboto-Regular, Roboto"><tspan x="0" y="21">kg</tspan></text><text transform="translate(429.711 1951.284)" fill="#fff" font-size="20" font-family="Roboto-Regular, Roboto"><tspan x="0" y="21">s</tspan></text><text transform="translate(359.4 1833.482)" fill="#fff" font-size="20" font-family="Roboto-Regular, Roboto"><tspan x="0" y="21">cd</tspan></text><text transform="translate(327.328 1889.952)" fill="#fff" font-size="20" font-family="Roboto-Regular, Roboto"><tspan x="0" y="21">K</tspan></text><text transform="translate(461.782 1889.952)" fill="#fff" font-size="20" font-family="Roboto-Regular, Roboto"><tspan x="0" y="21">m</tspan></text><text transform="translate(366.184 1951.284)" fill="#fff" font-size="20" font-family="Roboto-Regular, Roboto"><tspan x="0" y="21">A</tspan></text></g></svg>