<svg xmlns="http://www.w3.org/2000/svg" width="1328" height="280.264" viewBox="0 0 1328 280.264"><g transform="translate(-136 -4770.149)"><g transform="translate(136 4770.149)"><g opacity="0.3"><path d="M1307.051,161.388v8.184H1295.4v-8.187h-8.536c-.73-.017-1.467-.037-2.208-.056s-1.487-.063-2.241-.126-1.5-.116-2.261-.176c-.76-.1-1.521-.193-2.291-.289-1.537-.173-3.074-.495-4.635-.777-.777-.15-1.553-.346-2.333-.525s-1.571-.369-2.354-.6l-2.354-.684c-.787-.252-1.567-.531-2.354-.8-.4-.136-.787-.276-1.182-.412-.392-.16-.783-.312-1.172-.468-.783-.315-1.573-.617-2.354-.963a75.853,75.853,0,0,1-9.243-4.857,75.114,75.114,0,0,1-8.772-6.437c-.694-.614-1.395-1.228-2.095-1.849-.671-.651-1.348-1.3-2.025-1.962l-.508-.5-.488-.515c-.326-.348-.651-.694-.979-1.042s-.651-.7-.973-1.056-.624-.727-.939-1.1a73.742,73.742,0,0,1-17.646-45.567c-.013-.551-.027-1.1-.043-1.657l-.017-.83V61.954c0-.126,0-.219,0-.276l-.013-.422-.017-.843-.066-.84a26.454,26.454,0,0,0-9.177-18.028A25.784,25.784,0,0,0,1199.2,37.3v2.135h-21.049V37.576a25.8,25.8,0,0,0-6.454,4.14,26.533,26.533,0,0,0-8.23,13.313,30.774,30.774,0,0,0-.714,3.994c-.04.684-.126,1.365-.119,2.059l-.017.518c0,.1-.006.14-.006.305v85l-.014.588-.026,1.175a76.188,76.188,0,0,1-.8,9.406l-.405,2.338-.213,1.168-.256,1.159-.528,2.321c-.2.767-.422,1.53-.631,2.3l-.325,1.145c-.113.382-.242.757-.369,1.132l-.754,2.267c-.272.744-.564,1.488-.853,2.228l-.435,1.112c-.146.372-.312.73-.474,1.1l-.969,2.182c-.346.717-.711,1.427-1.069,2.138l-.538,1.069c-.189.349-.385.694-.581,1.042l-1.178,2.078a73.294,73.294,0,0,1-27.2,26.424,71.4,71.4,0,0,1-27.49,8.559c-1.6.119-3.217.279-4.824.292l-1.208.03-.6.013c-.219.006-.388.006-.531.006H957.969v3.214H936.917v-3.214H756.535v45.846H751.19l-20.215,14.253h-7.855v-60.1H518.647v2.41H497.595v-2.41H385.455c-.116,0-.159,0-.242,0l-.873.026-.87.017c-.292.013-.578.05-.867.07-1.149.063-2.278.229-3.4.392a35.662,35.662,0,0,0-6.451,1.653,39.3,39.3,0,0,0-5.9,2.653,38.529,38.529,0,0,0-5.216,3.509,36.936,36.936,0,0,0-4.456,4.153c-.355.352-.667.744-.986,1.116s-.654.747-.94,1.145-.6.767-.893,1.159-.554.8-.83,1.192a7.079,7.079,0,0,0-.4.6l-.378.6-.385.6c-.119.2-.229.412-.345.614-.226.411-.471.813-.687,1.225s-.419.83-.624,1.242l-.156.309-.139.316c-.089.209-.182.422-.272.627-.186.415-.385.823-.531,1.248-.162.422-.328.84-.488,1.255-.139.422-.282.84-.422,1.258-.07.213-.139.419-.209.628s-.116.422-.176.63c-.116.419-.233.833-.349,1.248-.1.425-.189.84-.282,1.258-.047.2-.1.412-.143.618s-.07.415-.106.624c-.076.415-.149.827-.222,1.235-.05.412-.1.824-.149,1.232-.13.813-.153,1.63-.226,2.43-.047.4-.037.8-.047,1.2s-.023.79-.037,1.182v6.57h-8.357L320.2,280.264h-6.853V259.411c.017-.724.033-1.454.05-2.188s.026-1.471.1-2.217c.11-1.488.2-3,.408-4.519.1-.76.19-1.527.3-2.294q.2-1.15.4-2.314l.209-1.165c.086-.385.176-.774.262-1.165.176-.774.352-1.557.535-2.344.212-.777.431-1.561.647-2.347.11-.395.222-.787.335-1.182.129-.389.255-.78.385-1.175.262-.78.518-1.57.8-2.36.3-.777.6-1.56.906-2.35s.644-1.56.99-2.344q.259-.582.525-1.168l.262-.591.289-.578,1.165-2.321c.405-.767.847-1.524,1.275-2.288.219-.385.431-.77.66-1.145l.7-1.129c.239-.372.475-.75.71-1.129s.478-.75.74-1.116q.771-1.1,1.547-2.211c.534-.727,1.1-1.441,1.653-2.161s1.146-1.424,1.743-2.125,1.192-1.408,1.833-2.078a70.083,70.083,0,0,1,8.287-7.716,70.735,70.735,0,0,1,20.766-11.51,68.642,68.642,0,0,1,12.088-3.094c2.085-.326,4.2-.6,6.328-.737.534-.036,1.072-.083,1.607-.109s1.073-.034,1.607-.047l1.614-.04.385,0h112.14v-1.673h21.052v1.673H723.086c0-.159-.01-.319-.013-.482-.007-.5-.073-.989-.1-1.474-.017-.242-.033-.485-.05-.721s-.06-.474-.09-.707c-.066-.465-.1-.923-.179-1.368s-.156-.883-.229-1.311-.176-.84-.262-1.245c-.1-.4-.169-.807-.279-1.185s-.209-.75-.312-1.112c-.05-.179-.1-.355-.146-.528s-.116-.342-.173-.508c-.226-.668-.411-1.3-.654-1.863-.225-.564-.4-1.092-.624-1.55-.2-.461-.385-.873-.545-1.232-.176-.348-.329-.647-.452-.889-.239-.485-.368-.744-.368-.744s-.146-.249-.412-.72c-.129-.236-.3-.528-.485-.87-.212-.332-.452-.714-.724-1.139-.252-.438-.6-.883-.936-1.384s-.757-1.023-1.182-1.584l-.325-.425c-.123-.136-.242-.276-.362-.419-.239-.286-.491-.578-.744-.88-.272-.285-.545-.581-.83-.886-.14-.153-.286-.305-.428-.461s-.305-.292-.461-.445a35.8,35.8,0,0,0-4.24-3.612,35.1,35.1,0,0,0-5.272-3.234,37.338,37.338,0,0,0-12.775-3.735c-.571-.036-1.139-.08-1.71-.133-.574-.026-1.149-.023-1.72-.046l-.212-.006c-.076,0-.127-.007-.246-.007H592.218v2H571.17v-2H450.859v2H429.807v-2H305.6v11.026H293.949v-3.778h-.007v.03H291.2v-.03h-4.93v.013a3.105,3.105,0,0,1-2.905,3.124v0l-.963,11.132-.173,2.009h.963a3.1,3.1,0,0,1,3.078,3.13v.063a3.154,3.154,0,0,1-.206,1.126,3.08,3.08,0,0,1-2.872,2.009h-2.473a21.522,21.522,0,1,1-.05,0H278.2a3.086,3.086,0,0,1-2.872-2.009,3.223,3.223,0,0,1-.2-1.126V175.9a3.1,3.1,0,0,1,3.074-3.13h.963l-.173-2.009-.963-11.128v-.007a3.1,3.1,0,0,1-2.9-3.124v-.013h-7.683v3.778H255.786V149.244H200.721l0,62.3v68.717H167.308V211.547l0-62.3H114.324a62.38,62.38,0,0,1-.969,7.128,65.616,65.616,0,0,1-2.835,10.163c-.3.76-.584,1.507-.87,2.238q-.463,1.075-.923,2.091c-.292.684-.618,1.335-.936,1.959s-.618,1.245-.93,1.826a66.644,66.644,0,0,1-3.569,5.837c-.548.777-1.016,1.48-1.467,2.062s-.833,1.076-1.139,1.477-.554.7-.727.9l-.256.3s-.348.412-1.006,1.185c-.325.388-.75.843-1.252,1.381s-1.062,1.162-1.746,1.813c-.342.328-.694.674-1.069,1.036-.186.183-.382.365-.578.554s-.412.368-.621.554q-.642.563-1.331,1.172c-.458.412-.966.793-1.474,1.209a60.361,60.361,0,0,1-7.241,5,61.209,61.209,0,0,1-20.538,7.629c-.5.089-.993.182-1.494.259l-1.51.2-1.521.189c-.348.03-.7.056-1.053.083l4.306,3.908,10.756,9.757,8.008,7.267c2.991,2.712,4.08,6.617,2.623,8.894a3.676,3.676,0,0,1-.462.581l-4.143,4.217a4.086,4.086,0,0,1-3.207,1.116,8.74,8.74,0,0,1-5.236-2.437,11.326,11.326,0,0,1-.863-.88l-27.2-31.075v1.527H20.8v-2.636H0V173.716H20.8v-1.448H41.849v1.448H52.064c.249-.01.491-.017.74-.024s.485-.01.73-.013c.242-.02.485-.043.724-.063l.72-.05c.236-.033.475-.066.707-.1s.471-.056.7-.086.461-.086.694-.126a28.119,28.119,0,0,0,9.512-3.536,26.913,26.913,0,0,0,3.376-2.334,28.073,28.073,0,0,0,2.374-2.111c.325-.3.575-.608.814-.85s.441-.458.588-.644l.468-.554s.043-.046.119-.139a5.1,5.1,0,0,0,.339-.422c.146-.186.326-.419.535-.69s.422-.6.681-.963c.511-.72,1.066-1.643,1.67-2.716.146-.269.275-.561.425-.85a9.263,9.263,0,0,0,.435-.906c.143-.316.285-.638.432-.966.13-.342.266-.684.4-1.039a31.364,31.364,0,0,0,1.421-5.292H0V115.227H81.114v-5.395l0-.292.007-.395c.026-1.053.033-2.1.1-3.134a61.523,61.523,0,0,1,1.843-11.853,59.644,59.644,0,0,1,3.6-10.129A61.829,61.829,0,0,1,91.041,76.1c.355-.575.744-1.1,1.1-1.614s.7-1.019,1.059-1.477.694-.9,1.019-1.321c.163-.213.326-.415.482-.618s.325-.382.478-.568c.627-.727,1.172-1.4,1.683-1.942s.947-1.009,1.3-1.384.638-.651.823-.837l.292-.282,1.135-1.1c.375-.355.857-.77,1.414-1.265q.418-.368.906-.79c.329-.269.684-.554,1.059-.853s.77-.618,1.189-.946c.428-.309.88-.634,1.348-.98.923-.69,1.982-1.361,3.1-2.088a62.141,62.141,0,0,1,7.942-4.17,58.58,58.58,0,0,1,21.766-4.728c.495-.013.986-.02,1.484-.03h.554l.325,0,.389.007,1.557.04c.521.013,1.042.026,1.567.073a57.791,57.791,0,0,1,6.335.747,58.843,58.843,0,0,1,12.53,3.649A59.54,59.54,0,0,1,184.8,68.372a60.324,60.324,0,0,1,11.846,19.16,58.841,58.841,0,0,1,2.619,8.712c.322,1.318.5,2.573.714,3.728.183,1.159.292,2.228.418,3.191.169,1.932.279,3.456.289,4.492s.037,1.59.037,1.59v5.983h55.066v-12.4h11.653V106.6h26.51v-3.778H305.6v12.4h124.2v-2.088h21.052v2.088H571.17v-2.088h21.049v2.088h93.328l.777.013c1.069.03,2.141.043,3.214.1l3.217.249a70.069,70.069,0,0,1,24.263,7.088A71.29,71.29,0,0,1,734.988,135.6c.292.286.584.564.863.85s.545.574.813.863c.531.571,1.056,1.122,1.554,1.673q.722.852,1.411,1.654c.226.269.448.531.67.794s.419.538.624.8c.81,1.052,1.581,2.028,2.225,2.981s1.278,1.8,1.776,2.62.959,1.531,1.352,2.158c.368.647.681,1.2.933,1.643.5.9.77,1.371.77,1.371s.245.488.711,1.4c.229.461.511,1.029.846,1.69.3.681.651,1.464,1.042,2.341s.767,1.869,1.189,2.948.824,2.264,1.242,3.533c.106.322.209.641.316.969s.2.667.292,1.013c.189.684.385,1.391.588,2.111s.352,1.48.531,2.248.365,1.553.495,2.367.285,1.64.435,2.483.229,1.717.342,2.593c.053.442.11.883.163,1.335.037.448.07.9.106,1.355.06.913.153,1.842.18,2.782.016.651.033,1.311.046,1.979H936.917v-.867h5.68a3.7,3.7,0,0,1-.179-1.122V180.99H939.44a2.062,2.062,0,0,1-2.045-2.082v-4.359H924.4a5.091,5.091,0,0,1-4.715-3.217,5.218,5.218,0,0,1-.378-1.962v-.123a5.172,5.172,0,0,1,.378-1.965,5.063,5.063,0,0,1,6.159-3l7.9,2.384a5.019,5.019,0,0,1,1.321.618,5.2,5.2,0,0,1,2.311,4.05c.01.1.01.2.01.3v-.458l1.3-3.891.571-1.71a1.762,1.762,0,0,1,1.67-1.218h3.025v-4.09h6.962v4.09h3.025a1.762,1.762,0,0,1,1.67,1.218l.571,1.71,1.3,3.891v.458c0-.1,0-.2.01-.3a5.2,5.2,0,0,1,2.31-4.05,5.012,5.012,0,0,1,1.322-.618l7.905-2.384a5.062,5.062,0,0,1,6.158,3,5.17,5.17,0,0,1,.378,1.965v.123a5.217,5.217,0,0,1-.378,1.962,5.088,5.088,0,0,1-4.714,3.217H957.491v4.359a2.063,2.063,0,0,1-2.045,2.082h-2.978v3.171a3.7,3.7,0,0,1-.182,1.122h5.684v.867h132.368c.166,0,.306,0,.4-.007l.329-.01.654-.02c.873.01,1.736-.1,2.6-.153a38.451,38.451,0,0,0,14.691-4.572,39.6,39.6,0,0,0,14.615-14.2l.627-1.116c.1-.189.212-.372.315-.558l.282-.574.574-1.142.518-1.165c.083-.2.176-.385.256-.584l.229-.6c.146-.4.312-.787.458-1.185l.4-1.209c.067-.2.14-.4.2-.6l.166-.617.345-1.222.275-1.242.146-.614.1-.627.223-1.248a41.074,41.074,0,0,0,.425-5.063l.02-.637.01-.319V61.9l.007-.538.026-1.166c.01-.78.047-1.56.1-2.334.027-.388.057-.777.086-1.165s.064-.774.093-1.162c.083-.777.176-1.547.286-2.317s.236-1.537.372-2.3q.414-2.3.983-4.545a60.955,60.955,0,0,1,7.217-16.852A59.913,59.913,0,0,1,1164.789,6.4a58.1,58.1,0,0,1,13.366-4.124V0H1199.2V2.174a54.584,54.584,0,0,1,6.892,1.59l1,.3.986.335c.657.226,1.315.445,1.965.691,1.285.511,2.577,1.012,3.818,1.607,1.262.558,2.477,1.209,3.692,1.849.6.326,1.185.684,1.783,1.026l.88.521.863.558a59.016,59.016,0,0,1,6.541,4.857A60.766,60.766,0,0,1,1248.6,56.792c.047.641.09,1.275.136,1.909.017.634.033,1.268.053,1.9l.02.95,0,.405V88.106l.016.452.023.9a39.393,39.393,0,0,0,9.449,24.405l.5.591c.176.2.355.375.528.564l.525.561.262.282.272.262,1.092,1.062c.375.332.753.664,1.129.99a41.544,41.544,0,0,0,4.711,3.463,42.753,42.753,0,0,0,4.944,2.6c.415.186.84.335,1.258.511l.621.253c.212.073.422.143.63.216.422.139.837.3,1.255.431.425.12.843.239,1.258.362s.836.219,1.255.315.83.212,1.245.289c.84.133,1.653.332,2.484.408.412.053.82.11,1.225.163l1.222.09c.405.036.8.07,1.209.066.4.013.8.027,1.2.037h8.277V114.553h11.653v12.822q6.245.005,11.5,0H1328v34.016C1322.4,161.395,1315.381,161.392,1307.051,161.388ZM114.53,115.227v-5.395l0-.283.007-.179c.023-.465.01-.929.043-1.391a26.494,26.494,0,0,1,6.092-15.488c.282-.316.508-.621.74-.853s.415-.445.567-.608a4.833,4.833,0,0,1,.365-.369c.086-.083.13-.123.13-.123s.169-.169.495-.485c.163-.16.382-.335.624-.551.123-.113.256-.229.395-.355s.306-.239.469-.372.339-.272.518-.418.388-.276.594-.425c.4-.312.876-.588,1.358-.916a29.79,29.79,0,0,1,3.459-1.823,25.741,25.741,0,0,1,9.5-2.045l.342-.01.169-.01.083,0h.837l.1,0,.172.007.691.02a6.921,6.921,0,0,1,.694.03,24.674,24.674,0,0,1,2.775.329,25.6,25.6,0,0,1,5.442,1.583,26.034,26.034,0,0,1,9.153,6.454,26.3,26.3,0,0,1,5.183,8.38,24.744,24.744,0,0,1,1.135,3.778c.153.574.209,1.125.315,1.624.08.508.116.976.183,1.394.059.853.129,1.521.123,1.985.013.458.02.7.02.7v5.81Z" fill="#282f39" opacity="0.3"/></g><g transform="translate(0 68.574)"><path d="M208,211.69V158.533l0-60.806V58.691s-.013-.541-.037-1.554-.119-2.5-.289-4.382c-.123-.939-.232-1.985-.415-3.114-.206-1.129-.389-2.354-.707-3.639a56.908,56.908,0,0,0-2.6-8.5A58.942,58.942,0,0,0,152.657.119C152.136.073,151.618.06,151.1.046S150.068.023,149.553.01L149.167,0l-.322,0h-.551c-.495.01-.983.017-1.474.026a59.145,59.145,0,0,0-21.627,4.615,62.474,62.474,0,0,0-7.892,4.07c-1.112.711-2.165,1.365-3.084,2.038-.465.335-.913.654-1.338.956-.415.322-.807.631-1.182.923s-.724.571-1.053.833l-.9.77c-.554.485-1.032.89-1.4,1.235l-1.129,1.072s-.1.093-.289.276-.475.445-.82.817-.784.82-1.292,1.351-1.049,1.185-1.673,1.9c-.152.182-.312.365-.475.554s-.315.395-.478.6q-.483.618-1.012,1.291c-.359.445-.691.939-1.053,1.441s-.74,1.016-1.092,1.574a59.97,59.97,0,0,0-4.346,7.739,57.34,57.34,0,0,0-3.576,9.887,58.965,58.965,0,0,0-1.833,11.567c-.066,1.009-.073,2.032-.1,3.058l-.007.385,0,.285V74.81c0,5.109-.007,10.222-.01,15.116v3.048a27.216,27.216,0,0,1-.428,4.754,30.133,30.133,0,0,1-1.411,5.166c-.136.345-.269.681-.4,1.012-.146.322-.289.638-.428.943a9.429,9.429,0,0,1-.432.886c-.149.283-.279.568-.425.83a30.664,30.664,0,0,1-1.657,2.649c-.259.348-.461.681-.677.939s-.385.491-.531.674-.252.322-.335.412-.119.136-.119.136l-.465.541c-.146.182-.349.385-.584.627s-.485.541-.81.83a27.376,27.376,0,0,1-2.357,2.062,26.8,26.8,0,0,1-3.353,2.278,28.215,28.215,0,0,1-9.452,3.449c-.229.04-.455.09-.687.123s-.465.056-.7.086-.468.06-.7.093l-.714.05-.72.06c-.242,0-.485.007-.727.013s-.488.013-.734.023H0v33.2H60.361c.518-.013,1.036-.023,1.55-.037s1.033-.03,1.547-.043c.515-.04,1.026-.076,1.537-.113l.482-.04c.349-.026.7-.053,1.046-.083.5-.06,1.009-.123,1.51-.182s1-.129,1.5-.2.99-.166,1.484-.252a61.488,61.488,0,0,0,20.4-7.447,59.842,59.842,0,0,0,7.194-4.884c.5-.405,1.009-.777,1.464-1.179s.9-.777,1.321-1.142c.209-.182.418-.365.617-.541s.389-.365.574-.541l1.062-1.013c.681-.634,1.232-1.255,1.737-1.769s.919-.97,1.242-1.348c.654-.753,1-1.155,1-1.155l.255-.3c.169-.193.412-.485.72-.88s.688-.873,1.133-1.441.913-1.255,1.457-2.012a64.059,64.059,0,0,0,3.546-5.7c.312-.564.611-1.165.926-1.78s.638-1.245.93-1.912.611-1.341.916-2.042c.282-.714.567-1.441.863-2.184a63.213,63.213,0,0,0,2.819-9.917,60.381,60.381,0,0,0,.963-6.959c.116-1.464.182-2.952.192-4.452v-3.35c0-4.9.007-10.01.01-15.116V59.262l0-.275.007-.173c.023-.455.01-.91.043-1.358a25.325,25.325,0,0,1,2.354-9.342,25.723,25.723,0,0,1,3.7-5.773c.282-.309.5-.608.737-.833s.412-.435.564-.594.279-.279.362-.359l.129-.119s.169-.166.491-.475c.163-.153.379-.325.621-.538l.392-.345c.146-.113.3-.232.465-.362s.335-.266.515-.408.385-.269.591-.415c.4-.305.87-.575,1.348-.9a29.6,29.6,0,0,1,3.44-1.776,25.975,25.975,0,0,1,9.439-2l.339-.01.169-.006.083,0h.83l.1,0,.173,0,.684.02c.233,0,.461,0,.69.03a25.2,25.2,0,0,1,2.759.322,25.606,25.606,0,0,1,14.5,7.845,25.5,25.5,0,0,1,5.15,8.177,23.965,23.965,0,0,1,1.129,3.688c.153.558.209,1.1.312,1.583.08.495.116.953.182,1.362.06.833.13,1.484.123,1.935.013.448.02.687.02.687V97.727l0,60.806V211.69Z" fill="#ffcf3f"/><path d="M208,211.69V158.533l0-60.806V58.691s-.013-.541-.037-1.554-.119-2.5-.289-4.382c-.123-.939-.232-1.985-.415-3.114-.206-1.129-.389-2.354-.707-3.639a56.908,56.908,0,0,0-2.6-8.5A58.942,58.942,0,0,0,152.657.119C152.136.073,151.618.06,151.1.046S150.068.023,149.553.01L149.167,0l-.322,0h-.551c-.495.01-.983.017-1.474.026a59.145,59.145,0,0,0-21.627,4.615,62.474,62.474,0,0,0-7.892,4.07c-1.112.711-2.165,1.365-3.084,2.038-.465.335-.913.654-1.338.956-.415.322-.807.631-1.182.923s-.724.571-1.053.833l-.9.77c-.554.485-1.032.89-1.4,1.235l-1.129,1.072s-.1.093-.289.276-.475.445-.82.817-.784.82-1.292,1.351-1.049,1.185-1.673,1.9c-.152.182-.312.365-.475.554s-.315.395-.478.6q-.483.618-1.012,1.291c-.359.445-.691.939-1.053,1.441s-.74,1.016-1.092,1.574a59.97,59.97,0,0,0-4.346,7.739,57.34,57.34,0,0,0-3.576,9.887,58.965,58.965,0,0,0-1.833,11.567c-.066,1.009-.073,2.032-.1,3.058l-.007.385,0,.285V74.81c0,5.109-.007,10.222-.01,15.116v3.048a27.216,27.216,0,0,1-.428,4.754,30.133,30.133,0,0,1-1.411,5.166c-.136.345-.269.681-.4,1.012-.146.322-.289.638-.428.943a9.429,9.429,0,0,1-.432.886c-.149.283-.279.568-.425.83a30.664,30.664,0,0,1-1.657,2.649c-.259.348-.461.681-.677.939s-.385.491-.531.674-.252.322-.335.412-.119.136-.119.136l-.465.541c-.146.182-.349.385-.584.627s-.485.541-.81.83a27.376,27.376,0,0,1-2.357,2.062,26.8,26.8,0,0,1-3.353,2.278,28.215,28.215,0,0,1-9.452,3.449c-.229.04-.455.09-.687.123s-.465.056-.7.086-.468.06-.7.093l-.714.05-.72.06c-.242,0-.485.007-.727.013s-.488.013-.734.023H0v5.312H60.314c.289-.01.575-.017.863-.027l.86-.02c.282-.02.567-.043.85-.067l.843-.06.833-.11c.279-.033.554-.067.83-.1s.545-.1.813-.143a33.607,33.607,0,0,0,11.2-4.087,32.142,32.142,0,0,0,3.971-2.7,32.779,32.779,0,0,0,2.785-2.44c.382-.342.677-.7.96-.979s.515-.528.687-.744c.362-.415.554-.638.554-.638s.046-.056.14-.163.232-.269.4-.488.378-.481.624-.8.5-.7.8-1.109a36.489,36.489,0,0,0,1.959-3.138c.173-.312.329-.647.5-.982s.359-.681.511-1.049.335-.737.508-1.122c.153-.389.309-.79.472-1.2a34.972,34.972,0,0,0,1.823-7.038,32.554,32.554,0,0,0,.359-4.708V89.926c0-4.894.007-10.006.01-15.116V59.262l0-.282.006-.352c.027-.936.027-1.866.09-2.789A53.288,53.288,0,0,1,99.5,36.324a54.507,54.507,0,0,1,3.954-7.042c.322-.508.674-.969.993-1.431s.631-.906.96-1.311.627-.8.923-1.175c.146-.186.292-.368.435-.548s.292-.339.432-.5c.568-.651,1.059-1.245,1.524-1.726s.853-.9,1.175-1.232.574-.578.747-.744l.262-.253,1.026-.976c.338-.316.774-.681,1.278-1.122.255-.219.528-.452.82-.7.3-.236.621-.491.96-.757s.7-.545,1.072-.84c.388-.275.8-.567,1.218-.87.837-.618,1.8-1.209,2.809-1.856a57,57,0,0,1,7.178-3.705,54.653,54.653,0,0,1,9.11-2.908A53.8,53.8,0,0,1,146.94,5.338c.452-.01.9-.02,1.355-.026.375,0,.7,0,1.208.01l1.411.034c.471.013.943.023,1.417.066a53.82,53.82,0,0,1,17.048,3.9A53.642,53.642,0,0,1,199,39.438a51.38,51.38,0,0,1,2.367,7.729c.292,1.169.455,2.284.644,3.31.166,1.026.266,1.979.375,2.835.156,1.716.259,3.067.262,3.991.023.923.037,1.414.037,1.414v39.01l0,60.806V211.69Z" fill="#4c4c4c" opacity="0.1"/><path d="M182.607,186.292V133.136l0-60.806V33.419s-.01-.309-.027-.89c.007-.584-.073-1.431-.159-2.51-.08-.534-.133-1.132-.239-1.773-.126-.637-.212-1.341-.4-2.068a31.444,31.444,0,0,0-1.478-4.817,33.325,33.325,0,0,0-6.7-10.651A33.417,33.417,0,0,0,154.7.489,32.287,32.287,0,0,0,151.1.074a8.728,8.728,0,0,0-.89-.04c-.3-.01-.594-.017-.89-.023C149.061,0,148.656,0,148.295,0h-.139l-.11,0-.219.007-.435.01a33.809,33.809,0,0,0-12.3,2.613A37.1,37.1,0,0,0,130.6,4.951c-.631.415-1.239.774-1.756,1.165l-.767.541c-.236.186-.458.362-.671.532s-.415.322-.6.471l-.511.445c-.315.279-.594.5-.8.7l-.644.614s-.056.056-.166.16-.272.249-.469.465-.448.468-.737.774-.594.681-.956,1.082a33.444,33.444,0,0,0-7.888,19.707c-.043.581-.033,1.169-.056,1.756l-.007.223,0,.279V49.412c0,5.109-.006,10.219-.01,15.116v3.28c-.013,1.534-.086,3.045-.222,4.522a51.062,51.062,0,0,1-.787,5.458,55.653,55.653,0,0,1-2.463,8.665q-.384.976-.754,1.909c-.266.611-.538,1.205-.8,1.786s-.538,1.135-.813,1.67-.535,1.062-.81,1.557a56.947,56.947,0,0,1-3.1,4.98c-.475.661-.88,1.265-1.275,1.759s-.72.92-.99,1.262-.482.6-.631.77-.222.256-.222.256-.305.352-.876,1.013c-.279.332-.651.72-1.086,1.178s-.923,1-1.521,1.548c-.292.282-.6.578-.93.886-.163.156-.329.312-.5.475s-.359.312-.545.471c-.368.322-.754.654-1.155,1s-.84.674-1.282,1.029a52.022,52.022,0,0,1-6.292,4.273,53.728,53.728,0,0,1-17.831,6.507c-.428.073-.86.156-1.295.219l-1.311.169c-.438.056-.88.11-1.321.163-.445.037-.89.07-1.338.106l-1.345.1c-.448.01-.9.023-1.354.037s-.9.02-1.358.033H0v7.8H60.361c.518-.013,1.036-.023,1.55-.037s1.033-.03,1.547-.043c.515-.04,1.026-.076,1.537-.113l.482-.04c.349-.026.7-.053,1.046-.083.5-.06,1.009-.123,1.51-.182s1-.129,1.5-.2.99-.166,1.484-.252a61.488,61.488,0,0,0,20.4-7.447,59.843,59.843,0,0,0,7.194-4.884c.5-.405,1.009-.777,1.464-1.179s.9-.777,1.321-1.142c.209-.182.418-.365.617-.541s.389-.365.574-.541l1.062-1.013c.681-.634,1.232-1.255,1.737-1.769s.919-.97,1.242-1.348c.654-.753,1-1.155,1-1.155l.255-.3c.169-.193.412-.485.72-.88s.688-.873,1.133-1.441.913-1.255,1.457-2.012a64.06,64.06,0,0,0,3.546-5.7c.312-.564.611-1.165.926-1.78s.638-1.245.93-1.912.611-1.341.916-2.042c.282-.714.567-1.441.863-2.184a63.213,63.213,0,0,0,2.819-9.917,60.381,60.381,0,0,0,.963-6.959c.116-1.464.182-2.952.192-4.452v-3.35c0-4.9.007-10.01.01-15.116V33.864l0-.275.007-.173c.023-.455.01-.91.043-1.358a25.325,25.325,0,0,1,2.354-9.342,25.723,25.723,0,0,1,3.7-5.773c.282-.309.5-.608.737-.833s.412-.435.564-.594.279-.279.362-.359l.129-.119s.169-.166.491-.475c.163-.153.379-.325.621-.538l.392-.345c.146-.113.3-.232.465-.362s.335-.266.515-.408.385-.269.591-.415c.4-.305.87-.575,1.348-.9a29.6,29.6,0,0,1,3.44-1.776,25.975,25.975,0,0,1,9.439-2l.339-.01.169-.006.083,0h.83l.1,0,.173,0,.684.02c.233,0,.461,0,.69.03a25.2,25.2,0,0,1,2.759.322,25.606,25.606,0,0,1,14.5,7.845,25.5,25.5,0,0,1,5.15,8.177,23.965,23.965,0,0,1,1.129,3.688c.153.558.209,1.1.312,1.583.08.495.116.953.182,1.362.06.833.13,1.484.123,1.935.013.448.02.687.02.687V72.33l0,60.806v53.157Z" transform="translate(0 25.398)" fill="#fff" opacity="0.3"/></g><g transform="translate(921.95 177.055)"><rect width="6.92" height="3.993" transform="translate(24.491 0)" fill="#b1b1b1"/><path d="M0,0V3.095A3.5,3.5,0,0,0,3.494,6.588H6.489A3.5,3.5,0,0,0,9.982,3.095V0Z" transform="translate(22.96 20.231)" fill="#b1b1b1"/><g transform="translate(26.753 0)" opacity="0.3"><rect width="1.198" height="26.819" fill="#333"/></g><g transform="translate(29.248)" opacity="0.3"><path d="M0,0V26.819H.2a3.476,3.476,0,0,0,1.963-.6V0Z" fill="#333"/></g><path d="M0,0V7.553A2.029,2.029,0,0,0,2.031,9.583h15.9a2.03,2.03,0,0,0,2.031-2.031V0Z" transform="translate(17.968 10.647)" fill="#840713"/><g transform="translate(17.968 13.946)" opacity="0.3"><path d="M0,0V4.254A2.029,2.029,0,0,0,2.031,6.285h15.9a2.03,2.03,0,0,0,2.031-2.031V0Z" fill="#333"/></g><path d="M0,6.654H19.965l-1.292-3.8L18.106,1.19A1.751,1.751,0,0,0,16.445,0H3.52A1.751,1.751,0,0,0,1.859,1.19L1.292,2.859Z" transform="translate(17.968 3.993)" fill="#bb0d04"/><path d="M0,7.387v2.849H12.909a5.054,5.054,0,0,0,5.059-5.057V5.06a5,5,0,0,0-.375-1.917A5.057,5.057,0,0,0,11.474.212L3.62,2.538A5.051,5.051,0,0,0,.01,7.094C0,7.192,0,7.29,0,7.387Z" transform="translate(37.933 3.709)" fill="#bb0d04"/><path d="M0,5.06v.12a5.053,5.053,0,0,0,5.059,5.057H17.968V7.387c0-.1,0-.2-.01-.293a5.051,5.051,0,0,0-3.61-4.556L6.495.212A5.057,5.057,0,0,0,.375,3.143,5.006,5.006,0,0,0,0,5.06Z" transform="translate(0 3.709)" fill="#bb0d04"/><g transform="translate(22.959 20.23)" opacity="0.3"><rect width="9.982" height="2.196" transform="translate(0 0)" fill="#333"/></g><g transform="translate(40.239 3.709)" opacity="0.3"><path d="M1.314,2.538A5.011,5.011,0,0,0,0,3.143H15.287A5.057,5.057,0,0,0,9.168.212Z" fill="#f0f0f0"/></g><g transform="translate(19.26 3.993)" opacity="0.3"><path d="M0,2.859H17.382L16.814,1.19A1.751,1.751,0,0,0,15.154,0H2.228A1.751,1.751,0,0,0,.567,1.19Z" fill="#f0f0f0"/></g><g transform="translate(0.375 3.709)" opacity="0.3"><path d="M0,3.143H15.287a5.01,5.01,0,0,0-1.314-.6L6.12.212A5.057,5.057,0,0,0,0,3.143Z" fill="#f0f0f0"/></g><g transform="translate(37.933 10.803)" opacity="0.3"><path d="M.01,0C0,.1,0,.2,0,.293V3.142H12.909A5.058,5.058,0,0,0,17.593,0Z" fill="#333"/></g><g transform="translate(0.375 10.803)" opacity="0.3"><path d="M0,0A5.059,5.059,0,0,0,4.684,3.142H17.593V.293c0-.1,0-.2-.01-.293Z" fill="#333"/></g><g transform="translate(24.491 0)" opacity="0.3"><rect width="6.92" height="1.264" fill="#f0f0f0"/></g></g><g transform="translate(266.078 170.272)"><g transform="translate(0 0)"><g transform="translate(0 25.168)"><ellipse cx="21.381" cy="21.381" rx="21.381" ry="21.381" fill="#313b84"/><ellipse cx="14.89" cy="14.89" rx="14.89" ry="14.89" transform="translate(13.261 1.952) rotate(22.319)" fill="#fff"/></g><g transform="translate(8.482 33.651)"><path d="M.025.929a.738.738,0,1,0,.522-.9A.737.737,0,0,0,.025.929Z" transform="translate(9.013 0.414)" fill="#8c9fdf" opacity="0.47"/><path d="M0,.738A.738.738,0,1,0,.738,0,.738.738,0,0,0,0,.738Z" transform="translate(12.161)" fill="#8c9fdf" opacity="0.47"/><path d="M.025.547a.738.738,0,1,0,.9-.522A.738.738,0,0,0,.025.547Z" transform="translate(15.307 0.414)" fill="#8c9fdf" opacity="0.47"/><g transform="translate(0 1.629)"><path d="M1.476.738a.738.738,0,1,0-.738.738A.738.738,0,0,0,1.476.738Z" transform="translate(12.161 22.691)" fill="#8c9fdf" opacity="0.47"/><path d="M1.451.929a.738.738,0,1,0-.9.522A.738.738,0,0,0,1.451.929Z" transform="translate(9.013 22.277)" fill="#8c9fdf" opacity="0.47"/><path d="M1.377,1.107a.738.738,0,1,0-1.008.27A.738.738,0,0,0,1.377,1.107Z" transform="translate(6.08 21.062)" fill="#8c9fdf" opacity="0.47"/><path d="M1.26,1.26a.738.738,0,1,0-1.044,0A.738.738,0,0,0,1.26,1.26Z" transform="translate(3.562 19.13)" fill="#8c9fdf" opacity="0.47"/><path d="M1.107,1.377A.738.738,0,1,0,.1,1.107.738.738,0,0,0,1.107,1.377Z" transform="translate(1.629 16.611)" fill="#8c9fdf" opacity="0.47"/><path d="M.929,1.451a.738.738,0,1,0-.9-.522A.738.738,0,0,0,.929,1.451Z" transform="translate(0.414 13.678)" fill="#8c9fdf" opacity="0.47"/><path d="M.738,1.476A.738.738,0,1,0,0,.738.738.738,0,0,0,.738,1.476Z" transform="translate(0 10.531)" fill="#8c9fdf" opacity="0.47"/><path d="M.547,1.451a.738.738,0,1,0-.522-.9A.738.738,0,0,0,.547,1.451Z" transform="translate(0.414 7.383)" fill="#8c9fdf" opacity="0.47"/><path d="M.369,1.377A.738.738,0,1,0,.1.369.738.738,0,0,0,.369,1.377Z" transform="translate(1.629 4.451)" fill="#8c9fdf" opacity="0.47"/><path d="M.216,1.26a.738.738,0,1,0,0-1.044A.737.737,0,0,0,.216,1.26Z" transform="translate(3.562 1.932)" fill="#8c9fdf" opacity="0.47"/><path d="M.1,1.107A.738.738,0,1,0,.369.1.738.738,0,0,0,.1,1.107Z" transform="translate(6.08)" fill="#8c9fdf" opacity="0.47"/><path d="M.1.369A.738.738,0,1,0,1.107.1.738.738,0,0,0,.1.369Z" transform="translate(18.24)" fill="#8c9fdf" opacity="0.47"/><path d="M.216.216a.738.738,0,1,0,1.043,0A.738.738,0,0,0,.216.216Z" transform="translate(20.759 1.932)" fill="#8c9fdf" opacity="0.47"/><path d="M.369.1a.738.738,0,1,0,1.008.27A.738.738,0,0,0,.369.1Z" transform="translate(22.691 4.451)" fill="#8c9fdf" opacity="0.47"/><path d="M.547.025a.738.738,0,1,0,.9.522A.738.738,0,0,0,.547.025Z" transform="translate(23.906 7.383)" fill="#8c9fdf" opacity="0.47"/><path d="M.738,0a.738.738,0,1,0,.738.738A.738.738,0,0,0,.738,0Z" transform="translate(24.321 10.531)" fill="#8c9fdf" opacity="0.47"/><path d="M.929.025a.738.738,0,1,0,.522.9A.739.739,0,0,0,.929.025Z" transform="translate(23.906 13.678)" fill="#8c9fdf" opacity="0.47"/><path d="M1.107.1a.738.738,0,1,0,.27,1.008A.738.738,0,0,0,1.107.1Z" transform="translate(22.691 16.611)" fill="#8c9fdf" opacity="0.47"/><path d="M1.26.216a.738.738,0,1,0,0,1.043A.737.737,0,0,0,1.26.216Z" transform="translate(20.759 19.13)" fill="#8c9fdf" opacity="0.47"/><path d="M1.377.369a.738.738,0,1,0-.27,1.008A.738.738,0,0,0,1.377.369Z" transform="translate(18.24 21.062)" fill="#8c9fdf" opacity="0.47"/><path d="M1.451.547a.738.738,0,1,0-.522.9A.738.738,0,0,0,1.451.547Z" transform="translate(15.307 22.277)" fill="#8c9fdf" opacity="0.47"/></g></g><path d="M11.076,3.118V3.056A3.055,3.055,0,0,0,8.02,0H3.054A3.055,3.055,0,0,0,0,3.056v.062A3.057,3.057,0,0,0,3.054,6.175H8.02a3.058,3.058,0,0,0,3.057-3.057Z" transform="translate(15.843 18.994)" fill="#b1b1b1"/><path d="M5.642,0H0L.168,1.919l.954,10.863.172,1.96H4.346l.172-1.96L5.474,1.916Z" transform="translate(18.56 4.252)" fill="#b1b1b1"/><rect width="11.077" height="6.174" rx="3.087" transform="translate(15.842 0)" fill="#313b84"/><rect width="10.373" height="1.341" rx="0.67" transform="translate(16.194 39.06)" fill="#8c9fdf" opacity="0.47"/><rect width="14.233" height="3.148" rx="1.574" transform="translate(14.264 49.174)" fill="#8c9fdf"/><g transform="translate(14.189 42.143)"><path d="M3.993,2a2,2,0,1,0-2,2A2,2,0,0,0,3.993,2Z" fill="#bb0d04"/><path d="M3.993,2a2,2,0,1,0-2,2A2,2,0,0,0,3.993,2Z" transform="translate(10.39)" fill="#8c9fdf"/></g></g><g transform="translate(16.046 23.209)" opacity="0.3"><path d="M10.669,0H0A3.056,3.056,0,0,0,2.851,1.96H7.816A3.056,3.056,0,0,0,10.669,0Z" fill="#333"/></g><g transform="translate(19.682 17.033)" opacity="0.3"><path d="M3.4,0H0L.172,1.96H3.224Z" fill="#333"/></g></g><g transform="translate(0 133.102)"><path d="M760.227,147.162V70.427l-.01-.355c-.007-.286-.013-.571-.023-.854q-.02-.976-.047-1.932c-.026-.917-.119-1.823-.179-2.712-.037-.445-.07-.887-.106-1.325-.053-.438-.106-.87-.159-1.3-.113-.857-.206-1.7-.342-2.53s-.289-1.634-.431-2.424-.326-1.56-.491-2.311-.332-1.487-.528-2.194-.395-1.395-.584-2.062q-.144-.5-.289-.986c-.106-.322-.209-.634-.315-.947-.415-1.238-.8-2.4-1.232-3.449s-.784-2.025-1.182-2.875-.737-1.62-1.036-2.284c-.332-.647-.614-1.2-.84-1.65l-.707-1.368-.764-1.338c-.252-.435-.561-.973-.926-1.6-.392-.614-.844-1.318-1.345-2.108s-1.112-1.634-1.763-2.557-1.408-1.882-2.211-2.908c-.206-.252-.412-.511-.621-.777l-.667-.777q-.682-.782-1.4-1.614c-.495-.538-1.016-1.075-1.544-1.633-.266-.279-.535-.558-.807-.84s-.567-.551-.856-.83A70.852,70.852,0,0,0,720.961,7.271a70.6,70.6,0,0,0-24.1-6.915c-1.066-.083-2.132-.163-3.2-.246-1.066-.053-2.132-.066-3.194-.1L689.7,0H0V33.2H689.7c.116,0,.166,0,.242.007l.213.007c.568.023,1.139.02,1.706.046.568.05,1.132.093,1.7.13a37.551,37.551,0,0,1,12.692,3.645,35.076,35.076,0,0,1,5.239,3.154,35.7,35.7,0,0,1,4.213,3.526c.153.149.312.289.458.435s.286.3.425.452c.282.3.555.584.823.863.252.3.5.581.74.86q.179.209.359.409c.11.139.219.279.325.415.422.548.84,1.042,1.172,1.544s.681.923.933,1.352q.4.622.717,1.112c.189.335.352.618.481.85l.409.7s.129.252.368.724c.119.236.272.528.448.87.156.348.339.75.541,1.2.223.445.4.963.621,1.514s.425,1.165.647,1.816c.056.163.116.325.173.495s.1.342.146.518q.149.528.309,1.086c.11.369.176.761.275,1.155s.2.794.262,1.215.149.843.229,1.278.11.883.176,1.338q.045.339.09.687c.017.232.033.468.05.7.027.475.093.953.1,1.441,0,.156.01.312.013.468.01.339.017.681.026,1.023l.007.189v76.732Z" fill="#ffcf3f"/><path d="M760.227,147.162V70.427l-.01-.355c-.007-.286-.013-.571-.023-.854q-.02-.976-.047-1.932c-.026-.917-.119-1.823-.179-2.712-.037-.445-.07-.887-.106-1.325-.053-.438-.106-.87-.159-1.3-.113-.857-.206-1.7-.342-2.53s-.289-1.634-.431-2.424-.326-1.56-.491-2.311-.332-1.487-.528-2.194-.395-1.395-.584-2.062q-.144-.5-.289-.986c-.106-.322-.209-.634-.315-.947-.415-1.238-.8-2.4-1.232-3.449s-.784-2.025-1.182-2.875-.737-1.62-1.036-2.284c-.332-.647-.614-1.2-.84-1.65l-.707-1.368-.764-1.338c-.252-.435-.561-.973-.926-1.6-.392-.614-.844-1.318-1.345-2.108s-1.112-1.634-1.763-2.557-1.408-1.882-2.211-2.908c-.206-.252-.412-.511-.621-.777l-.667-.777q-.682-.782-1.4-1.614c-.495-.538-1.016-1.075-1.544-1.633-.266-.279-.535-.558-.807-.84s-.567-.551-.856-.83A70.852,70.852,0,0,0,720.961,7.271a70.6,70.6,0,0,0-24.1-6.915c-1.066-.083-2.132-.163-3.2-.246-1.066-.053-2.132-.066-3.194-.1L689.7,0H0V5.312H689.7l.72.013c.983.027,1.969.04,2.955.089q1.479.11,2.958.226a65.364,65.364,0,0,1,22.277,6.391A65.483,65.483,0,0,1,735.121,23.7c.266.256.535.508.79.764s.5.521.747.78c.488.514.973,1.012,1.428,1.51l1.3,1.494.617.717c.193.242.385.482.571.717.747.949,1.454,1.829,2.045,2.692s1.175,1.624,1.63,2.361.883,1.384,1.245,1.949q.508.877.857,1.484l.707,1.235s.226.442.651,1.269c.213.411.472.923.777,1.524.279.614.6,1.318.956,2.108.372.787.707,1.686,1.1,2.659s.751,2.042,1.139,3.187c.1.289.192.578.292.873s.176.6.266.913c.173.618.355,1.255.538,1.906s.322,1.334.488,2.028.339,1.4.455,2.135q.2,1.1.4,2.241c.123.764.209,1.544.312,2.341.05.4.1.8.149,1.2.033.405.067.813.1,1.225.056.823.146,1.66.169,2.507.013.561.026,1.129.043,1.7.007.292.013.588.02.883l.01.325v76.735Z" fill="#4c4c4c" opacity="0.1"/><path d="M734.829,121.764V45.032l-.007-.229c-.01-.329-.017-.657-.026-.983-.007-.272-.013-.541-.02-.81-.013-.591-.083-1.169-.119-1.743-.02-.285-.04-.567-.063-.85s-.07-.554-.106-.83c-.076-.548-.126-1.092-.216-1.62s-.186-1.039-.276-1.547-.212-.993-.318-1.471-.2-.95-.332-1.4-.252-.886-.375-1.311c-.06-.216-.119-.425-.176-.631s-.139-.405-.206-.6c-.272-.791-.5-1.534-.787-2.2s-.491-1.295-.753-1.836c-.246-.544-.465-1.032-.657-1.457-.212-.412-.4-.764-.541-1.049-.292-.574-.445-.876-.445-.876s-.173-.3-.495-.853c-.159-.279-.355-.624-.588-1.026-.249-.392-.538-.843-.863-1.348-.309-.515-.714-1.042-1.129-1.633s-.9-1.205-1.414-1.863c-.129-.166-.263-.332-.4-.5s-.285-.329-.432-.495c-.289-.338-.588-.684-.9-1.039s-.654-.684-.993-1.042c-.169-.179-.339-.362-.511-.545s-.368-.349-.554-.528a43.393,43.393,0,0,0-5.09-4.256,42.8,42.8,0,0,0-6.335-3.818A45.333,45.333,0,0,0,694.335.229L692.283.073c-.687-.033-1.374-.037-2.059-.06C690.049.01,689.9,0,689.7,0H0V7.8H689.7c.116,0,.166,0,.242.007l.213.007c.568.023,1.139.02,1.706.046.568.05,1.132.093,1.7.13a37.551,37.551,0,0,1,12.692,3.645,35.076,35.076,0,0,1,5.239,3.154,35.7,35.7,0,0,1,4.213,3.526c.153.149.312.289.458.435s.286.3.425.452c.282.3.555.584.823.863.252.3.5.581.74.86q.179.209.359.409c.11.139.219.279.325.415.422.548.84,1.042,1.172,1.544s.681.923.933,1.352q.4.622.717,1.112c.189.335.352.618.481.85l.409.7s.129.252.368.724c.119.236.272.528.448.87.156.348.339.75.541,1.2.223.445.4.963.621,1.514s.425,1.165.647,1.816c.056.163.116.325.173.495s.1.342.146.518q.149.528.309,1.086c.11.369.176.761.275,1.155s.2.794.262,1.215.149.843.229,1.278.11.883.176,1.338q.045.339.09.687c.017.232.033.468.05.7.027.475.093.953.1,1.441,0,.156.01.312.013.468.01.339.017.681.026,1.023l.007.189v76.732Z" transform="translate(0 25.398)" fill="#fff" opacity="0.3"/></g><g transform="translate(319.902 21.948)"><path d="M1008.1,156.213v-33.2c-5.561,0-12.536,0-20.813,0q-5.423,0-11.577,0h-8.224c-.4-.01-.79-.02-1.188-.034a12.028,12.028,0,0,1-1.2-.066c-.4-.03-.807-.056-1.212-.086l-1.218-.16c-.824-.073-1.634-.269-2.467-.4-.412-.076-.82-.189-1.238-.282s-.833-.179-1.245-.309-.83-.236-1.252-.352c-.415-.133-.827-.286-1.245-.422l-.628-.209-.617-.249c-.415-.169-.837-.315-1.252-.5a43.024,43.024,0,0,1-4.91-2.533,41.28,41.28,0,0,1-4.681-3.379q-.557-.478-1.122-.966l-1.082-1.036-.272-.256-.259-.275-.521-.548c-.173-.186-.352-.362-.524-.551l-.5-.578A38.069,38.069,0,0,1,929.461,86l-.023-.877-.017-.438V59.163l0-.4-.02-.926c-.02-.617-.036-1.235-.054-1.856-.046-.618-.089-1.238-.136-1.862a58.428,58.428,0,0,0-3.164-14.807,59.039,59.039,0,0,0-17.676-25.487,58.3,58.3,0,0,0-6.5-4.741l-.857-.545-.876-.508c-.591-.335-1.172-.684-1.77-1-1.208-.624-2.414-1.258-3.668-1.8-1.235-.581-2.517-1.069-3.795-1.57-.644-.239-1.3-.452-1.952-.674l-.979-.326-.993-.289A54.867,54.867,0,0,0,880.135.817Q879.5.707,878.86.611q-1.036-.135-2.072-.262C876.1.262,875.4.226,874.707.169c-1.387-.13-2.782-.13-4.18-.166l-.783,0-.458.007-.525.01c-.7.02-1.4.04-2.1.056-.7.043-1.4.1-2.108.152L863.5.312l-1.053.13q-1.613.194-3.224.478a58.516,58.516,0,0,0-13.28,4.024,59.1,59.1,0,0,0-33.416,39.01q-.568,2.2-.976,4.439c-.136.747-.259,1.494-.368,2.248s-.2,1.5-.285,2.261c-.031.379-.064.757-.093,1.136s-.06.757-.087,1.135c-.053.757-.089,1.517-.1,2.278l-.027,1.138-.006.525v82.924l-.01.312-.02.621a39.815,39.815,0,0,1-.422,4.944l-.223,1.218-.1.611-.143.6-.275,1.212-.342,1.192-.166.6c-.06.2-.133.392-.2.588l-.4,1.179c-.146.389-.308.77-.455,1.159l-.226.581c-.08.2-.173.378-.255.571l-.515,1.138-.571,1.116-.279.558c-.1.182-.212.362-.316.544l-.62,1.089a39.07,39.07,0,0,1-14.522,13.858,38.612,38.612,0,0,1-14.594,4.458c-.863.05-1.72.16-2.586.149l-.651.02-.325.01c-.093,0-.233.007-.4.007H71.639l-.382,0-1.6.04c-.531.013-1.066.03-1.6.043s-1.062.073-1.594.11c-2.118.133-4.216.4-6.288.717a69.54,69.54,0,0,0-12.012,3.021,72.686,72.686,0,0,0-10.969,4.854,71.52,71.52,0,0,0-9.661,6.381,68.985,68.985,0,0,0-8.234,7.53c-.638.654-1.228,1.345-1.823,2.029s-1.185,1.358-1.73,2.072-1.112,1.4-1.643,2.111q-.772,1.081-1.537,2.158c-.259.355-.5.721-.734,1.089s-.471.737-.707,1.1-.465.734-.7,1.1-.438.744-.654,1.119c-.428.747-.867,1.484-1.269,2.234s-.773,1.514-1.159,2.264l-.286.564-.262.575c-.173.381-.349.763-.521,1.142-.342.763-.69,1.517-.983,2.288s-.6,1.534-.9,2.294c-.275.77-.531,1.54-.79,2.3-.13.385-.256.767-.385,1.146-.11.385-.223.77-.332,1.155q-.324,1.15-.644,2.291-.269,1.15-.532,2.288-.129.573-.259,1.135c-.069.382-.139.76-.209,1.139q-.2,1.136-.4,2.258c-.109.75-.2,1.5-.3,2.241-.212,1.484-.3,2.958-.408,4.409-.067.727-.07,1.447-.093,2.165s-.034,1.428-.05,2.135v6.441H33.2V251.9c.013-.382.023-.767.037-1.155s0-.78.046-1.172c.07-.78.093-1.577.222-2.37.05-.4.1-.8.149-1.2.073-.4.146-.8.219-1.209.036-.2.07-.4.106-.608s.1-.4.143-.6c.093-.408.186-.813.279-1.225.116-.405.233-.81.349-1.218.059-.206.116-.411.173-.618s.14-.405.209-.611c.139-.408.279-.816.418-1.228q.239-.608.485-1.225c.146-.415.342-.813.528-1.218.089-.2.182-.408.272-.614l.136-.305.156-.3.621-1.212c.212-.4.458-.794.681-1.2.116-.2.226-.4.345-.6l.382-.588.375-.591a6.872,6.872,0,0,1,.395-.584l.824-1.162c.285-.382.591-.75.886-1.132s.614-.744.933-1.115.627-.747.979-1.089a36.16,36.16,0,0,1,4.429-4.054,38.33,38.33,0,0,1,5.182-3.426,39.6,39.6,0,0,1,5.86-2.59,36.3,36.3,0,0,1,6.411-1.613c1.112-.16,2.234-.319,3.376-.382.286-.02.571-.053.86-.067l.867-.017.867-.026c.083,0,.127-.007.239,0H771.97c.143,0,.312,0,.528-.007l.6-.013,1.2-.03c1.6-.013,3.2-.166,4.791-.286a71.839,71.839,0,0,0,27.314-8.353A72.258,72.258,0,0,0,833.426,179.1l1.172-2.029c.193-.342.389-.677.578-1.019l.534-1.043c.355-.694.717-1.387,1.059-2.088l.966-2.128c.159-.355.325-.707.471-1.069l.431-1.086c.286-.724.578-1.448.847-2.175l.75-2.211c.123-.368.252-.733.365-1.105l.323-1.119c.209-.747.425-1.494.627-2.241l.524-2.264.256-1.132.209-1.142.4-2.281a73.041,73.041,0,0,0,.8-9.18l.027-1.146.013-.574V59.113c0-.162,0-.2.007-.3l.016-.5c-.006-.677.08-1.341.116-2.009a29.8,29.8,0,0,1,.711-3.9,25.739,25.739,0,0,1,3.124-7.155,26.039,26.039,0,0,1,11.464-9.88l.03-.013a25.392,25.392,0,0,1,7.178-1.952l.461-.063.465-.033.926-.07.933-.023.233-.007c.066,0,.156-.007.3-.007l.731,0c.617.033,1.241.007,1.849.08.305.03.614.033.917.073l.906.116a25.462,25.462,0,0,1,5.99,1.63,25.858,25.858,0,0,1,14.612,15.285,25.422,25.422,0,0,1,1.375,6.451l.066.82.016.824.014.412c0,.053,0,.146,0,.269V84.72l.017.81c.017.541.03,1.079.043,1.617a71.272,71.272,0,0,0,17.533,44.475c.312.359.625.714.933,1.069s.644.687.966,1.029.651.677.973,1.016l.484.5.5.485c.674.641,1.345,1.281,2.012,1.916q1.046.907,2.082,1.806a74.824,74.824,0,0,0,8.714,6.281,76.013,76.013,0,0,0,9.183,4.741c.774.335,1.56.631,2.337.94.389.152.777.3,1.165.455.392.133.784.269,1.175.4.78.262,1.557.534,2.337.78.783.223,1.567.445,2.34.667s1.557.409,2.337.588,1.547.368,2.321.514c1.55.276,3.078.588,4.6.757q1.146.139,2.274.283c.754.056,1.5.116,2.248.173s1.487.113,2.225.123,1.467.037,2.194.053h8.483q6.15.005,11.577,0C995.562,156.209,1002.537,156.213,1008.1,156.213Z" fill="#ffcf3f"/><path d="M1008.1,129.819v-6.806c-5.561,0-12.536,0-20.813,0q-5.423,0-11.577,0h-8.224c-.4-.01-.79-.02-1.188-.034a12.028,12.028,0,0,1-1.2-.066c-.4-.03-.807-.056-1.212-.086l-1.218-.16c-.824-.073-1.634-.269-2.467-.4-.412-.076-.82-.189-1.238-.282s-.833-.179-1.245-.309-.83-.236-1.252-.352c-.415-.133-.827-.286-1.245-.422l-.628-.209-.617-.249c-.415-.169-.837-.315-1.252-.5a43.024,43.024,0,0,1-4.91-2.533,41.28,41.28,0,0,1-4.681-3.379q-.557-.478-1.122-.966l-1.082-1.036-.272-.256-.259-.275-.521-.548c-.173-.186-.352-.362-.524-.551l-.5-.578A38.069,38.069,0,0,1,929.461,86l-.023-.877-.017-.438V59.163l0-.4-.02-.926c-.02-.617-.036-1.235-.054-1.856-.046-.618-.089-1.238-.136-1.862a58.428,58.428,0,0,0-3.164-14.807,59.039,59.039,0,0,0-17.676-25.487,58.3,58.3,0,0,0-6.5-4.741l-.857-.545-.876-.508c-.591-.335-1.172-.684-1.77-1-1.208-.624-2.414-1.258-3.668-1.8-1.235-.581-2.517-1.069-3.795-1.57-.644-.239-1.3-.452-1.952-.674l-.979-.326-.993-.289A54.867,54.867,0,0,0,880.135.817Q879.5.707,878.86.611q-1.036-.135-2.072-.262C876.1.262,875.4.226,874.707.169c-1.387-.13-2.782-.13-4.18-.166l-.783,0-.458.007-.525.01c-.7.02-1.4.04-2.1.056-.7.043-1.4.1-2.108.152L863.5.312l-1.053.13q-1.613.194-3.224.478a58.516,58.516,0,0,0-13.28,4.024,59.1,59.1,0,0,0-33.416,39.01q-.568,2.2-.976,4.439c-.136.747-.259,1.494-.368,2.248s-.2,1.5-.282,2.261c-.034.379-.063.757-.1,1.136s-.06.757-.087,1.135c-.053.757-.089,1.517-.1,2.278l-.027,1.138-.006.525v82.924l-.01.312-.02.621a39.815,39.815,0,0,1-.422,4.944l-.223,1.218-.1.611-.143.6-.275,1.212-.342,1.192-.166.6c-.06.2-.133.392-.2.588l-.4,1.179c-.146.389-.308.77-.455,1.159l-.226.581c-.08.2-.173.378-.255.571l-.515,1.138-.571,1.116-.279.558c-.1.182-.212.362-.316.544l-.62,1.089a39.07,39.07,0,0,1-14.522,13.858,38.612,38.612,0,0,1-14.594,4.458c-.863.05-1.72.16-2.586.149l-.651.02-.325.01c-.093,0-.233.007-.4.007H71.639l-.382,0-1.6.04c-.531.013-1.066.03-1.6.043s-1.062.073-1.594.11c-2.118.133-4.216.4-6.288.717a69.54,69.54,0,0,0-12.012,3.021,72.686,72.686,0,0,0-10.969,4.854,71.52,71.52,0,0,0-9.661,6.381,68.985,68.985,0,0,0-8.234,7.53c-.638.654-1.228,1.345-1.823,2.029s-1.185,1.358-1.73,2.072-1.112,1.4-1.643,2.111q-.772,1.081-1.537,2.158c-.259.355-.5.721-.734,1.089s-.471.737-.707,1.1-.465.734-.7,1.1-.438.744-.654,1.119c-.428.747-.867,1.484-1.269,2.234s-.773,1.514-1.159,2.264l-.286.564-.262.575c-.173.381-.349.763-.521,1.142-.342.763-.69,1.517-.983,2.288s-.6,1.534-.9,2.294c-.275.77-.531,1.54-.79,2.3-.13.385-.256.767-.385,1.146-.11.385-.223.77-.332,1.155q-.324,1.15-.644,2.291-.269,1.15-.532,2.288-.129.573-.259,1.135c-.069.382-.139.76-.209,1.139q-.2,1.136-.4,2.258c-.109.75-.2,1.5-.3,2.241-.212,1.484-.3,2.958-.408,4.409-.067.727-.07,1.447-.093,2.165s-.034,1.428-.05,2.135v6.441H6.806v-6.434c.017-.641.034-1.285.047-1.935s.024-1.3.083-1.959c.1-1.315.176-2.649.372-3.994.086-.671.166-1.348.266-2.025.119-.677.242-1.358.362-2.042.063-.342.126-.687.186-1.032.08-.339.156-.681.236-1.026q.239-1.026.482-2.072.288-1.026.584-2.072c.1-.345.2-.694.3-1.042s.229-.687.345-1.036c.236-.691.465-1.388.714-2.085q.408-1.031.817-2.072c.262-.7.581-1.381.89-2.068.156-.345.312-.69.471-1.036l.236-.518.259-.511q.523-1.016,1.049-2.049c.362-.681.76-1.345,1.145-2.022.2-.339.389-.681.591-1.013s.422-.661.634-.993.425-.664.641-1,.428-.664.661-.986q.692-.971,1.391-1.952c.482-.644.99-1.272,1.487-1.912s1.033-1.255,1.57-1.876,1.069-1.245,1.65-1.836a62.3,62.3,0,0,1,7.45-6.816,64.808,64.808,0,0,1,8.745-5.774,65.574,65.574,0,0,1,9.92-4.389A62.775,62.775,0,0,1,61.254,188c1.876-.282,3.772-.531,5.691-.647.482-.033.959-.08,1.441-.1l1.447-.04c.485-.013.969-.023,1.454-.037.259-.007.458,0,.664,0H771.97c.162,0,.305,0,.425-.006l.382-.01.764-.02c1.019,0,2.025-.116,3.038-.179a45.535,45.535,0,0,0,17.2-5.256,45.877,45.877,0,0,0,17.081-16.3l.734-1.285c.122-.212.252-.425.368-.641l.335-.657.67-1.311.6-1.345c.1-.222.209-.445.3-.671l.266-.684c.176-.458.365-.91.537-1.368l.468-1.391c.077-.233.163-.461.233-.694l.2-.707.4-1.408.325-1.424.166-.714.126-.72.259-1.434a46.814,46.814,0,0,0,.5-5.813l.02-.727.014-.365V61.174a72.8,72.8,0,0,1,.279-7.576,55.161,55.161,0,0,1,1.441-7.912A52.149,52.149,0,0,1,859.219,7.849q2.012-.413,4.041-.651l.933-.113.933-.076c.62-.047,1.245-.1,1.866-.136l1.862-.05.465-.01c.159,0,.309-.006.425-.006l.773,0c1.239.037,2.474.03,3.7.146.614.053,1.231.083,1.843.159s1.221.156,1.833.232q1.125.169,2.241.378A46.1,46.1,0,0,1,885.072,8.9l.88.253.866.292c.574.2,1.155.382,1.723.594,1.129.445,2.264.87,3.356,1.388,1.109.478,2.174,1.042,3.244,1.594.528.282,1.043.591,1.564.886l.777.448.757.482a51.43,51.43,0,0,1,5.75,4.2,52.219,52.219,0,0,1,15.637,22.546,51.616,51.616,0,0,1,2.8,13.094c.04.551.08,1.1.123,1.647.013.551.03,1.1.043,1.647l.02.82c0,.146,0,.266,0,.368V84.693l.017.515c.01.342.017.687.026,1.029a44.913,44.913,0,0,0,11.059,28.051l.588.681c.2.219.411.432.614.647l.615.644.305.322.322.305,1.272,1.212c.442.382.88.764,1.318,1.142a44.731,44.731,0,0,0,11.295,6.958c.488.213.986.392,1.474.588.242.1.488.2.731.292l.74.249c.491.163.979.339,1.468.495.495.139.986.276,1.477.415s.98.256,1.468.369.973.236,1.461.329c.979.159,1.936.378,2.905.471.482.063.96.123,1.434.182.478.037.953.073,1.424.106s.939.08,1.411.08.933.023,1.394.037h8.277q6.15,0,11.577,0C995.562,129.819,1002.537,129.819,1008.1,129.819Z" fill="#4c4c4c" opacity="0.1"/><path d="M983.2,131.316v-8.3c-5.561,0-12.536,0-20.813,0q-5.423,0-11.577,0h-8.42l-1.943-.05c-.651-.007-1.308-.056-1.965-.11s-1.325-.1-1.992-.152l-2.009-.249c-1.352-.146-2.7-.431-4.071-.667-.684-.13-1.364-.3-2.052-.458s-1.378-.312-2.062-.518-1.375-.392-2.068-.588c-.691-.219-1.375-.458-2.065-.69-.345-.116-.691-.236-1.039-.355s-.684-.266-1.026-.4c-.687-.275-1.381-.534-2.065-.83a67.184,67.184,0,0,1-8.114-4.187,66.626,66.626,0,0,1-7.709-5.558c-.611-.528-1.225-1.062-1.84-1.6l-1.782-1.693-.445-.428-.428-.448-.86-.9c-.286-.3-.575-.6-.857-.906s-.548-.631-.823-.95a62.96,62.96,0,0,1-15.5-39.305c-.01-.478-.023-.953-.036-1.431l-.017-.717V34.266c0-.116,0-.219,0-.3l-.017-.538c-.007-.362-.016-.72-.023-1.082l-.086-1.079a33.551,33.551,0,0,0-1.82-8.543,34.159,34.159,0,0,0-22.44-21.308q-.841-.254-1.7-.458c-1.022-.249-2.062-.448-3.111-.6l-1.2-.153c-.4-.053-.8-.067-1.205-.1C847.217.02,846.4.04,845.59,0l-.744,0c-.136,0-.242,0-.339.007l-.305.01-1.225.027-1.222.093-.614.047-.608.08a32.542,32.542,0,0,0-3.865.694c-.79.186-1.57.405-2.347.654a33.876,33.876,0,0,0-3.3,1.242,34.176,34.176,0,0,0-19.319,22.539,37.346,37.346,0,0,0-.943,5.163,55.788,55.788,0,0,0-.183,5.723v80.885l-.013.508-.023,1.016a64.825,64.825,0,0,1-.7,8.117l-.359,2.018-.182,1.006-.229,1-.461,2-.557,1.979-.282.989c-.1.329-.216.651-.322.976l-.66,1.952c-.239.644-.5,1.281-.75,1.922l-.379.96c-.133.319-.279.627-.418.943l-.854,1.882c-.3.618-.624,1.228-.936,1.842l-.475.923c-.162.3-.338.6-.511.9l-1.032,1.793A63.979,63.979,0,0,1,777.537,172.7a63.5,63.5,0,0,1-24.133,7.377c-1.411.1-2.825.245-4.243.252l-1.062.027-.531.013c-.183,0-.345.007-.495.007H47.054c-.209,0-.422,0-.584,0l-1.056.03c-.349.006-.7.016-1.049.023s-.694.053-1.039.076c-1.388.08-2.756.266-4.107.465a44.756,44.756,0,0,0-7.812,1.969,47.794,47.794,0,0,0-7.138,3.154,46.9,46.9,0,0,0-6.3,4.167,44.68,44.68,0,0,0-5.382,4.92c-.421.422-.8.88-1.188,1.328s-.784.883-1.136,1.351-.727.913-1.076,1.378-.667.943-1,1.411c-.173.229-.329.468-.478.71s-.309.481-.461.72-.305.475-.458.714-.282.488-.421.731c-.276.491-.571.966-.83,1.457s-.5.986-.753,1.474l-.189.365-.169.375c-.11.249-.223.5-.335.747-.223.495-.458.979-.641,1.487s-.392,1-.588,1.487c-.173.5-.342,1-.511,1.5-.083.249-.169.495-.252.744s-.143.5-.212.75c-.143.5-.282,1-.422,1.487-.116.5-.229,1-.342,1.491-.06.245-.116.491-.173.737s-.086.495-.133.744c-.086.491-.176.98-.262,1.467-.07.488-.123.98-.189,1.461-.149.966-.186,1.936-.269,2.882-.05.475-.043.95-.056,1.421s-.027.936-.04,1.4v6.418H8.3v-6.411c.013-.382.023-.767.037-1.155s0-.78.047-1.172c.07-.78.093-1.577.222-2.37.05-.4.1-.8.149-1.2.073-.4.146-.8.22-1.209.036-.2.07-.4.106-.608s.1-.4.143-.6c.093-.408.186-.813.279-1.225.116-.405.232-.81.349-1.218.06-.206.116-.411.173-.618s.14-.405.209-.611c.139-.408.279-.817.418-1.228q.239-.608.485-1.225c.146-.415.342-.813.528-1.218.089-.2.182-.408.272-.614l.136-.305.156-.3.621-1.212c.212-.4.458-.794.681-1.2.116-.2.226-.4.345-.6l.382-.588.375-.591a6.856,6.856,0,0,1,.395-.584l.824-1.162c.285-.382.591-.75.886-1.132s.614-.744.933-1.115.627-.747.979-1.089A36.166,36.166,0,0,1,23.08,196.8a38.33,38.33,0,0,1,5.182-3.426,39.6,39.6,0,0,1,5.86-2.59,36.3,36.3,0,0,1,6.411-1.613c1.112-.16,2.234-.319,3.376-.382.286-.02.571-.053.86-.067l.867-.017.867-.026c.083,0,.127-.007.239,0H747.073c.143,0,.312,0,.528-.007l.6-.013,1.2-.03c1.6-.013,3.2-.166,4.791-.286a71.844,71.844,0,0,0,27.314-8.353A72.255,72.255,0,0,0,808.529,154.2l1.172-2.029c.193-.342.389-.677.578-1.019l.534-1.043c.355-.694.717-1.388,1.059-2.088l.966-2.128c.159-.355.325-.707.471-1.069l.432-1.086c.286-.724.578-1.448.847-2.175l.75-2.211c.122-.368.252-.733.365-1.105l.322-1.119c.209-.747.425-1.494.627-2.241l.524-2.264.256-1.132.209-1.142.4-2.281a73.109,73.109,0,0,0,.8-9.18l.027-1.146.013-.574V34.216c0-.162,0-.2.007-.3l.017-.5c-.007-.677.079-1.341.116-2.009a29.817,29.817,0,0,1,.71-3.9,25.754,25.754,0,0,1,3.124-7.155,26.036,26.036,0,0,1,11.464-9.88l.029-.013a25.393,25.393,0,0,1,7.178-1.952l.461-.063.465-.033.926-.07.933-.023.233-.007c.066,0,.156-.007.3-.007l.731,0c.618.033,1.241.007,1.849.08.305.03.615.033.917.073l.906.116a25.46,25.46,0,0,1,5.989,1.63A25.858,25.858,0,0,1,869.85,25.491a25.422,25.422,0,0,1,1.375,6.451l.066.82.017.824.013.412c0,.053,0,.146,0,.269V59.823l.017.81c.017.541.03,1.079.044,1.617a71.271,71.271,0,0,0,17.532,44.475c.312.359.625.714.933,1.069s.644.687.966,1.029.651.677.973,1.016l.485.5.5.485c.674.641,1.344,1.281,2.012,1.916q1.046.907,2.082,1.806a74.816,74.816,0,0,0,8.715,6.281,76,76,0,0,0,9.183,4.741c.774.335,1.561.631,2.337.94.389.152.777.3,1.165.455.392.133.784.269,1.176.4.78.262,1.557.534,2.337.78.783.223,1.567.445,2.341.667s1.557.409,2.337.588,1.547.368,2.321.514c1.55.276,3.078.588,4.6.757q1.146.14,2.274.283c.754.056,1.5.116,2.248.173s1.487.113,2.224.123,1.468.037,2.195.053h8.483q6.15.005,11.577,0C970.665,131.313,977.64,131.316,983.2,131.316Z" transform="translate(24.897 24.897)" fill="#fff" opacity="0.3"/></g><g transform="translate(435.608 131.064)"><rect width="20.915" height="37.184" transform="translate(0 0)" fill="#b1b1b1"/><rect width="20.915" height="10.947" transform="translate(0 26.237)" fill="#fff" opacity="0.3"/><rect width="20.915" height="12.757" transform="translate(0 0)" fill="#282f39" opacity="0.3"/></g><g transform="translate(29.24 188.775)"><rect width="20.915" height="37.184" fill="#b1b1b1"/><rect width="20.915" height="10.947" transform="translate(0 26.237)" fill="#fff" opacity="0.3"/><rect width="20.915" height="12.757" transform="translate(0 0)" fill="#282f39" opacity="0.3"/></g><g transform="translate(576.056 131.064)"><rect width="20.915" height="37.184" transform="translate(0 0)" fill="#b1b1b1"/><rect width="20.915" height="10.947" transform="translate(0 26.237)" fill="#fff" opacity="0.3"/><rect width="20.915" height="12.757" transform="translate(0 0)" fill="#282f39" opacity="0.3"/></g><g transform="translate(502.958 200.688)"><rect width="20.915" height="37.184" fill="#b1b1b1"/><rect width="20.915" height="10.947" transform="translate(0 26.237)" fill="#fff" opacity="0.3"/><rect width="20.915" height="12.757" transform="translate(0 0)" fill="#282f39" opacity="0.3"/></g><g transform="translate(939.443 201.474)"><rect width="20.915" height="37.184" fill="#b1b1b1"/><rect width="20.915" height="10.947" transform="translate(0 26.237)" fill="#fff" opacity="0.3"/><rect width="20.915" height="12.757" transform="translate(0 0)" fill="#282f39" opacity="0.3"/></g><g transform="translate(1179.121 20.644)"><rect width="20.915" height="38.49" fill="#b1b1b1"/><rect width="20.915" height="11.331" transform="translate(0 27.158)" fill="#fff" opacity="0.3"/><rect width="20.915" height="13.205" transform="translate(0 0)" fill="#282f39" opacity="0.3"/></g><g transform="translate(262.711 120.997)"><rect width="11.578" height="56.066" transform="translate(0 0)" fill="#b1b1b1"/><rect width="11.578" height="16.506" transform="translate(0 39.56)" fill="#c9c9c9"/><rect width="11.578" height="19.235" transform="translate(0 0)" fill="#282f39" opacity="0.3"/><g transform="translate(37.917)"><rect width="11.578" height="56.066" transform="translate(0 0)" fill="#b1b1b1"/><rect width="11.578" height="16.506" transform="translate(0 39.56)" fill="#c9c9c9"/><rect width="11.578" height="19.235" transform="translate(0 0)" fill="#282f39" opacity="0.3"/></g><rect width="26.339" height="48.693" transform="translate(11.578 3.686)" fill="#c9c9c9"/><rect width="2.726" height="48.693" transform="translate(11.578 3.686)" fill="#282f39" opacity="0.3"/><rect width="2.726" height="48.693" transform="translate(35.185 3.714)" fill="#282f39" opacity="0.3"/><g transform="translate(15.105 9.618)"><g transform="translate(0 15.576)"><path d="M1.639,0,0,2.839,1.639,5.678H4.918L6.557,2.839,4.918,0Z" fill="#edeef4"/><path d="M1.639,0,0,2.839,1.639,5.678H4.918L6.557,2.839,4.918,0Z" transform="translate(12.729)" fill="#edeef4"/></g><g transform="translate(6.364)"><path d="M1.639,0,0,2.839,1.639,5.678H4.918L6.557,2.839,4.918,0Z" transform="translate(0 31.152)" fill="#edeef4"/><path d="M1.639,0,0,2.839,1.639,5.678H4.918L6.557,2.839,4.918,0Z" transform="translate(0 0)" fill="#edeef4"/></g></g></g><g transform="translate(1295.609 132.445)"><rect width="11.578" height="53.697" transform="translate(0 0)" fill="#b1b1b1"/><rect width="11.578" height="15.809" transform="translate(0 37.888)" fill="#fff" opacity="0.3"/><rect width="11.578" height="18.422" transform="translate(0 0)" fill="#282f39" opacity="0.3"/></g><g transform="translate(21.346 187.744)"><g transform="translate(20.322 20.322)"><path d="M48.877,44.762l-4.115,4.116a4.093,4.093,0,0,1-3.189,1.089,8.761,8.761,0,0,1-5.2-2.376,11.457,11.457,0,0,1-.856-.861L7.477,15.269,2.352,9.521C-.033,6.844-.67,3.517.743,1.577a3.193,3.193,0,0,1,.35-.415l.068-.068c1.85-1.85,5.481-1.3,8.359,1.259l5.749,5.124L28.086,18.9l10.688,9.523,7.955,7.091c2.972,2.648,4.054,6.458,2.6,8.68A3.459,3.459,0,0,1,48.877,44.762Z" transform="translate(0.001 0)" fill="#bb0d04"/><path d="M12.337,12.335a11.877,11.877,0,0,1-4.859,2.935L2.353,9.52C-.209,6.643-.756,3.012,1.094,1.162l.068-.068c1.85-1.85,5.481-1.3,8.359,1.259l5.749,5.124A11.856,11.856,0,0,1,12.337,12.335Z" transform="translate(0 0)" fill="#333" opacity="0.3"/><path d="M20.79,25.861l-4.115,4.116a4.093,4.093,0,0,1-3.189,1.089,8.761,8.761,0,0,1-5.2-2.376,2.541,2.541,0,0,1,1.471-2.046c3.183-1.78,9.894-.825,3.436-5.991C8.014,16.507,3.465,8.1,0,0L10.688,9.523l7.955,7.091c2.972,2.648,4.054,6.458,2.6,8.68A3.459,3.459,0,0,1,20.79,25.861Z" transform="translate(28.087 18.901)" fill="#f0f0f0" opacity="0.14"/><path d="M10.56,15.771C6.574,12.255,2.983,6.279,0,0L7.955,7.091C10.927,9.739,12.009,13.549,10.56,15.771Z" transform="translate(38.775 28.425)" fill="#f0f0f0" opacity="0.14"/><path d="M41.573,48.389a8.761,8.761,0,0,1-5.2-2.376,11.457,11.457,0,0,1-.856-.861L7.477,13.692,2.352,7.943C-.033,5.267-.67,1.94.743,0l37.1,43.967Z" transform="translate(0.001 1.577)" fill="#333" opacity="0.14"/></g><g transform="translate(0 0)"><ellipse cx="13.571" cy="13.571" rx="13.571" ry="13.571" transform="translate(12.498 0) rotate(27.417)" fill="#b1b1b1"/><g transform="translate(6.717 6.717)"><ellipse cx="11.58" cy="11.58" rx="11.58" ry="11.58" fill="#bb0d04"/><g transform="translate(2.273 2.273)" opacity="0.3"><path d="M18.613,6.813,11.8,0,2.494,2.494,0,11.8l6.813,6.813,9.307-2.494Z" fill="#333"/></g><g transform="translate(3.229 3.228)"><path d="M0,10.589,2.238,2.238,10.589,0,16.7,6.113l-2.238,8.351L6.113,16.7Z" fill="#b1b1b1"/><g transform="translate(4.044 4.044)" opacity="0.3"><path d="M0,5.461,1.154,1.154,5.461,0,8.615,3.153,7.46,7.46,3.153,8.615Z" fill="#f0f0f0"/></g></g></g></g></g></g></g></svg>