<svg xmlns="http://www.w3.org/2000/svg" xmlns:xlink="http://www.w3.org/1999/xlink" width="1327.999" height="299" viewBox="0 0 1327.999 299">
  <defs>
    <clipPath id="clip-path">
      <rect id="Rectángulo_327024" data-name="Rectángulo 327024" width="1327.999" height="299" transform="translate(136 1495.223)" fill="#12263f"/>
    </clipPath>
  </defs>
  <g id="Enmascarar_grupo_65" data-name="Enmascarar grupo 65" transform="translate(-136 -1495.223)" clip-path="url(#clip-path)">
    <path id="Trazado_258605" data-name="Trazado 258605" d="M1328,400.778V242.009l-12.71.087-4.643-33.433L1328,222.377V209.891l-43.961-34.746,6.259-14.483,2.638,2.092,3.308-4.1-15.87-12.574-3.309,4.1,2.819,2.232-14.286,8.8L1244.428,200.2l2.282,1.419.207,29.114-2.544.03V210.494h-24.71v12.629h-14.12v27.542c-4.168,1.234-7.982,2.538-11.48,3.877h-36.044V241.354a4.034,4.034,0,0,0-4.053-4.018h-25.038l-13.861-25.107-14.35-8.7,2.8-2.255-3.333-4.075L1084.4,209.884l3.337,4.075,2.623-2.109,6.362,14.44-36.707,29.431V230.966a23.768,23.768,0,0,0-8.426-2.081l-8.537-80.126h1.542v-7.753h-2.368l-5.458-51.238h2.7V82.017H1004.7v7.751h2.7L996.473,192.273v-4.524H963.04L962.8,167.63V151.883H952.48V124.316l1.394-5.592V103.7l1.755.06.149-10.743-9.011-.256-2.042-3.177V82.6l2.527-4.386,11.606,2.019,3.3-23.542L780.176,19.725l4.708-14.366L770.454,0C755.74,5.316,737.262,31.3,740.8,64.623V127.17l-3.422-.058-.148,2.139,1.288.033.182,5.8,2.943.2a2.932,2.932,0,0,1,2.1-2.355v6.34l-1.117.047.2,5.883.921.008v87.473s-.005,0-.005,0V234h-3.53v-5.138h-6.948V221.1h8.272v-3.826h-25.7V215.11l-.184-26.812-6.394-.032V140.679l.872-3.506v-9.416l1.1.038.094-6.739-5.649-.157-1.282-1.991.127-6.889,2.686-3.23,5.3-1.661-5.137-14-116,33.383-2.182-10.056-9.046,1.951c-4.5,4.938-7.109,15.738-4.537,27.65V186.29l-2.149-.035-.093,1.339.806.021.119,3.638,1.844.123a1.833,1.833,0,0,1,1.316-1.478v3.973l-.7.03.121,3.688.58.01v7.242H564.2a4.038,4.038,0,0,0-4.045,4.018v17.7h-7.919v-.888h-1.352v.888h-.876a4.037,4.037,0,0,0-4.05,4.017v.86h-1.051v1.334h1.051v9.073l-.534,0L545.4,238.7l-5.152.035-.023-2.989-2.582.018-.051-7.4a8.147,8.147,0,0,0,1.751-5.105,8.305,8.305,0,0,0-10.161-7.952l-50.814-40.163,6.259-14.483,2.638,2.092,3.309-4.1-15.871-12.574-3.309,4.1,2.82,2.232-14.287,8.8L438.762,200.2l2.282,1.419.207,29.114-2.545.03V210.494H414v12.629h-14.12v27.542c-4.169,1.234-7.982,2.538-11.48,3.877H352.352V241.354a4.034,4.034,0,0,0-4.053-4.018H323.261L309.4,212.229l-14.35-8.7,2.8-2.255-3.334-4.075-15.783,12.685,3.336,4.075,2.624-2.109,6.363,14.44-42.906,34.4L236.224,148.759h2.705v-7.753H204.15v7.753h2.705l-16,150.089H189.52V284.97h-7.975V259.906h-6.174v-9.121a15.94,15.94,0,0,0-13.79-15.735v-.294a17.87,17.87,0,0,0-17.929-17.769h-.595a17.87,17.87,0,0,0-17.929,17.769v32.159h-8.751v-34.19a6.129,6.129,0,0,0-3-5.259,5.007,5.007,0,0,0-1.43-9.82h-4.066v-4.669h-6.292v4.669H97.524a5.007,5.007,0,0,0-1.428,9.82,6.129,6.129,0,0,0-3,5.259v34.19H84.581V235.5a2.972,2.972,0,0,0-2.984-2.962H75.522V200.4a10.73,10.73,0,0,0-10.763-10.668v-.461a15.826,15.826,0,0,0-31.65,0v95.7H25.134v13.878H0v101.93Zm-75.034-160.636-.028-3.864,1.667-.013.028,3.864ZM1297,197.875l3.794,3,.678,4.9-7.942,3.185Zm-5.329,17.012,10.484-4.2,1.728,12.438h-.1l-12.191-7.984Zm3.306,8.235h-5.886l1-3.2Zm-5.311-31.047-9.73,31.047h-3.417l10.839-32.869ZM1276.656,181.8l9.225,7.29-11.222,34.034h-5.574V201.747h-10.592v32.545l-.727.008-.025-3.609-7.269.05-.187-26.113Zm-28.17,20.927.2,27.991-1.175.015-.2-28.741Zm-4.113,33.61.862,0,.027,3.864-.89.007ZM1124.688,281.65h-1.276v3.608h-9.449v-20h.746v-1.332h-.746v-.855a.583.583,0,0,1,.58-.572h.88v.886h1.347V262.5h7.919Zm8.96-.03-1.177,0V253.621l1.177-.742Zm4.262,9.449h-1.952V287.2h1.952Zm38.193-33.084h9.753c-3.645,1.67-6.872,3.347-9.753,4.976Zm-8.96,0h6.684v5.434h-6.684Zm0,7.405h4.832c-1.747,1.068-3.352,2.1-4.832,3.069Zm-2.27-7.405v2.092h-.007v9.89c-2.388,1.59-4.438,2.969-6.275,4.028a31.181,31.181,0,0,0-7.533,5.873V258.559a.582.582,0,0,1,.577-.574Zm-10.907-17.206a.583.583,0,0,1,.58.575v13.188h-2.911a4.041,4.041,0,0,0-4.05,4.017v26.113a42.26,42.26,0,0,0-2.905,6.711v-6.124H1140.8V281.65l-6.565-.027V252.507l2.275-1.436-5.682-10.292Zm-25.8,12.606,2.517,2.151V281.65h-2.517Zm0,33.819h.091v3.865h-.091Zm-24.011-54.311,20.536,17.529v8.633h-7.919v-.885h-1.347v.885h-.88a4.039,4.039,0,0,0-4.053,4.017v.855h-1.049v1.332h1.049v20.934l-15.51-45.948Zm-10.638,8.526,16.976,50.29v1.748h-3.15l-16.117-50.2Zm4.065,50.209-19.908-11.664,13.318-8.857Zm-17.423-39.5,3.77-3.021,3.548,11.053-7.964-3.127Zm-1.294,9.825,10.514,4.128.08.251-12.244,8.143Zm-2.968,22.557,15.268,8.946h-16.446Zm-15.877-16.233,10.333-8.287-4.406,33.466h-5.927Zm-52.643-71.218h-2.61l2.933-3.018Zm3.636-34.115-1.221-1.256h1.355Zm-2.093-9.01,3.565-4.8-.511,4.8Zm3.162,54.233.357-3.357h3.538l-2.97,4Zm6.184-25,6.894,9.281-3.426,4.612h-8.469l1.047-9.824Zm-3.366-1.437.288-2.708,1.014,1.366Zm10.745-40.724h-7.12l3.56-4.793Zm-12.576-22.442H1031.1l-9.016,12.135Zm18.337,30.2,3.847,5.176h-17.392l.552-5.176Zm2.974,12.93-7.885,8.112h-8.818l-1.357-1.4.715-6.715Zm-2.846,51.237,5.836-4.046,3.006,4.046Zm7.969,7.751-3.774,3.884-5.6-3.884Zm-6.818-23.618-3.426-4.612,2.455-3.3,7.693,7.916Zm-5.476-7.37-6.62-8.912,1.5-1.54,7.3,7.516Zm1.379,7.37h-2.758l1.379-1.855Zm2.866-13.084-6.239-6.42h11.01Zm-12.5-6.42-.431.444-.33-.444Zm-3.245,33.128,4.362-5.872h14.274l.88,1.184-10,6.931h-6.281Zm6.954,9.995h1.152l9.373,6.5-4.272,4.4c-.58-4.413-2.341-8.38-6.253-10.893m11.208,11.7h-.976l3.139-3.23,2.1,1.456a30.18,30.18,0,0,0-4.264,1.774m9.86-11.147.842,7.9c-.615.084-1.228.178-1.834.291l-4.166-2.887Zm-1.158-10.856-2.5-3.368,2-1.383Zm-1.791-16.8-7.007-7.21,5.456-7.344Zm-3.226-30.259.691,6.484h-6.995Zm-2.056-14.558h.5l.085.793Zm.844-7.753h-6.6l-5.608-7.548,9.977-13.427Zm-23.059-51.238h17.6l2.242,21.042h-22.079Zm-3.226,30.263,9.977,13.427-5.609,7.548h-4.611v6.206l-3.1,4.17Zm-4.5,42.205,4.979,5.123-2.257,21.176-6.205,6.386Zm-4.542,42.635,5.143,3.566-.393,3.69-.427-2.426-4.686-1.456Zm-.661,6.2,2.545.7.633,4.343q-1.843-.3-3.656-.581ZM769.011,221.488l1.482-15.628,11.965,9.319-10.885,8.476a5.5,5.5,0,0,0-2.562-2.167M773,200l11.568-13.374L796.137,200Zm21.485,5.818-9.916,7.724-9.917-7.724Zm-1.122-38.177H775.77l8.794-13.3ZM778.544,141.1h12.043l-6.022,9.106Zm14.235,32.36-8.214,9.492-8.211-9.492Zm-6.623,11.329,9.447-10.918,2.328,24.527Zm-.222-32.515L792.6,142.2l2.235,23.525Zm-8.743-16.992,1.5-15.791H790.44l1.5,15.791Zm6,16.992L774.3,165.721l2.234-23.525Zm-.219,32.515L771.2,198.394l2.328-24.527Zm2.653,41.715h-7.916v-2.173l-2.891.08,9.742-7.588,4.582,3.566c-2.888.835-3.541,3.649-3.518,6.116m7.412-6.364-6.371-4.958,11.97-9.319,1.343,14.184c-2.791.025-5.192.075-6.942.093m23.432-.083c-2.688-.01-5.42-.017-8.06-.024l7.26-29.907,5.989.729Zm13.194-72.778-6.945,37.809h-5.77l9.69-38.175Zm-1.718-5.524,9.891-38.992-7.162,38.992Zm47.263,76.334a8.3,8.3,0,0,0-4.787,2.4v-7.738l4.787-.463Zm0-11.58-4.787.667V195.656a4.771,4.771,0,0,1,4.787,4.745Zm5.978,11.6v-6.4l6.334-.612,2.171,7.347c-3.208-.135-6.1-.25-8.505-.338m22-.459a5.054,5.054,0,0,0-3.321,1.24l-.478-.022-2.643-8.662,7.044-.682c-.01,2.83.011,5.878.035,8.125Zm45.048-114.139v15.217l1.43,5.592v27.567h-18.94v-27.83l1.38-5.524v-15.58Zm-94.28-36.033L857.05,65.2l25.408,3.625L882.847,67l49.295,8.579v3.744l2.181.868v8.253l-1.791,3.919-7.142-.2-.373,10.535,1.524.052v15.777l1.412,5.524v27.83h-11.79V167.63h.066l.123,26.088c-8.927-.467-11.729,4.178-12.342,8.779l-9.22,1.282L856.316,77.967h1.158V70.093h-3.566l-.235-.775Zm31.776,137.565-4.545.632V200.4a10.731,10.731,0,0,0-10.764-10.668v-.461a15.826,15.826,0,0,0-31.65,0v31.094a9.21,9.21,0,0,0-2.029-.227c-2.061-.02-7.745-.032-14.474-.063L848.924,80.432ZM745.2,83.84q.427,1.193.893,2.4v41.02l-.893-.015Zm0,55.368v-6.149a2.911,2.911,0,0,1,1.594,2.368l3.331-.05.174-5.77,1.2.035v-2.284l-3.942-.065V89.818q.992,2.3,2.141,4.612l6.282.158L771.722,48.05l65.391,13.687,2.492,2.911-1.282,5.444H836.07v7.874h.4l-32.813,139.34-9.284-97.82h1.809v-5.818H772.95v5.818h1.806l-9.7,102.156a5.1,5.1,0,0,0-2.694,4.724l-2.746.9v6.954H745.279v-.983l-.078-88.01.757.012.193-6.073ZM742.263,127.2V73.576c.421,1.9.907,3.825,1.478,5.758v47.89ZM599.97,243.636q-3.36.594-6.683,1.136v-1.535h6.683Zm0-2.37h-6.683v-3.538h6.683Zm0-5.512h-6.683v-3.535h6.683Zm0-5.507h-6.683v-3.541h6.683Zm0-5.51h-6.683V221.2h6.683Zm0-5.51h-6.683v-3.538h6.683Zm0-5.509h-6.683v-5.434h6.683Zm16.085,26.93c-.131.026-.27.05-.4.076l.4-1.623Zm0-15.321L612.063,241.4q-4.963.936-9.813,1.823V210.376h-.007v-2.092h13.235a.582.582,0,0,1,.578.575Zm-.578-20.486h-2.908V191.653a.582.582,0,0,1,.578-.574h11.416l-5.036,20.267v-2.488a4.042,4.042,0,0,0-4.05-4.018m15.164-13.762L627.9,206.022l-3.526-.361,3.7-14.582Zm-1.694-3.443,1.4-5.547,1.9.231-.976,5.316Zm-9.42,52.358V225.1l3.952-15.919,3.753.454-5.685,29.974-2.02.381m19.424-3.415q-6.919,1.1-13.6,2.332l9.213-47.832h3.805a.582.582,0,0,1,.578.574Zm14.2-22.351H652.4v1.334h.747V234.57q-5.444.658-10.724,1.462V212.8h7.919v.888h1.344V212.8h.882a.583.583,0,0,1,.578.577Zm53.437-86.594v9.539l.9,3.506L707.44,191.1H695.527l.089-50.59.862-3.461v-9.767Zm-59.175,1.72,15.155-5.379-.328-1.124L696.5,112.134v.339l1.364.542v5.171l-1.122,2.465-4.474-.128-.235,6.605.953.032v9.89l.885,3.461-.108,50.448h-7.255l.857,41.562q-5-.041-9.849.125L649.44,140.223h2.548v-5.469h-2.209l-2.726-1.307-.684-1.936ZM671.878,232.9c-5.21.288-10.282.737-15.252,1.284V215.562h1.046v-1.334h-1.046v-.853a4.041,4.041,0,0,0-4.053-4.019h-.882v-.885h-1.344v.885h-7.919v-17.7a4.037,4.037,0,0,0-4.053-4.017h-3.142l9.095-47.223Zm-38.995-54.041-1.651-.23,6.146-24.218Zm-54.527-24.176c.179.418.366.835.557,1.249v30.421l-.557-.007Zm0,42.932.471.01.126-3.806-.6.025v-3.855a1.82,1.82,0,0,1,1,1.482l2.09-.032.106-3.617.752.023v-1.432l-2.469-.042V157.8A53.8,53.8,0,0,0,596.58,176.76l3.634-1.039-5.154-31.063,25.981-8.436.52,1.106,13.785-4.1,1.324,1.522H633.6v5.469h3.6l-11.785,47.413H613.147a4.035,4.035,0,0,0-4.053,4.017v13.188H578.356Zm0,10.675h12.653V245.14q-2.887.452-5.743.838h-6.91Zm-1.841-21.977V149.6q.412,1.388.925,2.781v33.934Zm-12.893,22.552a.583.583,0,0,1,.578-.575h13.24v37.694H563.623Zm-14.19,23.913h.739v-1.334h-.739v-.86a.581.581,0,0,1,.577-.574h.876v.888h1.352V230h7.919v17.065c-3.215-.4-6.183-.719-8.822-1.008l-.03-4.253-1.871.013ZM447.3,240.142l-.028-3.864,1.667-.013.027,3.864Zm83.736-19.4a2.579,2.579,0,1,1-2.585,2.6,2.59,2.59,0,0,1,2.585-2.6m.075,10.8a8.338,8.338,0,0,0,3.211-.662l.033,4.91-6.424.045-.035-4.91a8.366,8.366,0,0,0,3.215.617m-8.327-8.8c-.015.211-.025.424-.025.642a8.154,8.154,0,0,0,1.826,5.081l.05,7.4-1.788.013.045,6.138-13.268.091-4.643-33.433Zm-31.454-24.859,3.793,3,.679,4.9-7.941,3.185ZM486,214.887l10.484-4.2,1.728,12.438h-.1l-12.191-7.984Zm3.307,8.235H483.42l1-3.2ZM484,192.075l-9.73,31.047h-3.417l10.839-32.869ZM470.99,181.8l9.224,7.29-11.222,34.034h-5.573V201.747H452.827v32.545l-.727.008-.025-3.609-7.269.05-.186-26.113Zm-28.171,20.927.2,27.991-1.175.015-.2-28.741Zm-4.113,33.61.862,0,.028,3.864-.89.007ZM319.022,281.65h-1.276v3.608H308.3v-20h.747v-1.332H308.3v-.855a.583.583,0,0,1,.58-.572h.88v.886H311.1V262.5h7.919Zm8.96-.03-1.177,0V253.621l1.177-.742Zm4.262,9.449h-1.952V287.2h1.952Zm38.193-33.084h9.753c-3.645,1.67-6.872,3.347-9.753,4.976Zm-8.96,0h6.683v5.434h-6.683Zm0,7.405h4.832c-1.748,1.068-3.352,2.1-4.832,3.069Zm-2.27-7.405v2.092H359.2v9.89c-2.388,1.59-4.438,2.969-6.275,4.028a31.18,31.18,0,0,0-7.533,5.873V258.559a.582.582,0,0,1,.578-.574ZM348.3,240.779a.583.583,0,0,1,.58.575v13.188h-2.91a4.042,4.042,0,0,0-4.05,4.017v26.113a42.253,42.253,0,0,0-2.905,6.711v-6.124h-3.879V281.65l-6.565-.027V252.507l2.275-1.436-5.682-10.292Zm-25.8,12.606,2.517,2.151V281.65H322.5Zm0,33.819h.091v3.865H322.5Zm-24.011-54.311,20.536,17.529v8.633H311.1v-.885h-1.346v.885h-.88a4.039,4.039,0,0,0-4.053,4.017v.855h-1.049v1.332h1.049v20.934l-15.51-45.948Zm-10.638,8.526,16.976,50.29v1.748h-3.15l-16.118-50.2Zm4.066,50.209L272,279.964l13.319-8.857Zm-17.424-39.5,3.77-3.021,3.549,11.053-7.965-3.127Zm-1.294,9.825,10.514,4.128.08.251-12.244,8.143Zm-2.968,22.557,15.268,8.946H269.049Zm-5.544-24.52-4.406,33.466h-8.632l-2.26-21.2Zm-32.475,27.327h-2.58v2.992h-5.153v1.061H202.929l18.61-12.905,10.67,7.4Zm2.5-74.391H208.373L221.538,195.2Zm-22.181-35.371h18.029l-9.016,12.134Zm21.308,43.122-12.294,12.651-12.292-12.651Zm5.026,35.371H204.218l17.321-17.82Zm-2.474,7.753-14.847,10.292L206.694,263.8Zm2.33,8.444a2.579,2.579,0,1,1-2.6,2.58,2.592,2.592,0,0,1,2.6-2.58m-6.506,9.246-7.516-5.212,6.267-4.346a8.119,8.119,0,0,0,1.249,7.985Zm9.719,5.825h-1.319l-5.1-3.541v-1.369a8.384,8.384,0,0,0,6.424,0Zm.8-22.281-2.2,1.768a8.448,8.448,0,0,0-1.811-.2l-.073,0,3.962-2.748Zm-1.185-11.121-17.624-18.138,14.14-14.547ZM236.9,210.374l-13.315-17.926,9.974-13.426Zm-24.162-61.615h17.6l2.242,21.042H210.5Zm-3.223,30.263,9.972,13.426-13.313,17.926Zm-4.5,42.208,14.138,14.547-17.623,18.138Zm-4.547,42.631,17.915,12.42-20.773,14.4Zm-69.367-29.1a11.911,11.911,0,0,1,11.952-11.846h.595A11.913,11.913,0,0,1,155.6,234.756v.572a15.926,15.926,0,0,0-12.3,15.457v9.121h-6.174v7.009h-6.022Zm0,38.08h6.022V284.97h-6.022Zm-14.728,0h8.751V284.97h-8.751ZM75.52,238.464h3.09v31.412a2.972,2.972,0,0,0,2.986,2.959H93.1V284.97H75.52ZM64.758,195.656a4.771,4.771,0,0,1,4.787,4.745v32.141H64.758Zm0,42.809h4.787V284.97H64.758Z" transform="translate(136 1495.223)" fill="#12263f"/>
  </g>
</svg>
