<svg xmlns="http://www.w3.org/2000/svg" width="542.5" height="197.727" viewBox="0 0 542.5 197.727"><g transform="translate(-634.5 -13375)"><rect width="541.757" height="37.166" transform="translate(634.872 13418.856)" fill="#f6f6f6"/><rect width="541.757" height="35.68" transform="translate(634.872 13456.023)" fill="#fff"/><rect width="541.757" height="36.423" transform="translate(634.872 13491.702)" fill="#f6f6f6"/><rect width="541.757" height="44.6" transform="translate(634.872 13528.126)" fill="#fff"/><rect width="541.757" height="3.717" transform="translate(634.872 13375)" fill="#25ffff"/><rect width="541.757" height="40.14" transform="translate(634.872 13378.717)" fill="#ad84ff"/><path d="M-6642.757-9852.666h-.743V-10047h.743Z" transform="translate(7639.463 23425.393)" fill="#212121"/><path d="M-6642.757-9852.666h-.743V-10047h.743Z" transform="translate(7819.757 23425.393)" fill="#212121"/><path d="M-6642.757-9852.666h-.743V-10047h.743Z" transform="translate(7278 23425.393)" fill="#212121"/><path d="M-6642.757-9852.666h-.743V-10047h.743Z" transform="translate(7459.169 23425.393)" fill="#212121"/><path d="M14.4,11.413H10.641V13.96h4.416v1.574H8.681V6.023h6.363V7.61h-4.4V9.877H14.4Zm3.417-2.946.059.817a2.468,2.468,0,0,1,2.032-.947A2.051,2.051,0,0,1,21.584,9a3.079,3.079,0,0,1,.562,1.973v4.567H20.257V11.014A1.225,1.225,0,0,0,20,10.142a1.17,1.17,0,0,0-.869-.271,1.3,1.3,0,0,0-1.2.679v4.985H16.044V8.466Zm9.009,7.2a3.47,3.47,0,0,1-2.532-.954,3.39,3.39,0,0,1-.977-2.541v-.183a4.27,4.27,0,0,1,.412-1.9A3.021,3.021,0,0,1,24.9,8.789a3.273,3.273,0,0,1,1.721-.454A2.934,2.934,0,0,1,28.9,9.25a3.717,3.717,0,0,1,.833,2.594v.771h-4.5a1.754,1.754,0,0,0,.552,1.111,1.669,1.669,0,0,0,1.166.418,2.038,2.038,0,0,0,1.705-.791l.928,1.039a2.834,2.834,0,0,1-1.15.938A3.772,3.772,0,0,1,26.83,15.666Zm-.216-5.8a1.182,1.182,0,0,0-.911.379,1.958,1.958,0,0,0-.448,1.085h2.626v-.15a1.4,1.4,0,0,0-.34-.97A1.22,1.22,0,0,0,26.614,9.864Zm8.166.372a5.13,5.13,0,0,0-.679-.052,1.383,1.383,0,0,0-1.4.725v4.625H30.809V8.466h1.784l.052.843a1.749,1.749,0,0,1,1.574-.973,1.978,1.978,0,0,1,.588.085Zm.634,1.712a4.143,4.143,0,0,1,.774-2.62,2.508,2.508,0,0,1,2.087-.993,2.2,2.2,0,0,1,1.81.8l.078-.666h1.712V15.3a3.021,3.021,0,0,1-.421,1.614,2.706,2.706,0,0,1-1.186,1.045,4.169,4.169,0,0,1-1.79.359,3.876,3.876,0,0,1-1.516-.31,2.69,2.69,0,0,1-1.117-.8l.836-1.15a2.212,2.212,0,0,0,1.712.791,1.619,1.619,0,0,0,1.169-.4,1.507,1.507,0,0,0,.418-1.14v-.379a2.184,2.184,0,0,1-1.718.738,2.5,2.5,0,0,1-2.061-1,4.142,4.142,0,0,1-.787-2.643Zm1.888.137a2.573,2.573,0,0,0,.385,1.506,1.227,1.227,0,0,0,1.058.546,1.312,1.312,0,0,0,1.235-.647V10.517a1.309,1.309,0,0,0-1.222-.647,1.234,1.234,0,0,0-1.068.555A2.9,2.9,0,0,0,37.3,12.085Zm9.277,3.58a3.47,3.47,0,0,1-2.532-.954,3.39,3.39,0,0,1-.977-2.541v-.183a4.27,4.27,0,0,1,.412-1.9,3.021,3.021,0,0,1,1.166-1.294,3.273,3.273,0,0,1,1.721-.454,2.934,2.934,0,0,1,2.283.915,3.717,3.717,0,0,1,.833,2.594v.771h-4.5a1.754,1.754,0,0,0,.552,1.111,1.669,1.669,0,0,0,1.166.418,2.038,2.038,0,0,0,1.705-.791l.928,1.039a2.834,2.834,0,0,1-1.15.938A3.772,3.772,0,0,1,46.58,15.666Zm-.216-5.8a1.182,1.182,0,0,0-.911.379,1.958,1.958,0,0,0-.448,1.085h2.626v-.15a1.4,1.4,0,0,0-.34-.97A1.22,1.22,0,0,0,46.364,9.864Zm.17-4.364h2.058l-1.81,2.025H45.247Zm6.285,1.228V8.466h1.209V9.851H52.819v3.528a.842.842,0,0,0,.15.562.755.755,0,0,0,.575.17,3.011,3.011,0,0,0,.555-.046V15.5a3.887,3.887,0,0,1-1.143.17,1.8,1.8,0,0,1-2.025-2.006V9.851H49.9V8.466h1.032V6.728Zm4.253,8.807H55.177V8.466h1.895Zm-2.006-8.9a.93.93,0,0,1,.284-.7,1.225,1.225,0,0,1,1.545,0,1,1,0,0,1,0,1.4,1.211,1.211,0,0,1-1.535,0A.927.927,0,0,1,55.066,6.637Zm6.5,7.507a1.238,1.238,0,0,0,.849-.287,1.007,1.007,0,0,0,.34-.764h1.77a2.422,2.422,0,0,1-.392,1.316,2.587,2.587,0,0,1-1.055.928,3.3,3.3,0,0,1-1.48.33,3.069,3.069,0,0,1-2.391-.964,3.813,3.813,0,0,1-.875-2.662v-.124A3.77,3.77,0,0,1,59.2,9.309a3.033,3.033,0,0,1,2.385-.973,2.973,2.973,0,0,1,2.127.755,2.672,2.672,0,0,1,.813,2.009h-1.77a1.287,1.287,0,0,0-.34-.892,1.266,1.266,0,0,0-1.859.137,2.78,2.78,0,0,0-.336,1.558v.2a2.815,2.815,0,0,0,.333,1.568A1.152,1.152,0,0,0,61.567,14.143Zm3.744-2.208a4.192,4.192,0,0,1,.405-1.875,2.965,2.965,0,0,1,1.166-1.274,3.4,3.4,0,0,1,1.767-.451,3.219,3.219,0,0,1,2.336.875,3.513,3.513,0,0,1,1.009,2.378l.013.483a3.7,3.7,0,0,1-.908,2.61,3.52,3.52,0,0,1-4.877,0,3.76,3.76,0,0,1-.911-2.666Zm1.888.137a2.635,2.635,0,0,0,.379,1.539,1.363,1.363,0,0,0,2.156.007,2.883,2.883,0,0,0,.385-1.682,2.609,2.609,0,0,0-.385-1.529,1.254,1.254,0,0,0-1.085-.542,1.233,1.233,0,0,0-1.071.539A2.932,2.932,0,0,0,67.2,12.072Z" transform="translate(865.612 13381.765)" fill="#12263f"/><path d="M30.939,11.6H27.176v3.887h-1.96V5.975h6.193V7.563H27.176v2.456h3.763ZM36.3,15.488a2.1,2.1,0,0,1-.189-.634,2.285,2.285,0,0,1-1.784.764,2.51,2.51,0,0,1-1.721-.6,1.933,1.933,0,0,1-.683-1.516,2,2,0,0,1,.833-1.725,4.11,4.11,0,0,1,2.407-.608h.869v-.405a1.165,1.165,0,0,0-.252-.784.989.989,0,0,0-.794-.294,1.125,1.125,0,0,0-.748.229.777.777,0,0,0-.271.627H32.076a1.9,1.9,0,0,1,.379-1.137,2.5,2.5,0,0,1,1.071-.82,3.9,3.9,0,0,1,1.555-.3,3.085,3.085,0,0,1,2.074.657,2.3,2.3,0,0,1,.768,1.846v3.064a3.38,3.38,0,0,0,.281,1.522v.111Zm-1.561-1.313a1.626,1.626,0,0,0,.771-.186,1.223,1.223,0,0,0,.523-.5V12.273h-.706q-1.418,0-1.509.98l-.007.111a.756.756,0,0,0,.248.581A.964.964,0,0,0,34.735,14.174Zm7.578-.078a1.238,1.238,0,0,0,.849-.287,1.007,1.007,0,0,0,.34-.764h1.77a2.422,2.422,0,0,1-.392,1.316,2.587,2.587,0,0,1-1.055.928,3.3,3.3,0,0,1-1.48.33,3.069,3.069,0,0,1-2.391-.964,3.813,3.813,0,0,1-.875-2.662v-.124a3.77,3.77,0,0,1,.869-2.607,3.033,3.033,0,0,1,2.385-.973,2.973,2.973,0,0,1,2.127.755,2.672,2.672,0,0,1,.813,2.009H43.5a1.287,1.287,0,0,0-.34-.892A1.266,1.266,0,0,0,41.3,10.3a2.78,2.78,0,0,0-.336,1.558v.2a2.815,2.815,0,0,0,.333,1.568A1.152,1.152,0,0,0,42.313,14.1Zm6.3-7.415V8.419H49.82V9.8H48.611v3.528a.842.842,0,0,0,.15.562.755.755,0,0,0,.575.17,3.011,3.011,0,0,0,.555-.046v1.431a3.887,3.887,0,0,1-1.143.17,1.8,1.8,0,0,1-2.025-2.006V9.8H45.691V8.419h1.032V6.681Zm1.77,5.207a4.192,4.192,0,0,1,.405-1.875,2.965,2.965,0,0,1,1.166-1.274,3.4,3.4,0,0,1,1.767-.451,3.219,3.219,0,0,1,2.336.875,3.513,3.513,0,0,1,1.009,2.378l.013.483a3.7,3.7,0,0,1-.908,2.61,3.52,3.52,0,0,1-4.877,0,3.76,3.76,0,0,1-.911-2.666Zm1.888.137a2.635,2.635,0,0,0,.379,1.539,1.363,1.363,0,0,0,2.156.007,2.883,2.883,0,0,0,.385-1.682,2.609,2.609,0,0,0-.385-1.529,1.254,1.254,0,0,0-1.085-.542,1.233,1.233,0,0,0-1.071.539A2.932,2.932,0,0,0,52.27,12.025Zm9.943-1.836a5.129,5.129,0,0,0-.679-.052,1.383,1.383,0,0,0-1.4.725v4.625H58.241V8.419h1.784l.052.843a1.749,1.749,0,0,1,1.574-.973,1.978,1.978,0,0,1,.588.085ZM66.159,11.9A4.26,4.26,0,0,1,66.9,9.268a2.406,2.406,0,0,1,2.029-.98,2.165,2.165,0,0,1,1.705.771V5.453h1.895V15.488H70.824l-.091-.751a2.222,2.222,0,0,1-1.816.882,2.4,2.4,0,0,1-2-.983A4.4,4.4,0,0,1,66.159,11.9Zm1.888.137a2.783,2.783,0,0,0,.346,1.522,1.128,1.128,0,0,0,1.006.529,1.264,1.264,0,0,0,1.235-.738v-2.79a1.245,1.245,0,0,0-1.222-.738Q68.047,9.823,68.047,12.038Zm9.2,3.58a3.47,3.47,0,0,1-2.532-.954,3.39,3.39,0,0,1-.977-2.541V11.94a4.27,4.27,0,0,1,.412-1.9,3.021,3.021,0,0,1,1.166-1.294,3.273,3.273,0,0,1,1.721-.454A2.934,2.934,0,0,1,79.32,9.2a3.717,3.717,0,0,1,.833,2.594v.771h-4.5a1.754,1.754,0,0,0,.552,1.111,1.669,1.669,0,0,0,1.166.418,2.038,2.038,0,0,0,1.705-.791L80,14.344a2.834,2.834,0,0,1-1.15.938A3.772,3.772,0,0,1,77.246,15.618Zm-.216-5.8a1.182,1.182,0,0,0-.911.379,1.958,1.958,0,0,0-.448,1.085H78.3v-.15a1.4,1.4,0,0,0-.34-.97A1.22,1.22,0,0,0,77.03,9.817ZM90.4,11.365H86.641v2.548h4.416v1.574H84.681V5.975h6.363V7.563h-4.4V9.83H90.4Zm2.136,4.122V9.8H91.488V8.419H92.54V8.092a2.651,2.651,0,0,1,.82-2.055,3.3,3.3,0,0,1,2.277-.722A7.552,7.552,0,0,1,97.78,5.7l-.274,1.561a8.361,8.361,0,0,0-.993-.245,4.879,4.879,0,0,0-.758-.056q-1.32,0-1.32,1.169v.287h1.392V9.8H94.435v5.684Zm6.122,0H96.767V8.419h1.895Zm4.5-1.392a1.238,1.238,0,0,0,.849-.287,1.007,1.007,0,0,0,.34-.764h1.77a2.422,2.422,0,0,1-.392,1.316,2.587,2.587,0,0,1-1.055.928,3.3,3.3,0,0,1-1.48.33,3.069,3.069,0,0,1-2.391-.964,3.813,3.813,0,0,1-.875-2.662v-.124a3.77,3.77,0,0,1,.869-2.607,3.033,3.033,0,0,1,2.385-.973,2.973,2.973,0,0,1,2.127.755,2.672,2.672,0,0,1,.813,2.009h-1.77a1.287,1.287,0,0,0-.34-.892,1.266,1.266,0,0,0-1.859.137,2.779,2.779,0,0,0-.336,1.558v.2a2.815,2.815,0,0,0,.333,1.568A1.152,1.152,0,0,0,103.163,14.1Zm6.03,1.392H107.3V8.419h1.895Zm-2.006-8.9a.93.93,0,0,1,.284-.7,1.225,1.225,0,0,1,1.545,0,1,1,0,0,1,0,1.4,1.211,1.211,0,0,1-1.535,0A.927.927,0,0,1,107.187,6.589ZM114,15.618a3.47,3.47,0,0,1-2.532-.954,3.39,3.39,0,0,1-.977-2.541V11.94a4.27,4.27,0,0,1,.412-1.9,3.021,3.021,0,0,1,1.166-1.294,3.273,3.273,0,0,1,1.721-.454,2.934,2.934,0,0,1,2.283.915,3.717,3.717,0,0,1,.833,2.594v.771h-4.5a1.754,1.754,0,0,0,.552,1.111,1.669,1.669,0,0,0,1.166.418,2.038,2.038,0,0,0,1.705-.791l.928,1.039a2.834,2.834,0,0,1-1.15.938A3.772,3.772,0,0,1,114,15.618Zm-.216-5.8a1.182,1.182,0,0,0-.911.379,1.958,1.958,0,0,0-.448,1.085h2.626v-.15a1.4,1.4,0,0,0-.34-.97A1.22,1.22,0,0,0,113.786,9.817Zm5.932-1.4.059.817a2.468,2.468,0,0,1,2.032-.947,2.051,2.051,0,0,1,1.672.66,3.079,3.079,0,0,1,.562,1.973v4.567h-1.888V10.967a1.225,1.225,0,0,0-.261-.872,1.17,1.17,0,0,0-.869-.271,1.3,1.3,0,0,0-1.2.679v4.985h-1.888V8.419Zm8.7,5.677a1.238,1.238,0,0,0,.849-.287,1.007,1.007,0,0,0,.34-.764h1.77a2.422,2.422,0,0,1-.392,1.316,2.586,2.586,0,0,1-1.055.928,3.3,3.3,0,0,1-1.48.33,3.069,3.069,0,0,1-2.391-.964,3.813,3.813,0,0,1-.875-2.662v-.124a3.77,3.77,0,0,1,.869-2.607,3.033,3.033,0,0,1,2.385-.973,2.973,2.973,0,0,1,2.127.755,2.672,2.672,0,0,1,.813,2.009H129.6a1.287,1.287,0,0,0-.34-.892,1.266,1.266,0,0,0-1.859.137,2.78,2.78,0,0,0-.336,1.558v.2a2.815,2.815,0,0,0,.333,1.568A1.152,1.152,0,0,0,128.414,14.1Zm6.03,1.392h-1.895V8.419h1.895Zm-2.006-8.9a.93.93,0,0,1,.284-.7,1.225,1.225,0,0,1,1.545,0,1,1,0,0,1,0,1.4,1.211,1.211,0,0,1-1.535,0A.927.927,0,0,1,132.438,6.589Zm7.657,8.9a2.1,2.1,0,0,1-.189-.634,2.285,2.285,0,0,1-1.784.764,2.51,2.51,0,0,1-1.721-.6,1.933,1.933,0,0,1-.683-1.516,2,2,0,0,1,.833-1.725,4.11,4.11,0,0,1,2.407-.608h.869v-.405a1.165,1.165,0,0,0-.252-.784.989.989,0,0,0-.794-.294,1.125,1.125,0,0,0-.748.229.777.777,0,0,0-.271.627h-1.888a1.9,1.9,0,0,1,.379-1.137,2.5,2.5,0,0,1,1.071-.82,3.9,3.9,0,0,1,1.555-.3,3.085,3.085,0,0,1,2.074.657,2.3,2.3,0,0,1,.768,1.846v3.064A3.379,3.379,0,0,0,142,15.377v.111Zm-1.561-1.313a1.626,1.626,0,0,0,.771-.186,1.223,1.223,0,0,0,.523-.5V12.273h-.706q-1.418,0-1.509.98l-.007.111a.756.756,0,0,0,.248.581A.964.964,0,0,0,138.534,14.174ZM59.949,31.368H56.513l-.653,1.96H53.776l3.541-9.512h1.816l3.561,9.512H60.609ZM57.042,29.78H59.42l-1.2-3.561ZM66.4,31.936a1.238,1.238,0,0,0,.849-.287,1.007,1.007,0,0,0,.34-.764h1.77a2.422,2.422,0,0,1-.392,1.316,2.587,2.587,0,0,1-1.055.928,3.3,3.3,0,0,1-1.48.33,3.069,3.069,0,0,1-2.391-.964,3.813,3.813,0,0,1-.875-2.662v-.124a3.77,3.77,0,0,1,.869-2.607,3.033,3.033,0,0,1,2.385-.973,2.973,2.973,0,0,1,2.127.755,2.672,2.672,0,0,1,.813,2.009h-1.77a1.287,1.287,0,0,0-.34-.892,1.266,1.266,0,0,0-1.859.137,2.78,2.78,0,0,0-.336,1.558v.2a2.815,2.815,0,0,0,.333,1.568A1.152,1.152,0,0,0,66.4,31.936Zm6.3-7.415v1.738H73.9v1.385H72.7v3.528a.842.842,0,0,0,.15.562.755.755,0,0,0,.575.17,3.011,3.011,0,0,0,.555-.046v1.431a3.887,3.887,0,0,1-1.143.17,1.8,1.8,0,0,1-2.025-2.006V27.644H69.775V26.259h1.032V24.521Zm6.494,8.088a2.368,2.368,0,0,1-1.934.849,2.233,2.233,0,0,1-1.735-.653,2.789,2.789,0,0,1-.611-1.914V26.259H76.8v4.567q0,1.1,1.006,1.1a1.364,1.364,0,0,0,1.32-.666v-5h1.895v7.069H79.242Zm7.35.719a2.1,2.1,0,0,1-.189-.634,2.285,2.285,0,0,1-1.784.764,2.51,2.51,0,0,1-1.721-.6,1.933,1.933,0,0,1-.683-1.516A2,2,0,0,1,83,29.617a4.11,4.11,0,0,1,2.407-.608h.869V28.6a1.165,1.165,0,0,0-.252-.784.989.989,0,0,0-.794-.294,1.125,1.125,0,0,0-.748.229.777.777,0,0,0-.271.627H82.319a1.9,1.9,0,0,1,.379-1.137,2.5,2.5,0,0,1,1.071-.82,3.9,3.9,0,0,1,1.555-.3,3.085,3.085,0,0,1,2.074.657,2.3,2.3,0,0,1,.768,1.846v3.064a3.379,3.379,0,0,0,.281,1.522v.111Zm-1.561-1.313a1.626,1.626,0,0,0,.771-.186,1.223,1.223,0,0,0,.523-.5V30.113h-.706q-1.418,0-1.509.98l-.007.111a.756.756,0,0,0,.248.581A.964.964,0,0,0,84.978,32.014Zm6.631,1.313H89.715V23.293h1.895Zm7.768-9.61h-.928V34.085h.928v1.457H96.555V22.26h2.822Zm.732,1.927a1.881,1.881,0,0,1,.568-1.421,2.061,2.061,0,0,1,1.49-.546,2.094,2.094,0,0,1,1.5.539,1.917,1.917,0,0,1,.568,1.46v.47a1.857,1.857,0,0,1-.568,1.418,2.347,2.347,0,0,1-2.989,0,1.9,1.9,0,0,1-.572-1.454Zm1.254.5a.88.88,0,0,0,.225.63.776.776,0,0,0,.591.238.74.74,0,0,0,.581-.242.936.936,0,0,0,.216-.647v-.483a.916.916,0,0,0-.216-.634.84.84,0,0,0-1.176,0,.935.935,0,0,0-.222.663ZM104.656,31a1.857,1.857,0,0,1,.575-1.421,2.09,2.09,0,0,1,1.49-.539,2.112,2.112,0,0,1,1.5.532,1.906,1.906,0,0,1,.572,1.467v.47a1.871,1.871,0,0,1-.562,1.414,2.071,2.071,0,0,1-1.5.539,2.1,2.1,0,0,1-1.509-.542,1.894,1.894,0,0,1-.568-1.437Zm1.254.51a.873.873,0,0,0,.235.614.767.767,0,0,0,.588.255q.8,0,.8-.882V31a.888.888,0,0,0-.222-.63.844.844,0,0,0-1.176,0,.916.916,0,0,0-.222.65Zm-3.358,1.111-.921-.5,4.645-7.435.921.5Zm6.9-10.355h2.822V35.542h-2.822V34.085h.934V23.717h-.934Z" transform="translate(1003.356 13381.812)" fill="#12263f"/><path d="M40.641,11.469H36.877v2.548h4.416v1.574H34.917V6.079h6.363V7.667h-4.4V9.934h3.763Zm1.385.523a4.225,4.225,0,0,1,.742-2.633A2.424,2.424,0,0,1,44.8,8.392a2.17,2.17,0,0,1,1.81.869l.124-.738H48.4v9.787H46.5V14.984a2.177,2.177,0,0,1-1.712.738,2.406,2.406,0,0,1-2.012-.98A4.432,4.432,0,0,1,42.026,11.992Zm1.888.137a2.764,2.764,0,0,0,.356,1.542,1.14,1.14,0,0,0,1,.529,1.27,1.27,0,0,0,1.228-.693v-2.92a1.26,1.26,0,0,0-1.215-.666,1.154,1.154,0,0,0-1.013.529A3.053,3.053,0,0,0,43.914,12.129Zm10.2,2.744a2.368,2.368,0,0,1-1.934.849,2.233,2.233,0,0,1-1.735-.653,2.789,2.789,0,0,1-.611-1.914V8.522h1.888v4.567q0,1.1,1.006,1.1a1.364,1.364,0,0,0,1.32-.666v-5h1.895v7.069H54.164Zm5.246.719H57.463V8.522h1.895Zm-2.006-8.9a.93.93,0,0,1,.284-.7,1.225,1.225,0,0,1,1.545,0,1,1,0,0,1,0,1.4,1.211,1.211,0,0,1-1.535,0A.927.927,0,0,1,57.352,6.693Zm9.924,5.429a4.24,4.24,0,0,1-.742,2.617,2.377,2.377,0,0,1-2,.983,2.2,2.2,0,0,1-1.731-.745v3.332H60.913V8.522h1.751l.065.693a2.219,2.219,0,0,1,1.79-.823,2.394,2.394,0,0,1,2.032.967,4.354,4.354,0,0,1,.725,2.666Zm-1.888-.137a2.782,2.782,0,0,0-.35-1.522,1.138,1.138,0,0,0-1.016-.536,1.236,1.236,0,0,0-1.222.679V13.5a1.257,1.257,0,0,0,1.235.7Q65.388,14.2,65.388,11.985Zm2.764.007a4.192,4.192,0,0,1,.405-1.875,2.965,2.965,0,0,1,1.166-1.274,3.4,3.4,0,0,1,1.767-.451,3.219,3.219,0,0,1,2.336.875,3.514,3.514,0,0,1,1.009,2.378l.013.483a3.7,3.7,0,0,1-.908,2.61,3.52,3.52,0,0,1-4.877,0,3.76,3.76,0,0,1-.911-2.666Zm1.888.137a2.635,2.635,0,0,0,.379,1.539,1.363,1.363,0,0,0,2.156.007,2.883,2.883,0,0,0,.385-1.682,2.609,2.609,0,0,0-.385-1.529,1.254,1.254,0,0,0-1.084-.542,1.233,1.233,0,0,0-1.071.539A2.932,2.932,0,0,0,70.04,12.129Z" transform="translate(670.881 13381.708)" fill="#12263f"/><path d="M22.479,11.1a2.992,2.992,0,0,1-1.008,2.149,3.539,3.539,0,0,1-2.4.784,3.182,3.182,0,0,1-2.558-1.095,4.489,4.489,0,0,1-.932-3.005V9.419a5.068,5.068,0,0,1,.43-2.149,3.22,3.22,0,0,1,1.228-1.426,3.441,3.441,0,0,1,1.855-.5,3.447,3.447,0,0,1,2.358.784,3.215,3.215,0,0,1,1.034,2.2H20.749a1.766,1.766,0,0,0-.456-1.188A1.688,1.688,0,0,0,19.1,6.777a1.48,1.48,0,0,0-1.3.624,3.5,3.5,0,0,0-.444,1.937v.639a3.745,3.745,0,0,0,.415,2,1.453,1.453,0,0,0,1.31.633,1.72,1.72,0,0,0,1.205-.369,1.666,1.666,0,0,0,.456-1.141Zm4.675,2.817a1.864,1.864,0,0,1-.168-.563,2.031,2.031,0,0,1-1.585.679,2.231,2.231,0,0,1-1.53-.534,1.718,1.718,0,0,1-.607-1.347A1.776,1.776,0,0,1,24,10.621a3.654,3.654,0,0,1,2.14-.54h.772v-.36a1.035,1.035,0,0,0-.224-.7.88.88,0,0,0-.706-.261,1,1,0,0,0-.665.2.69.69,0,0,0-.241.557H23.4a1.686,1.686,0,0,1,.337-1.01,2.226,2.226,0,0,1,.952-.729,3.471,3.471,0,0,1,1.382-.264,2.742,2.742,0,0,1,1.844.584A2.042,2.042,0,0,1,28.6,9.745v2.724a3,3,0,0,0,.25,1.353v.1Zm-1.388-1.167a1.445,1.445,0,0,0,.685-.166,1.087,1.087,0,0,0,.465-.444v-1.08h-.627q-1.26,0-1.341.871l-.006.1a.672.672,0,0,0,.221.517A.857.857,0,0,0,25.766,12.753ZM31.66,13.92H29.976V5H31.66Zm4.274.116a3.085,3.085,0,0,1-2.25-.848,3.014,3.014,0,0,1-.868-2.259v-.163a3.8,3.8,0,0,1,.366-1.693,2.685,2.685,0,0,1,1.037-1.15,2.909,2.909,0,0,1,1.53-.4,2.608,2.608,0,0,1,2.03.813,3.3,3.3,0,0,1,.74,2.305v.685h-4a1.559,1.559,0,0,0,.491.987,1.483,1.483,0,0,0,1.037.372,1.812,1.812,0,0,0,1.516-.7l.825.923a2.519,2.519,0,0,1-1.022.833A3.353,3.353,0,0,1,35.935,14.036Zm-.192-5.157a1.051,1.051,0,0,0-.81.337,1.74,1.74,0,0,0-.4.964H36.87v-.134a1.241,1.241,0,0,0-.3-.862A1.085,1.085,0,0,0,35.743,8.879Zm5.273-1.243.052.726a2.194,2.194,0,0,1,1.806-.842,1.823,1.823,0,0,1,1.487.587,2.737,2.737,0,0,1,.5,1.754V13.92H43.182V9.9a1.089,1.089,0,0,0-.232-.775,1.04,1.04,0,0,0-.772-.241,1.155,1.155,0,0,0-1.063.6V13.92H39.436V7.636Zm7.126-1.545V7.636h1.074V8.868H48.141V12a.749.749,0,0,0,.134.5.671.671,0,0,0,.511.151,2.676,2.676,0,0,0,.494-.041v1.272a3.455,3.455,0,0,1-1.016.151,1.6,1.6,0,0,1-1.8-1.783V8.868h-.918V7.636h.918V6.092Zm5.65,7.828a1.864,1.864,0,0,1-.168-.563,2.031,2.031,0,0,1-1.585.679,2.231,2.231,0,0,1-1.53-.534,1.718,1.718,0,0,1-.607-1.347,1.776,1.776,0,0,1,.74-1.533,3.654,3.654,0,0,1,2.14-.54h.772v-.36a1.035,1.035,0,0,0-.224-.7.88.88,0,0,0-.706-.261,1,1,0,0,0-.665.2.69.69,0,0,0-.241.557H50.04a1.686,1.686,0,0,1,.337-1.01,2.226,2.226,0,0,1,.952-.729,3.471,3.471,0,0,1,1.382-.264,2.742,2.742,0,0,1,1.844.584,2.042,2.042,0,0,1,.682,1.641v2.724a3,3,0,0,0,.25,1.353v.1ZM52.4,12.753a1.445,1.445,0,0,0,.685-.166,1.087,1.087,0,0,0,.465-.444v-1.08h-.627q-1.26,0-1.341.871l-.006.1a.672.672,0,0,0,.221.517A.857.857,0,0,0,52.4,12.753Zm3.862-2.021a3.787,3.787,0,0,1,.659-2.34,2.139,2.139,0,0,1,1.8-.871,1.924,1.924,0,0,1,1.516.685V5h1.684v8.92H60.412l-.081-.668a1.975,1.975,0,0,1-1.614.784,2.133,2.133,0,0,1-1.78-.874A3.909,3.909,0,0,1,56.266,10.732Zm1.678.122a2.474,2.474,0,0,0,.308,1.353,1,1,0,0,0,.894.47,1.123,1.123,0,0,0,1.1-.656V9.541a1.107,1.107,0,0,0-1.086-.656Q57.944,8.885,57.944,10.854Zm5.023-.134a3.727,3.727,0,0,1,.36-1.667,2.636,2.636,0,0,1,1.037-1.132,3.024,3.024,0,0,1,1.571-.4,2.861,2.861,0,0,1,2.076.778,3.123,3.123,0,0,1,.9,2.114l.012.43a3.284,3.284,0,0,1-.807,2.32,3.129,3.129,0,0,1-4.335,0,3.342,3.342,0,0,1-.81-2.369Zm1.678.122a2.342,2.342,0,0,0,.337,1.368,1.211,1.211,0,0,0,1.916.006,2.563,2.563,0,0,0,.343-1.5A2.319,2.319,0,0,0,66.9,9.361a1.114,1.114,0,0,0-.964-.482,1.1,1.1,0,0,0-.952.479A2.606,2.606,0,0,0,64.646,10.842ZM73.484,9.21a4.559,4.559,0,0,0-.6-.046,1.229,1.229,0,0,0-1.249.645V13.92H69.953V7.636h1.585l.046.749a1.555,1.555,0,0,1,1.4-.865,1.759,1.759,0,0,1,.523.075Zm3.508,1.522a3.787,3.787,0,0,1,.659-2.34,2.139,2.139,0,0,1,1.8-.871,1.924,1.924,0,0,1,1.516.685V5h1.684v8.92H81.138l-.081-.668a1.975,1.975,0,0,1-1.614.784,2.133,2.133,0,0,1-1.78-.874A3.909,3.909,0,0,1,76.992,10.732Zm1.678.122a2.474,2.474,0,0,0,.308,1.353,1,1,0,0,0,.894.47,1.123,1.123,0,0,0,1.1-.656V9.541a1.107,1.107,0,0,0-1.086-.656Q78.67,8.885,78.67,10.854Zm8.177,3.182a3.085,3.085,0,0,1-2.25-.848,3.014,3.014,0,0,1-.868-2.259v-.163a3.8,3.8,0,0,1,.366-1.693,2.685,2.685,0,0,1,1.037-1.15,2.909,2.909,0,0,1,1.53-.4,2.608,2.608,0,0,1,2.03.813,3.3,3.3,0,0,1,.74,2.305v.685h-4a1.559,1.559,0,0,0,.491.987,1.483,1.483,0,0,0,1.037.372,1.812,1.812,0,0,0,1.516-.7l.825.923a2.519,2.519,0,0,1-1.022.833A3.353,3.353,0,0,1,86.847,14.036Zm-.192-5.157a1.051,1.051,0,0,0-.81.337,1.74,1.74,0,0,0-.4.964h2.335v-.134a1.241,1.241,0,0,0-.3-.862A1.085,1.085,0,0,0,86.655,8.879ZM99,10.836a3.769,3.769,0,0,1-.659,2.326,2.113,2.113,0,0,1-1.78.874,1.958,1.958,0,0,1-1.539-.662v2.962H93.345v-8.7H94.9l.058.616a1.973,1.973,0,0,1,1.591-.732,2.128,2.128,0,0,1,1.806.859A3.871,3.871,0,0,1,99,10.749Zm-1.678-.122a2.473,2.473,0,0,0-.311-1.353,1.012,1.012,0,0,0-.9-.476,1.1,1.1,0,0,0-1.086.6v2.573a1.118,1.118,0,0,0,1.1.621Q97.323,12.683,97.323,10.714Zm6.359,3.206a1.864,1.864,0,0,1-.168-.563,2.031,2.031,0,0,1-1.585.679,2.231,2.231,0,0,1-1.53-.534,1.718,1.718,0,0,1-.607-1.347,1.776,1.776,0,0,1,.74-1.533,3.654,3.654,0,0,1,2.14-.54h.772v-.36a1.035,1.035,0,0,0-.224-.7.88.88,0,0,0-.706-.261,1,1,0,0,0-.665.2.69.69,0,0,0-.241.557H99.931a1.686,1.686,0,0,1,.337-1.01,2.226,2.226,0,0,1,.952-.729A3.471,3.471,0,0,1,102.6,7.52a2.742,2.742,0,0,1,1.844.584,2.042,2.042,0,0,1,.682,1.641v2.724a3,3,0,0,0,.25,1.353v.1Zm-1.388-1.167a1.445,1.445,0,0,0,.685-.166,1.087,1.087,0,0,0,.465-.444v-1.08h-.627q-1.26,0-1.341.871l-.006.1a.672.672,0,0,0,.221.517A.857.857,0,0,0,102.294,12.753Zm7.526-.569a.541.541,0,0,0-.3-.485,3.463,3.463,0,0,0-.979-.316q-2.242-.47-2.242-1.9a1.727,1.727,0,0,1,.694-1.4,2.8,2.8,0,0,1,1.815-.56,3.013,3.013,0,0,1,1.913.563,1.775,1.775,0,0,1,.717,1.463h-1.678a.812.812,0,0,0-.232-.6.983.983,0,0,0-.726-.235,1,1,0,0,0-.656.192.6.6,0,0,0-.232.488.517.517,0,0,0,.264.45,2.718,2.718,0,0,0,.891.3,7.281,7.281,0,0,1,1.057.282,1.736,1.736,0,0,1,1.33,1.69,1.639,1.639,0,0,1-.738,1.391,3.181,3.181,0,0,1-1.9.531,3.323,3.323,0,0,1-1.4-.282,2.353,2.353,0,0,1-.961-.772,1.8,1.8,0,0,1-.348-1.06h1.591a.876.876,0,0,0,.331.685,1.313,1.313,0,0,0,.825.238,1.215,1.215,0,0,0,.729-.183A.569.569,0,0,0,109.82,12.184Zm2.451-1.463a3.726,3.726,0,0,1,.36-1.667,2.636,2.636,0,0,1,1.037-1.132,3.024,3.024,0,0,1,1.571-.4,2.861,2.861,0,0,1,2.076.778,3.123,3.123,0,0,1,.9,2.114l.012.43a3.284,3.284,0,0,1-.807,2.32,3.129,3.129,0,0,1-4.335,0,3.342,3.342,0,0,1-.81-2.369Zm1.678.122a2.342,2.342,0,0,0,.337,1.368,1.211,1.211,0,0,0,1.916.006,2.563,2.563,0,0,0,.343-1.5,2.319,2.319,0,0,0-.343-1.359,1.114,1.114,0,0,0-.964-.482,1.1,1.1,0,0,0-.952.479A2.606,2.606,0,0,0,113.949,10.842ZM125.86,13.92a1.864,1.864,0,0,1-.168-.563,2.031,2.031,0,0,1-1.585.679,2.231,2.231,0,0,1-1.53-.534,1.718,1.718,0,0,1-.607-1.347,1.776,1.776,0,0,1,.74-1.533,3.654,3.654,0,0,1,2.14-.54h.772v-.36a1.035,1.035,0,0,0-.224-.7.88.88,0,0,0-.706-.261,1,1,0,0,0-.665.2.69.69,0,0,0-.241.557h-1.678a1.686,1.686,0,0,1,.337-1.01,2.226,2.226,0,0,1,.952-.729,3.471,3.471,0,0,1,1.382-.264,2.742,2.742,0,0,1,1.844.584,2.042,2.042,0,0,1,.682,1.641v2.724a3,3,0,0,0,.25,1.353v.1Zm-1.388-1.167a1.445,1.445,0,0,0,.685-.166,1.087,1.087,0,0,0,.465-.444v-1.08h-.627q-1.26,0-1.341.871l-.006.1a.672.672,0,0,0,.221.517A.857.857,0,0,0,124.472,12.753Zm13.885.1a3.024,3.024,0,0,1-1.33.874,5.569,5.569,0,0,1-1.9.311,3.773,3.773,0,0,1-1.925-.479,3.2,3.2,0,0,1-1.278-1.391,4.9,4.9,0,0,1-.462-2.143V9.448a5.2,5.2,0,0,1,.427-2.192,3.157,3.157,0,0,1,1.231-1.417,4.054,4.054,0,0,1,4.236.226,3.065,3.065,0,0,1,1,2.088h-1.7a1.686,1.686,0,0,0-.514-1.063,1.641,1.641,0,0,0-1.095-.337,1.545,1.545,0,0,0-1.353.668,3.512,3.512,0,0,0-.47,1.986v.54a3.343,3.343,0,0,0,.505,2.009,1.73,1.73,0,0,0,1.481.679,1.932,1.932,0,0,0,1.4-.418V10.761H135.03V9.477h3.328ZM143.3,13.92a1.864,1.864,0,0,1-.168-.563,2.031,2.031,0,0,1-1.585.679,2.231,2.231,0,0,1-1.53-.534,1.718,1.718,0,0,1-.607-1.347,1.776,1.776,0,0,1,.74-1.533,3.654,3.654,0,0,1,2.14-.54h.772v-.36a1.035,1.035,0,0,0-.224-.7.88.88,0,0,0-.706-.261,1,1,0,0,0-.665.2.691.691,0,0,0-.241.557h-1.678a1.686,1.686,0,0,1,.337-1.01,2.226,2.226,0,0,1,.952-.729,3.471,3.471,0,0,1,1.382-.264,2.742,2.742,0,0,1,1.844.584,2.042,2.042,0,0,1,.682,1.641v2.724a3,3,0,0,0,.25,1.353v.1Zm-1.388-1.167a1.445,1.445,0,0,0,.685-.166,1.087,1.087,0,0,0,.465-.444v-1.08h-.627q-1.26,0-1.341.871l-.006.1a.672.672,0,0,0,.221.517A.857.857,0,0,0,141.911,12.753Zm7.526-.569a.541.541,0,0,0-.3-.485,3.463,3.463,0,0,0-.979-.316q-2.242-.47-2.242-1.9a1.727,1.727,0,0,1,.694-1.4,2.8,2.8,0,0,1,1.815-.56,3.013,3.013,0,0,1,1.913.563,1.775,1.775,0,0,1,.717,1.463h-1.678a.812.812,0,0,0-.232-.6.983.983,0,0,0-.726-.235,1,1,0,0,0-.656.192.6.6,0,0,0-.232.488.517.517,0,0,0,.264.45,2.718,2.718,0,0,0,.891.3,7.281,7.281,0,0,1,1.057.282,1.736,1.736,0,0,1,1.33,1.69,1.639,1.639,0,0,1-.738,1.391,3.181,3.181,0,0,1-1.9.531,3.323,3.323,0,0,1-1.4-.282,2.353,2.353,0,0,1-.961-.772,1.8,1.8,0,0,1-.348-1.06h1.591a.876.876,0,0,0,.331.685,1.313,1.313,0,0,0,.825.238,1.215,1.215,0,0,0,.729-.183A.569.569,0,0,0,149.437,12.184Zm2.8.912a.845.845,0,0,1,.27-.65,1.049,1.049,0,0,1,1.359,0,.845.845,0,0,1,.27.65.833.833,0,0,1-.267.642,1.067,1.067,0,0,1-1.365,0A.833.833,0,0,1,152.237,13.1Z" transform="translate(640.534 13429.467)" fill="#12263f"/><path d="M74.462,12.851a3.024,3.024,0,0,1-1.33.874,5.569,5.569,0,0,1-1.9.311,3.773,3.773,0,0,1-1.925-.479,3.2,3.2,0,0,1-1.278-1.391,4.895,4.895,0,0,1-.462-2.143V9.448a5.2,5.2,0,0,1,.427-2.192A3.158,3.158,0,0,1,69.22,5.839a4.054,4.054,0,0,1,4.236.226,3.065,3.065,0,0,1,1,2.088h-1.7a1.686,1.686,0,0,0-.514-1.063,1.641,1.641,0,0,0-1.095-.337,1.545,1.545,0,0,0-1.353.668,3.512,3.512,0,0,0-.47,1.986v.54a3.343,3.343,0,0,0,.505,2.009,1.73,1.73,0,0,0,1.481.679,1.932,1.932,0,0,0,1.4-.418V10.761H71.134V9.477h3.328ZM79.4,13.92a1.864,1.864,0,0,1-.168-.563,2.031,2.031,0,0,1-1.585.679,2.231,2.231,0,0,1-1.53-.534,1.718,1.718,0,0,1-.607-1.347,1.776,1.776,0,0,1,.74-1.533,3.654,3.654,0,0,1,2.14-.54h.772v-.36a1.035,1.035,0,0,0-.224-.7.88.88,0,0,0-.706-.261,1,1,0,0,0-.665.2.69.69,0,0,0-.241.557H75.652a1.686,1.686,0,0,1,.337-1.01,2.226,2.226,0,0,1,.952-.729,3.471,3.471,0,0,1,1.382-.264,2.742,2.742,0,0,1,1.844.584,2.042,2.042,0,0,1,.682,1.641v2.724a3,3,0,0,0,.25,1.353v.1Zm-1.388-1.167a1.445,1.445,0,0,0,.685-.166,1.087,1.087,0,0,0,.465-.444v-1.08h-.627q-1.26,0-1.341.871l-.006.1a.672.672,0,0,0,.221.517A.857.857,0,0,0,78.016,12.753Zm7.526-.569a.541.541,0,0,0-.3-.485,3.463,3.463,0,0,0-.979-.316q-2.242-.47-2.242-1.9a1.727,1.727,0,0,1,.694-1.4,2.8,2.8,0,0,1,1.815-.56,3.013,3.013,0,0,1,1.913.563,1.775,1.775,0,0,1,.717,1.463H85.478a.812.812,0,0,0-.232-.6.983.983,0,0,0-.726-.235,1,1,0,0,0-.656.192.6.6,0,0,0-.232.488.517.517,0,0,0,.264.45,2.718,2.718,0,0,0,.891.3,7.281,7.281,0,0,1,1.057.282,1.736,1.736,0,0,1,1.33,1.69,1.639,1.639,0,0,1-.738,1.391,3.181,3.181,0,0,1-1.9.531,3.323,3.323,0,0,1-1.4-.282,2.353,2.353,0,0,1-.961-.772,1.8,1.8,0,0,1-.348-1.06h1.591a.876.876,0,0,0,.331.685,1.313,1.313,0,0,0,.825.238,1.215,1.215,0,0,0,.729-.183A.569.569,0,0,0,85.542,12.184ZM98.2,13.92H96.459L93.068,8.357V13.92H91.326V5.465h1.742l3.4,5.575V5.465H98.2Zm5.052,0a1.863,1.863,0,0,1-.168-.563,2.031,2.031,0,0,1-1.585.679,2.231,2.231,0,0,1-1.53-.534,1.718,1.718,0,0,1-.607-1.347,1.776,1.776,0,0,1,.74-1.533,3.654,3.654,0,0,1,2.14-.54h.772v-.36a1.035,1.035,0,0,0-.224-.7.88.88,0,0,0-.706-.261,1,1,0,0,0-.665.2.69.69,0,0,0-.241.557H99.5a1.686,1.686,0,0,1,.337-1.01,2.226,2.226,0,0,1,.952-.729,3.471,3.471,0,0,1,1.382-.264,2.742,2.742,0,0,1,1.844.584,2.042,2.042,0,0,1,.682,1.641v2.724a3,3,0,0,0,.25,1.353v.1Zm-1.388-1.167a1.445,1.445,0,0,0,.685-.166,1.087,1.087,0,0,0,.465-.444v-1.08h-.627q-1.26,0-1.341.871l-.006.1a.672.672,0,0,0,.221.517A.857.857,0,0,0,101.866,12.753ZM108,6.092V7.636h1.074V8.868H108V12a.749.749,0,0,0,.134.5.671.671,0,0,0,.511.151,2.676,2.676,0,0,0,.494-.041v1.272a3.455,3.455,0,0,1-1.016.151,1.6,1.6,0,0,1-1.8-1.783V8.868H105.4V7.636h.918V6.092Zm5.772,7.189a2.1,2.1,0,0,1-1.719.755,1.985,1.985,0,0,1-1.542-.581,2.479,2.479,0,0,1-.543-1.7V7.636h1.678V11.7q0,.981.894.981a1.212,1.212,0,0,0,1.173-.592V7.636H115.4V13.92h-1.58Zm6.423-4.071a4.559,4.559,0,0,0-.6-.046,1.229,1.229,0,0,0-1.249.645V13.92h-1.678V7.636h1.585l.046.749a1.555,1.555,0,0,1,1.4-.865,1.759,1.759,0,0,1,.523.075Zm4.274,4.71a1.863,1.863,0,0,1-.168-.563,2.031,2.031,0,0,1-1.585.679,2.231,2.231,0,0,1-1.53-.534,1.718,1.718,0,0,1-.607-1.347,1.776,1.776,0,0,1,.74-1.533,3.653,3.653,0,0,1,2.14-.54h.772v-.36a1.035,1.035,0,0,0-.224-.7.88.88,0,0,0-.706-.261,1,1,0,0,0-.665.2.691.691,0,0,0-.241.557h-1.678a1.686,1.686,0,0,1,.337-1.01,2.226,2.226,0,0,1,.952-.729,3.471,3.471,0,0,1,1.382-.264,2.742,2.742,0,0,1,1.844.584,2.042,2.042,0,0,1,.682,1.641v2.724a3,3,0,0,0,.25,1.353v.1Zm-1.388-1.167a1.446,1.446,0,0,0,.685-.166,1.087,1.087,0,0,0,.465-.444v-1.08H123.6q-1.26,0-1.341.871l-.006.1a.672.672,0,0,0,.221.517A.857.857,0,0,0,123.08,12.753Zm5.894,1.167H127.29V5h1.684Z" transform="translate(807.386 13429.467)" fill="#12263f"/><path d="M100.191,7.83a1.967,1.967,0,0,1-.308,1.092,2.215,2.215,0,0,1-.848.761,2.452,2.452,0,0,1,.976.816,2.093,2.093,0,0,1,.36,1.222A2.216,2.216,0,0,1,99.6,13.5a3.656,3.656,0,0,1-4.175,0,2.211,2.211,0,0,1-.772-1.777,2.106,2.106,0,0,1,.36-1.225,2.408,2.408,0,0,1,.97-.813,2.193,2.193,0,0,1-.845-.761,1.981,1.981,0,0,1-.3-1.092,2.192,2.192,0,0,1,.72-1.722A3.313,3.313,0,0,1,99.468,6.1,2.183,2.183,0,0,1,100.191,7.83Zm-1.5,3.769a1.217,1.217,0,0,0-.319-.883,1.278,1.278,0,0,0-1.713,0,1.215,1.215,0,0,0-.319.886,1.215,1.215,0,0,0,.314.871,1.31,1.31,0,0,0,1.728.012A1.212,1.212,0,0,0,98.686,11.6Zm-.174-3.688a1.162,1.162,0,0,0-.261-.793,1.063,1.063,0,0,0-1.469-.009,1.155,1.155,0,0,0-.261.8,1.214,1.214,0,0,0,.261.813,1.034,1.034,0,0,0,1.472,0A1.223,1.223,0,0,0,98.512,7.912Zm4.7,1.156h.894a1.26,1.26,0,0,0,.947-.319,1.17,1.17,0,0,0,.308-.848,1.035,1.035,0,0,0-.3-.8,1.182,1.182,0,0,0-.839-.285,1.239,1.239,0,0,0-.807.264.845.845,0,0,0-.325.688H101.4a2.064,2.064,0,0,1,.357-1.188,2.38,2.38,0,0,1,1-.822,3.334,3.334,0,0,1,1.414-.3,3.162,3.162,0,0,1,2.1.642,2.189,2.189,0,0,1,.761,1.768,1.779,1.779,0,0,1-.354,1.069,2.3,2.3,0,0,1-.929.749,2.1,2.1,0,0,1,1.066.767,2.079,2.079,0,0,1,.351,1.208,2.226,2.226,0,0,1-.822,1.806,3.3,3.3,0,0,1-2.175.679,3.133,3.133,0,0,1-2.07-.668,2.181,2.181,0,0,1-.8-1.765h1.678a.972.972,0,0,0,.357.778,1.49,1.49,0,0,0,1.818-.015,1.093,1.093,0,0,0,.34-.839q0-1.266-1.394-1.266h-.889ZM108.3,7.209a1.672,1.672,0,0,1,.505-1.263,1.832,1.832,0,0,1,1.324-.485,1.861,1.861,0,0,1,1.336.479,1.7,1.7,0,0,1,.505,1.3v.418a1.651,1.651,0,0,1-.505,1.26,2.086,2.086,0,0,1-2.657,0,1.691,1.691,0,0,1-.508-1.292Zm1.115.447a.782.782,0,0,0,.2.56.69.69,0,0,0,.526.212.658.658,0,0,0,.517-.215.832.832,0,0,0,.192-.575v-.43a.815.815,0,0,0-.192-.563.747.747,0,0,0-1.045,0,.831.831,0,0,0-.2.589Zm2.927,4.309a1.65,1.65,0,0,1,.511-1.263,1.858,1.858,0,0,1,1.324-.479,1.877,1.877,0,0,1,1.333.473,1.694,1.694,0,0,1,.508,1.3v.418a1.663,1.663,0,0,1-.5,1.257,1.84,1.84,0,0,1-1.33.479,1.863,1.863,0,0,1-1.341-.482,1.684,1.684,0,0,1-.505-1.278Zm1.115.453a.776.776,0,0,0,.209.546.682.682,0,0,0,.523.226q.708,0,.708-.784v-.441a.789.789,0,0,0-.2-.56.75.75,0,0,0-1.045,0,.814.814,0,0,0-.2.578Zm-2.985.987-.819-.441,4.129-6.609.819.441Z" transform="translate(981.072 13429.348)" fill="#12263f"/><path d="M22.479,11.1a2.992,2.992,0,0,1-1.008,2.149,3.539,3.539,0,0,1-2.4.784,3.182,3.182,0,0,1-2.558-1.095,4.489,4.489,0,0,1-.932-3.005V9.419a5.068,5.068,0,0,1,.43-2.149,3.22,3.22,0,0,1,1.228-1.426,3.441,3.441,0,0,1,1.855-.5,3.447,3.447,0,0,1,2.358.784,3.215,3.215,0,0,1,1.034,2.2H20.749a1.766,1.766,0,0,0-.456-1.188A1.688,1.688,0,0,0,19.1,6.777a1.48,1.48,0,0,0-1.3.624,3.5,3.5,0,0,0-.444,1.937v.639a3.745,3.745,0,0,0,.415,2,1.453,1.453,0,0,0,1.31.633,1.72,1.72,0,0,0,1.205-.369,1.666,1.666,0,0,0,.456-1.141Zm4.675,2.817a1.864,1.864,0,0,1-.168-.563,2.031,2.031,0,0,1-1.585.679,2.231,2.231,0,0,1-1.53-.534,1.718,1.718,0,0,1-.607-1.347A1.776,1.776,0,0,1,24,10.621a3.654,3.654,0,0,1,2.14-.54h.772v-.36a1.035,1.035,0,0,0-.224-.7.88.88,0,0,0-.706-.261,1,1,0,0,0-.665.2.69.69,0,0,0-.241.557H23.4a1.686,1.686,0,0,1,.337-1.01,2.226,2.226,0,0,1,.952-.729,3.471,3.471,0,0,1,1.382-.264,2.742,2.742,0,0,1,1.844.584A2.042,2.042,0,0,1,28.6,9.745v2.724a3,3,0,0,0,.25,1.353v.1Zm-1.388-1.167a1.445,1.445,0,0,0,.685-.166,1.087,1.087,0,0,0,.465-.444v-1.08h-.627q-1.26,0-1.341.871l-.006.1a.672.672,0,0,0,.221.517A.857.857,0,0,0,25.766,12.753ZM31.66,13.92H29.976V5H31.66Zm4.274.116a3.085,3.085,0,0,1-2.25-.848,3.014,3.014,0,0,1-.868-2.259v-.163a3.8,3.8,0,0,1,.366-1.693,2.685,2.685,0,0,1,1.037-1.15,2.909,2.909,0,0,1,1.53-.4,2.608,2.608,0,0,1,2.03.813,3.3,3.3,0,0,1,.74,2.305v.685h-4a1.559,1.559,0,0,0,.491.987,1.483,1.483,0,0,0,1.037.372,1.812,1.812,0,0,0,1.516-.7l.825.923a2.519,2.519,0,0,1-1.022.833A3.353,3.353,0,0,1,35.935,14.036Zm-.192-5.157a1.051,1.051,0,0,0-.81.337,1.74,1.74,0,0,0-.4.964H36.87v-.134a1.241,1.241,0,0,0-.3-.862A1.085,1.085,0,0,0,35.743,8.879Zm5.273-1.243.052.726a2.194,2.194,0,0,1,1.806-.842,1.823,1.823,0,0,1,1.487.587,2.737,2.737,0,0,1,.5,1.754V13.92H43.182V9.9a1.089,1.089,0,0,0-.232-.775,1.04,1.04,0,0,0-.772-.241,1.155,1.155,0,0,0-1.063.6V13.92H39.436V7.636Zm7.126-1.545V7.636h1.074V8.868H48.141V12a.749.749,0,0,0,.134.5.671.671,0,0,0,.511.151,2.676,2.676,0,0,0,.494-.041v1.272a3.455,3.455,0,0,1-1.016.151,1.6,1.6,0,0,1-1.8-1.783V8.868h-.918V7.636h.918V6.092Zm5.65,7.828a1.864,1.864,0,0,1-.168-.563,2.031,2.031,0,0,1-1.585.679,2.231,2.231,0,0,1-1.53-.534,1.718,1.718,0,0,1-.607-1.347,1.776,1.776,0,0,1,.74-1.533,3.654,3.654,0,0,1,2.14-.54h.772v-.36a1.035,1.035,0,0,0-.224-.7.88.88,0,0,0-.706-.261,1,1,0,0,0-.665.2.69.69,0,0,0-.241.557H50.04a1.686,1.686,0,0,1,.337-1.01,2.226,2.226,0,0,1,.952-.729,3.471,3.471,0,0,1,1.382-.264,2.742,2.742,0,0,1,1.844.584,2.042,2.042,0,0,1,.682,1.641v2.724a3,3,0,0,0,.25,1.353v.1ZM52.4,12.753a1.445,1.445,0,0,0,.685-.166,1.087,1.087,0,0,0,.465-.444v-1.08h-.627q-1.26,0-1.341.871l-.006.1a.672.672,0,0,0,.221.517A.857.857,0,0,0,52.4,12.753Zm3.862-2.021a3.787,3.787,0,0,1,.659-2.34,2.139,2.139,0,0,1,1.8-.871,1.924,1.924,0,0,1,1.516.685V5h1.684v8.92H60.412l-.081-.668a1.975,1.975,0,0,1-1.614.784,2.133,2.133,0,0,1-1.78-.874A3.909,3.909,0,0,1,56.266,10.732Zm1.678.122a2.474,2.474,0,0,0,.308,1.353,1,1,0,0,0,.894.47,1.123,1.123,0,0,0,1.1-.656V9.541a1.107,1.107,0,0,0-1.086-.656Q57.944,8.885,57.944,10.854Zm5.023-.134a3.727,3.727,0,0,1,.36-1.667,2.636,2.636,0,0,1,1.037-1.132,3.024,3.024,0,0,1,1.571-.4,2.861,2.861,0,0,1,2.076.778,3.123,3.123,0,0,1,.9,2.114l.012.43a3.284,3.284,0,0,1-.807,2.32,3.129,3.129,0,0,1-4.335,0,3.342,3.342,0,0,1-.81-2.369Zm1.678.122a2.342,2.342,0,0,0,.337,1.368,1.211,1.211,0,0,0,1.916.006,2.563,2.563,0,0,0,.343-1.5A2.319,2.319,0,0,0,66.9,9.361a1.114,1.114,0,0,0-.964-.482,1.1,1.1,0,0,0-.952.479A2.606,2.606,0,0,0,64.646,10.842ZM73.484,9.21a4.559,4.559,0,0,0-.6-.046,1.229,1.229,0,0,0-1.249.645V13.92H69.953V7.636h1.585l.046.749a1.555,1.555,0,0,1,1.4-.865,1.759,1.759,0,0,1,.523.075Zm3.508,1.522a3.787,3.787,0,0,1,.659-2.34,2.139,2.139,0,0,1,1.8-.871,1.924,1.924,0,0,1,1.516.685V5h1.684v8.92H81.138l-.081-.668a1.975,1.975,0,0,1-1.614.784,2.133,2.133,0,0,1-1.78-.874A3.909,3.909,0,0,1,76.992,10.732Zm1.678.122a2.474,2.474,0,0,0,.308,1.353,1,1,0,0,0,.894.47,1.123,1.123,0,0,0,1.1-.656V9.541a1.107,1.107,0,0,0-1.086-.656Q78.67,8.885,78.67,10.854Zm8.177,3.182a3.085,3.085,0,0,1-2.25-.848,3.014,3.014,0,0,1-.868-2.259v-.163a3.8,3.8,0,0,1,.366-1.693,2.685,2.685,0,0,1,1.037-1.15,2.909,2.909,0,0,1,1.53-.4,2.608,2.608,0,0,1,2.03.813,3.3,3.3,0,0,1,.74,2.305v.685h-4a1.559,1.559,0,0,0,.491.987,1.483,1.483,0,0,0,1.037.372,1.812,1.812,0,0,0,1.516-.7l.825.923a2.519,2.519,0,0,1-1.022.833A3.353,3.353,0,0,1,86.847,14.036Zm-.192-5.157a1.051,1.051,0,0,0-.81.337,1.74,1.74,0,0,0-.4.964h2.335v-.134a1.241,1.241,0,0,0-.3-.862A1.085,1.085,0,0,0,86.655,8.879ZM99,10.836a3.769,3.769,0,0,1-.659,2.326,2.113,2.113,0,0,1-1.78.874,1.958,1.958,0,0,1-1.539-.662v2.962H93.345v-8.7H94.9l.058.616a1.973,1.973,0,0,1,1.591-.732,2.128,2.128,0,0,1,1.806.859A3.871,3.871,0,0,1,99,10.749Zm-1.678-.122a2.473,2.473,0,0,0-.311-1.353,1.012,1.012,0,0,0-.9-.476,1.1,1.1,0,0,0-1.086.6v2.573a1.118,1.118,0,0,0,1.1.621Q97.323,12.683,97.323,10.714Zm6.359,3.206a1.864,1.864,0,0,1-.168-.563,2.031,2.031,0,0,1-1.585.679,2.231,2.231,0,0,1-1.53-.534,1.718,1.718,0,0,1-.607-1.347,1.776,1.776,0,0,1,.74-1.533,3.654,3.654,0,0,1,2.14-.54h.772v-.36a1.035,1.035,0,0,0-.224-.7.88.88,0,0,0-.706-.261,1,1,0,0,0-.665.2.69.69,0,0,0-.241.557H99.931a1.686,1.686,0,0,1,.337-1.01,2.226,2.226,0,0,1,.952-.729A3.471,3.471,0,0,1,102.6,7.52a2.742,2.742,0,0,1,1.844.584,2.042,2.042,0,0,1,.682,1.641v2.724a3,3,0,0,0,.25,1.353v.1Zm-1.388-1.167a1.445,1.445,0,0,0,.685-.166,1.087,1.087,0,0,0,.465-.444v-1.08h-.627q-1.26,0-1.341.871l-.006.1a.672.672,0,0,0,.221.517A.857.857,0,0,0,102.294,12.753Zm7.526-.569a.541.541,0,0,0-.3-.485,3.463,3.463,0,0,0-.979-.316q-2.242-.47-2.242-1.9a1.727,1.727,0,0,1,.694-1.4,2.8,2.8,0,0,1,1.815-.56,3.013,3.013,0,0,1,1.913.563,1.775,1.775,0,0,1,.717,1.463h-1.678a.812.812,0,0,0-.232-.6.983.983,0,0,0-.726-.235,1,1,0,0,0-.656.192.6.6,0,0,0-.232.488.517.517,0,0,0,.264.45,2.718,2.718,0,0,0,.891.3,7.281,7.281,0,0,1,1.057.282,1.736,1.736,0,0,1,1.33,1.69,1.639,1.639,0,0,1-.738,1.391,3.181,3.181,0,0,1-1.9.531,3.323,3.323,0,0,1-1.4-.282,2.353,2.353,0,0,1-.961-.772,1.8,1.8,0,0,1-.348-1.06h1.591a.876.876,0,0,0,.331.685,1.313,1.313,0,0,0,.825.238,1.215,1.215,0,0,0,.729-.183A.569.569,0,0,0,109.82,12.184Zm2.451-1.463a3.726,3.726,0,0,1,.36-1.667,2.636,2.636,0,0,1,1.037-1.132,3.024,3.024,0,0,1,1.571-.4,2.861,2.861,0,0,1,2.076.778,3.123,3.123,0,0,1,.9,2.114l.012.43a3.284,3.284,0,0,1-.807,2.32,3.129,3.129,0,0,1-4.335,0,3.342,3.342,0,0,1-.81-2.369Zm1.678.122a2.342,2.342,0,0,0,.337,1.368,1.211,1.211,0,0,0,1.916.006,2.563,2.563,0,0,0,.343-1.5,2.319,2.319,0,0,0-.343-1.359,1.114,1.114,0,0,0-.964-.482,1.1,1.1,0,0,0-.952.479A2.606,2.606,0,0,0,113.949,10.842ZM125.86,13.92a1.864,1.864,0,0,1-.168-.563,2.031,2.031,0,0,1-1.585.679,2.231,2.231,0,0,1-1.53-.534,1.718,1.718,0,0,1-.607-1.347,1.776,1.776,0,0,1,.74-1.533,3.654,3.654,0,0,1,2.14-.54h.772v-.36a1.035,1.035,0,0,0-.224-.7.88.88,0,0,0-.706-.261,1,1,0,0,0-.665.2.69.69,0,0,0-.241.557h-1.678a1.686,1.686,0,0,1,.337-1.01,2.226,2.226,0,0,1,.952-.729,3.471,3.471,0,0,1,1.382-.264,2.742,2.742,0,0,1,1.844.584,2.042,2.042,0,0,1,.682,1.641v2.724a3,3,0,0,0,.25,1.353v.1Zm-1.388-1.167a1.445,1.445,0,0,0,.685-.166,1.087,1.087,0,0,0,.465-.444v-1.08h-.627q-1.26,0-1.341.871l-.006.1a.672.672,0,0,0,.221.517A.857.857,0,0,0,124.472,12.753Zm13.885.1a3.024,3.024,0,0,1-1.33.874,5.569,5.569,0,0,1-1.9.311,3.773,3.773,0,0,1-1.925-.479,3.2,3.2,0,0,1-1.278-1.391,4.9,4.9,0,0,1-.462-2.143V9.448a5.2,5.2,0,0,1,.427-2.192,3.157,3.157,0,0,1,1.231-1.417,4.054,4.054,0,0,1,4.236.226,3.065,3.065,0,0,1,1,2.088h-1.7a1.686,1.686,0,0,0-.514-1.063,1.641,1.641,0,0,0-1.095-.337,1.545,1.545,0,0,0-1.353.668,3.512,3.512,0,0,0-.47,1.986v.54a3.343,3.343,0,0,0,.505,2.009,1.73,1.73,0,0,0,1.481.679,1.932,1.932,0,0,0,1.4-.418V10.761H135.03V9.477h3.328ZM143.3,13.92a1.864,1.864,0,0,1-.168-.563,2.031,2.031,0,0,1-1.585.679,2.231,2.231,0,0,1-1.53-.534,1.718,1.718,0,0,1-.607-1.347,1.776,1.776,0,0,1,.74-1.533,3.654,3.654,0,0,1,2.14-.54h.772v-.36a1.035,1.035,0,0,0-.224-.7.88.88,0,0,0-.706-.261,1,1,0,0,0-.665.2.691.691,0,0,0-.241.557h-1.678a1.686,1.686,0,0,1,.337-1.01,2.226,2.226,0,0,1,.952-.729,3.471,3.471,0,0,1,1.382-.264,2.742,2.742,0,0,1,1.844.584,2.042,2.042,0,0,1,.682,1.641v2.724a3,3,0,0,0,.25,1.353v.1Zm-1.388-1.167a1.445,1.445,0,0,0,.685-.166,1.087,1.087,0,0,0,.465-.444v-1.08h-.627q-1.26,0-1.341.871l-.006.1a.672.672,0,0,0,.221.517A.857.857,0,0,0,141.911,12.753Zm7.526-.569a.541.541,0,0,0-.3-.485,3.463,3.463,0,0,0-.979-.316q-2.242-.47-2.242-1.9a1.727,1.727,0,0,1,.694-1.4,2.8,2.8,0,0,1,1.815-.56,3.013,3.013,0,0,1,1.913.563,1.775,1.775,0,0,1,.717,1.463h-1.678a.812.812,0,0,0-.232-.6.983.983,0,0,0-.726-.235,1,1,0,0,0-.656.192.6.6,0,0,0-.232.488.517.517,0,0,0,.264.45,2.718,2.718,0,0,0,.891.3,7.281,7.281,0,0,1,1.057.282,1.736,1.736,0,0,1,1.33,1.69,1.639,1.639,0,0,1-.738,1.391,3.181,3.181,0,0,1-1.9.531,3.323,3.323,0,0,1-1.4-.282,2.353,2.353,0,0,1-.961-.772,1.8,1.8,0,0,1-.348-1.06h1.591a.876.876,0,0,0,.331.685,1.313,1.313,0,0,0,.825.238,1.215,1.215,0,0,0,.729-.183A.569.569,0,0,0,149.437,12.184Zm2.8.912a.845.845,0,0,1,.27-.65,1.049,1.049,0,0,1,1.359,0,.845.845,0,0,1,.27.65.833.833,0,0,1-.267.642,1.067,1.067,0,0,1-1.365,0A.833.833,0,0,1,152.237,13.1Z" transform="translate(640.534 13463.659)" fill="#12263f"/><path d="M12.02,12.851a3.024,3.024,0,0,1-1.33.874,5.569,5.569,0,0,1-1.9.311,3.773,3.773,0,0,1-1.925-.479,3.2,3.2,0,0,1-1.278-1.391,4.9,4.9,0,0,1-.462-2.143V9.448a5.2,5.2,0,0,1,.427-2.192A3.157,3.157,0,0,1,6.779,5.839a3.546,3.546,0,0,1,1.884-.491,3.532,3.532,0,0,1,2.352.717,3.065,3.065,0,0,1,1,2.088h-1.7A1.686,1.686,0,0,0,9.81,7.091a1.641,1.641,0,0,0-1.095-.337,1.545,1.545,0,0,0-1.353.668,3.512,3.512,0,0,0-.47,1.986v.54A3.343,3.343,0,0,0,7.4,11.957a1.73,1.73,0,0,0,1.481.679,1.932,1.932,0,0,0,1.4-.418V10.761H8.693V9.477H12.02Zm4.942,1.069a1.864,1.864,0,0,1-.168-.563,2.031,2.031,0,0,1-1.585.679,2.231,2.231,0,0,1-1.53-.534,1.718,1.718,0,0,1-.607-1.347,1.776,1.776,0,0,1,.74-1.533,3.654,3.654,0,0,1,2.14-.54h.772v-.36a1.035,1.035,0,0,0-.224-.7.88.88,0,0,0-.706-.261,1,1,0,0,0-.665.2.69.69,0,0,0-.241.557H13.211a1.686,1.686,0,0,1,.337-1.01,2.226,2.226,0,0,1,.952-.729,3.471,3.471,0,0,1,1.382-.264,2.742,2.742,0,0,1,1.844.584,2.042,2.042,0,0,1,.682,1.641v2.724a3,3,0,0,0,.25,1.353v.1Zm-1.388-1.167a1.445,1.445,0,0,0,.685-.166,1.087,1.087,0,0,0,.465-.444v-1.08H16.1q-1.26,0-1.341.871l-.006.1a.672.672,0,0,0,.221.517A.857.857,0,0,0,15.574,12.753Zm7.526-.569a.541.541,0,0,0-.3-.485,3.463,3.463,0,0,0-.979-.316q-2.242-.47-2.242-1.9a1.727,1.727,0,0,1,.694-1.4,2.8,2.8,0,0,1,1.815-.56A3.013,3.013,0,0,1,24,8.084a1.775,1.775,0,0,1,.717,1.463H23.036a.812.812,0,0,0-.232-.6.983.983,0,0,0-.726-.235,1,1,0,0,0-.656.192.6.6,0,0,0-.232.488.517.517,0,0,0,.264.45,2.718,2.718,0,0,0,.891.3,7.281,7.281,0,0,1,1.057.282,1.736,1.736,0,0,1,1.33,1.69,1.639,1.639,0,0,1-.738,1.391,3.181,3.181,0,0,1-1.9.531,3.323,3.323,0,0,1-1.4-.282,2.353,2.353,0,0,1-.961-.772,1.8,1.8,0,0,1-.348-1.06h1.591a.876.876,0,0,0,.331.685,1.313,1.313,0,0,0,.825.238,1.215,1.215,0,0,0,.729-.183A.569.569,0,0,0,23.1,12.184Zm7.526.337h3.7v1.4H28.884V5.465h1.742Zm6.359,1.4H35.3V7.636h1.684ZM35.2,6.01a.826.826,0,0,1,.253-.621,1.089,1.089,0,0,1,1.373,0,.887.887,0,0,1,0,1.249,1.076,1.076,0,0,1-1.365,0A.824.824,0,0,1,35.2,6.01Zm5.778,6.673a1.1,1.1,0,0,0,.755-.256.9.9,0,0,0,.3-.679h1.574a2.153,2.153,0,0,1-.348,1.17,2.3,2.3,0,0,1-.938.825,2.935,2.935,0,0,1-1.315.293,2.728,2.728,0,0,1-2.125-.857,3.39,3.39,0,0,1-.778-2.366V10.7a3.351,3.351,0,0,1,.772-2.317A2.7,2.7,0,0,1,41,7.52a2.643,2.643,0,0,1,1.89.671,2.375,2.375,0,0,1,.723,1.786H42.038a1.144,1.144,0,0,0-.3-.793,1.125,1.125,0,0,0-1.652.122,2.471,2.471,0,0,0-.3,1.385v.174a2.5,2.5,0,0,0,.3,1.394A1.024,1.024,0,0,0,40.981,12.683Zm7.352.6a2.1,2.1,0,0,1-1.719.755,1.985,1.985,0,0,1-1.542-.581,2.479,2.479,0,0,1-.543-1.7V7.636h1.678V11.7q0,.981.894.981a1.212,1.212,0,0,0,1.173-.592V7.636h1.684V13.92h-1.58Zm6.533.639a1.864,1.864,0,0,1-.168-.563,2.031,2.031,0,0,1-1.585.679,2.231,2.231,0,0,1-1.53-.534,1.718,1.718,0,0,1-.607-1.347,1.776,1.776,0,0,1,.74-1.533,3.654,3.654,0,0,1,2.14-.54h.772v-.36a1.035,1.035,0,0,0-.224-.7.88.88,0,0,0-.706-.261,1,1,0,0,0-.665.2.69.69,0,0,0-.241.557H51.115a1.686,1.686,0,0,1,.337-1.01,2.226,2.226,0,0,1,.952-.729,3.471,3.471,0,0,1,1.382-.264A2.742,2.742,0,0,1,55.63,8.1a2.042,2.042,0,0,1,.682,1.641v2.724a3,3,0,0,0,.25,1.353v.1Zm-1.388-1.167a1.445,1.445,0,0,0,.685-.166,1.087,1.087,0,0,0,.465-.444v-1.08H54q-1.26,0-1.341.871l-.006.1a.672.672,0,0,0,.221.517A.857.857,0,0,0,53.478,12.753Zm3.862-2.021A3.787,3.787,0,0,1,58,8.391a2.139,2.139,0,0,1,1.8-.871,1.924,1.924,0,0,1,1.516.685V5H63v8.92H61.486l-.081-.668a1.975,1.975,0,0,1-1.614.784,2.133,2.133,0,0,1-1.78-.874A3.909,3.909,0,0,1,57.34,10.732Zm1.678.122a2.474,2.474,0,0,0,.308,1.353,1,1,0,0,0,.894.47,1.123,1.123,0,0,0,1.1-.656V9.541a1.107,1.107,0,0,0-1.086-.656Q59.018,8.885,59.018,10.854Zm5.023-.134a3.727,3.727,0,0,1,.36-1.667,2.636,2.636,0,0,1,1.037-1.132,3.024,3.024,0,0,1,1.571-.4,2.861,2.861,0,0,1,2.076.778,3.123,3.123,0,0,1,.9,2.114l.012.43a3.284,3.284,0,0,1-.807,2.32,3.129,3.129,0,0,1-4.335,0,3.342,3.342,0,0,1-.81-2.369Zm1.678.122a2.342,2.342,0,0,0,.337,1.368,1.211,1.211,0,0,0,1.916.006,2.563,2.563,0,0,0,.343-1.5,2.319,2.319,0,0,0-.343-1.359,1.114,1.114,0,0,0-.964-.482,1.1,1.1,0,0,0-.952.479A2.606,2.606,0,0,0,65.72,10.842Zm8.008-.11a3.787,3.787,0,0,1,.659-2.34,2.139,2.139,0,0,1,1.8-.871,1.925,1.925,0,0,1,1.516.685V5H79.39v8.92H77.874l-.081-.668a1.975,1.975,0,0,1-1.614.784,2.133,2.133,0,0,1-1.78-.874A3.909,3.909,0,0,1,73.728,10.732Zm1.678.122a2.474,2.474,0,0,0,.308,1.353,1,1,0,0,0,.894.47,1.123,1.123,0,0,0,1.1-.656V9.541a1.107,1.107,0,0,0-1.086-.656Q75.406,8.885,75.406,10.854Zm8.177,3.182a3.085,3.085,0,0,1-2.25-.848,3.014,3.014,0,0,1-.868-2.259v-.163a3.8,3.8,0,0,1,.366-1.693,2.685,2.685,0,0,1,1.037-1.15,2.909,2.909,0,0,1,1.53-.4,2.608,2.608,0,0,1,2.03.813,3.3,3.3,0,0,1,.74,2.305v.685h-4a1.559,1.559,0,0,0,.491.987,1.483,1.483,0,0,0,1.037.372,1.812,1.812,0,0,0,1.516-.7l.825.923a2.519,2.519,0,0,1-1.022.833A3.353,3.353,0,0,1,83.583,14.036Zm-.192-5.157a1.051,1.051,0,0,0-.81.337,1.74,1.74,0,0,0-.4.964h2.335v-.134a1.241,1.241,0,0,0-.3-.862A1.085,1.085,0,0,0,83.391,8.879Zm8.542,2.062V13.92H90.192V5.465h3.3a3.816,3.816,0,0,1,1.675.348,2.568,2.568,0,0,1,1.112.99,2.761,2.761,0,0,1,.389,1.461,2.428,2.428,0,0,1-.851,1.96,3.543,3.543,0,0,1-2.355.717Zm0-1.411H93.49A1.53,1.53,0,0,0,94.544,9.2a1.183,1.183,0,0,0,.363-.929,1.4,1.4,0,0,0-.366-1,1.367,1.367,0,0,0-1.01-.395h-1.6Zm8.711,4.506a3.085,3.085,0,0,1-2.25-.848,3.014,3.014,0,0,1-.868-2.259v-.163a3.8,3.8,0,0,1,.366-1.693,2.685,2.685,0,0,1,1.037-1.15,2.909,2.909,0,0,1,1.53-.4,2.608,2.608,0,0,1,2.03.813,3.3,3.3,0,0,1,.74,2.305v.685h-4a1.559,1.559,0,0,0,.491.987,1.483,1.483,0,0,0,1.037.372,1.811,1.811,0,0,0,1.516-.7l.825.923a2.519,2.519,0,0,1-1.022.833A3.353,3.353,0,0,1,100.645,14.036Zm-.192-5.157a1.051,1.051,0,0,0-.81.337,1.74,1.74,0,0,0-.4.964h2.335v-.134a1.241,1.241,0,0,0-.3-.862A1.085,1.085,0,0,0,100.453,8.879Zm5.738-2.787V7.636h1.074V8.868h-1.074V12a.749.749,0,0,0,.134.5.671.671,0,0,0,.511.151,2.676,2.676,0,0,0,.494-.041v1.272a3.455,3.455,0,0,1-1.016.151,1.6,1.6,0,0,1-1.8-1.783V8.868h-.918V7.636h.918V6.092Zm5.54,3.118a4.559,4.559,0,0,0-.6-.046,1.229,1.229,0,0,0-1.249.645V13.92H108.2V7.636h1.585l.046.749a1.555,1.555,0,0,1,1.4-.865,1.759,1.759,0,0,1,.523.075Zm.546,1.51a3.727,3.727,0,0,1,.36-1.667,2.636,2.636,0,0,1,1.037-1.132,3.024,3.024,0,0,1,1.571-.4,2.861,2.861,0,0,1,2.076.778,3.123,3.123,0,0,1,.9,2.114l.012.43a3.284,3.284,0,0,1-.807,2.32,3.129,3.129,0,0,1-4.335,0,3.342,3.342,0,0,1-.81-2.369Zm1.678.122a2.342,2.342,0,0,0,.337,1.368,1.211,1.211,0,0,0,1.916.006,2.563,2.563,0,0,0,.343-1.5,2.319,2.319,0,0,0-.343-1.359,1.114,1.114,0,0,0-.964-.482,1.1,1.1,0,0,0-.952.479A2.606,2.606,0,0,0,113.955,10.842ZM115.575,5H117.4L115.8,6.8h-1.365Zm5.459,8.92H119.35V5h1.684Zm4.274.116a3.085,3.085,0,0,1-2.25-.848,3.014,3.014,0,0,1-.868-2.259v-.163a3.8,3.8,0,0,1,.366-1.693,2.685,2.685,0,0,1,1.037-1.15,2.91,2.91,0,0,1,1.53-.4,2.608,2.608,0,0,1,2.03.813,3.3,3.3,0,0,1,.74,2.305v.685h-4a1.559,1.559,0,0,0,.491.987,1.483,1.483,0,0,0,1.037.372,1.812,1.812,0,0,0,1.516-.7l.825.923a2.519,2.519,0,0,1-1.022.833A3.353,3.353,0,0,1,125.308,14.036Zm-.192-5.157a1.051,1.051,0,0,0-.81.337,1.74,1.74,0,0,0-.4.964h2.335v-.134a1.241,1.241,0,0,0-.3-.862A1.085,1.085,0,0,0,125.116,8.879Zm3.467,1.841a3.726,3.726,0,0,1,.36-1.667,2.636,2.636,0,0,1,1.037-1.132,3.024,3.024,0,0,1,1.571-.4,2.861,2.861,0,0,1,2.076.778,3.123,3.123,0,0,1,.9,2.114l.012.43a3.284,3.284,0,0,1-.807,2.32,3.129,3.129,0,0,1-4.335,0,3.342,3.342,0,0,1-.81-2.369Zm1.678.122a2.342,2.342,0,0,0,.337,1.368,1.211,1.211,0,0,0,1.916.006,2.563,2.563,0,0,0,.343-1.5,2.319,2.319,0,0,0-.343-1.359,1.114,1.114,0,0,0-.964-.482,1.1,1.1,0,0,0-.952.479A2.606,2.606,0,0,0,130.262,10.842Zm15.07,2.009a3.024,3.024,0,0,1-1.33.874,5.569,5.569,0,0,1-1.9.311,3.773,3.773,0,0,1-1.925-.479,3.2,3.2,0,0,1-1.278-1.391,4.9,4.9,0,0,1-.462-2.143V9.448a5.2,5.2,0,0,1,.427-2.192,3.157,3.157,0,0,1,1.231-1.417,4.054,4.054,0,0,1,4.236.226,3.065,3.065,0,0,1,1,2.088h-1.7a1.686,1.686,0,0,0-.514-1.063,1.641,1.641,0,0,0-1.095-.337,1.545,1.545,0,0,0-1.353.668,3.512,3.512,0,0,0-.47,1.986v.54a3.343,3.343,0,0,0,.505,2.009,1.73,1.73,0,0,0,1.481.679,1.932,1.932,0,0,0,1.4-.418V10.761H142V9.477h3.328Zm3.153-.331h3.7v1.4h-5.441V5.465h1.742Zm6.44-1.58V13.92h-1.742V5.465h3.3a3.816,3.816,0,0,1,1.675.348,2.568,2.568,0,0,1,1.112.99,2.761,2.761,0,0,1,.389,1.461,2.428,2.428,0,0,1-.851,1.96,3.543,3.543,0,0,1-2.355.717Zm0-1.411h1.556a1.53,1.53,0,0,0,1.054-.325,1.183,1.183,0,0,0,.363-.929,1.4,1.4,0,0,0-.366-1,1.367,1.367,0,0,0-1.01-.395h-1.6Z" transform="translate(823.413 13463.659)" fill="#12263f"/><path d="M100.191,7.83a1.967,1.967,0,0,1-.308,1.092,2.215,2.215,0,0,1-.848.761,2.452,2.452,0,0,1,.976.816,2.093,2.093,0,0,1,.36,1.222A2.216,2.216,0,0,1,99.6,13.5a3.656,3.656,0,0,1-4.175,0,2.211,2.211,0,0,1-.772-1.777,2.106,2.106,0,0,1,.36-1.225,2.408,2.408,0,0,1,.97-.813,2.193,2.193,0,0,1-.845-.761,1.981,1.981,0,0,1-.3-1.092,2.192,2.192,0,0,1,.72-1.722A3.313,3.313,0,0,1,99.468,6.1,2.183,2.183,0,0,1,100.191,7.83Zm-1.5,3.769a1.217,1.217,0,0,0-.319-.883,1.278,1.278,0,0,0-1.713,0,1.215,1.215,0,0,0-.319.886,1.215,1.215,0,0,0,.314.871,1.31,1.31,0,0,0,1.728.012A1.212,1.212,0,0,0,98.686,11.6Zm-.174-3.688a1.162,1.162,0,0,0-.261-.793,1.063,1.063,0,0,0-1.469-.009,1.155,1.155,0,0,0-.261.8,1.214,1.214,0,0,0,.261.813,1.034,1.034,0,0,0,1.472,0A1.223,1.223,0,0,0,98.512,7.912Zm4.7,1.156h.894a1.26,1.26,0,0,0,.947-.319,1.17,1.17,0,0,0,.308-.848,1.035,1.035,0,0,0-.3-.8,1.182,1.182,0,0,0-.839-.285,1.239,1.239,0,0,0-.807.264.845.845,0,0,0-.325.688H101.4a2.064,2.064,0,0,1,.357-1.188,2.38,2.38,0,0,1,1-.822,3.334,3.334,0,0,1,1.414-.3,3.162,3.162,0,0,1,2.1.642,2.189,2.189,0,0,1,.761,1.768,1.779,1.779,0,0,1-.354,1.069,2.3,2.3,0,0,1-.929.749,2.1,2.1,0,0,1,1.066.767,2.079,2.079,0,0,1,.351,1.208,2.226,2.226,0,0,1-.822,1.806,3.3,3.3,0,0,1-2.175.679,3.133,3.133,0,0,1-2.07-.668,2.181,2.181,0,0,1-.8-1.765h1.678a.972.972,0,0,0,.357.778,1.49,1.49,0,0,0,1.818-.015,1.093,1.093,0,0,0,.34-.839q0-1.266-1.394-1.266h-.889ZM108.3,7.209a1.672,1.672,0,0,1,.505-1.263,1.832,1.832,0,0,1,1.324-.485,1.861,1.861,0,0,1,1.336.479,1.7,1.7,0,0,1,.505,1.3v.418a1.651,1.651,0,0,1-.505,1.26,2.086,2.086,0,0,1-2.657,0,1.691,1.691,0,0,1-.508-1.292Zm1.115.447a.782.782,0,0,0,.2.56.69.69,0,0,0,.526.212.658.658,0,0,0,.517-.215.832.832,0,0,0,.192-.575v-.43a.815.815,0,0,0-.192-.563.747.747,0,0,0-1.045,0,.831.831,0,0,0-.2.589Zm2.927,4.309a1.65,1.65,0,0,1,.511-1.263,1.858,1.858,0,0,1,1.324-.479,1.877,1.877,0,0,1,1.333.473,1.694,1.694,0,0,1,.508,1.3v.418a1.663,1.663,0,0,1-.5,1.257,1.84,1.84,0,0,1-1.33.479,1.863,1.863,0,0,1-1.341-.482,1.684,1.684,0,0,1-.505-1.278Zm1.115.453a.776.776,0,0,0,.209.546.682.682,0,0,0,.523.226q.708,0,.708-.784v-.441a.789.789,0,0,0-.2-.56.75.75,0,0,0-1.045,0,.814.814,0,0,0-.2.578Zm-2.985.987-.819-.441,4.129-6.609.819.441Z" transform="translate(981.072 13463.541)" fill="#12263f"/><path d="M11.233,11.1a2.992,2.992,0,0,1-1.008,2.149,3.539,3.539,0,0,1-2.4.784,3.182,3.182,0,0,1-2.558-1.095A4.489,4.489,0,0,1,4.34,9.936V9.419a5.069,5.069,0,0,1,.43-2.149A3.22,3.22,0,0,1,6,5.845a3.441,3.441,0,0,1,1.855-.5,3.447,3.447,0,0,1,2.358.784,3.215,3.215,0,0,1,1.034,2.2H9.5a1.766,1.766,0,0,0-.456-1.188,1.688,1.688,0,0,0-1.193-.369,1.48,1.48,0,0,0-1.3.624,3.5,3.5,0,0,0-.444,1.937v.639a3.745,3.745,0,0,0,.415,2,1.453,1.453,0,0,0,1.31.633,1.72,1.72,0,0,0,1.205-.369A1.666,1.666,0,0,0,9.491,11.1Zm4.675,2.817a1.864,1.864,0,0,1-.168-.563,2.031,2.031,0,0,1-1.585.679,2.231,2.231,0,0,1-1.53-.534,1.718,1.718,0,0,1-.607-1.347,1.776,1.776,0,0,1,.74-1.533,3.654,3.654,0,0,1,2.14-.54h.772v-.36a1.035,1.035,0,0,0-.224-.7.88.88,0,0,0-.706-.261,1,1,0,0,0-.665.2.69.69,0,0,0-.241.557H12.156a1.686,1.686,0,0,1,.337-1.01,2.226,2.226,0,0,1,.952-.729,3.471,3.471,0,0,1,1.382-.264,2.742,2.742,0,0,1,1.844.584,2.042,2.042,0,0,1,.682,1.641v2.724a3,3,0,0,0,.25,1.353v.1ZM14.52,12.753a1.445,1.445,0,0,0,.685-.166,1.087,1.087,0,0,0,.465-.444v-1.08h-.627q-1.26,0-1.341.871l-.006.1a.672.672,0,0,0,.221.517A.857.857,0,0,0,14.52,12.753Zm5.894,1.167H18.73V5h1.684Zm4.274.116a3.085,3.085,0,0,1-2.25-.848,3.014,3.014,0,0,1-.868-2.259v-.163a3.8,3.8,0,0,1,.366-1.693,2.685,2.685,0,0,1,1.037-1.15,2.909,2.909,0,0,1,1.53-.4,2.608,2.608,0,0,1,2.03.813,3.3,3.3,0,0,1,.74,2.305v.685h-4a1.559,1.559,0,0,0,.491.987,1.483,1.483,0,0,0,1.037.372,1.812,1.812,0,0,0,1.516-.7l.825.923a2.519,2.519,0,0,1-1.022.833A3.353,3.353,0,0,1,24.688,14.036ZM24.5,8.879a1.051,1.051,0,0,0-.81.337,1.74,1.74,0,0,0-.4.964h2.335v-.134a1.241,1.241,0,0,0-.3-.862A1.085,1.085,0,0,0,24.5,8.879ZM29.77,7.636l.052.726a2.194,2.194,0,0,1,1.806-.842,1.823,1.823,0,0,1,1.487.587,2.737,2.737,0,0,1,.5,1.754V13.92H31.936V9.9a1.089,1.089,0,0,0-.232-.775,1.04,1.04,0,0,0-.772-.241,1.155,1.155,0,0,0-1.063.6V13.92H28.19V7.636ZM36.9,6.092V7.636H37.97V8.868H36.9V12a.749.749,0,0,0,.134.5.671.671,0,0,0,.511.151,2.676,2.676,0,0,0,.494-.041v1.272a3.455,3.455,0,0,1-1.016.151,1.6,1.6,0,0,1-1.8-1.783V8.868H34.3V7.636h.918V6.092Zm5.65,7.828a1.864,1.864,0,0,1-.168-.563,2.031,2.031,0,0,1-1.585.679,2.231,2.231,0,0,1-1.53-.534,1.718,1.718,0,0,1-.607-1.347,1.776,1.776,0,0,1,.74-1.533,3.654,3.654,0,0,1,2.14-.54h.772v-.36a1.035,1.035,0,0,0-.224-.7.88.88,0,0,0-.706-.261,1,1,0,0,0-.665.2.69.69,0,0,0-.241.557H38.794a1.686,1.686,0,0,1,.337-1.01,2.226,2.226,0,0,1,.952-.729,3.471,3.471,0,0,1,1.382-.264,2.742,2.742,0,0,1,1.844.584,2.042,2.042,0,0,1,.682,1.641v2.724a3,3,0,0,0,.25,1.353v.1Zm-1.388-1.167a1.445,1.445,0,0,0,.685-.166,1.087,1.087,0,0,0,.465-.444v-1.08h-.627q-1.26,0-1.341.871l-.006.1a.672.672,0,0,0,.221.517A.857.857,0,0,0,41.158,12.753Zm3.862-2.021a3.787,3.787,0,0,1,.659-2.34,2.139,2.139,0,0,1,1.8-.871A1.924,1.924,0,0,1,49,8.206V5h1.684v8.92H49.166l-.081-.668a1.975,1.975,0,0,1-1.614.784,2.133,2.133,0,0,1-1.78-.874A3.909,3.909,0,0,1,45.02,10.732Zm1.678.122a2.474,2.474,0,0,0,.308,1.353,1,1,0,0,0,.894.47,1.123,1.123,0,0,0,1.1-.656V9.541a1.107,1.107,0,0,0-1.086-.656Q46.7,8.885,46.7,10.854Zm5.023-.134a3.726,3.726,0,0,1,.36-1.667,2.636,2.636,0,0,1,1.037-1.132,3.024,3.024,0,0,1,1.571-.4,2.861,2.861,0,0,1,2.076.778,3.123,3.123,0,0,1,.9,2.114l.012.43a3.284,3.284,0,0,1-.807,2.32,3.129,3.129,0,0,1-4.335,0,3.342,3.342,0,0,1-.81-2.369Zm1.678.122a2.342,2.342,0,0,0,.337,1.368,1.211,1.211,0,0,0,1.916.006A2.563,2.563,0,0,0,56,10.72a2.319,2.319,0,0,0-.343-1.359,1.114,1.114,0,0,0-.964-.482,1.1,1.1,0,0,0-.952.479A2.606,2.606,0,0,0,53.4,10.842ZM62.238,9.21a4.559,4.559,0,0,0-.6-.046,1.229,1.229,0,0,0-1.249.645V13.92H58.707V7.636h1.585l.046.749a1.555,1.555,0,0,1,1.4-.865,1.759,1.759,0,0,1,.523.075Zm3.508,1.522a3.787,3.787,0,0,1,.659-2.34,2.139,2.139,0,0,1,1.8-.871,1.924,1.924,0,0,1,1.516.685V5h1.684v8.92H69.892l-.081-.668a1.975,1.975,0,0,1-1.614.784,2.133,2.133,0,0,1-1.78-.874A3.909,3.909,0,0,1,65.746,10.732Zm1.678.122a2.474,2.474,0,0,0,.308,1.353,1,1,0,0,0,.894.47,1.123,1.123,0,0,0,1.1-.656V9.541a1.107,1.107,0,0,0-1.086-.656Q67.424,8.885,67.424,10.854ZM75.6,14.036a3.085,3.085,0,0,1-2.25-.848,3.014,3.014,0,0,1-.868-2.259v-.163a3.8,3.8,0,0,1,.366-1.693,2.685,2.685,0,0,1,1.037-1.15,2.909,2.909,0,0,1,1.53-.4,2.608,2.608,0,0,1,2.03.813,3.3,3.3,0,0,1,.74,2.305v.685h-4a1.559,1.559,0,0,0,.491.987,1.483,1.483,0,0,0,1.037.372,1.812,1.812,0,0,0,1.516-.7l.825.923a2.519,2.519,0,0,1-1.022.833A3.353,3.353,0,0,1,75.6,14.036Zm-.192-5.157a1.051,1.051,0,0,0-.81.337,1.74,1.74,0,0,0-.4.964h2.335v-.134a1.241,1.241,0,0,0-.3-.862A1.085,1.085,0,0,0,75.409,8.879Zm12.346,1.957a3.768,3.768,0,0,1-.659,2.326,2.113,2.113,0,0,1-1.78.874,1.958,1.958,0,0,1-1.539-.662v2.962H82.1v-8.7h1.556l.058.616A1.972,1.972,0,0,1,85.3,7.52a2.128,2.128,0,0,1,1.806.859,3.871,3.871,0,0,1,.645,2.369Zm-1.678-.122a2.473,2.473,0,0,0-.311-1.353,1.012,1.012,0,0,0-.9-.476,1.1,1.1,0,0,0-1.086.6v2.573a1.118,1.118,0,0,0,1.1.621Q86.077,12.683,86.077,10.714Zm6.359,3.206a1.863,1.863,0,0,1-.168-.563,2.031,2.031,0,0,1-1.585.679,2.231,2.231,0,0,1-1.53-.534,1.718,1.718,0,0,1-.607-1.347,1.776,1.776,0,0,1,.74-1.533,3.653,3.653,0,0,1,2.14-.54H92.2v-.36a1.035,1.035,0,0,0-.224-.7.88.88,0,0,0-.706-.261,1,1,0,0,0-.665.2.69.69,0,0,0-.241.557H88.684a1.686,1.686,0,0,1,.337-1.01,2.226,2.226,0,0,1,.952-.729,3.471,3.471,0,0,1,1.382-.264A2.742,2.742,0,0,1,93.2,8.1a2.042,2.042,0,0,1,.682,1.641v2.724a3,3,0,0,0,.25,1.353v.1Zm-1.388-1.167a1.445,1.445,0,0,0,.685-.166,1.087,1.087,0,0,0,.465-.444v-1.08h-.627q-1.26,0-1.341.871l-.006.1a.672.672,0,0,0,.221.517A.857.857,0,0,0,91.048,12.753Zm7.526-.569a.541.541,0,0,0-.3-.485,3.463,3.463,0,0,0-.979-.316q-2.242-.47-2.242-1.9a1.727,1.727,0,0,1,.694-1.4,2.8,2.8,0,0,1,1.815-.56,3.013,3.013,0,0,1,1.913.563,1.775,1.775,0,0,1,.717,1.463H98.51a.812.812,0,0,0-.232-.6.983.983,0,0,0-.726-.235,1,1,0,0,0-.656.192.6.6,0,0,0-.232.488.517.517,0,0,0,.264.45,2.718,2.718,0,0,0,.891.3,7.281,7.281,0,0,1,1.057.282,1.736,1.736,0,0,1,1.33,1.69,1.639,1.639,0,0,1-.738,1.391,3.181,3.181,0,0,1-1.9.531,3.323,3.323,0,0,1-1.4-.282,2.353,2.353,0,0,1-.961-.772,1.8,1.8,0,0,1-.348-1.06h1.591a.876.876,0,0,0,.331.685,1.313,1.313,0,0,0,.825.238,1.215,1.215,0,0,0,.729-.183A.569.569,0,0,0,98.574,12.184Zm2.451-1.463a3.727,3.727,0,0,1,.36-1.667,2.636,2.636,0,0,1,1.037-1.132,3.024,3.024,0,0,1,1.571-.4,2.861,2.861,0,0,1,2.076.778,3.123,3.123,0,0,1,.9,2.114l.012.43a3.284,3.284,0,0,1-.807,2.32,3.129,3.129,0,0,1-4.335,0,3.342,3.342,0,0,1-.81-2.369Zm1.678.122a2.342,2.342,0,0,0,.337,1.368,1.211,1.211,0,0,0,1.916.006,2.563,2.563,0,0,0,.343-1.5,2.319,2.319,0,0,0-.343-1.359,1.114,1.114,0,0,0-.964-.482,1.1,1.1,0,0,0-.952.479A2.606,2.606,0,0,0,102.7,10.842Zm11.162,3.194a3.085,3.085,0,0,1-2.25-.848,3.014,3.014,0,0,1-.868-2.259v-.163a3.8,3.8,0,0,1,.366-1.693,2.685,2.685,0,0,1,1.037-1.15,2.909,2.909,0,0,1,1.53-.4,2.608,2.608,0,0,1,2.03.813,3.3,3.3,0,0,1,.74,2.305v.685h-4a1.559,1.559,0,0,0,.491.987,1.483,1.483,0,0,0,1.037.372,1.812,1.812,0,0,0,1.516-.7l.825.923a2.519,2.519,0,0,1-1.022.833A3.353,3.353,0,0,1,113.865,14.036Zm-.192-5.157a1.051,1.051,0,0,0-.81.337,1.74,1.74,0,0,0-.4.964H114.8v-.134a1.241,1.241,0,0,0-.3-.862A1.085,1.085,0,0,0,113.673,8.879Zm5.5,5.041h-1.684V5h1.684Zm4.274.116a3.085,3.085,0,0,1-2.25-.848,3.014,3.014,0,0,1-.868-2.259v-.163a3.8,3.8,0,0,1,.366-1.693,2.685,2.685,0,0,1,1.037-1.15,2.909,2.909,0,0,1,1.53-.4,2.608,2.608,0,0,1,2.03.813,3.3,3.3,0,0,1,.74,2.305v.685h-4a1.559,1.559,0,0,0,.491.987,1.483,1.483,0,0,0,1.037.372,1.811,1.811,0,0,0,1.516-.7l.825.923a2.519,2.519,0,0,1-1.022.833A3.353,3.353,0,0,1,123.447,14.036Zm-.192-5.157a1.051,1.051,0,0,0-.81.337,1.74,1.74,0,0,0-.4.964h2.335v-.134a1.241,1.241,0,0,0-.3-.862A1.085,1.085,0,0,0,123.255,8.879ZM123.406,5h1.829l-1.609,1.8h-1.365Zm6.191,7.683a1.1,1.1,0,0,0,.755-.256.9.9,0,0,0,.3-.679h1.574a2.153,2.153,0,0,1-.348,1.17,2.3,2.3,0,0,1-.938.825,2.935,2.935,0,0,1-1.315.293,2.728,2.728,0,0,1-2.125-.857,3.39,3.39,0,0,1-.778-2.366V10.7a3.351,3.351,0,0,1,.772-2.317,2.7,2.7,0,0,1,2.12-.865,2.643,2.643,0,0,1,1.89.671,2.375,2.375,0,0,1,.723,1.786h-1.574a1.144,1.144,0,0,0-.3-.793,1.125,1.125,0,0,0-1.652.122,2.471,2.471,0,0,0-.3,1.385v.174a2.5,2.5,0,0,0,.3,1.394A1.024,1.024,0,0,0,129.6,12.683Zm5.6-6.591V7.636h1.074V8.868h-1.074V12a.749.749,0,0,0,.134.5.671.671,0,0,0,.511.151,2.676,2.676,0,0,0,.494-.041v1.272a3.455,3.455,0,0,1-1.016.151,1.6,1.6,0,0,1-1.8-1.783V8.868H132.6V7.636h.918V6.092Zm5.54,3.118a4.559,4.559,0,0,0-.6-.046,1.229,1.229,0,0,0-1.249.645V13.92H137.2V7.636h1.585l.046.749a1.555,1.555,0,0,1,1.4-.865,1.759,1.759,0,0,1,.523.075Zm2.578,4.71h-1.684V7.636h1.684ZM141.531,6.01a.826.826,0,0,1,.253-.621,1.089,1.089,0,0,1,1.373,0,.887.887,0,0,1,0,1.249,1.076,1.076,0,0,1-1.365,0A.824.824,0,0,1,141.531,6.01Zm5.778,6.673a1.1,1.1,0,0,0,.755-.256.9.9,0,0,0,.3-.679h1.574a2.153,2.153,0,0,1-.348,1.17,2.3,2.3,0,0,1-.938.825,2.935,2.935,0,0,1-1.315.293,2.728,2.728,0,0,1-2.125-.857,3.39,3.39,0,0,1-.778-2.366V10.7a3.351,3.351,0,0,1,.772-2.317,2.7,2.7,0,0,1,2.12-.865,2.643,2.643,0,0,1,1.89.671,2.375,2.375,0,0,1,.723,1.786h-1.574a1.144,1.144,0,0,0-.3-.793,1.125,1.125,0,0,0-1.652.122,2.471,2.471,0,0,0-.3,1.385v.174a2.5,2.5,0,0,0,.3,1.394A1.024,1.024,0,0,0,147.309,12.683Zm3.328-1.963A3.727,3.727,0,0,1,151,9.053a2.636,2.636,0,0,1,1.037-1.132,3.024,3.024,0,0,1,1.571-.4,2.861,2.861,0,0,1,2.076.778,3.123,3.123,0,0,1,.9,2.114l.012.43a3.284,3.284,0,0,1-.807,2.32,3.129,3.129,0,0,1-4.335,0,3.342,3.342,0,0,1-.81-2.369Zm1.678.122a2.342,2.342,0,0,0,.337,1.368,1.211,1.211,0,0,0,1.916.006,2.563,2.563,0,0,0,.343-1.5,2.319,2.319,0,0,0-.343-1.359,1.114,1.114,0,0,0-.964-.482,1.1,1.1,0,0,0-.952.479A2.606,2.606,0,0,0,152.315,10.842ZM157.71,13.1a.845.845,0,0,1,.27-.65,1.049,1.049,0,0,1,1.359,0,.845.845,0,0,1,.27.65.833.833,0,0,1-.267.642,1.067,1.067,0,0,1-1.365,0A.833.833,0,0,1,157.71,13.1Z" transform="translate(643.421 13500.082)" fill="#12263f"/><path d="M72.646,10.256H69.3V12.52h3.926v1.4H67.559V5.465h5.656V6.876H69.3V8.891h3.345Zm3.264,3.664H74.225V5h1.684Zm4.274.116a3.085,3.085,0,0,1-2.25-.848,3.014,3.014,0,0,1-.868-2.259v-.163a3.8,3.8,0,0,1,.366-1.693,2.685,2.685,0,0,1,1.037-1.15A2.909,2.909,0,0,1,80,7.52a2.608,2.608,0,0,1,2.03.813,3.3,3.3,0,0,1,.74,2.305v.685h-4a1.559,1.559,0,0,0,.491.987,1.483,1.483,0,0,0,1.037.372,1.812,1.812,0,0,0,1.516-.7l.825.923a2.519,2.519,0,0,1-1.022.833A3.353,3.353,0,0,1,80.184,14.036Zm-.192-5.157a1.051,1.051,0,0,0-.81.337,1.74,1.74,0,0,0-.4.964h2.335v-.134a1.241,1.241,0,0,0-.3-.862A1.085,1.085,0,0,0,79.992,8.879Zm6.342,3.8a1.1,1.1,0,0,0,.755-.256.9.9,0,0,0,.3-.679h1.574a2.153,2.153,0,0,1-.348,1.17,2.3,2.3,0,0,1-.938.825,2.935,2.935,0,0,1-1.315.293,2.728,2.728,0,0,1-2.125-.857,3.39,3.39,0,0,1-.778-2.366V10.7a3.351,3.351,0,0,1,.772-2.317,2.7,2.7,0,0,1,2.12-.865,2.643,2.643,0,0,1,1.89.671,2.375,2.375,0,0,1,.723,1.786H87.39a1.144,1.144,0,0,0-.3-.793,1.125,1.125,0,0,0-1.652.122,2.471,2.471,0,0,0-.3,1.385v.174a2.5,2.5,0,0,0,.3,1.394A1.024,1.024,0,0,0,86.333,12.683Zm5.6-6.591V7.636h1.074V8.868H91.932V12a.749.749,0,0,0,.134.5.671.671,0,0,0,.511.151,2.676,2.676,0,0,0,.494-.041v1.272a3.455,3.455,0,0,1-1.016.151,1.6,1.6,0,0,1-1.8-1.783V8.868h-.918V7.636h.918V6.092Zm5.54,3.118a4.559,4.559,0,0,0-.6-.046,1.229,1.229,0,0,0-1.249.645V13.92H93.941V7.636h1.585l.046.749a1.555,1.555,0,0,1,1.4-.865A1.759,1.759,0,0,1,97.5,7.6Zm2.578,4.71H98.366V7.636h1.684ZM98.267,6.01a.826.826,0,0,1,.253-.621,1.089,1.089,0,0,1,1.373,0,.887.887,0,0,1,0,1.249,1.076,1.076,0,0,1-1.365,0A.824.824,0,0,1,98.267,6.01Zm5.778,6.673a1.1,1.1,0,0,0,.755-.256.9.9,0,0,0,.3-.679h1.574a2.153,2.153,0,0,1-.348,1.17,2.3,2.3,0,0,1-.938.825,2.935,2.935,0,0,1-1.315.293,2.728,2.728,0,0,1-2.125-.857,3.39,3.39,0,0,1-.778-2.366V10.7a3.351,3.351,0,0,1,.772-2.317,2.7,2.7,0,0,1,2.12-.865,2.643,2.643,0,0,1,1.89.671,2.375,2.375,0,0,1,.723,1.786H105.1a1.144,1.144,0,0,0-.3-.793,1.125,1.125,0,0,0-1.652.122,2.471,2.471,0,0,0-.3,1.385v.174a2.5,2.5,0,0,0,.3,1.394A1.024,1.024,0,0,0,104.046,12.683Zm5.36,1.237h-1.684V7.636h1.684ZM107.623,6.01a.826.826,0,0,1,.253-.621,1.089,1.089,0,0,1,1.373,0,.887.887,0,0,1,0,1.249,1.076,1.076,0,0,1-1.365,0A.824.824,0,0,1,107.623,6.01Zm2.9,4.721a3.787,3.787,0,0,1,.659-2.34,2.139,2.139,0,0,1,1.8-.871,1.924,1.924,0,0,1,1.516.685V5h1.684v8.92h-1.516l-.081-.668a1.975,1.975,0,0,1-1.614.784,2.133,2.133,0,0,1-1.78-.874A3.909,3.909,0,0,1,110.527,10.732Zm1.678.122a2.474,2.474,0,0,0,.308,1.353,1,1,0,0,0,.894.47,1.123,1.123,0,0,0,1.1-.656V9.541a1.107,1.107,0,0,0-1.086-.656Q112.2,8.885,112.2,10.854Zm8.926,3.066a1.864,1.864,0,0,1-.168-.563,2.031,2.031,0,0,1-1.585.679,2.231,2.231,0,0,1-1.53-.534,1.718,1.718,0,0,1-.607-1.347,1.776,1.776,0,0,1,.74-1.533,3.654,3.654,0,0,1,2.14-.54h.772v-.36a1.035,1.035,0,0,0-.224-.7.88.88,0,0,0-.706-.261,1,1,0,0,0-.665.2.691.691,0,0,0-.241.557h-1.678a1.686,1.686,0,0,1,.337-1.01,2.226,2.226,0,0,1,.952-.729,3.471,3.471,0,0,1,1.382-.264,2.742,2.742,0,0,1,1.844.584,2.042,2.042,0,0,1,.682,1.641v2.724a3,3,0,0,0,.25,1.353v.1Zm-1.388-1.167a1.445,1.445,0,0,0,.685-.166,1.087,1.087,0,0,0,.465-.444v-1.08h-.627q-1.26,0-1.341.871l-.006.1a.672.672,0,0,0,.221.517A.857.857,0,0,0,119.743,12.753Zm3.862-2.021a3.787,3.787,0,0,1,.659-2.34,2.139,2.139,0,0,1,1.8-.871,1.924,1.924,0,0,1,1.516.685V5h1.684v8.92h-1.516l-.081-.668a1.975,1.975,0,0,1-1.614.784,2.133,2.133,0,0,1-1.78-.874A3.909,3.909,0,0,1,123.6,10.732Zm1.678.122a2.473,2.473,0,0,0,.308,1.353,1,1,0,0,0,.894.47,1.123,1.123,0,0,0,1.1-.656V9.541a1.107,1.107,0,0,0-1.086-.656Q125.283,8.885,125.283,10.854Z" transform="translate(807.387 13500.082)" fill="#12263f"/><path d="M98.587,10.658a2.119,2.119,0,0,1-1.533.645,2.267,2.267,0,0,1-1.794-.769,3.041,3.041,0,0,1-.674-2.076,3.239,3.239,0,0,1,.363-1.524,2.662,2.662,0,0,1,1.013-1.08,2.812,2.812,0,0,1,1.463-.386,2.689,2.689,0,0,1,1.487.418,2.749,2.749,0,0,1,1.01,1.2,4.316,4.316,0,0,1,.366,1.794V9.5a4.891,4.891,0,0,1-1.051,3.322,3.974,3.974,0,0,1-2.979,1.289l-.412.006v-1.4l.372-.006A2.146,2.146,0,0,0,98.587,10.658Zm-1.121-.639a1.174,1.174,0,0,0,.7-.209,1.4,1.4,0,0,0,.444-.505V8.614a2.308,2.308,0,0,0-.325-1.324,1.009,1.009,0,0,0-.871-.47.98.98,0,0,0-.83.462,1.963,1.963,0,0,0-.325,1.159,1.91,1.91,0,0,0,.316,1.135A1.031,1.031,0,0,0,97.466,10.02Zm9.71.523a4.283,4.283,0,0,1-.726,2.683,2.9,2.9,0,0,1-4.239.017,4.158,4.158,0,0,1-.749-2.613V9.073a4.227,4.227,0,0,1,.735-2.689,2.907,2.907,0,0,1,4.231-.009,4.145,4.145,0,0,1,.749,2.61ZM105.5,8.835a3.091,3.091,0,0,0-.287-1.53.972.972,0,0,0-.9-.479.954.954,0,0,0-.874.456,2.892,2.892,0,0,0-.3,1.426v2.056a3.244,3.244,0,0,0,.282,1.536.959.959,0,0,0,.9.5.943.943,0,0,0,.889-.482,3.167,3.167,0,0,0,.285-1.475Zm2.787-1.626a1.672,1.672,0,0,1,.505-1.263,1.832,1.832,0,0,1,1.324-.485,1.861,1.861,0,0,1,1.336.479,1.7,1.7,0,0,1,.505,1.3v.418a1.651,1.651,0,0,1-.505,1.26,2.086,2.086,0,0,1-2.657,0,1.691,1.691,0,0,1-.508-1.292Zm1.115.447a.782.782,0,0,0,.2.56.69.69,0,0,0,.526.212.658.658,0,0,0,.517-.215.832.832,0,0,0,.192-.575v-.43a.815.815,0,0,0-.192-.563.747.747,0,0,0-1.045,0,.831.831,0,0,0-.2.589Zm2.927,4.309a1.65,1.65,0,0,1,.511-1.263,1.858,1.858,0,0,1,1.324-.479,1.877,1.877,0,0,1,1.333.473A1.694,1.694,0,0,1,116,12v.418a1.663,1.663,0,0,1-.5,1.257,1.84,1.84,0,0,1-1.33.479,1.863,1.863,0,0,1-1.341-.482,1.684,1.684,0,0,1-.505-1.278Zm1.115.453a.776.776,0,0,0,.209.546.682.682,0,0,0,.523.226q.708,0,.708-.784v-.441a.789.789,0,0,0-.2-.56.75.75,0,0,0-1.045,0,.814.814,0,0,0-.2.578Zm-2.985.987-.819-.441,4.129-6.609.819.441Z" transform="translate(981.09 13499.964)" fill="#12263f"/><path d="M18.311,11.1A2.992,2.992,0,0,1,17.3,13.252a3.539,3.539,0,0,1-2.4.784,3.182,3.182,0,0,1-2.558-1.095,4.489,4.489,0,0,1-.932-3.005V9.419a5.069,5.069,0,0,1,.43-2.149,3.22,3.22,0,0,1,1.228-1.426,3.441,3.441,0,0,1,1.855-.5,3.447,3.447,0,0,1,2.358.784,3.215,3.215,0,0,1,1.034,2.2H16.581a1.766,1.766,0,0,0-.456-1.188,1.688,1.688,0,0,0-1.193-.369,1.48,1.48,0,0,0-1.3.624,3.5,3.5,0,0,0-.444,1.937v.639a3.745,3.745,0,0,0,.415,2,1.453,1.453,0,0,0,1.31.633,1.72,1.72,0,0,0,1.205-.369,1.666,1.666,0,0,0,.456-1.141Zm4.675,2.817a1.864,1.864,0,0,1-.168-.563,2.031,2.031,0,0,1-1.585.679A2.231,2.231,0,0,1,19.7,13.5a1.718,1.718,0,0,1-.607-1.347,1.776,1.776,0,0,1,.74-1.533,3.654,3.654,0,0,1,2.14-.54h.772v-.36a1.035,1.035,0,0,0-.224-.7.88.88,0,0,0-.706-.261,1,1,0,0,0-.665.2.69.69,0,0,0-.241.557H19.235a1.686,1.686,0,0,1,.337-1.01,2.226,2.226,0,0,1,.952-.729,3.471,3.471,0,0,1,1.382-.264A2.742,2.742,0,0,1,23.75,8.1a2.042,2.042,0,0,1,.682,1.641v2.724a3,3,0,0,0,.25,1.353v.1ZM21.6,12.753a1.445,1.445,0,0,0,.685-.166,1.087,1.087,0,0,0,.465-.444v-1.08h-.627q-1.26,0-1.341.871l-.006.1a.672.672,0,0,0,.221.517A.857.857,0,0,0,21.6,12.753Zm5.894,1.167H25.808V5h1.684Zm4.274.116a3.085,3.085,0,0,1-2.25-.848,3.014,3.014,0,0,1-.868-2.259v-.163a3.8,3.8,0,0,1,.366-1.693,2.685,2.685,0,0,1,1.037-1.15,2.909,2.909,0,0,1,1.53-.4,2.608,2.608,0,0,1,2.03.813,3.3,3.3,0,0,1,.74,2.305v.685h-4a1.559,1.559,0,0,0,.491.987,1.483,1.483,0,0,0,1.037.372,1.812,1.812,0,0,0,1.516-.7l.825.923a2.519,2.519,0,0,1-1.022.833A3.353,3.353,0,0,1,31.767,14.036Zm-.192-5.157a1.051,1.051,0,0,0-.81.337,1.74,1.74,0,0,0-.4.964H32.7v-.134a1.241,1.241,0,0,0-.3-.862A1.085,1.085,0,0,0,31.575,8.879Zm5.273-1.243.052.726a2.194,2.194,0,0,1,1.806-.842,1.823,1.823,0,0,1,1.487.587,2.737,2.737,0,0,1,.5,1.754V13.92H39.014V9.9a1.089,1.089,0,0,0-.232-.775,1.04,1.04,0,0,0-.772-.241,1.155,1.155,0,0,0-1.063.6V13.92H35.268V7.636Zm7.126-1.545V7.636h1.074V8.868H43.973V12a.749.749,0,0,0,.134.5.671.671,0,0,0,.511.151,2.676,2.676,0,0,0,.494-.041v1.272a3.455,3.455,0,0,1-1.016.151,1.6,1.6,0,0,1-1.8-1.783V8.868h-.918V7.636H42.3V6.092Zm5.65,7.828a1.864,1.864,0,0,1-.168-.563,2.031,2.031,0,0,1-1.585.679,2.231,2.231,0,0,1-1.53-.534,1.718,1.718,0,0,1-.607-1.347,1.776,1.776,0,0,1,.74-1.533,3.654,3.654,0,0,1,2.14-.54h.772v-.36a1.035,1.035,0,0,0-.224-.7.88.88,0,0,0-.706-.261,1,1,0,0,0-.665.2.69.69,0,0,0-.241.557H45.872a1.686,1.686,0,0,1,.337-1.01,2.226,2.226,0,0,1,.952-.729,3.471,3.471,0,0,1,1.382-.264,2.742,2.742,0,0,1,1.844.584,2.042,2.042,0,0,1,.682,1.641v2.724a3,3,0,0,0,.25,1.353v.1Zm-1.388-1.167a1.445,1.445,0,0,0,.685-.166,1.087,1.087,0,0,0,.465-.444v-1.08h-.627q-1.26,0-1.341.871l-.006.1a.672.672,0,0,0,.221.517A.857.857,0,0,0,48.236,12.753ZM52.1,10.732a3.787,3.787,0,0,1,.659-2.34,2.139,2.139,0,0,1,1.8-.871,1.924,1.924,0,0,1,1.516.685V5H57.76v8.92H56.244l-.081-.668a1.975,1.975,0,0,1-1.614.784,2.133,2.133,0,0,1-1.78-.874A3.909,3.909,0,0,1,52.1,10.732Zm1.678.122a2.474,2.474,0,0,0,.308,1.353,1,1,0,0,0,.894.47,1.123,1.123,0,0,0,1.1-.656V9.541a1.107,1.107,0,0,0-1.086-.656Q53.776,8.885,53.776,10.854ZM58.8,10.72a3.726,3.726,0,0,1,.36-1.667A2.636,2.636,0,0,1,60.2,7.921a3.024,3.024,0,0,1,1.571-.4,2.861,2.861,0,0,1,2.076.778,3.123,3.123,0,0,1,.9,2.114l.012.43a3.284,3.284,0,0,1-.807,2.32,3.129,3.129,0,0,1-4.335,0A3.342,3.342,0,0,1,58.8,10.8Zm1.678.122a2.342,2.342,0,0,0,.337,1.368,1.211,1.211,0,0,0,1.916.006,2.563,2.563,0,0,0,.343-1.5,2.319,2.319,0,0,0-.343-1.359,1.114,1.114,0,0,0-.964-.482,1.1,1.1,0,0,0-.952.479A2.606,2.606,0,0,0,60.478,10.842ZM69.316,9.21a4.559,4.559,0,0,0-.6-.046,1.229,1.229,0,0,0-1.249.645V13.92H65.786V7.636h1.585l.046.749a1.555,1.555,0,0,1,1.4-.865,1.759,1.759,0,0,1,.523.075Zm3.508,1.522a3.787,3.787,0,0,1,.659-2.34,2.139,2.139,0,0,1,1.8-.871,1.924,1.924,0,0,1,1.516.685V5h1.684v8.92H76.97l-.081-.668a1.975,1.975,0,0,1-1.614.784,2.133,2.133,0,0,1-1.78-.874A3.909,3.909,0,0,1,72.824,10.732Zm1.678.122a2.474,2.474,0,0,0,.308,1.353,1,1,0,0,0,.894.47,1.123,1.123,0,0,0,1.1-.656V9.541a1.107,1.107,0,0,0-1.086-.656Q74.5,8.885,74.5,10.854Zm8.177,3.182a3.085,3.085,0,0,1-2.25-.848,3.014,3.014,0,0,1-.868-2.259v-.163a3.8,3.8,0,0,1,.366-1.693,2.685,2.685,0,0,1,1.037-1.15,2.909,2.909,0,0,1,1.53-.4,2.608,2.608,0,0,1,2.03.813,3.3,3.3,0,0,1,.74,2.305v.685h-4a1.559,1.559,0,0,0,.491.987,1.483,1.483,0,0,0,1.037.372,1.812,1.812,0,0,0,1.516-.7l.825.923a2.519,2.519,0,0,1-1.022.833A3.353,3.353,0,0,1,82.679,14.036Zm-.192-5.157a1.051,1.051,0,0,0-.81.337,1.74,1.74,0,0,0-.4.964h2.335v-.134a1.241,1.241,0,0,0-.3-.862A1.085,1.085,0,0,0,82.487,8.879ZM92.818,13.92a1.864,1.864,0,0,1-.168-.563,2.031,2.031,0,0,1-1.585.679,2.231,2.231,0,0,1-1.53-.534,1.718,1.718,0,0,1-.607-1.347,1.776,1.776,0,0,1,.74-1.533,3.654,3.654,0,0,1,2.14-.54h.772v-.36a1.035,1.035,0,0,0-.224-.7.88.88,0,0,0-.706-.261,1,1,0,0,0-.665.2.69.69,0,0,0-.241.557H89.067a1.686,1.686,0,0,1,.337-1.01,2.226,2.226,0,0,1,.952-.729,3.471,3.471,0,0,1,1.382-.264,2.742,2.742,0,0,1,1.844.584,2.042,2.042,0,0,1,.682,1.641v2.724a3,3,0,0,0,.25,1.353v.1ZM91.43,12.753a1.445,1.445,0,0,0,.685-.166,1.087,1.087,0,0,0,.465-.444v-1.08h-.627q-1.26,0-1.341.871l-.006.1a.672.672,0,0,0,.221.517A.857.857,0,0,0,91.43,12.753Zm6.736-.07a1.1,1.1,0,0,0,.755-.256.9.9,0,0,0,.3-.679H100.8a2.153,2.153,0,0,1-.348,1.17,2.3,2.3,0,0,1-.938.825,2.935,2.935,0,0,1-1.315.293,2.728,2.728,0,0,1-2.125-.857,3.39,3.39,0,0,1-.778-2.366V10.7a3.351,3.351,0,0,1,.772-2.317,2.7,2.7,0,0,1,2.12-.865,2.643,2.643,0,0,1,1.89.671,2.375,2.375,0,0,1,.723,1.786H99.224a1.144,1.144,0,0,0-.3-.793,1.125,1.125,0,0,0-1.652.122,2.471,2.471,0,0,0-.3,1.385v.174a2.5,2.5,0,0,0,.3,1.394A1.024,1.024,0,0,0,98.167,12.683Zm7.352.6a2.1,2.1,0,0,1-1.719.755,1.985,1.985,0,0,1-1.542-.581,2.479,2.479,0,0,1-.543-1.7V7.636h1.678V11.7q0,.981.894.981a1.212,1.212,0,0,0,1.173-.592V7.636h1.684V13.92h-1.58Zm4.466-5.645.052.7a2.208,2.208,0,0,1,1.806-.819,1.676,1.676,0,0,1,1.667.958A2.157,2.157,0,0,1,115.4,7.52a1.874,1.874,0,0,1,1.521.6,2.736,2.736,0,0,1,.5,1.792V13.92h-1.684V9.913a1.2,1.2,0,0,0-.209-.781.927.927,0,0,0-.738-.247,1.048,1.048,0,0,0-1.045.72l.006,4.315h-1.678v-4a1.182,1.182,0,0,0-.215-.79.935.935,0,0,0-.732-.244,1.088,1.088,0,0,0-1.034.592V13.92h-1.678V7.636Zm12.486,5.645a2.1,2.1,0,0,1-1.719.755,1.985,1.985,0,0,1-1.542-.581,2.479,2.479,0,0,1-.543-1.7V7.636h1.678V11.7q0,.981.894.981a1.212,1.212,0,0,0,1.173-.592V7.636H124.1V13.92h-1.58Zm4.663.639h-1.684V5h1.684Zm5.023,0a1.864,1.864,0,0,1-.168-.563,2.031,2.031,0,0,1-1.585.679,2.231,2.231,0,0,1-1.53-.534,1.718,1.718,0,0,1-.607-1.347,1.776,1.776,0,0,1,.74-1.533,3.654,3.654,0,0,1,2.14-.54h.772v-.36a1.035,1.035,0,0,0-.224-.7.879.879,0,0,0-.706-.261,1,1,0,0,0-.665.2.691.691,0,0,0-.241.557h-1.678a1.686,1.686,0,0,1,.337-1.01,2.226,2.226,0,0,1,.952-.729,3.471,3.471,0,0,1,1.382-.264,2.742,2.742,0,0,1,1.844.584,2.042,2.042,0,0,1,.682,1.641v2.724a3,3,0,0,0,.25,1.353v.1Zm-1.388-1.167a1.445,1.445,0,0,0,.685-.166,1.087,1.087,0,0,0,.465-.444v-1.08h-.627q-1.26,0-1.341.871l-.006.1a.672.672,0,0,0,.221.517A.857.857,0,0,0,130.769,12.753Zm6.736-.07a1.1,1.1,0,0,0,.755-.256.9.9,0,0,0,.3-.679h1.574a2.153,2.153,0,0,1-.348,1.17,2.3,2.3,0,0,1-.938.825,2.935,2.935,0,0,1-1.315.293,2.728,2.728,0,0,1-2.125-.857,3.39,3.39,0,0,1-.778-2.366V10.7a3.351,3.351,0,0,1,.772-2.317,2.7,2.7,0,0,1,2.12-.865,2.643,2.643,0,0,1,1.89.671,2.375,2.375,0,0,1,.723,1.786h-1.574a1.144,1.144,0,0,0-.3-.793,1.125,1.125,0,0,0-1.652.122,2.471,2.471,0,0,0-.3,1.385v.174a2.5,2.5,0,0,0,.3,1.394A1.024,1.024,0,0,0,137.505,12.683Zm5.36,1.237h-1.684V7.636h1.684ZM141.082,6.01a.826.826,0,0,1,.253-.621,1.089,1.089,0,0,1,1.373,0,.887.887,0,0,1,0,1.249,1.076,1.076,0,0,1-1.365,0A.824.824,0,0,1,141.082,6.01Zm2.9,4.71a3.726,3.726,0,0,1,.36-1.667,2.636,2.636,0,0,1,1.037-1.132,3.024,3.024,0,0,1,1.571-.4,2.861,2.861,0,0,1,2.076.778,3.123,3.123,0,0,1,.9,2.114l.012.43a3.284,3.284,0,0,1-.807,2.32,3.129,3.129,0,0,1-4.335,0,3.342,3.342,0,0,1-.81-2.369Zm1.678.122A2.342,2.342,0,0,0,146,12.21a1.211,1.211,0,0,0,1.916.006,2.563,2.563,0,0,0,.343-1.5,2.319,2.319,0,0,0-.343-1.359,1.114,1.114,0,0,0-.964-.482,1.1,1.1,0,0,0-.952.479A2.606,2.606,0,0,0,145.664,10.842ZM147.285,5h1.829l-1.609,1.8h-1.365Zm5.232,2.636.052.726a2.194,2.194,0,0,1,1.806-.842,1.823,1.823,0,0,1,1.487.587,2.737,2.737,0,0,1,.5,1.754V13.92h-1.678V9.9a1.089,1.089,0,0,0-.232-.775,1.04,1.04,0,0,0-.772-.241,1.155,1.155,0,0,0-1.063.6V13.92h-1.678V7.636ZM62.438,31.876a3.085,3.085,0,0,1-2.25-.848,3.014,3.014,0,0,1-.868-2.259v-.163a3.8,3.8,0,0,1,.366-1.693,2.685,2.685,0,0,1,1.037-1.15,2.909,2.909,0,0,1,1.53-.4,2.608,2.608,0,0,1,2.03.813,3.3,3.3,0,0,1,.74,2.305v.685h-4a1.559,1.559,0,0,0,.491.987,1.483,1.483,0,0,0,1.037.372,1.812,1.812,0,0,0,1.516-.7l.825.923a2.519,2.519,0,0,1-1.022.833A3.353,3.353,0,0,1,62.438,31.876Zm-.192-5.157a1.051,1.051,0,0,0-.81.337,1.74,1.74,0,0,0-.4.964h2.335v-.134a1.241,1.241,0,0,0-.3-.862A1.085,1.085,0,0,0,62.246,26.719Zm5.5,5.041H66.061V22.84h1.684Zm4.274.116a3.085,3.085,0,0,1-2.25-.848,3.014,3.014,0,0,1-.868-2.259v-.163a3.8,3.8,0,0,1,.366-1.693,2.685,2.685,0,0,1,1.037-1.15,2.909,2.909,0,0,1,1.53-.4,2.608,2.608,0,0,1,2.03.813,3.3,3.3,0,0,1,.74,2.305v.685h-4a1.559,1.559,0,0,0,.491.987,1.483,1.483,0,0,0,1.037.372,1.812,1.812,0,0,0,1.516-.7l.825.923a2.519,2.519,0,0,1-1.022.833A3.353,3.353,0,0,1,72.02,31.876Zm-.192-5.157a1.051,1.051,0,0,0-.81.337,1.74,1.74,0,0,0-.4.964h2.335v-.134a1.241,1.241,0,0,0-.3-.862A1.085,1.085,0,0,0,71.828,26.719Zm.151-3.879h1.829L72.2,24.64H70.835Zm6.191,7.683a1.1,1.1,0,0,0,.755-.256.9.9,0,0,0,.3-.679H80.8a2.153,2.153,0,0,1-.348,1.17,2.3,2.3,0,0,1-.938.825,2.935,2.935,0,0,1-1.315.293,2.728,2.728,0,0,1-2.125-.857,3.39,3.39,0,0,1-.778-2.366v-.11a3.351,3.351,0,0,1,.772-2.317,2.7,2.7,0,0,1,2.12-.865,2.643,2.643,0,0,1,1.89.671,2.375,2.375,0,0,1,.723,1.786H79.226a1.144,1.144,0,0,0-.3-.793,1.125,1.125,0,0,0-1.652.122,2.471,2.471,0,0,0-.3,1.385v.174a2.5,2.5,0,0,0,.3,1.394A1.024,1.024,0,0,0,78.17,30.523Zm5.6-6.591v1.545h1.074v1.231H83.768v3.136a.749.749,0,0,0,.134.5.671.671,0,0,0,.511.151,2.676,2.676,0,0,0,.494-.041v1.272a3.455,3.455,0,0,1-1.016.151,1.6,1.6,0,0,1-1.8-1.783V26.708h-.918V25.476h.918V23.932Zm5.54,3.118A4.559,4.559,0,0,0,88.7,27a1.229,1.229,0,0,0-1.249.645V31.76H85.777V25.476h1.585l.046.749a1.555,1.555,0,0,1,1.4-.865,1.758,1.758,0,0,1,.523.075Zm2.578,4.71H90.2V25.476h1.684ZM90.1,23.85a.826.826,0,0,1,.253-.621,1.089,1.089,0,0,1,1.373,0,.887.887,0,0,1,0,1.249,1.076,1.076,0,0,1-1.365,0A.824.824,0,0,1,90.1,23.85Zm5.778,6.673a1.1,1.1,0,0,0,.755-.256.9.9,0,0,0,.3-.679h1.574a2.153,2.153,0,0,1-.348,1.17,2.3,2.3,0,0,1-.938.825,2.935,2.935,0,0,1-1.315.293,2.728,2.728,0,0,1-2.125-.857,3.39,3.39,0,0,1-.778-2.366v-.11a3.351,3.351,0,0,1,.772-2.317,2.7,2.7,0,0,1,2.12-.865,2.643,2.643,0,0,1,1.89.671,2.375,2.375,0,0,1,.723,1.786H96.939a1.144,1.144,0,0,0-.3-.793,1.125,1.125,0,0,0-1.652.122,2.471,2.471,0,0,0-.3,1.385v.174a2.5,2.5,0,0,0,.3,1.394A1.024,1.024,0,0,0,95.882,30.523Zm3.328-1.963a3.726,3.726,0,0,1,.36-1.667,2.636,2.636,0,0,1,1.037-1.132,3.024,3.024,0,0,1,1.571-.4,2.861,2.861,0,0,1,2.076.778,3.123,3.123,0,0,1,.9,2.114l.012.43a3.284,3.284,0,0,1-.807,2.32,3.129,3.129,0,0,1-4.335,0,3.342,3.342,0,0,1-.81-2.369Zm1.678.122a2.342,2.342,0,0,0,.337,1.368,1.211,1.211,0,0,0,1.916.006,2.563,2.563,0,0,0,.343-1.5,2.319,2.319,0,0,0-.343-1.359,1.114,1.114,0,0,0-.964-.482,1.1,1.1,0,0,0-.952.479A2.606,2.606,0,0,0,100.888,28.682Zm5.395,2.253a.845.845,0,0,1,.27-.65,1.049,1.049,0,0,1,1.359,0,.845.845,0,0,1,.27.65.833.833,0,0,1-.267.642,1.067,1.067,0,0,1-1.365,0A.833.833,0,0,1,106.282,30.935Z" transform="translate(641.604 13534.275)" fill="#12263f"/><path d="M72.646,10.256H69.3V12.52h3.926v1.4H67.559V5.465h5.656V6.876H69.3V8.891h3.345Zm3.264,3.664H74.225V5h1.684Zm4.274.116a3.085,3.085,0,0,1-2.25-.848,3.014,3.014,0,0,1-.868-2.259v-.163a3.8,3.8,0,0,1,.366-1.693,2.685,2.685,0,0,1,1.037-1.15A2.909,2.909,0,0,1,80,7.52a2.608,2.608,0,0,1,2.03.813,3.3,3.3,0,0,1,.74,2.305v.685h-4a1.559,1.559,0,0,0,.491.987,1.483,1.483,0,0,0,1.037.372,1.812,1.812,0,0,0,1.516-.7l.825.923a2.519,2.519,0,0,1-1.022.833A3.353,3.353,0,0,1,80.184,14.036Zm-.192-5.157a1.051,1.051,0,0,0-.81.337,1.74,1.74,0,0,0-.4.964h2.335v-.134a1.241,1.241,0,0,0-.3-.862A1.085,1.085,0,0,0,79.992,8.879Zm6.342,3.8a1.1,1.1,0,0,0,.755-.256.9.9,0,0,0,.3-.679h1.574a2.153,2.153,0,0,1-.348,1.17,2.3,2.3,0,0,1-.938.825,2.935,2.935,0,0,1-1.315.293,2.728,2.728,0,0,1-2.125-.857,3.39,3.39,0,0,1-.778-2.366V10.7a3.351,3.351,0,0,1,.772-2.317,2.7,2.7,0,0,1,2.12-.865,2.643,2.643,0,0,1,1.89.671,2.375,2.375,0,0,1,.723,1.786H87.39a1.144,1.144,0,0,0-.3-.793,1.125,1.125,0,0,0-1.652.122,2.471,2.471,0,0,0-.3,1.385v.174a2.5,2.5,0,0,0,.3,1.394A1.024,1.024,0,0,0,86.333,12.683Zm5.6-6.591V7.636h1.074V8.868H91.932V12a.749.749,0,0,0,.134.5.671.671,0,0,0,.511.151,2.676,2.676,0,0,0,.494-.041v1.272a3.455,3.455,0,0,1-1.016.151,1.6,1.6,0,0,1-1.8-1.783V8.868h-.918V7.636h.918V6.092Zm5.54,3.118a4.559,4.559,0,0,0-.6-.046,1.229,1.229,0,0,0-1.249.645V13.92H93.941V7.636h1.585l.046.749a1.555,1.555,0,0,1,1.4-.865A1.759,1.759,0,0,1,97.5,7.6Zm2.578,4.71H98.366V7.636h1.684ZM98.267,6.01a.826.826,0,0,1,.253-.621,1.089,1.089,0,0,1,1.373,0,.887.887,0,0,1,0,1.249,1.076,1.076,0,0,1-1.365,0A.824.824,0,0,1,98.267,6.01Zm5.778,6.673a1.1,1.1,0,0,0,.755-.256.9.9,0,0,0,.3-.679h1.574a2.153,2.153,0,0,1-.348,1.17,2.3,2.3,0,0,1-.938.825,2.935,2.935,0,0,1-1.315.293,2.728,2.728,0,0,1-2.125-.857,3.39,3.39,0,0,1-.778-2.366V10.7a3.351,3.351,0,0,1,.772-2.317,2.7,2.7,0,0,1,2.12-.865,2.643,2.643,0,0,1,1.89.671,2.375,2.375,0,0,1,.723,1.786H105.1a1.144,1.144,0,0,0-.3-.793,1.125,1.125,0,0,0-1.652.122,2.471,2.471,0,0,0-.3,1.385v.174a2.5,2.5,0,0,0,.3,1.394A1.024,1.024,0,0,0,104.046,12.683Zm5.36,1.237h-1.684V7.636h1.684ZM107.623,6.01a.826.826,0,0,1,.253-.621,1.089,1.089,0,0,1,1.373,0,.887.887,0,0,1,0,1.249,1.076,1.076,0,0,1-1.365,0A.824.824,0,0,1,107.623,6.01Zm2.9,4.721a3.787,3.787,0,0,1,.659-2.34,2.139,2.139,0,0,1,1.8-.871,1.924,1.924,0,0,1,1.516.685V5h1.684v8.92h-1.516l-.081-.668a1.975,1.975,0,0,1-1.614.784,2.133,2.133,0,0,1-1.78-.874A3.909,3.909,0,0,1,110.527,10.732Zm1.678.122a2.474,2.474,0,0,0,.308,1.353,1,1,0,0,0,.894.47,1.123,1.123,0,0,0,1.1-.656V9.541a1.107,1.107,0,0,0-1.086-.656Q112.2,8.885,112.2,10.854Zm8.926,3.066a1.864,1.864,0,0,1-.168-.563,2.031,2.031,0,0,1-1.585.679,2.231,2.231,0,0,1-1.53-.534,1.718,1.718,0,0,1-.607-1.347,1.776,1.776,0,0,1,.74-1.533,3.654,3.654,0,0,1,2.14-.54h.772v-.36a1.035,1.035,0,0,0-.224-.7.88.88,0,0,0-.706-.261,1,1,0,0,0-.665.2.691.691,0,0,0-.241.557h-1.678a1.686,1.686,0,0,1,.337-1.01,2.226,2.226,0,0,1,.952-.729,3.471,3.471,0,0,1,1.382-.264,2.742,2.742,0,0,1,1.844.584,2.042,2.042,0,0,1,.682,1.641v2.724a3,3,0,0,0,.25,1.353v.1Zm-1.388-1.167a1.445,1.445,0,0,0,.685-.166,1.087,1.087,0,0,0,.465-.444v-1.08h-.627q-1.26,0-1.341.871l-.006.1a.672.672,0,0,0,.221.517A.857.857,0,0,0,119.743,12.753Zm3.862-2.021a3.787,3.787,0,0,1,.659-2.34,2.139,2.139,0,0,1,1.8-.871,1.924,1.924,0,0,1,1.516.685V5h1.684v8.92h-1.516l-.081-.668a1.975,1.975,0,0,1-1.614.784,2.133,2.133,0,0,1-1.78-.874A3.909,3.909,0,0,1,123.6,10.732Zm1.678.122a2.473,2.473,0,0,0,.308,1.353,1,1,0,0,0,.894.47,1.123,1.123,0,0,0,1.1-.656V9.541a1.107,1.107,0,0,0-1.086-.656Q125.283,8.885,125.283,10.854Z" transform="translate(807.387 13534.275)" fill="#12263f"/><path d="M100.36,6.524l-3.269,7.515H95.32l3.275-7.1h-4.2V5.583h5.97Zm6.765,4.019a4.283,4.283,0,0,1-.726,2.683,2.9,2.9,0,0,1-4.239.017,4.158,4.158,0,0,1-.749-2.613V9.073a4.227,4.227,0,0,1,.735-2.689,2.907,2.907,0,0,1,4.231-.009,4.145,4.145,0,0,1,.749,2.61Zm-1.678-1.707a3.091,3.091,0,0,0-.287-1.53.972.972,0,0,0-.9-.479.954.954,0,0,0-.874.456,2.892,2.892,0,0,0-.3,1.426v2.056a3.244,3.244,0,0,0,.282,1.536.959.959,0,0,0,.9.5.943.943,0,0,0,.889-.482,3.167,3.167,0,0,0,.285-1.475Zm2.787-1.626a1.672,1.672,0,0,1,.505-1.263,1.832,1.832,0,0,1,1.324-.485,1.861,1.861,0,0,1,1.336.479,1.7,1.7,0,0,1,.505,1.3v.418a1.651,1.651,0,0,1-.505,1.26,2.086,2.086,0,0,1-2.657,0,1.691,1.691,0,0,1-.508-1.292Zm1.115.447a.782.782,0,0,0,.2.56.69.69,0,0,0,.526.212.658.658,0,0,0,.517-.215.832.832,0,0,0,.192-.575v-.43a.815.815,0,0,0-.192-.563.747.747,0,0,0-1.045,0,.831.831,0,0,0-.2.589Zm2.927,4.309a1.65,1.65,0,0,1,.511-1.263,1.858,1.858,0,0,1,1.324-.479,1.877,1.877,0,0,1,1.333.473,1.694,1.694,0,0,1,.508,1.3v.418a1.663,1.663,0,0,1-.5,1.257,1.841,1.841,0,0,1-1.33.479,1.863,1.863,0,0,1-1.341-.482,1.684,1.684,0,0,1-.505-1.278Zm1.115.453a.776.776,0,0,0,.209.546.682.682,0,0,0,.523.226q.708,0,.708-.784v-.441a.789.789,0,0,0-.2-.56.75.75,0,0,0-1.045,0,.814.814,0,0,0-.2.578Zm-2.985.987-.819-.441,4.129-6.609.819.441Z" transform="translate(981.141 13534.157)" fill="#12263f"/></g></svg>