<svg xmlns="http://www.w3.org/2000/svg" xmlns:xlink="http://www.w3.org/1999/xlink" width="13.088" height="20.907" viewBox="0 0 13.088 20.907"><defs><clipPath id="a"><rect width="13.088" height="20.907" fill="#ad84ff"/></clipPath></defs><g clip-path="url(#a)"><path d="M5.837,11.76H5.728q-2.35,0-4.7,0a.968.968,0,0,1-.948-.588,1.171,1.171,0,0,1-.057-.685C.116,9.824.2,9.159.291,8.494S.468,7.177.556,6.518.73,5.2.818,4.541Q.959,3.486,1.1,2.431c.07-.521.142-1.042.205-1.564A.985.985,0,0,1,2.314,0C2.822,0,3.33,0,3.838,0H8.129A.968.968,0,0,1,9.135.834a.844.844,0,0,1-.037.42Q8.263,3.837,7.429,6.419a.285.285,0,0,1-.013.043c-.034.066,0,.077.056.071a.544.544,0,0,1,.054,0h4.527a.974.974,0,0,1,1.018.822.909.909,0,0,1-.129.651q-.455.783-.908,1.567Q8.9,14.986,5.772,20.4a1,1,0,0,1-1.25.44.94.94,0,0,1-.573-1.089c.255-1.1.517-2.191.777-3.286l1.106-4.668c0-.009,0-.018,0-.034" transform="translate(0 0)" fill="#ad84ff"/></g></svg>