<svg xmlns="http://www.w3.org/2000/svg" width="94" height="94" viewBox="0 0 94 94"><g transform="translate(0 -0.367)"><circle cx="47" cy="47" r="47" transform="translate(0 0.367)" fill="#382b73"/><circle cx="40.817" cy="40.817" r="40.817" transform="translate(6.378 6.366)" fill="#473080"/><path d="M150.26,123.682c.142,0,.285.012.427.012A11.262,11.262,0,0,0,161.926,113v-.012c0-.083.012-.178.012-.273v-.64a1.6,1.6,0,0,0-.012-.237v-.047c0-.083-.012-.166-.012-.249v-.024c-.012-.083-.012-.178-.024-.261v-.012c-.012-.095-.024-.19-.036-.273h0a11.256,11.256,0,0,0-11.168-9.792c-.13,0-.261,0-.391.012s-.249.012-.379.024h-.095a3.037,3.037,0,0,0,.071-.474c.012-.059.012-.119.024-.166s.012-.095.012-.142c0-.071.012-.13.012-.2a.4.4,0,0,1,.012-.119c0-.107.012-.213.012-.332a7.383,7.383,0,0,0-12.27-5.536A13.331,13.331,0,0,0,114,102a11.279,11.279,0,0,0-6.8,8.144h0c-.024.095-.036.178-.059.273v.024c-.024.154-.047.308-.071.474,0,.036-.012.083-.012.119-.012.071-.012.142-.024.2s-.012.154-.024.225-.012.119-.012.178a2.49,2.49,0,0,0-.012.3v.119c0,.13-.012.261-.012.391v.285a1.929,1.929,0,0,0,.012.261v.024a11.252,11.252,0,0,0,11.239,10.682h6.153c-.213.154-.439.32-.64.486-.439.344-.854.711-1.257,1.091a17.53,17.53,0,0,0-1.423,1.529c-.178.213-.344.439-.522.652-.332.45-.652.913-.936,1.387l-.213.356c-.142.237-.273.486-.4.735s-.249.5-.368.759a17.509,17.509,0,0,0-1.34,4.5c-.071.486-.13.984-.166,1.482v.036c-.012.107-.012.225-.024.332v.13c0,.083-.012.166-.012.261v.806a17.474,17.474,0,0,0,.19,2.252,16.927,16.927,0,0,0,1.34,4.5c.119.261.237.51.368.759s.261.5.4.735l.213.356c.3.474.6.936.936,1.387.166.225.344.439.522.652a15.741,15.741,0,0,0,1.126,1.233,17.652,17.652,0,0,0,1.565,1.387c.213.178.439.344.664.5.344.237.688.474,1.055.688.474.285.972.557,1.482.806.13.059.249.119.379.178.261.119.522.225.782.332a20.241,20.241,0,0,0,2.027.664c.273.071.557.13.842.19a17.485,17.485,0,0,0,7.018,0c.285-.059.569-.118.842-.19a16.232,16.232,0,0,0,2.027-.664c.261-.107.522-.213.782-.332.13-.059.261-.119.379-.178.51-.249,1-.51,1.482-.806.356-.213.711-.45,1.055-.688.225-.166.45-.332.664-.5a17.207,17.207,0,0,0,1.565-1.387c.391-.391.771-.806,1.126-1.233.178-.213.344-.439.522-.652.332-.45.652-.913.936-1.387l.213-.356c.142-.237.273-.486.4-.735s.249-.5.368-.759a17.509,17.509,0,0,0,1.34-4.5,15.739,15.739,0,0,0,.19-2.252v-.806a2.022,2.022,0,0,0-.012-.261v-.13a3.092,3.092,0,0,0-.024-.332v-.036c-.036-.5-.083-1-.166-1.482a16.927,16.927,0,0,0-1.34-4.5c-.118-.261-.237-.51-.368-.759s-.261-.5-.4-.735l-.213-.356c-.285-.474-.6-.936-.936-1.387-.166-.225-.344-.439-.522-.652a17.254,17.254,0,0,0-1.423-1.529c-.4-.379-.818-.747-1.257-1.091-.213-.166-.427-.332-.64-.486l5.691-.012Z" transform="translate(-87.25 -72.824)" fill="#382b73"/><path d="M150.637,88.317c-.3,0-.581.012-.865.036a7.174,7.174,0,0,0,.142-1.434,7.383,7.383,0,0,0-12.27-5.536,13.331,13.331,0,0,0-23.7,7.753,11.257,11.257,0,0,0,4.209,21.695h32.056v-.012c.142,0,.285.012.427.012a11.256,11.256,0,0,0,0-22.513Z" transform="translate(-87.201 -62.33)" fill="#1caee4"/><g transform="translate(19.691 14.084)"><path d="M113.893,91.387a13.331,13.331,0,0,1,23.7-7.753,7.377,7.377,0,0,1,12.175,4.4,6.942,6.942,0,0,0,.083-1.114,7.383,7.383,0,0,0-12.27-5.536,13.331,13.331,0,0,0-23.7,7.753,11.269,11.269,0,0,0-7.042,10.444c0,.379.024.759.059,1.138A11.258,11.258,0,0,1,113.893,91.387Z" transform="translate(-106.839 -76.414)" fill="#27c1e6"/><path d="M339.567,141.835a7.175,7.175,0,0,1-.142,1.434c.285-.024.581-.036.865-.036a11.269,11.269,0,0,1,11.2,10.136c.036-.368.059-.747.059-1.126a11.252,11.252,0,0,0-11.25-11.25c-.261,0-.522.012-.771.024Q339.567,141.426,339.567,141.835Z" transform="translate(-296.557 -129.09)" fill="#27c1e6"/></g><g transform="translate(19.703 27.753)"><path d="M150.636,198.507c-.142,0-.285,0-.427-.012v.012H118.153a11.245,11.245,0,0,1-11.013-8.951,11.384,11.384,0,0,0-.237,2.3,11.252,11.252,0,0,0,11.25,11.25H150.21c.142,0,.285.012.427.012a11.253,11.253,0,0,0,11.013-13.55A11.247,11.247,0,0,1,150.636,198.507Z" transform="translate(-106.903 -182.372)" fill="#009add"/><path d="M183.739,158.378a1.161,1.161,0,0,0-.865-.391h-.9a1.175,1.175,0,0,0-1.162,1.02,2.054,2.054,0,0,1-.522,1.3,2.012,2.012,0,0,1-1.316.356,1.685,1.685,0,0,1-.771-.166,1.562,1.562,0,0,1-.557-.486,2.811,2.811,0,0,1-.415-.889,4.89,4.89,0,0,1-.154-1.292v-1.34a4.844,4.844,0,0,1,.166-1.3,2.461,2.461,0,0,1,.427-.865,1.581,1.581,0,0,1,.581-.474,1.689,1.689,0,0,1,.806-.166,2.27,2.27,0,0,1,.806.119,1.367,1.367,0,0,1,.462.273,1.417,1.417,0,0,1,.3.45,3.787,3.787,0,0,1,.213.842,1.164,1.164,0,0,0,1.15,1.02h.9a1.194,1.194,0,0,0,.865-.379,1.121,1.121,0,0,0,.3-.889,5.6,5.6,0,0,0-.474-1.826,4.488,4.488,0,0,0-1.043-1.458,4.6,4.6,0,0,0-1.565-.925,5.687,5.687,0,0,0-1.9-.3,5.131,5.131,0,0,0-2.158.45,4.545,4.545,0,0,0-1.672,1.28,5.636,5.636,0,0,0-1.031,1.9,7.486,7.486,0,0,0-.344,2.3v1.328a7.485,7.485,0,0,0,.344,2.3,5.825,5.825,0,0,0,1.02,1.9,4.849,4.849,0,0,0,1.66,1.28,5.006,5.006,0,0,0,2.122.45,6.176,6.176,0,0,0,1.932-.3,4.52,4.52,0,0,0,1.577-.913,4.349,4.349,0,0,0,1.055-1.458,5.673,5.673,0,0,0,.474-1.8A1.351,1.351,0,0,0,183.739,158.378Zm12.246-4.137a5.539,5.539,0,0,0-1.055-1.932,4.768,4.768,0,0,0-1.707-1.28,5.478,5.478,0,0,0-4.351,0,4.8,4.8,0,0,0-1.707,1.292,5.9,5.9,0,0,0-1.055,1.921,7.539,7.539,0,0,0-.356,2.371v1.126a7.481,7.481,0,0,0,.356,2.371,5.706,5.706,0,0,0,1.067,1.921,5.06,5.06,0,0,0,1.707,1.28,5.225,5.225,0,0,0,2.17.45,5.32,5.32,0,0,0,2.181-.45,4.908,4.908,0,0,0,1.707-1.28,5.551,5.551,0,0,0,1.043-1.921,7.821,7.821,0,0,0,.344-2.359v-1.138A7.939,7.939,0,0,0,195.985,154.24Zm-2.881,3.5a5.262,5.262,0,0,1-.166,1.375,2.82,2.82,0,0,1-.427.889,1.492,1.492,0,0,1-.581.474,1.946,1.946,0,0,1-.865.166,2.013,2.013,0,0,1-.842-.166,1.714,1.714,0,0,1-.6-.486,2.6,2.6,0,0,1-.439-.889,4.753,4.753,0,0,1-.178-1.363v-1.15a4.753,4.753,0,0,1,.178-1.363,2.632,2.632,0,0,1,.427-.877,1.715,1.715,0,0,1,.6-.486,1.874,1.874,0,0,1,.842-.178,1.979,1.979,0,0,1,.865.178,1.821,1.821,0,0,1,.6.474,2.75,2.75,0,0,1,.427.877,4.754,4.754,0,0,1,.178,1.363v1.162Zm9.081,3.746h-1.612l.688-.782.391-.462c.012-.024.024-.036.036-.036a4.309,4.309,0,0,0,.391-.557,3.559,3.559,0,0,0,.3-.6,2.084,2.084,0,0,0,.13-.7v-.237c-.012-.059-.012-.118-.024-.166,0-.024-.012-.036-.012-.059-.012-.047-.024-.095-.036-.154s-.047-.154-.071-.225a1.908,1.908,0,0,0-.462-.676,2.062,2.062,0,0,0-.723-.415,2.8,2.8,0,0,0-.854-.13,2.356,2.356,0,0,0-.936.178,2.076,2.076,0,0,0-.723.5,2.218,2.218,0,0,0-.462.723,3.287,3.287,0,0,0-.095.32v.012a2.511,2.511,0,0,0-.059.522.4.4,0,0,0,.012.119h0a.585.585,0,0,0,.569.462h.45a.582.582,0,0,0,.581-.581.841.841,0,0,1,.047-.308.646.646,0,0,1,.13-.213.54.54,0,0,1,.19-.13.972.972,0,0,1,.581-.012.488.488,0,0,1,.154.095.675.675,0,0,1,.095.154.865.865,0,0,1,.036.261v.036a.686.686,0,0,1-.024.154,1.971,1.971,0,0,1-.107.249,2.325,2.325,0,0,1-.237.356c-.107.142-.249.308-.4.486L198.3,161.71a.559.559,0,0,0-.142.379v.356a.582.582,0,0,0,.581.581H202.2a.582.582,0,0,0,.581-.581v-.379A.585.585,0,0,0,202.185,161.484Z" transform="translate(-161.522 -150.577)" fill="#009add"/></g><path d="M183.739,151.946a1.161,1.161,0,0,0-.865-.391h-.9a1.175,1.175,0,0,0-1.162,1.02,2.054,2.054,0,0,1-.522,1.3,2.012,2.012,0,0,1-1.316.356,1.685,1.685,0,0,1-.771-.166,1.562,1.562,0,0,1-.557-.486,2.81,2.81,0,0,1-.415-.889,4.89,4.89,0,0,1-.154-1.292v-1.34a4.843,4.843,0,0,1,.166-1.3,2.461,2.461,0,0,1,.427-.865,1.581,1.581,0,0,1,.581-.474,1.689,1.689,0,0,1,.806-.166,2.27,2.27,0,0,1,.806.119,1.367,1.367,0,0,1,.462.273,1.417,1.417,0,0,1,.3.45,3.787,3.787,0,0,1,.213.842,1.164,1.164,0,0,0,1.15,1.02h.9a1.194,1.194,0,0,0,.865-.379,1.121,1.121,0,0,0,.3-.889,5.6,5.6,0,0,0-.474-1.826,4.488,4.488,0,0,0-1.043-1.458,4.6,4.6,0,0,0-1.565-.925,5.687,5.687,0,0,0-1.9-.3,5.131,5.131,0,0,0-2.158.45,4.545,4.545,0,0,0-1.672,1.28,5.636,5.636,0,0,0-1.031,1.9,7.486,7.486,0,0,0-.344,2.3v1.328a7.485,7.485,0,0,0,.344,2.3,5.826,5.826,0,0,0,1.02,1.9,4.849,4.849,0,0,0,1.66,1.28,5.006,5.006,0,0,0,2.122.45,6.177,6.177,0,0,0,1.932-.3,4.52,4.52,0,0,0,1.577-.913,4.349,4.349,0,0,0,1.055-1.458,5.673,5.673,0,0,0,.474-1.8A1.351,1.351,0,0,0,183.739,151.946Zm12.246-4.137a5.539,5.539,0,0,0-1.055-1.932,4.768,4.768,0,0,0-1.707-1.28,5.478,5.478,0,0,0-4.351,0,4.8,4.8,0,0,0-1.707,1.292,5.9,5.9,0,0,0-1.055,1.921,7.539,7.539,0,0,0-.356,2.371v1.126a7.481,7.481,0,0,0,.356,2.371,5.706,5.706,0,0,0,1.067,1.921,5.06,5.06,0,0,0,1.707,1.28,5.225,5.225,0,0,0,2.17.45,5.32,5.32,0,0,0,2.181-.45,4.908,4.908,0,0,0,1.707-1.28,5.551,5.551,0,0,0,1.043-1.921,7.821,7.821,0,0,0,.344-2.359v-1.138A7.939,7.939,0,0,0,195.985,147.808Zm-2.881,3.5a5.262,5.262,0,0,1-.166,1.375,2.82,2.82,0,0,1-.427.889,1.492,1.492,0,0,1-.581.474,1.946,1.946,0,0,1-.865.166,2.012,2.012,0,0,1-.842-.166,1.714,1.714,0,0,1-.6-.486,2.6,2.6,0,0,1-.439-.889,4.753,4.753,0,0,1-.178-1.363v-1.15a4.753,4.753,0,0,1,.178-1.363,2.632,2.632,0,0,1,.427-.877,1.715,1.715,0,0,1,.6-.486,1.874,1.874,0,0,1,.842-.178,1.979,1.979,0,0,1,.865.178,1.82,1.82,0,0,1,.6.474,2.751,2.751,0,0,1,.427.877,4.754,4.754,0,0,1,.178,1.363v1.162Zm9.081,3.746h-1.612l.688-.782.391-.462c.012-.024.024-.036.036-.036a4.31,4.31,0,0,0,.391-.557,3.559,3.559,0,0,0,.3-.6,2.084,2.084,0,0,0,.13-.7v-.237c-.012-.059-.012-.119-.024-.166,0-.024-.012-.036-.012-.059-.012-.047-.024-.095-.036-.154s-.047-.154-.071-.225a1.908,1.908,0,0,0-.462-.676,2.062,2.062,0,0,0-.723-.415,2.8,2.8,0,0,0-.854-.13,2.356,2.356,0,0,0-.936.178,2.076,2.076,0,0,0-.723.5,2.215,2.215,0,0,0-.462.723,3.289,3.289,0,0,0-.095.32v.012a2.51,2.51,0,0,0-.059.522.4.4,0,0,0,.012.119h0a.585.585,0,0,0,.569.462h.45a.582.582,0,0,0,.581-.581.842.842,0,0,1,.047-.308.646.646,0,0,1,.13-.213.54.54,0,0,1,.19-.13.972.972,0,0,1,.581-.012.488.488,0,0,1,.154.095.676.676,0,0,1,.095.154.865.865,0,0,1,.036.261v.036a.686.686,0,0,1-.024.154,1.971,1.971,0,0,1-.107.249,2.325,2.325,0,0,1-.237.356c-.107.142-.249.308-.4.486l-1.826,2.051a.559.559,0,0,0-.142.379v.356a.582.582,0,0,0,.581.581H202.2a.582.582,0,0,0,.581-.581v-.379A.585.585,0,0,0,202.185,155.052Z" transform="translate(-141.819 -117.578)" fill="#fff"/><g transform="translate(32.021 28.464)"><path d="M309.7,204.463h-3.462a.565.565,0,0,1-.4-.166l-.036.036a.581.581,0,0,0-.142.379v.344a.582.582,0,0,0,.581.581H309.7a.582.582,0,0,0,.581-.581v-.368a.565.565,0,0,0-.166-.4A.6.6,0,0,1,309.7,204.463Z" transform="translate(-281.341 -195.098)" fill="#d1d3d4"/><path d="M259.944,157.534a4.754,4.754,0,0,0-.178-1.363,2.633,2.633,0,0,0-.427-.877,1.617,1.617,0,0,0-.6-.486,1.944,1.944,0,0,0-.865-.178,1.874,1.874,0,0,0-.842.178,1.713,1.713,0,0,0-.6.486,2.641,2.641,0,0,0-.439.877,4.753,4.753,0,0,0-.178,1.363v1.174a4.64,4.64,0,0,1,.178-1.34,2.436,2.436,0,0,1,.439-.877,1.714,1.714,0,0,1,.6-.486,1.874,1.874,0,0,1,.842-.178,1.979,1.979,0,0,1,.865.178,1.714,1.714,0,0,1,.6.486,2.633,2.633,0,0,1,.427.877,4.69,4.69,0,0,1,.166,1.352v-1.186Z" transform="translate(-240.68 -154.594)" fill="#d1d3d4"/><path d="M316.564,183.378a2.028,2.028,0,0,1-.13.7,3.175,3.175,0,0,1-.3.6,5.9,5.9,0,0,1-.391.557l-.036.036-.391.462-.688.782H313.7l1.624-1.968c.142-.166.285-.332.427-.51a4.311,4.311,0,0,0,.391-.557,3.559,3.559,0,0,0,.3-.6c.012-.047.036-.095.047-.142.012.047.024.095.036.154,0,.024.012.036.012.059.012.059.012.119.024.166v.119A.622.622,0,0,1,316.564,183.378Z" transform="translate(-287.898 -177.522)" fill="#d1d3d4"/><path d="M197.025,157.14h-.9a1.155,1.155,0,0,1-1.15-1.02,2.822,2.822,0,0,0-.213-.842,1.417,1.417,0,0,0-.3-.45,1.258,1.258,0,0,0-.462-.273,2.573,2.573,0,0,0-.806-.119,1.649,1.649,0,0,0-1.387.64,2.449,2.449,0,0,0-.415.865,4.836,4.836,0,0,0-.166,1.3v1.185a4.844,4.844,0,0,1,.166-1.3,2.452,2.452,0,0,1,.415-.865,1.581,1.581,0,0,1,.581-.474,1.842,1.842,0,0,1,.806-.166,2.27,2.27,0,0,1,.806.119,1.367,1.367,0,0,1,.462.273,1.417,1.417,0,0,1,.3.45,3.788,3.788,0,0,1,.213.842,1.164,1.164,0,0,0,1.15,1.02h.9a1.193,1.193,0,0,0,.865-.379,1.147,1.147,0,0,0,.3-.9,5.136,5.136,0,0,0-.095-.617,1.126,1.126,0,0,1-.2.32A1.142,1.142,0,0,1,197.025,157.14Z" transform="translate(-188.003 -154.437)" fill="#d1d3d4"/><path d="M183.441,180.275a4.4,4.4,0,0,1-1.055,1.458,4.344,4.344,0,0,1-1.577.913,5.9,5.9,0,0,1-1.932.3,5.006,5.006,0,0,1-2.122-.45,4.708,4.708,0,0,1-1.66-1.28,5.71,5.71,0,0,1-1.02-1.9,7.486,7.486,0,0,1-.344-2.3V178.2a7.485,7.485,0,0,0,.344,2.3,5.825,5.825,0,0,0,1.02,1.9,4.849,4.849,0,0,0,1.66,1.28,5.006,5.006,0,0,0,2.122.45,5.852,5.852,0,0,0,1.932-.3,4.71,4.71,0,0,0,1.577-.913,4.517,4.517,0,0,0,1.055-1.458,5.672,5.672,0,0,0,.474-1.8,1.12,1.12,0,0,0-.095-.593A5.533,5.533,0,0,1,183.441,180.275Z" transform="translate(-173.732 -172.854)" fill="#d1d3d4"/><path d="M307.761,182.489v-.036a.865.865,0,0,0-.036-.261.416.416,0,0,0-.095-.154.382.382,0,0,0-.154-.095.889.889,0,0,0-.581.012.45.45,0,0,0-.19.13.935.935,0,0,0-.13.213.842.842,0,0,0-.047.308.582.582,0,0,1-.581.581h-.45a.575.575,0,0,1-.569-.462h0a.262.262,0,0,1-.012-.095,1.428,1.428,0,0,1,.059-.545v-.012a2.385,2.385,0,0,1,.083-.273.537.537,0,0,0,.285.166,1.576,1.576,0,0,0,.332.036,1.061,1.061,0,0,0,.581-.095c.118-.071.213-.19.332-.261a.855.855,0,0,1,.593-.083.8.8,0,0,1,.581.379A.785.785,0,0,1,307.761,182.489Z" transform="translate(-280.731 -176.55)" fill="#d1d3d4"/><path d="M248.607,179.038a5.66,5.66,0,0,1-1.043,1.921,4.668,4.668,0,0,1-1.707,1.28,5.478,5.478,0,0,1-4.351,0,4.872,4.872,0,0,1-1.707-1.28,5.594,5.594,0,0,1-1.067-1.921,7.337,7.337,0,0,1-.356-2.347v1.15a7.481,7.481,0,0,0,.356,2.371,5.705,5.705,0,0,0,1.067,1.921,5.059,5.059,0,0,0,1.707,1.28,5.225,5.225,0,0,0,2.17.45,5.32,5.32,0,0,0,2.181-.45,4.908,4.908,0,0,0,1.707-1.28,5.551,5.551,0,0,0,1.043-1.921,7.821,7.821,0,0,0,.344-2.359V176.7A7.708,7.708,0,0,1,248.607,179.038Z" transform="translate(-226.462 -172.589)" fill="#d1d3d4"/></g><circle cx="17.391" cy="17.391" r="17.391" transform="translate(29.804 45.263)" fill="#ef5a9d"/><path d="M179.1,247.185a17.389,17.389,0,0,1,17.368,16.621c.012-.261.024-.51.024-.771a17.391,17.391,0,0,0-34.783,0c0,.261.012.51.024.771A17.389,17.389,0,0,1,179.1,247.185Z" transform="translate(-131.9 -200.369)" fill="#f06ea9"/><g transform="translate(29.804 52.179)"><path d="M179.1,347.492a17.4,17.4,0,0,1-17.32-15.85c-.047.51-.071,1.02-.071,1.541a17.391,17.391,0,0,0,34.783,0c0-.522-.024-1.031-.071-1.541A17.4,17.4,0,0,1,179.1,347.492Z" transform="translate(-161.704 -322.696)" fill="#e43d91"/><path d="M232.929,319.466a4.845,4.845,0,0,1-.747-3.07c.012-.047.012-.083.024-.13,0-.024.012-.036.012-.059.024-.13.071-.273.107-.415.012-.024.012-.059.024-.083a.5.5,0,0,1,.047-.118.423.423,0,0,1,.047-.107c.024-.059.047-.107.071-.166s.036-.083.059-.13a.71.71,0,0,1,.047-.095c.024-.047.047-.095.071-.154l.036-.071a2.178,2.178,0,0,1,.13-.225.249.249,0,0,1,.047-.071,1.65,1.65,0,0,1,.119-.19c.012-.024.024-.036.036-.059.059-.083.107-.178.178-.261.012-.012.012-.024.024-.036l.178-.249c.012-.012.024-.036.036-.047.071-.095.142-.19.213-.3.012-.012.024-.036.036-.047l.178-.249c.024-.036.047-.071.083-.118s.083-.119.119-.178c.024-.036.047-.083.071-.119a1.192,1.192,0,0,0,.095-.166c.024-.036.047-.083.071-.118a1.436,1.436,0,0,0,.095-.19c.012-.024.036-.059.047-.083a2.364,2.364,0,0,0,.119-.249c.012-.036.036-.071.047-.107s.036-.095.059-.154a.5.5,0,0,1,.047-.119c.012-.047.036-.095.047-.13s.024-.083.036-.118.024-.095.036-.13a.348.348,0,0,0,.024-.107l.036-.213c0-.036.012-.071.012-.107s.012-.083.012-.119v-.332a.233.233,0,0,0-.012-.095c0-.036-.012-.071-.012-.107s-.012-.083-.024-.13a2.042,2.042,0,0,0-.107-.356h0a.66.66,0,0,0-.107-.2h0a1.77,1.77,0,0,0-.13-.19h0a2.338,2.338,0,0,0-1.28-.794c-.012,0-.024-.012-.047-.012-.083-.024-.154-.036-.237-.059-.024,0-.059-.012-.083-.012l-.225-.036c-.036,0-.071-.012-.107-.012-.071-.012-.142-.012-.225-.024a.4.4,0,0,1-.118-.012c-.071,0-.154-.012-.225-.012h-.522a1.749,1.749,0,0,0-.249.024c-.047,0-.095.012-.154.012l-.285.036a.58.58,0,0,1-.142.012c-.142.024-.285.047-.439.071-3.106.569-4.6,1.755-4.766,4.327h0c0,.059-.012.119-.012.178v.747c0,.059.012.13.012.19s.012.154.012.225.012.154.024.225c0,.047.012.095.012.154a3.437,3.437,0,0,0,.047.344c0,.036.012.071.012.107.012.107.036.213.047.332,0,.036.012.059.012.095l.071.427a.518.518,0,0,0,.012.059c.059.32.13.64.2.984v.012c.036.178.083.356.13.545.96,3.9,1.494,6.236,2.454,7.5a2.927,2.927,0,0,0,1.375,1.031,4.884,4.884,0,0,0,.628.166l.225.036h.059c.059,0,.107.012.166.012h.522c.071,0,.142-.012.213-.012h0c.071-.012.142-.012.213-.024a.044.044,0,0,0,.036-.012l.178-.036c.024,0,.036-.012.059-.012l.142-.036a.09.09,0,0,0,.059-.024.671.671,0,0,0,.142-.047c.024-.012.036-.012.059-.024.047-.024.107-.036.154-.059.012,0,.024-.012.036-.012.059-.024.119-.059.19-.083a.042.042,0,0,0,.024-.012.893.893,0,0,0,.142-.083c.024-.012.036-.024.059-.036l.107-.071a.209.209,0,0,0,.059-.047.663.663,0,0,0,.095-.071c.024-.012.036-.036.059-.047a.7.7,0,0,0,.095-.083c.012-.012.036-.024.047-.047a1.34,1.34,0,0,0,.13-.13l.024-.024c.036-.036.071-.083.107-.118a.21.21,0,0,1,.047-.059c.024-.036.047-.059.071-.095a.249.249,0,0,1,.047-.071.667.667,0,0,1,.059-.095l.036-.071a.416.416,0,0,0,.047-.107l.036-.071c.024-.047.036-.095.059-.142,0-.012.012-.024.012-.047.024-.059.036-.13.059-.19,0-.024.012-.047.012-.071a.6.6,0,0,0,.024-.142c0-.024.012-.059.012-.083,0-.047.012-.083.012-.13v-.308a.9.9,0,0,0-.012-.178v-.059a1.467,1.467,0,0,0-.036-.225h0a5.023,5.023,0,0,0-.45-1.352c.012.024.024.036.036.059-.024-.059-.059-.118-.083-.178-.047-.095-.095-.19-.154-.285a.3.3,0,0,0-.047-.083l-.107-.213c-.012-.012-.012-.036-.024-.047C233.332,320.237,233.119,319.833,232.929,319.466Z" transform="translate(-213.7 -303.597)" fill="#e43d91"/><path d="M243.288,287.4l.036.213c0,.012.012.036.012.047a.989.989,0,0,0,.059.2h0c.024.071.047.13.071.19.012.012.012.024.024.047a1.147,1.147,0,0,0,1.031.794c.6-.059,1.02-.865.936-1.826a2.227,2.227,0,0,0-.237-.865c0-.012-.012-.012-.012-.024a1.552,1.552,0,0,0-.142-.237c-.012-.012-.012-.024-.024-.036s-.036-.036-.047-.059-.024-.024-.024-.036c-.024-.024-.047-.059-.071-.083l-.036-.036-.036-.036c-.012-.012-.036-.024-.047-.036s-.024-.012-.036-.024a.3.3,0,0,0-.083-.047.044.044,0,0,0-.036-.012l-.071-.036a.042.042,0,0,1-.024-.012.281.281,0,0,0-.095-.024h-.024c-.024,0-.047-.012-.083-.012h-.119c-.486.047-.854.593-.936,1.3a2.019,2.019,0,0,0-.012.273,1.761,1.761,0,0,0,.012.249A.412.412,0,0,0,243.288,287.4Z" transform="translate(-228.232 -285.025)" fill="#e43d91"/><path d="M259.246,285.425a.108.108,0,0,0,.012.059.342.342,0,0,0,.024.107v.036a.505.505,0,0,1,.024.13v.012a1.181,1.181,0,0,0,.854.96c.617.083,1.233-.617,1.387-1.577,0-.036.012-.059.012-.083.012-.13.024-.261.024-.379v-.154a.4.4,0,0,0-.012-.119l-.036-.249h0a1.882,1.882,0,0,0-.249-.628h0a.855.855,0,0,0-.083-.107h0c-.024-.036-.059-.059-.083-.095h0c-.036-.024-.059-.059-.095-.071l-.012-.012c-.036-.024-.059-.036-.095-.059h-.012c-.036-.012-.071-.036-.107-.047-.012,0-.012,0-.024-.012a.349.349,0,0,0-.107-.024c-.6-.083-1.2.581-1.375,1.494v.012a.7.7,0,0,0-.024.154c0,.036-.012.071-.012.107s-.012.071-.012.107v.261a.58.58,0,0,0,.012.142C259.234,285.377,259.234,285.4,259.246,285.425Z" transform="translate(-241.262 -283.106)" fill="#e43d91"/><path d="M229.773,294.406c.024.083.059.166.083.237a.012.012,0,0,0,.012.012c.036.071.071.154.107.213h0c.3.51.747.818,1.15.7.51-.142.747-.877.569-1.672v-.012a.8.8,0,0,1-.024-.083,2.748,2.748,0,0,0-.119-.332h0a2.729,2.729,0,0,0-.237-.415c0-.012-.012-.012-.012-.024-.024-.024-.036-.047-.059-.071l-.024-.024-.059-.059-.024-.024a.206.206,0,0,0-.059-.047c-.012-.012-.024-.012-.036-.024s-.036-.036-.059-.047l-.024-.024a1.106,1.106,0,0,0-.095-.059.09.09,0,0,0-.047-.024c-.012-.012-.024-.012-.047-.024s-.036-.012-.047-.024-.024-.012-.047-.012-.036-.012-.059-.012a.044.044,0,0,1-.036-.012.108.108,0,0,1-.059-.012h-.13c-.036,0-.059.012-.095.012a.863.863,0,0,0-.557.628h0v.024c-.012.024-.012.059-.024.083v.012a.2.2,0,0,0-.012.083c0,.024-.012.047-.012.071v.249a2.271,2.271,0,0,0,.083.617A.256.256,0,0,0,229.773,294.406Z" transform="translate(-217.159 -290.796)" fill="#e43d91"/><path d="M278.055,288.154c.012-.047.024-.083.036-.13,0-.024.012-.047.012-.071.012-.047.024-.107.036-.154a.071.071,0,0,1,.012-.047.919.919,0,0,0,.024-.178v-.024a1.024,1.024,0,0,0,.012-.19v-.2h0a1.8,1.8,0,0,0-.13-.628h0a.635.635,0,0,0-.059-.13c-.012-.012-.012-.024-.024-.036a.507.507,0,0,0-.047-.083c-.012-.012-.012-.024-.024-.036a.654.654,0,0,0-.083-.107h0a.719.719,0,0,0-.095-.095c-.012-.012-.024-.012-.036-.024a.5.5,0,0,0-.083-.059c-.012-.012-.024-.012-.036-.024a.372.372,0,0,0-.119-.059c-.723-.285-1.672.391-2.122,1.529-.024.059-.047.13-.071.19-.012.024-.012.036-.024.059a.671.671,0,0,1-.047.142c0,.012-.012.036-.012.047l-.036.178c0,.024-.012.036-.012.059a.33.33,0,0,0-.012.107v.024c0,.024-.012.047-.012.071v.107h0v.379c0,.047.012.083.012.13s.012.059.012.095.012.047.012.071.012.059.024.083.012.047.024.071.012.059.024.083.012.036.024.059a.572.572,0,0,0,.036.083c.012.012.012.036.024.047.024.036.047.083.071.118.012.012.024.024.024.036.024.024.036.047.059.071l.036.036.059.059a.165.165,0,0,0,.047.036.264.264,0,0,1,.059.047.09.09,0,0,0,.047.024c.024.012.059.036.083.047a.042.042,0,0,1,.024.012,1.061,1.061,0,0,0,.865-.059,2.678,2.678,0,0,0,1.257-1.47.662.662,0,0,0,.047-.142.17.17,0,0,0,.024-.071C278.043,288.213,278.055,288.19,278.055,288.154Z" transform="translate(-254.202 -285.314)" fill="#e43d91"/><path d="M221.607,305.544c.391-.166.51-.759.3-1.363-.012-.047-.036-.083-.047-.13a1.743,1.743,0,0,0-.486-.676h0a.5.5,0,0,0-.083-.059.012.012,0,0,1-.012-.012c-.024-.012-.047-.036-.071-.047s-.012-.012-.024-.012l-.071-.036c-.012,0-.012,0-.024-.012s-.047-.012-.059-.024a.044.044,0,0,1-.036-.012c-.024,0-.036-.012-.059-.012h-.166a.09.09,0,0,0-.047.012.044.044,0,0,0-.036.012.792.792,0,0,1-.083.024.6.6,0,0,0-.3.3c-.012.012-.012.036-.024.047a1.576,1.576,0,0,0,.071,1.15C220.635,305.33,221.2,305.721,221.607,305.544Z" transform="translate(-209.42 -299.455)" fill="#e43d91"/></g><path d="M229.46,286.287c2.6-3.474,1.126-5.892-3.438-5.05s-5.643,2.976-4.173,8.939,1.932,8.275,4.458,8.7,5.086-1.363,3.367-4.695S226.863,289.76,229.46,286.287Zm3.284-9.247c-.723-.285-1.671.391-2.122,1.529s-.237,2.288.474,2.573,1.671-.391,2.122-1.529S233.466,277.324,232.743,277.04Zm-2.952.854v-.036a.405.405,0,0,0-.012-.118l-.036-.249h0a1.212,1.212,0,0,0-.877-1.067c-.6-.083-1.2.581-1.375,1.494v.012a.7.7,0,0,0-.024.154c0,.036-.012.071-.012.107s-.012.071-.012.107v.261c.024.806.391,1.435.936,1.517.617.083,1.233-.617,1.387-1.577,0-.036.012-.059.012-.083.012-.13.024-.261.024-.379A.621.621,0,0,1,229.792,277.893Zm-3.094.628c-.083-.948-.652-1.684-1.257-1.624-.486.047-.854.593-.936,1.3a2.019,2.019,0,0,0-.012.273,1.761,1.761,0,0,0,.012.249c0,.036.012.083.012.118.119.889.664,1.553,1.233,1.506C226.365,280.3,226.792,279.482,226.7,278.521Zm-2.691,1.055v-.012a.8.8,0,0,1-.024-.083c-.225-.83-.842-1.387-1.363-1.245a.863.863,0,0,0-.557.628h0v.024c-.012.024-.012.059-.024.083v.012a.2.2,0,0,0-.012.083c0,.024-.012.047-.012.071v.249a2.271,2.271,0,0,0,.083.617c.012.024.012.047.024.071.237.794.83,1.316,1.352,1.174C223.947,281.106,224.184,280.371,224.006,279.577Zm-2.051,1.612c-.012-.047-.036-.083-.047-.13-.273-.652-.83-1.031-1.245-.865a.6.6,0,0,0-.3.3c-.012.012-.012.036-.024.047a1.577,1.577,0,0,0,.071,1.15c.273.652.83,1.031,1.245.865C222.05,282.386,222.169,281.793,221.955,281.189Z" transform="translate(-179.668 -225.47)" fill="#fede3a"/><g transform="translate(40.597 50.946)"><path d="M229.618,288.077a2.113,2.113,0,0,0,.2.474,2.147,2.147,0,0,1-.095-.249c-.012-.024-.012-.047-.024-.071a2.325,2.325,0,0,1-.083-.617v-.249a.151.151,0,0,1,.012-.071c0-.024.012-.059.012-.083V287.2a.707.707,0,0,1,.024-.083v-.024h0a.842.842,0,0,1,.557-.628c.4-.107.854.19,1.138.7-.285-.64-.794-1.043-1.257-.913a.863.863,0,0,0-.557.628h0v.024c-.012.024-.012.059-.024.083V287a.2.2,0,0,0-.012.083c0,.024-.012.047-.012.071v.249a2.27,2.27,0,0,0,.083.617A.066.066,0,0,1,229.618,288.077Z" transform="translate(-227.797 -284.418)" fill="#fff335"/><path d="M259.259,278.77v-.261a.33.33,0,0,1,.012-.107c0-.036.012-.071.012-.107s.012-.107.024-.154v-.012c.178-.925.771-1.577,1.375-1.494a.933.933,0,0,1,.664.486,1.05,1.05,0,0,0-.771-.7c-.6-.083-1.2.581-1.375,1.494v.012a.7.7,0,0,0-.024.154c0,.036-.012.071-.012.107s-.012.071-.012.107v.261a2.1,2.1,0,0,0,.273,1.02A2.438,2.438,0,0,1,259.259,278.77Z" transform="translate(-251.985 -276.416)" fill="#fff335"/><path d="M275.5,281.255c.45-1.126,1.411-1.814,2.122-1.529a.971.971,0,0,1,.474.427,1.078,1.078,0,0,0-.581-.64c-.723-.285-1.672.391-2.122,1.529a2.492,2.492,0,0,0,0,2.146A2.7,2.7,0,0,1,275.5,281.255Z" transform="translate(-265.035 -278.889)" fill="#fff335"/><path d="M243.289,281.013a2.536,2.536,0,0,0,.3.889,2.881,2.881,0,0,1-.19-.664c0-.036-.012-.083-.012-.119a1.758,1.758,0,0,1-.012-.249,2.1,2.1,0,0,1,.012-.273c.071-.711.439-1.257.936-1.3a1.054,1.054,0,0,1,.948.64c-.237-.545-.628-.889-1.055-.854-.486.047-.854.593-.936,1.3a2.019,2.019,0,0,0-.012.273,1.761,1.761,0,0,0,.012.249A.367.367,0,0,0,243.289,281.013Z" transform="translate(-239.026 -278.588)" fill="#fff335"/><path d="M220.521,298.486a1.578,1.578,0,0,1-.071-1.15c.012-.012.012-.036.024-.047a.6.6,0,0,1,.3-.3c.368-.154.842.13,1.138.64-.273-.652-.83-1.031-1.245-.854a.6.6,0,0,0-.3.3c-.012.012-.012.036-.024.047a1.577,1.577,0,0,0,.071,1.15l.107.213Z" transform="translate(-220.265 -292.99)" fill="#fff335"/><path d="M267.007,364.559c-.356-.7-.7-1.3-.972-1.849.3.593.652,1.245,1.055,2.027A1.232,1.232,0,0,0,267.007,364.559Z" transform="translate(-257.599 -346.805)" fill="#fff335"/><path d="M226.242,310.978c-1.47-5.963-.391-8.1,4.173-8.939,2.347-.427,3.865,0,4.446.984-.474-1.138-2.051-1.66-4.552-1.2-4.564.842-5.643,2.976-4.173,8.939a35.78,35.78,0,0,0,2.027,6.828A40.746,40.746,0,0,1,226.242,310.978Z" transform="translate(-224.551 -297.006)" fill="#fff335"/></g><g transform="translate(40.597 52.008)"><path d="M244.521,287.095c-.581.047-1.114-.617-1.233-1.506,0-.036-.012-.083-.012-.118a1.761,1.761,0,0,1-.012-.249,2.106,2.106,0,0,1,.012-.273,2.02,2.02,0,0,1,.047-.261c.166.794.664,1.375,1.209,1.328.427-.036.771-.462.889-1.043a2.54,2.54,0,0,1,.047.3C245.553,286.229,245.126,287.047,244.521,287.095Z" transform="translate(-239.026 -284.226)" fill="#f7cb15"/><path d="M261.511,282.724c0,.13-.012.249-.024.379,0,.024-.012.059-.012.083-.166.96-.771,1.66-1.387,1.577-.533-.071-.913-.711-.936-1.517v-.261a.33.33,0,0,1,.012-.107c0-.036.012-.071.012-.107s.012-.107.024-.154v-.012a1.212,1.212,0,0,0,.877,1.067c.6.083,1.2-.581,1.375-1.494h0a1.8,1.8,0,0,1,.036.249c0,.036.012.071.012.118v.036A.62.62,0,0,1,261.511,282.724Z" transform="translate(-251.985 -282.179)" fill="#f7cb15"/><path d="M231.021,292.087c-.51.142-1.1-.379-1.352-1.174-.012-.024-.012-.047-.024-.071a2.325,2.325,0,0,1-.083-.617v-.249a.151.151,0,0,1,.012-.071c0-.024.012-.059.012-.083v-.012a.708.708,0,0,1,.024-.083V289.7c0,.024.012.036.012.059.225.83.842,1.387,1.363,1.245a.863.863,0,0,0,.557-.628c0,.012,0,.012.012.024v.012C231.768,291.21,231.531,291.945,231.021,292.087Z" transform="translate(-227.849 -288.317)" fill="#f7cb15"/><path d="M278.026,285.176c-.45,1.138-1.411,1.814-2.122,1.529a1.21,1.21,0,0,1-.664-.889c-.178.913.071,1.719.664,1.956.723.285,1.672-.391,2.122-1.529a2.859,2.859,0,0,0,.178-1.684A4.023,4.023,0,0,1,278.026,285.176Z" transform="translate(-265.061 -284.12)" fill="#f7cb15"/><path d="M263.3,313.2c-1.316,1.766-1.683,2.916-1.506,4.054a7.034,7.034,0,0,1,1.506-2.976c1.043-1.4,1.435-2.632,1.221-3.545A6.24,6.24,0,0,1,263.3,313.2Z" transform="translate(-254.108 -305.474)" fill="#f7cb15"/><path d="M230.613,338.228c-2.525-.415-2.976-2.738-4.458-8.7a18.488,18.488,0,0,1-.593-3.545,15.758,15.758,0,0,0,.593,4.612c1.47,5.963,1.932,8.275,4.458,8.7,2.122.356,4.268-.854,3.877-3.236C234.181,337.73,232.391,338.525,230.613,338.228Z" transform="translate(-224.572 -317.909)" fill="#f7cb15"/><path d="M221.659,300.581c-.415.178-.972-.213-1.245-.865a1.578,1.578,0,0,1-.071-1.15c.012-.012.012-.036.024-.047.012.047.036.083.047.13.273.652.83,1.031,1.245.865a.6.6,0,0,0,.3-.3C222.169,299.822,222.05,300.415,221.659,300.581Z" transform="translate(-220.265 -295.507)" fill="#f7cb15"/></g></g></svg>