<svg xmlns="http://www.w3.org/2000/svg" width="94" height="94" viewBox="0 0 94 94"><g transform="translate(0 0)"><path d="M47,94A47,47,0,0,1,13.766,13.766,46.693,46.693,0,0,1,47,0,47.288,47.288,0,0,1,67.3,4.609a2.754,2.754,0,1,1-2.378,4.968,41.494,41.494,0,1,0,22.2,26.844,2.754,2.754,0,0,1,5.326-1.4A47,47,0,0,1,47,94Z" transform="translate(0 0)" fill="#4793ff"/></g><path d="M193.591,113.184a2.754,2.754,0,0,0-2.38-1.368h-9.8l1.206-18.888a2.754,2.754,0,0,0-5.146-1.53l-19.15,33.9a2.754,2.754,0,0,0,2.4,4.108h9.8l-1.141,18.624a2.754,2.754,0,0,0,5.144,1.527l19.078-33.628A2.753,2.753,0,0,0,193.591,113.184Z" transform="translate(-128.967 -73.475)" fill="#ffd321"/><path d="M273.624,113.184a2.754,2.754,0,0,0-2.38-1.368h-9.8l1.206-18.888a2.754,2.754,0,0,0-5.146-1.53L256,94.068v52.953l17.639-31.092A2.754,2.754,0,0,0,273.624,113.184Z" transform="translate(-209 -73.475)" fill="#ffb454"/><g transform="translate(47 0)"><path d="M256,5.508a41.744,41.744,0,0,1,17.919,4.069A2.754,2.754,0,1,0,276.3,4.609,47.286,47.286,0,0,0,256,0Z" transform="translate(-256 0)" fill="#525cdd"/><path d="M301.446,181.6a2.754,2.754,0,0,0-5.326,1.4A41.492,41.492,0,0,1,256,235.074v5.508A47,47,0,0,0,301.446,181.6Z" transform="translate(-256 -146.582)" fill="#525cdd"/></g><g transform="translate(82.279 8.622)"><path d="M456.207,56.112a2.739,2.739,0,0,1-1.558-.485l-5.294-3.641a2.754,2.754,0,1,1,3.121-4.538l5.294,3.641a2.754,2.754,0,0,1-1.563,5.023Z" transform="translate(-448.16 -46.962)" fill="#727997"/></g><g transform="translate(75.309 18.757)"><path d="M418.24,111.314a2.739,2.739,0,0,1-1.558-.485l-5.294-3.641a2.754,2.754,0,1,1,3.121-4.538l5.294,3.641a2.754,2.754,0,0,1-1.563,5.023Z" transform="translate(-410.194 -102.164)" fill="#727997"/></g><g transform="translate(62.959 0.191)"><path d="M356.176,26.516a2.753,2.753,0,0,1-1.561-.485L347.733,21.3a11.1,11.1,0,0,1,4.276-20.064,11.029,11.029,0,0,1,8.313,1.76L367.2,7.727a2.754,2.754,0,0,1,.708,3.83l-9.468,13.765a2.756,2.756,0,0,1-2.269,1.193Z" transform="translate(-342.926 -1.043)" fill="#00607f"/></g></svg>