<svg xmlns="http://www.w3.org/2000/svg" width="94" height="94" viewBox="0 0 94 94"><g transform="translate(-0.5 -0.5)"><g transform="translate(0.5 0.5)"><path d="M94.5,47.5a47,47,0,1,1-47-47A47.044,47.044,0,0,1,94.5,47.5Z" transform="translate(-0.5 -0.5)" fill="#f04d45"/></g><path d="M55.763,102.309a47.031,47.031,0,0,0,45.972-38.775L68.027,29.9,42.911,33.645,55.028,45.762,30.5,76.973Z" transform="translate(-7.969 -7.809)" fill="#cd2f30"/><g transform="translate(21.65 21.063)"><g transform="translate(0 23.5)"><g transform="translate(2.791 2.938)"><path d="M33.1,64.5H79.219V84.108H33.1Z" transform="translate(-33.1 -64.5)" fill="#545e70"/></g><path d="M35.322,63.511V82.972a3.011,3.011,0,1,1-6.022,0V63.511a3.123,3.123,0,0,1,.881-2.13,2.941,2.941,0,0,1,2.13-.881A2.978,2.978,0,0,1,35.322,63.511Z" transform="translate(-29.3 -60.5)" fill="#fff"/><path d="M97.522,63.511V82.972a3.011,3.011,0,1,1-6.022,0V63.511a3.123,3.123,0,0,1,.881-2.13,2.941,2.941,0,0,1,2.13-.881A2.978,2.978,0,0,1,97.522,63.511Z" transform="translate(-45.822 -60.5)" fill="#fff"/></g><g transform="translate(16.303 3.966)"><path d="M67.583,33.9l-6.536,7.931L54.511,33.9H51.5l7.344,8.886a2.842,2.842,0,0,0,4.406,0L70.594,33.9Z" transform="translate(-51.5 -33.9)" fill="#ffcd0a"/></g><g transform="translate(23.72 4.406)"><path d="M61.6,34.5h4.333V47.425H61.6Z" transform="translate(-61.6 -34.5)" fill="#fff"/></g><path d="M68.484,53.063V59.6H56V53.062A1.787,1.787,0,0,1,57.763,51.3h8.886a1.8,1.8,0,0,1,1.836,1.763Z" transform="translate(-36.392 -34.556)" fill="#545e70"/><path d="M75.094,71.87A16.6,16.6,0,1,1,58.5,55.2,16.58,16.58,0,0,1,75.094,71.87Z" transform="translate(-32.647 -35.592)" fill="#fff"/><g transform="translate(14.1 24.528)"><g transform="translate(10.281)"><path d="M65.438,63.369A1.469,1.469,0,1,1,63.969,61.9,1.473,1.473,0,0,1,65.438,63.369Z" transform="translate(-62.5 -61.9)" fill="#cfd5df"/><g transform="translate(0 20.489)"><path d="M65.438,91.269A1.469,1.469,0,1,1,63.969,89.8,1.473,1.473,0,0,1,65.438,91.269Z" transform="translate(-62.5 -89.8)" fill="#cfd5df"/></g></g><g transform="translate(3.011 3.011)"><g transform="translate(14.541)"><path d="M74.9,68.5a1.454,1.454,0,1,1,0-2.056A1.486,1.486,0,0,1,74.9,68.5Z" transform="translate(-72.4 -66)" fill="#cfd5df"/></g><g transform="translate(0 14.467)"><path d="M55.1,88.2a1.454,1.454,0,1,1,0-2.056A1.419,1.419,0,0,1,55.1,88.2Z" transform="translate(-52.6 -85.7)" fill="#cfd5df"/></g></g><g transform="translate(0 10.281)"><g transform="translate(20.563)"><path d="M77.969,78.838a1.469,1.469,0,1,1,1.469-1.469A1.473,1.473,0,0,1,77.969,78.838Z" transform="translate(-76.5 -75.9)" fill="#cfd5df"/></g><path d="M49.969,78.838a1.469,1.469,0,1,1,1.469-1.469A1.473,1.473,0,0,1,49.969,78.838Z" transform="translate(-48.5 -75.9)" fill="#cfd5df"/></g><g transform="translate(3.011 3.011)"><g transform="translate(14.541 14.541)"><path d="M72.841,88.3a1.454,1.454,0,1,1,2.056,0A1.564,1.564,0,0,1,72.841,88.3Z" transform="translate(-72.4 -85.8)" fill="#cfd5df"/></g><path d="M53.041,68.5a1.454,1.454,0,1,1,2.056,0A1.419,1.419,0,0,1,53.041,68.5Z" transform="translate(-52.6 -66)" fill="#cfd5df"/></g></g><g transform="translate(12.558)"><path d="M72.984,31.364a2.868,2.868,0,0,1-2.864,2.864H49.264a2.864,2.864,0,1,1,0-5.728H70.12A2.868,2.868,0,0,1,72.984,31.364Z" transform="translate(-46.4 -28.5)" fill="#ffcd0a"/></g></g></g></svg>