<svg xmlns="http://www.w3.org/2000/svg" width="89.913" height="93.951" viewBox="0 0 89.913 93.951"><g transform="translate(-11.002 0)"><path d="M55.959,22a44.96,44.96,0,0,0-24.165,82.872h48.33A44.96,44.96,0,0,0,55.959,22Z" transform="translate(0 -17.967)" fill="#0b78db"/><path d="M178.527,16.373a.651.651,0,0,1-.155-.1L175.3,13.448a.649.649,0,0,1-.116-.146l-.586.637a2.072,2.072,0,0,1-1.941.618,4.432,4.432,0,0,0-4.143,1.346l-1.251,1.36s-1.066,3.194-6.163,6.7l-2.89,3.144a2.013,2.013,0,0,0,.119,2.845l5.014,4.609a2.013,2.013,0,0,0,2.845-.119l2.89-3.144c1.785-4.083,6.163-6.7,6.163-6.7l1.251-1.36A4.432,4.432,0,0,0,177.488,19a2.072,2.072,0,0,1,.453-1.986Z" transform="translate(-119.764 -10.861)" fill="#86d8fc"/><path d="M176.854,58.039c-1.671,0-1.671.621-3.341.621s-1.671-.621-3.341-.621-1.67.621-3.341.621c-1.435,0-1.64-.457-2.727-.586a24.1,24.1,0,0,1-3,2.422l-2.89,3.144a2.013,2.013,0,0,0,.119,2.845l5.014,4.609a2.013,2.013,0,0,0,2.845-.119l2.89-3.144c1.785-4.083,6.163-6.7,6.163-6.7l1.251-1.36a4.414,4.414,0,0,0,.972-1.693,5.153,5.153,0,0,0-.612-.034Z" transform="translate(-119.764 -47.389)" fill="#3ab0fa"/><path d="M204.322,152.777h3.907l4.558-4.818a1.359,1.359,0,0,0-.053-1.922l-2.848-2.694-7.629.211-2.695,2.848a1.359,1.359,0,0,0,.053,1.922Z" transform="translate(-153.656 -117.04)" fill="#dadfe3"/><path d="M208.4,151.432a27.57,27.57,0,0,0-2.661-2.141c-1.59-1.132-.551-2.242-.551-2.242l-1.16-2.824-1.773.049-2.695,2.848a1.359,1.359,0,0,0,.053,1.922l4.707,4.453h3.907l1.6-1.691A1.6,1.6,0,0,1,208.4,151.432Z" transform="translate(-153.656 -117.76)" fill="#cbd3d8"/><path d="M103.7,236.164H94.2l5.524,43.574a44.84,44.84,0,0,0,5.48,2.986h.511Z" transform="translate(-67.935 -192.829)" fill="#38c674"/><path d="M357.055,236.164l-2.015,46.558h.511a44.882,44.882,0,0,0,5.481-2.986l5.524-43.574Z" transform="translate(-280.908 -192.829)" fill="#50dd89"/><path d="M361.818,334.8a3.389,3.389,0,0,0,3.362-2.962l1.782-14.058a3.976,3.976,0,1,0-7.916-.672l-.612,14.157A3.388,3.388,0,0,0,361.818,334.8Z" transform="translate(-283.675 -255.813)" fill="#70f2a4"/><path d="M144.859,282.722a45.056,45.056,0,0,0,37.369,0l2.094-46.558H142.765Z" transform="translate(-107.585 -192.829)" fill="#38c674"/><path d="M144.859,282.721a44.788,44.788,0,0,0,18.684,4.057c.578,0,1.153-.015,1.726-.037-2.629-4.825,2.394-7.843,2.394-7.843l-1.089-7.513c-11.2-2.027-8.592-12.865-8.592-12.865l-.1-8.2c-4.865-3.2-1.393-8.274-1.393-8.274v-1.905a2.553,2.553,0,0,1,0-3.617l-.568-.359H142.765Z" transform="translate(-107.585 -192.827)" fill="#1ba552"/><g transform="translate(25.941 47.311)"><path d="M151.5,259.736H93.37a.953.953,0,1,1,0-1.905H151.5a.953.953,0,1,1,0,1.905Z" transform="translate(-92.417 -257.831)" fill="#70f2a4"/></g><path d="M114.609,258.784a.953.953,0,0,1,.953-.953H93.37a.953.953,0,1,0,0,1.905h22.192A.953.953,0,0,1,114.609,258.784Z" transform="translate(-66.476 -210.52)" fill="#50dd89"/><g transform="translate(25.194 35.546)"><path d="M88.509,196.861h61.2a1.248,1.248,0,0,1,.165.012v-.788a2.376,2.376,0,0,0-2.369-2.369H90.713a2.376,2.376,0,0,0-2.369,2.369v.788A1.217,1.217,0,0,1,88.509,196.861Z" transform="translate(-88.344 -193.716)" fill="#50dd89"/><path d="M112.049,193.716H90.713a2.376,2.376,0,0,0-2.369,2.369v.788a1.248,1.248,0,0,1,.165-.012h23.72a.454.454,0,0,0-.18-.381A1.586,1.586,0,0,1,112.049,193.716Z" transform="translate(-88.344 -193.716)" fill="#38c674"/></g><path d="M303.129,93.566,299,86.458l-3.315-4.168L287.6,88.923l4.893,4.375a10.873,10.873,0,0,1,4.492,4.017l.747.668a1.34,1.34,0,0,0,1.743.037l3.344-2.746A1.339,1.339,0,0,0,303.129,93.566Z" transform="translate(-225.845 -67.19)" fill="#ff4155"/><path d="M296.987,97.316l.747.668a1.34,1.34,0,0,0,1.743.037l2.365-1.942a2.374,2.374,0,0,1-1.8-.967l-4.367-5.2a2.363,2.363,0,0,1,.312-3.346l1.872-1.535-2.178-2.738L287.6,88.923l4.893,4.376A10.869,10.869,0,0,1,296.987,97.316Z" transform="translate(-225.845 -67.19)" fill="#e80054"/><g transform="translate(61.745 10.138)"><path d="M291.7,63.937a.952.952,0,0,1-.8-.433l-3.21-4.926a.953.953,0,0,1,.194-1.256l2.257-1.853a.953.953,0,0,1,1.209,1.473l-1.6,1.311,2.744,4.211a.953.953,0,0,1-.8,1.473Z" transform="translate(-287.537 -55.252)" fill="#dadfe3"/><path d="M297.341,78.916s-.069,1.062-1.582,1.062l1.856,2.848a.953.953,0,0,0,1.6-1.04Z" transform="translate(-294.25 -74.574)" fill="#cbd3d8"/></g><circle cx="2.513" cy="2.513" r="2.513" transform="translate(76.719 15.959) rotate(-67.486)" fill="#ffdd40"/><path d="M384.433,71.648a1.195,1.195,0,1,1-1.195-1.195A1.195,1.195,0,0,1,384.433,71.648Z" transform="translate(-302.956 -57.525)" fill="#fff2bd"/><path d="M314.266,91.092l4.492,4.017,2.009-10.858-2.712-4.664L316.1,81.2Z" transform="translate(-247.616 -64.984)" fill="#ffdd40"/><path d="M319.643,90.323l-2.2-2.62a2.363,2.363,0,0,1,.312-3.346l2.08-1.705-1.781-3.063L316.1,81.2l-1.831,9.9,4.492,4.017Z" transform="translate(-247.615 -64.985)" fill="#ffb332"/><path d="M215.9,143.553l2.933,2.775a1.359,1.359,0,0,0,1.922-.053l2.775-2.933Z" transform="translate(-167.301 -117.039)" fill="#edf1f4"/><path d="M257.48,2.995,254.41.173a.657.657,0,0,0-.929.039L252.023,1.8a.657.657,0,0,0,.039.929l3.069,2.822a.657.657,0,0,0,.929-.039l1.458-1.586a.657.657,0,0,0-.039-.929Z" transform="translate(-196.653 0)" fill="#edf1f4"/><path d="M254.63,2.749a1.959,1.959,0,0,1,1.974-.559L254.411.173a.657.657,0,0,0-.928.039L252.025,1.8a.657.657,0,0,0,.039.929l2.153,1.98a1.96,1.96,0,0,1,.413-1.958Z" transform="translate(-196.654)" fill="#dadfe3"/><path d="M143.1,150.167l-1.115.586a1.287,1.287,0,0,0-.538,1.732l.586,1.115a1.287,1.287,0,0,0,1.732.538l1.115-.586a1.287,1.287,0,0,0,.538-1.732l-.586-1.115A1.286,1.286,0,0,0,143.1,150.167Z" transform="translate(-106.392 -122.493)" fill="#50dd89"/><path d="M148.92,153.293l-.557.293a.643.643,0,0,0-.269.866l.293.557a.643.643,0,0,0,.866.269l.557-.293a.643.643,0,0,0,.269-.866l-.293-.557A.643.643,0,0,0,148.92,153.293Z" transform="translate(-111.876 -125.104)" fill="#70f2a4"/><path d="M211.609,313.3h-5.673a2.155,2.155,0,0,0-1.824,1.008l-2.435,3.875a.339.339,0,0,0,.1.462l4.266,2.858a.339.339,0,0,0,.476-.1Z" transform="translate(-155.644 -255.813)" fill="#edf1f4"/><path d="M189.369,436.258H193.8a.339.339,0,0,0,.339-.339v-5.132a.339.339,0,0,0-.339-.339h-9.1l2.906,4.818A2.055,2.055,0,0,0,189.369,436.258Z" transform="translate(-141.827 -351.461)" fill="#cbd3d8"/><path d="M310.137,378.193l-2.231-3.549a.339.339,0,0,0-.465-.108l-4.374,2.686a.339.339,0,0,0-.11.47l4.44,7.063h0l2.756-4.568A1.9,1.9,0,0,0,310.137,378.193Z" transform="translate(-238.34 -305.768)" fill="#edf1f4"/><path d="M259.6,319.961a.585.585,0,0,0,.1,1.047l5.23,1.964a.585.585,0,0,0,.787-.484l.23-2.087.383-3.466a.585.585,0,0,0-.888-.563l-.154.095a.339.339,0,0,1-.465-.108l-1.171-1.863a2.547,2.547,0,0,0-2.156-1.192h-5.456l3.828,6.09a.339.339,0,0,1-.11.47Z" transform="translate(-200.073 -255.814)" fill="#edf1f4"/><path d="M175.635,372.774a.245.245,0,0,0,.381-.221l-.451-6.391a.584.584,0,0,0-.766-.513l-2.392.792-3.033,1a.584.584,0,0,0-.141,1.04l.222.149a.339.339,0,0,1,.1.462l-1.2,1.916a1.783,1.783,0,0,0-.017,1.87l2.794,4.631,3.247-5.165a.339.339,0,0,1,.476-.1Z" transform="translate(-128.25 -298.529)" fill="#cbd3d8"/><path d="M256.572,424.208a.339.339,0,0,1-.339-.339v-.46a.6.6,0,0,0-.971-.475l-5.111,3.973a.263.263,0,0,0,0,.414l2.136,1.661,2.974,2.312a.6.6,0,0,0,.971-.475v-.46a.339.339,0,0,1,.339-.339h3.147a1.8,1.8,0,0,0,1.542-.871l2.98-4.94h-7.67Z" transform="translate(-195.183 -345.222)" fill="#edf1f4"/><path d="M144.866,214.164h-61.2a1.253,1.253,0,0,1-1.253-1.253v-2.878a1.253,1.253,0,0,1,1.253-1.253h61.2a1.253,1.253,0,0,1,1.253,1.253v2.878A1.253,1.253,0,0,1,144.866,214.164Z" transform="translate(-58.307 -170.47)" fill="#70f2a4"/><path d="M368.024,212.911v-2.878a1.253,1.253,0,0,0-1.253-1.253h-9.891a2.692,2.692,0,0,0,0,5.383h9.891A1.253,1.253,0,0,0,368.024,212.911Z" transform="translate(-280.213 -170.47)" fill="#9dfcc4"/><path d="M104.515,211.473a2.692,2.692,0,0,1,2.692-2.692H83.666a1.253,1.253,0,0,0-1.253,1.253v2.878a1.253,1.253,0,0,0,1.253,1.253h23.54A2.692,2.692,0,0,1,104.515,211.473Z" transform="translate(-58.307 -170.47)" fill="#50dd89"/><g transform="translate(59.924 12.928)"><path d="M278.562,80.935a.953.953,0,0,1-.605-1.689L288.4,70.671a.953.953,0,0,1,1.209,1.473l-10.444,8.576A.949.949,0,0,1,278.562,80.935Z" transform="translate(-277.608 -70.455)" fill="#edf1f4"/></g><path d="M283.628,94.895a1.088,1.088,0,0,1-.2-1.015l-5.472,4.493a.953.953,0,0,0,1.209,1.473l5.6-4.6A1.077,1.077,0,0,1,283.628,94.895Z" transform="translate(-217.686 -76.653)" fill="#dadfe3"/><path d="M0,0H9.106V10.837H0Z" transform="matrix(0.677, -0.736, 0.736, 0.677, 41.344, 13.113)" fill="#edf1f4"/><path d="M190.468,61.127l-2.813-2.586a6.282,6.282,0,0,0-2.259-.5c-1.67,0-1.67.621-3.341.621s-1.67-.621-3.341-.621c-.047,0-.088,0-.132,0L176.327,60.5l7.978,7.335Z" transform="translate(-134.988 -47.39)" fill="#dadfe3"/><g transform="translate(87.203 20.925)"><path d="M430.144,114.038c-1.062,1.9-2.776,3.474-3.31,5.581-.628,2.479.547,5.061,2.024,7.149s3.306,3.977,4.272,6.344a10.011,10.011,0,0,1,.138,7.126c-1.422,3.911-3.063,3.629-5.563,11.9-1.055,3.491-1.981,7.22-1.046,10.745a10.757,10.757,0,0,0,4.391,6.123,44.955,44.955,0,0,0-.906-54.968Z" transform="translate(-426.273 -114.038)" fill="#148be8"/></g><g transform="translate(11.002 20.925)"><path d="M20.843,114.038c1.062,1.9,2.776,3.474,3.31,5.581.628,2.479-.547,5.061-2.024,7.149s-3.306,3.977-4.272,6.344a10.011,10.011,0,0,0-.138,7.126c1.422,3.911,3.063,3.629,5.563,11.9,1.055,3.491,1.981,7.22,1.046,10.745a10.757,10.757,0,0,1-4.391,6.123,44.955,44.955,0,0,1,.906-54.968Z" transform="translate(-11.002 -114.038)" fill="#148be8"/></g><path d="M256.571,424.208a.339.339,0,0,1-.339-.339v-.46a.6.6,0,0,0-.971-.475l-5.111,3.973a.262.262,0,0,0,0,.414l2.136,1.661,2.974,2.312a.6.6,0,0,0,.971-.475v-.46a.339.339,0,0,1,.339-.339,3.733,3.733,0,0,1,0-5.811Z" transform="translate(-195.183 -345.222)" fill="#cbd3d8"/><path d="M204.112,314.313l-2.435,3.875a.339.339,0,0,0,.1.462l4.266,2.858a.339.339,0,0,0,.476-.1l2.3-3.663a3.227,3.227,0,0,1-2.883-4.439A2.154,2.154,0,0,0,204.112,314.313Z" transform="translate(-155.644 -255.815)" fill="#cbd3d8"/><g transform="translate(52.179 6.711)"><path d="M252.187,37a.626.626,0,1,1-.79-.4A.626.626,0,0,1,252.187,37Z" transform="translate(-248.111 -36.573)" fill="#b0ebff"/><circle cx="1.132" cy="1.132" r="1.132" transform="translate(0 0.342)" fill="#b0ebff"/></g></g></svg>