<svg xmlns="http://www.w3.org/2000/svg" width="93.789" height="94.317" viewBox="0 0 93.789 94.317"><path d="M46.895,0A46.9,46.9,0,0,0,0,46.895v.488a10.551,10.551,0,0,0,13.678-2.442,10.649,10.649,0,0,0,16.608,0,10.649,10.649,0,0,0,16.608,0,10.649,10.649,0,0,0,16.608,0,10.649,10.649,0,0,0,16.608,0,10.551,10.551,0,0,0,13.678,2.481c0-.156,0-.332,0-.488A46.9,46.9,0,0,0,46.895,0Z" transform="translate(0 0)" fill="#8ddef1"/><path d="M80.111,23A10.649,10.649,0,0,1,63.5,23a10.649,10.649,0,0,1-16.608,0,10.649,10.649,0,0,1-16.608,0,10.649,10.649,0,0,1-16.608,0A10.551,10.551,0,0,1,0,25.482a46.895,46.895,0,0,0,93.789,0A10.551,10.551,0,0,1,80.111,23Z" transform="translate(0 21.941)" fill="#769aff"/><path d="M26.849,37.96,21.964,7.42,15.77,52.634,36.384,41.907l4.631,30.306,6.428-45Z" transform="translate(15.044 7.078)" fill="#f8b55b"/><g transform="translate(11.841 54.3)"><circle cx="3.654" cy="3.654" r="3.654" transform="translate(30.775 24.913)" fill="#556dd3"/><circle cx="3.654" cy="3.654" r="3.654" transform="translate(7.327 14.655)" fill="#556dd3"/><circle cx="3.654" cy="3.654" r="3.654" fill="#556dd3"/><circle cx="3.654" cy="3.654" r="3.654" transform="translate(24.913 8.793)" fill="#556dd3"/><circle cx="3.654" cy="3.654" r="3.654" transform="translate(65.711 0.371)" fill="#556dd3"/><circle cx="3.654" cy="3.654" r="3.654" transform="translate(53.987 10.629)" fill="#556dd3"/></g></svg>