<svg xmlns="http://www.w3.org/2000/svg" xmlns:xlink="http://www.w3.org/1999/xlink" width="186.834" height="197.98" viewBox="0 0 186.834 197.98"><defs><clipPath id="a"><rect width="186.834" height="197.98" fill="none"/></clipPath></defs><g clip-path="url(#a)"><path d="M186.834,93.416c0,27.8-13.471,55.5-34.318,70.584-9.377,6.782-19.417,10.278-28.773,10.277a33.537,33.537,0,0,1-15.366-3.591,34.19,34.19,0,0,1-15.09-15.711h.131a63.509,63.509,0,0,0,11.269-1,22.817,22.817,0,0,0,8.4,7.491c9.272,4.737,21.741,2.547,33.357-5.853,18.244-13.2,30.032-37.613,30.032-62.2A83.06,83.06,0,1,0,26.269,142.291a4.142,4.142,0,0,0,4.525,1.612,20.209,20.209,0,0,1,20.3,4.982l6.275,6.275a3.768,3.768,0,0,1,3.4,1.031l2.066,2.065a3.778,3.778,0,0,1,0,5.334l-2.724,2.724L70.28,176.476a4.508,4.508,0,1,1-6.375,6.375L53.742,172.688l-7.436,7.436L56.47,190.287a4.508,4.508,0,0,1-6.375,6.376L39.93,186.5l-2.722,2.724a3.778,3.778,0,0,1-5.334,0l-2.065-2.066a3.769,3.769,0,0,1-1.031-3.4L22.5,177.479a20.225,20.225,0,0,1-4.286-22.2,7.6,7.6,0,0,0-.721-7.444A93.412,93.412,0,1,1,186.834,93.416" transform="translate(0 0)" fill="#2e294e"/><path d="M341.853,265.252a64.3,64.3,0,1,1-64.3-64.3,64.3,64.3,0,0,1,64.3,64.3" transform="translate(-184.137 -173.514)" fill="#3e50b4"/><path d="M417.515,355.124a50.088,50.088,0,1,1-50.088-50.088,50.088,50.088,0,0,1,50.088,50.088" transform="translate(-274.009 -263.387)" fill="#2b3aa3"/><path d="M457.919,407.786a42.452,42.452,0,1,1-37.831-46.618,42.452,42.452,0,0,1,37.831,46.618" transform="translate(-322.277 -311.655)" fill="#fdc007"/><path d="M420.75,361.245c-.22-.026-.44-.054-.662-.077a42.452,42.452,0,1,0-8.787,84.449c.221.023.443.041.664.061Z" transform="translate(-322.277 -311.655)" fill="#ffd357"/><path d="M534.943,429.392V411.86A35.617,35.617,0,0,1,549,416.55l3.561-8.779a37.32,37.32,0,0,0-17.618-5.292V395.97h-7.112v6.7c-13.541,1.289-19.964,9.015-19.964,17.868,0,12.064,10.318,15.186,19.964,17.531v17.355c-6.6-.615-13.1-3.122-17.356-6.6l-3.913,8.752c4.515,3.929,12.754,6.683,21.269,7.212v6.523h7.112V464.7c13.616-1.379,20.123-9.03,20.123-17.868,0-12.064-10.5-15.113-20.123-17.444m-7.112-1.818c-5.041-1.481-8.778-3.4-8.778-7.549,0-3.826,2.609-6.948,8.778-7.9Zm7.112,27.675V439.887c5.2,1.48,9.012,3.474,9.012,7.71,0,3.737-2.682,6.7-9.012,7.651" transform="translate(-437.397 -341.905)" fill="#fff"/></g></svg>