<svg xmlns="http://www.w3.org/2000/svg" width="94" height="94" viewBox="0 0 94 94"><path d="M94,47A47,47,0,1,1,47,0,46.876,46.876,0,0,1,94,47Z" fill="#fca846"/><rect width="36.257" height="18.8" transform="translate(28.871 5.231)" fill="#ba4680"/><g transform="translate(15.424 5.231)"><rect width="36.257" height="7.501" transform="translate(13.448)" fill="#84154e"/><rect width="6.031" height="18.8" transform="translate(13.448)" fill="#84154e"/><path d="M147.163,134.342v41.7c0,.545-.025,1.086-.077,1.617a46.952,46.952,0,0,1-63,0c-.052-.531-.077-1.072-.077-1.617v-41.7a17.03,17.03,0,0,1,17.029-17.031h29.092A17.032,17.032,0,0,1,147.163,134.342Z" transform="translate(-84.01 -101.005)" fill="#84154e"/></g><path d="M197.485,134.342v41.7c0,.545-.025,1.086-.077,1.617a47.06,47.06,0,0,1-47.9,9.175,16.961,16.961,0,0,1-3.856-10.793v-41.7a17.032,17.032,0,0,1,17.031-17.031h17.774A17.032,17.032,0,0,1,197.485,134.342Z" transform="translate(-118.909 -95.773)" fill="#ba4680"/><path d="M180.612,21.1a3.389,3.389,0,0,1-3.388,3.388H140.259a3.388,3.388,0,0,1,0-6.776h36.965a3.386,3.386,0,0,1,3.388,3.388Z" transform="translate(-111.742 -14.459)" fill="#84154e"/><path d="M221.618,21.1a3.389,3.389,0,0,1-3.388,3.388H190.487a3.388,3.388,0,0,1,0-6.776H218.23a3.386,3.386,0,0,1,3.388,3.388Z" transform="translate(-152.749 -14.459)" fill="#ba4680"/><path d="M218.384,61.931H204.891a3.229,3.229,0,0,0-3.229,3.229v3.709a3.229,3.229,0,0,0,3.229,3.229h13.492a3.229,3.229,0,0,0,3.229-3.229V65.16A3.229,3.229,0,0,0,218.384,61.931Z" transform="translate(-164.638 -50.561)" fill="#fca846"/><g transform="translate(13.237 38.611)"><path d="M139.625,213.471a3.164,3.164,0,0,1-3.165,3.165h-61.2a3.165,3.165,0,1,1,0-6.331h61.2A3.166,3.166,0,0,1,139.625,213.471Z" transform="translate(-72.098 -210.306)" fill="#84154e"/><rect width="51.836" height="6.331" transform="translate(13.503 1.535)" fill="#84154e"/></g><path d="M215.548,213.471a3.164,3.164,0,0,1-3.165,3.165H168.26a3.165,3.165,0,1,1,0-6.331h44.122A3.166,3.166,0,0,1,215.548,213.471Z" transform="translate(-134.785 -171.695)" fill="#ba4680"/><g transform="translate(13.237 71.799)"><path d="M139.625,394.239a3.164,3.164,0,0,1-3.165,3.165h-61.2a3.165,3.165,0,1,1,0-6.331h61.2A3.166,3.166,0,0,1,139.625,394.239Z" transform="translate(-72.098 -391.074)" fill="#84154e"/><rect width="51.836" height="6.331" transform="translate(13.503 1.535)" fill="#84154e"/></g><path d="M215.548,394.239a3.164,3.164,0,0,1-3.165,3.165H168.26a3.165,3.165,0,1,1,0-6.331h44.122A3.166,3.166,0,0,1,215.548,394.239Z" transform="translate(-134.785 -319.275)" fill="#ba4680"/><rect width="4.604" height="5.755" transform="translate(44.698 15.782)" fill="#5c3c6e"/><rect width="2.302" height="5.755" transform="translate(44.698 15.782)" fill="#3b223d"/><path d="M235.172,79.14a1.533,1.533,0,0,1-1.535,1.535h-9.016a1.535,1.535,0,1,1,0-3.069h9.016A1.534,1.534,0,0,1,235.172,79.14Z" transform="translate(-182.129 -63.357)" fill="#84154e"/><path d="M251.806,79.14a1.533,1.533,0,0,1-1.535,1.535H245a1.535,1.535,0,1,1,0-3.069h5.276A1.534,1.534,0,0,1,251.806,79.14Z" transform="translate(-198.763 -63.357)" fill="#ba4680"/><path d="M226.565,285.671c-4.548,0-5.912-6.367-3.638-10.46a8.456,8.456,0,0,0,1.051-4.752.691.691,0,0,1,1.276-.421c.274.438.546.914.8,1.418a1.085,1.085,0,0,0,2.051-.381,23.173,23.173,0,0,0,.061-4.1.683.683,0,0,1,1.262-.414C233.133,272.57,239.708,285.671,226.565,285.671Z" transform="translate(-181.117 -217.356)" fill="#f89361"/><path d="M247.453,325.5c-2.728,0-1.954-4.221-.79-7.076a.545.545,0,0,1,.986-.051C248.734,320.408,250.817,325.057,247.453,325.5Z" transform="translate(-200.508 -259.686)" fill="#ba4680"/><circle cx="4.316" cy="4.316" r="4.316" transform="translate(61.787 26.401)" fill="#cf6b99"/></svg>