<svg xmlns="http://www.w3.org/2000/svg" xmlns:xlink="http://www.w3.org/1999/xlink" width="89.913" height="89.875" viewBox="0 0 89.913 89.875"><defs><clipPath id="a"><rect width="89.913" height="89.875" fill="none"/></clipPath></defs><g clip-path="url(#a)"><path d="M89.923,44.938A44.937,44.937,0,1,1,44.986,0,44.937,44.937,0,0,1,89.923,44.938" transform="translate(-0.029 -0.001)" fill="#fefefe"/><path d="M80.664,29.087a5.484,5.484,0,0,1,1.73.863,1.776,1.776,0,0,1,.834,1.544c1.025-.36,2.009-.693,2.984-1.055a.528.528,0,0,1,.653.158A44.369,44.369,0,0,1,99.323,54.531a44.885,44.885,0,0,1-23.031,47.478,43.272,43.272,0,0,1-15.939,5,45,45,0,0,1-43.4-20.8c-.319-.507-.317-.51.233-.692,1.171-.388,2.329-.827,3.52-1.144A6.159,6.159,0,0,0,23.3,82.86a9.173,9.173,0,0,0,3.138-5.191A7.844,7.844,0,0,0,23.7,70.082c-.129-.115-.26-.229-.39-.344-.436-.409-.91-.777-1.3-1.229-.11-.126-.325-.231-.174-.463a4.866,4.866,0,0,1,2.368.751,8.063,8.063,0,0,1,4.379,6.449,8.685,8.685,0,0,1-2.485,7.18c1.34-.425,2.65-.906,3.967-1.361,1.077-.372,2.136-.81,3.224-1.141a5.582,5.582,0,0,0,3.508-3.376,7.065,7.065,0,0,0-.539-6.853.914.914,0,0,1-.141-.3c0-.149.065-.208.208-.143a1.441,1.441,0,0,1,.4.333q1.947,1.945,3.892,3.893c.188.188.408.362.41.667a3.574,3.574,0,0,1-.8,1.7A14.191,14.191,0,0,1,36.472,79.1c1.39-.642,3.066-1.3,4.722-2a.764.764,0,0,0,.546-.821c-.022-1.234-.011-2.47-.006-3.7,0-.681.181-.873.871-.893a9.945,9.945,0,0,1,3.63.612.929.929,0,0,1,.7,1.041,9.19,9.19,0,0,0,0,1c.012.385.1.446.418.225a3.664,3.664,0,0,0,1.7-2.823,4.781,4.781,0,0,0-.865-2.907,2.948,2.948,0,0,1-.381-.654c-.005-.1.008-.2.144-.18a.367.367,0,0,1,.2.113c.911.917,1.87,1.786,2.719,2.764a3.4,3.4,0,0,1-.49,2.425c.667-.24,1.238-.528,1.82-.785,2.274-1,4.532-2.041,6.754-3.155a.755.755,0,0,0,.415-.484,6.391,6.391,0,0,0-2.217-7.344,2.291,2.291,0,0,1-.43-.372c-.374-.488-.859-.87-1.263-1.328-.112-.127-.387-.273-.066-.477a1.209,1.209,0,0,1,.61.023A7.014,7.014,0,0,1,61.488,66.2a7.9,7.9,0,0,1-.218,2c1.553-.78,3.05-1.563,4.523-2.391.442-.249.882-.5,1.328-.738a1.358,1.358,0,0,0,.67-.815A5.307,5.307,0,0,0,64.2,57.2a4.591,4.591,0,0,1-.45-.153,1.106,1.106,0,0,1-.53-.505c-.067-.113-.115-.23.046-.313a5.606,5.606,0,0,1,5.932,3.554,5.909,5.909,0,0,1,.212,3.945c.922-.538,1.8-1.1,2.671-1.659.561-.359,1.1-.758,1.667-1.1a1.488,1.488,0,0,0,.708-1.117,4.779,4.779,0,0,0-.966-3.712,6.611,6.611,0,0,0-4.107-2.629,1.26,1.26,0,0,0-1.2.225.925.925,0,0,1-.506.248,1.059,1.059,0,0,1-.748-.732c.057-.226.262-.3.431-.409.385-.246.762-.507,1.156-.735a1.153,1.153,0,0,0,.668-1.138.6.6,0,0,1,.022-.092c.073-.218-.063-.567.176-.647.285-.1.454.234.626.423.292.32.711.538.833,1-.094.366-.423.532-.7.808a5.608,5.608,0,0,1,3.089,1.117,22.719,22.719,0,0,1,2.789,2.056,2.05,2.05,0,0,1,.659,2.353,8.57,8.57,0,0,1-.786,1.546c.693-.508,1.32-.975,1.919-1.481a.849.849,0,0,0,.266-.726q0-2.043,0-4.086c0-.767,0-.767.747-.994a4.49,4.49,0,0,0-1.094-.955,8.156,8.156,0,0,0-4.14-1.52,1.436,1.436,0,0,1-.421-.063c-.235-.206-.6-.329-.491-.758a4.308,4.308,0,0,1,2.293-.138,7.615,7.615,0,0,1,3.757,1.718,7.229,7.229,0,0,1,1.439,1.44,1.041,1.041,0,0,0,.743.458,2.339,2.339,0,0,1,.322.081c.456.135.9.282.829.931a6.071,6.071,0,0,0,.757-4.233,6.188,6.188,0,0,0-4.306-5.1,4.9,4.9,0,0,0-5.062,1.185c-.172.158-.309.368-.569.406a.3.3,0,0,1-.277-.308,3.237,3.237,0,0,1,1.3-1.7,5.4,5.4,0,0,1,5.9-.621c-.768-1.015-1.6-1.983-2.3-3.047a7.08,7.08,0,0,1-.762-1.473,1.551,1.551,0,0,0-.53-.71,4.36,4.36,0,0,0-6.469,1.04c-.106.156-.182.337-.37.421-.312-.006-.362-.2-.335-.458a4.751,4.751,0,0,1,6.466-3,7.063,7.063,0,0,1,.924.484c.147.093.295.142.411-.037a4.625,4.625,0,0,0,1.03-1.993,2.636,2.636,0,0,0-2.667-2.91c-.434-.009-.783.315-1.161.507a2.417,2.417,0,0,1-.682.322.744.744,0,0,1-.7-.677,2.5,2.5,0,0,1,.936-.611.7.7,0,0,0,.484-.762,4.126,4.126,0,0,1,.151-1.209c.256-.2.376.051.5.177.446.474.968.863,1.428,1.32a.768.768,0,0,0,.355.228,5.853,5.853,0,0,1,2.524,1.442c.394.337.467.7.385,1.485a.718.718,0,0,0,.454-.708c-.049-.808.116-1.6.1-2.411-.011-.68.018-.7.7-.79a1.66,1.66,0,0,1,.188-.026c.281.159.669.235.541.707-.652.2-.625.207-.707.883a15.3,15.3,0,0,0-.077,1.988,1.685,1.685,0,0,1-.32.9c-.128.215.39.433.322.811a6.048,6.048,0,0,0-.1.846c-.012.314.1.481.436.467.142-.006.284,0,.427,0,.252,0,.358-.126.386-.377a16.021,16.021,0,0,0,.1-1.75A21.338,21.338,0,0,1,81.94,31.5c.044-.343.13-.733-.183-1.03a8.458,8.458,0,0,0-.982-.98c-.094-.075-.35-.2-.111-.4" transform="translate(-10.102 -17.433)" fill="#0176c0"/><path d="M62.569,27.923a.344.344,0,0,0,.217.3,6.743,6.743,0,0,1,.2,2.159,2.579,2.579,0,0,1-.415,1.193c.061.289.375.386.481.64,0,.188-.155.189-.268.191a.994.994,0,0,0-.826.547,6.1,6.1,0,0,1-.843,1.018c-.122.115-.226.276-.434.236l-1.414-1.328c-.095.188.057.441-.087.648a.3.3,0,0,1-.143-.231c-.134-.568-.134-.568-.727-.57-1.378,0-1.391.013-1.4,1.375A9.762,9.762,0,0,1,56.86,35.8a3.093,3.093,0,0,0,.656.691c.071.152-.063.2-.146.247-1.21.746-2.491,1.36-3.766,1.983-.141.069-.316.036-.447.141.02.317.277.461.473.65-.141.174-.322.08-.487.068a4.827,4.827,0,0,0-2.277.331q-2.676,1.118-5.445,1.99a.372.372,0,0,0-.164.09c-.1.218.126.256.214.36a11.564,11.564,0,0,1,1.214,1.312c-.279.082-.484-.1-.7-.212a6.06,6.06,0,0,0-2.833-.657,5.084,5.084,0,0,0-1.424.335c-2.518.788-5.06,1.493-7.6,2.2-.133.037-.288.033-.374.17.011.185.168.262.275.37,1.449,1.453,2.884,2.923,4.36,4.348.715.689,1.438,1.371,2.161,2.054.162.368.392.726.156,1.148-.865-.848-1.728-1.7-2.6-2.539-.1-.1-.149-.3-.359-.235-.335-.046-.471-.341-.66-.555a21.259,21.259,0,0,0-4.7-3.812,2.034,2.034,0,0,0-1.69-.222c-2.5.7-5.032,1.274-7.548,1.9-.1.194.094.246.177.328,1.786,1.764,3.534,3.565,5.335,5.314.656.637,1.3,1.29,1.971,1.908a1.112,1.112,0,0,1,.373.482c0,.237.161.518-.18.662a.52.52,0,0,0-.189-.317q-2.193-2.191-4.386-4.381c-.051-.051-.1-.139-.194-.075-.207.059-.277-.122-.367-.231a7.625,7.625,0,0,0-5.529-2.759c-.3-.025-.6.071-.9.039a1.264,1.264,0,0,1-.473-.383c-.814-.835-1.682-1.616-2.476-2.472a1.768,1.768,0,0,0-.4-.335,4.382,4.382,0,0,0-2.4-.289c-.265.046-.438.168-.436.461.009,1.039-.045,2.078.033,3.116.047.271.268.416.43.607.125.147.341.257.252.513a4.932,4.932,0,0,1-2.078.494,9.485,9.485,0,0,0,1.113,1.2c.133.152.319.26.389.464a9.6,9.6,0,0,0-2.63-1.291,1.164,1.164,0,0,0-.559-.042c-2.951.578-5.9,1.15-8.853,1.735-.308.061-.465.079-.53-.324A43.627,43.627,0,0,1,2.158,31.31C6.827,17.347,16.126,7.779,29.9,2.605A41.973,41.973,0,0,1,45.084,0,44.528,44.528,0,0,1,73.079,9.868c.184.145.36.3.6.5-.934.319-1.805.615-2.676.914a3.641,3.641,0,0,0-.488.182c-.183.094.055.117.045.186.063.387.444.512.648.785a5.75,5.75,0,0,0,.406.447.171.171,0,0,1-.279-.01.888.888,0,0,0-.529-.547c-.116-.055-.257-.008-.367-.082a1.587,1.587,0,0,0-1.658.05A24.811,24.811,0,0,1,66.3,13.359a19.955,19.955,0,0,1-1.717-1.546c-.122-.122-.257-.232-.386-.346-.284,0-.564-.047-.849-.049a.48.48,0,0,0-.564.476,11.641,11.641,0,0,0-.066,1.558,1.157,1.157,0,0,1-.135.684,1.386,1.386,0,0,0,.645.577c.015.251-.214.285-.356.382A15.164,15.164,0,0,0,60.2,17.3a4.153,4.153,0,0,0-1.158,4.173c-.1.2.063.275.185.367a13.374,13.374,0,0,0,1.527,2.723A19.326,19.326,0,0,1,62.345,27.2a2.134,2.134,0,0,1,.224.719" transform="translate(0 0)" fill="#00a7e5"/><path d="M37.017,123.163a7.406,7.406,0,0,1,6.571,2.712c.092.106.184.212.275.318a7.519,7.519,0,0,1,1.377,3.935,7.274,7.274,0,0,1-2.9,6.248,1.146,1.146,0,0,1-.331.182q-4.205,1.484-8.414,2.958a.853.853,0,0,1-.205,0A7.611,7.611,0,0,0,35,137.571c3.052-5.422.14-11.455-5.487-12.617l2.08-.542a1.172,1.172,0,0,1,.652-.255c1.357-.31,2.714-.619,4.066-.949a1.262,1.262,0,0,1,.7-.046" transform="translate(-17.816 -74.316)" fill="#fefefe"/><path d="M91.746,118.4a2.351,2.351,0,0,0-.266-1.138c-.335-.5-.571-1.058-.937-1.537A21.168,21.168,0,0,0,85,110.732a1.057,1.057,0,0,1-.3-.233c-.226-.139-.113-.173.058-.219,1-.273,2.01-.543,3.01-.832,1.742-.5,3.5-.971,5.214-1.551a4.988,4.988,0,0,1,3.061.01,9.221,9.221,0,0,1,1.688.738,6.8,6.8,0,0,1,2.8,3.606,7.114,7.114,0,0,1-.135,4.387.534.534,0,0,1-.306.335q-4.369,2.138-8.835,4.063a.905.905,0,0,1-.184.025,3.823,3.823,0,0,0,.679-2.662" transform="translate(-51.048 -64.981)" fill="#fefefe"/><path d="M65.874,126.458a1.339,1.339,0,0,0,.078-.752c-.8-2.805-2.745-4.771-4.869-6.592a5.389,5.389,0,0,0-2.754-1.292.314.314,0,0,1-.245-.123c1.572-.482,3.188-.792,4.776-1.213.917-.243,1.852-.43,2.755-.715a2.3,2.3,0,0,1,2.035.295,21.084,21.084,0,0,1,4.956,4.18c.06.071.128.136.193.2a7.315,7.315,0,0,1,1.3,2.664,3.77,3.77,0,0,1-2.311,4.183c0-.616-.015-1.206.006-1.8a.536.536,0,0,0-.362-.588,9.375,9.375,0,0,0-4.078-.714c-.365.017-.544.17-.535.6.03,1.378.012,2.756.009,4.133,0,.179.06.377-.189.48-1.908.794-3.813,1.6-5.761,2.329.268-.187.538-.372.806-.56a17.105,17.105,0,0,0,2.744-2.262,4.881,4.881,0,0,0,1.446-2.457" transform="translate(-35.058 -69.807)" fill="#fefefe"/><path d="M114.117,101.984c-.073-.128.005-.148.11-.183,2.025-.681,4.02-1.439,6.007-2.225a4.461,4.461,0,0,1,2.257-.072,5.484,5.484,0,0,1,4.315,3.838,5.737,5.737,0,0,1-.279,3.9.581.581,0,0,1-.264.316c-2.075,1.181-4.172,2.321-6.307,3.391a.422.422,0,0,1-.117.008,7.317,7.317,0,0,0,.089-3.8,6.76,6.76,0,0,0-5.811-5.176" transform="translate(-68.862 -59.993)" fill="#fefefe"/><path d="M59.676,148.343c1.429-.539,2.727-1.028,4.024-1.519a.717.717,0,0,1,.5.071q1.958.649,3.914,1.3c.193.064.389.117.634.19v-.554c0-2.5.011-5.006-.012-7.509,0-.455.162-.578.57-.582a5.565,5.565,0,0,1,2.213.465.577.577,0,0,1,.4.609q-.014,6.819,0,13.638c0,.338-.09.427-.434.394a4.878,4.878,0,0,1-2.375-.73.711.711,0,0,1-.377-.695c.034-.552-.015-1.11.017-1.662.019-.333-.1-.466-.407-.566-2.78-.906-5.556-1.827-8.333-2.744l-.344-.11" transform="translate(-36.019 -84.345)" fill="#fefefe"/><path d="M157.789,71.638a.142.142,0,0,1-.01-.173,3.945,3.945,0,0,0,.176-2.689.552.552,0,0,1,.048-.49,5.26,5.26,0,0,1,4.887-1.846,5.868,5.868,0,0,1,4.532,3.455,6.328,6.328,0,0,1-.176,6.313c-.036.062-.045.159-.153.15-.128-.975-.123-1-1.12-1.182a1.276,1.276,0,0,1-.8-.505,7.9,7.9,0,0,0-6.305-3.172,5.253,5.253,0,0,0-1.081.14" transform="translate(-95.217 -40.061)" fill="#fefefe"/><path d="M134.09,93.517c.159-.222.428-.256.649-.365a31.11,31.11,0,0,0,3.71-2.006,1.446,1.446,0,0,0,.329-.18,1.663,1.663,0,0,1,1.759-.295,6.464,6.464,0,0,1,4.814,4.646,4.2,4.2,0,0,1,.056,1.837,1.528,1.528,0,0,1-.71,1.1c-1.428.94-2.859,1.874-4.321,2.76-.1.063-.214.114-.337.18a5.753,5.753,0,0,0-5.949-7.681" transform="translate(-80.934 -54.655)" fill="#fefefe"/><path d="M152.674,57.27c-.834-1.967-2.235-3.6-3.225-5.474-.1-.19-.24-.378-.112-.612a4.928,4.928,0,0,1,3.037-2.413,4.329,4.329,0,0,1,4.169,1.1.6.6,0,0,1,.176.219,15.988,15.988,0,0,0,2.8,4.32c.2.265.4.527.7.916a5.618,5.618,0,0,0-4.245-.638,5.09,5.09,0,0,0-3.3,2.583" transform="translate(-90.105 -29.347)" fill="#fefefe"/><path d="M151.526,83.263a4.423,4.423,0,0,0,1.035-1.137,1.606,1.606,0,0,1,1.336-.857c2.4.1,4.917,1.26,5.916,2.721-.882.162-.882.162-.882,1.085,0,1.345,0,2.691,0,4.037a.658.658,0,0,1-.2.551,25.375,25.375,0,0,1-2.325,1.8c-.092-.173.044-.254.1-.353.143-.264.312-.514.453-.779.8-1.505.639-2.273-.7-3.316a18.617,18.617,0,0,0-3.586-2.385,3.9,3.9,0,0,0-2.172-.406l1.018-.962" transform="translate(-90.843 -49.053)" fill="#fefefe"/><path d="M148.471,42.524a2.486,2.486,0,0,1-.218-1.95,4.9,4.9,0,0,1,1.427-2.468,17.712,17.712,0,0,1,2.972-2.339c.388-.211.79-.4,1.16-.638a1.6,1.6,0,0,1,1.4-.154,2.727,2.727,0,0,1,1.886,3.8c-.223.537-.713.917-.974,1.45-.11.226-.26-.044-.361-.111a4.674,4.674,0,0,0-4.46-.633,4.569,4.569,0,0,0-2.831,3.046" transform="translate(-89.425 -21.055)" fill="#fefefe"/><path d="M167.45,97.632c.67-.57,1.286-1.089,1.9-1.614.1-.089.21-.159.341-.1.374.161.375-.062.375-.333-.005-1.662.01-3.325-.012-4.987-.006-.412.145-.543.522-.5.11.012.222,0,.332.013,1.392.1,1.521.239,1.521,1.616,0,2.865-.008,5.731.01,8.6,0,.385-.115.483-.479.471a6.458,6.458,0,0,1-1.581-.282c-.272-.078-.334-.223-.324-.481.019-.49-.012-.982.016-1.471.017-.288-.1-.384-.358-.436-.738-.149-1.473-.316-2.259-.487" transform="translate(-101.069 -54.375)" fill="#fefefe"/><path d="M177.52,32.48l.279.01c.277.04.385.171.373.476q-.1,2.635-.151,5.273c-.006.305-.116.391-.392.354a2.068,2.068,0,0,0-.285,0c-.887.006-.887.006-.844-.862a3.772,3.772,0,0,1,.025-.379c.072-.473.04-.865-.6-.78.01-.067,0-.116.019-.122.582-.264.665-.74.64-1.32-.029-.663.078-1.332.039-1.994-.032-.541.215-.659.662-.641a2.162,2.162,0,0,0,.237-.015" transform="translate(-106.183 -19.604)" fill="#fdfdfd"/><path d="M167.246,31.471a10.95,10.95,0,0,1,1.813-.89c.24-.119.508-.187.735-.325a1.64,1.64,0,0,1,1.959.186c-.031.008-.061.015-.091.024-.722.212-.719.212-.741,1.033a13.442,13.442,0,0,0-.042,1.707,1.265,1.265,0,0,1-.857,1.4c-.055-.16.074-.282.112-.421a1.1,1.1,0,0,0-.224-1.153,5.487,5.487,0,0,0-2.665-1.556" transform="translate(-100.946 -18.113)" fill="#fbfbfb"/><path d="M143.309,85.371a21.122,21.122,0,0,1-.064-2.829c-.007-.213.19-.236.333-.277a5.062,5.062,0,0,1,1.743-.111c.223.015.3.118.293.333s.011.41.018.615a1.118,1.118,0,0,1-.7,1.233c-.553.326-1.085.689-1.627,1.035" transform="translate(-86.449 -49.571)" fill="#fdfefd"/><path d="M157.867,31.259l.064-2.5c0-.128,0-.294.153-.306.472-.036.964-.215,1.4.142a3.221,3.221,0,0,0-.041.661,1.452,1.452,0,0,1-1.116,1.765,2.879,2.879,0,0,0-.457.243" transform="translate(-95.285 -17.124)" fill="#fdfdfd"/><path d="M57.88,120.812a5.222,5.222,0,0,1,3.011,1.272,18.017,18.017,0,0,1,4.436,5.154,2.677,2.677,0,0,1,.422,1.581c-.769-.722-1.523-1.459-2.281-2.192-1.863-1.8-3.664-3.666-5.513-5.482-.068-.067-.385-.152-.075-.333" transform="translate(-34.854 -72.92)" fill="#0277c0"/><path d="M32.68,118.084c-.137-.108-.087-.262-.088-.4,0-1,0-1.99,0-2.985,0-.2-.011-.383.243-.435a4.872,4.872,0,0,1,2.744.207c.068.026.118.1.176.153a3.907,3.907,0,0,1,.118,1.592c.017,1.571.07,1.272-1.245,1.586-.476.114-.96.193-1.436.308a.672.672,0,0,1-.507-.029" transform="translate(-19.667 -68.904)" fill="#fefefe"/><path d="M32.826,118.795c.894-.2,1.784-.408,2.682-.582.291-.056.389-.159.383-.459-.018-.805,0-1.611.006-2.417l3.117,3.125c-1.8.463-3.6.892-5.419,1.25-.2-.356-.615-.525-.768-.917" transform="translate(-19.813 -69.615)" fill="#0b7bc2"/><path d="M84.854,114.821a1.651,1.651,0,0,1,.681.316,22.654,22.654,0,0,1,5.075,4.594,5.518,5.518,0,0,1,1.023,1.852,21.366,21.366,0,0,1-1.9-1.767c-1.6-1.521-3.142-3.106-4.7-4.672-.082-.082-.279-.129-.183-.323" transform="translate(-51.2 -69.304)" fill="#0377c1"/></g></svg>