<svg xmlns="http://www.w3.org/2000/svg" width="89.913" height="94.358" viewBox="0 0 89.913 94.358"><g transform="translate(-12.06)"><circle cx="44.956" cy="44.956" r="44.956" transform="translate(12.06 4.445)" fill="#41485d"/><path d="M320.4,81.561a1.538,1.538,0,0,1-1.538-1.538v-5.5a1.538,1.538,0,1,1,3.076,0v5.5A1.538,1.538,0,0,1,320.4,81.561Z" transform="translate(-250.258 -59.533)" fill="#e2e2e2"/><path d="M79.384,193.539v42.9a44.838,44.838,0,0,0,27.27,13.636V193.539a2.255,2.255,0,0,1,2.255-2.255H81.639A2.255,2.255,0,0,0,79.384,193.539Z" transform="translate(-54.917 -156.032)" fill="#57b5e9"/><path d="M85.847,194.085a2.8,2.8,0,0,1,2.8-2.8H81.64a2.255,2.255,0,0,0-2.255,2.255v42.9a45.18,45.18,0,0,0,6.462,5.606Z" transform="translate(-54.918 -156.031)" fill="#43a0d8"/><path d="M110.327,35.252a2.768,2.768,0,1,1,0-5.536h2.03a12.067,12.067,0,0,1,4.253-9.205,2.355,2.355,0,0,1,1.527-.567h.1V1.924A1.924,1.924,0,0,0,116.315,0H81.64a2.255,2.255,0,0,0-2.255,2.255V33a2.255,2.255,0,0,0,2.255,2.255h28.687Z" transform="translate(-54.918)" fill="#f7f7f7"/><path d="M87.106,33V2.255A2.255,2.255,0,0,1,89.361,0H81.639a2.255,2.255,0,0,0-2.255,2.255V33a2.255,2.255,0,0,0,2.255,2.255h7.722A2.255,2.255,0,0,1,87.106,33Z" transform="translate(-54.917)" fill="#e2e2e2"/><path d="M99.823,213.917H72.548a1.538,1.538,0,0,0,0,3.076H99.823v-3.076Z" transform="translate(-48.086 -174.494)" fill="#6bcaf9"/><path d="M77.574,215.454a1.538,1.538,0,0,1,1.538-1.538H72.548a1.538,1.538,0,1,0,0,3.076h6.563A1.538,1.538,0,0,1,77.574,215.454Z" transform="translate(-48.086 -174.493)" fill="#57b5e9"/><path d="M79.384,297.974v25.849h0a12.924,12.924,0,0,0,0-25.849Z" transform="translate(-54.917 -243.06)" fill="#43a0d8"/><path d="M85.847,322.089V299.707a12.859,12.859,0,0,0-6.462-1.733v25.5c.11.115.223.228.334.343A12.853,12.853,0,0,0,85.847,322.089Z" transform="translate(-54.917 -243.06)" fill="#238cc1"/><path d="M83.6,114.893H79.384v3.076H83.6a1.538,1.538,0,1,0,0-3.076Z" transform="translate(-54.917 -93.719)" fill="#57b5e9"/><path d="M91.7,160.306H79.384v3.454a2.255,2.255,0,0,0,2.255,2.255H93.231v-4.178A1.531,1.531,0,0,0,91.7,160.306Z" transform="translate(-54.917 -130.763)" fill="#e2e2e2"/><path d="M89.361,166.015a2.255,2.255,0,0,1-2.255-2.255v-3.454H79.384v3.454a2.257,2.257,0,0,0,2.255,2.255Z" transform="translate(-54.917 -130.763)" fill="#d2d3d6"/><path d="M260.644,193.207a1.924,1.924,0,0,0-1.924-1.924H224.046a2.255,2.255,0,0,0-2.255,2.255v56.409a45.308,45.308,0,0,0,6.3.442,44.829,44.829,0,0,0,32.549-13.946Z" transform="translate(-171.079 -156.031)" fill="#f9b430"/><path d="M228.294,249.947V193.539a2.255,2.255,0,0,1,2.255-2.255h-6.5a2.255,2.255,0,0,0-2.255,2.255v56.409a45.331,45.331,0,0,0,6.3.442c1.092,0,2.174-.042,3.247-.119Q229.8,250.16,228.294,249.947Z" transform="translate(-171.08 -156.032)" fill="#f3a225"/><path d="M253.837,216.992H214.984a1.538,1.538,0,1,1,0-3.076h38.853a1.538,1.538,0,0,1,0,3.076Z" transform="translate(-164.272 -174.493)" fill="#f9dea0"/><path d="M220.687,215.454a1.538,1.538,0,0,1,1.538-1.538h-7.24a1.538,1.538,0,1,0,0,3.076h7.24A1.538,1.538,0,0,1,220.687,215.454Z" transform="translate(-164.273 -174.493)" fill="#efc97b"/><path d="M274.421,108.217H258.51a2.354,2.354,0,0,0-1.527.567,12.067,12.067,0,0,0-4.253,9.207h27.477a12.067,12.067,0,0,0-4.249-9.2A2.368,2.368,0,0,0,274.421,108.217Z" transform="translate(-196.316 -88.273)" fill="#e2e2e2"/><path d="M265.63,108.784a2.355,2.355,0,0,1,1.527-.567H258.51a2.354,2.354,0,0,0-1.527.567,12.067,12.067,0,0,0-4.253,9.207h8.647A12.068,12.068,0,0,1,265.63,108.784Z" transform="translate(-196.316 -88.273)" fill="#d2d3d6"/><path d="M312,28.665h-4.969a1.512,1.512,0,0,0-1.512,1.512v7.708a1.512,1.512,0,0,0,1.512,1.512H312a1.512,1.512,0,0,0,1.512-1.512V30.177A1.512,1.512,0,0,0,312,28.665Z" transform="translate(-239.378 -23.382)" fill="#f7f7f7"/><path d="M309.363,37.884V30.177a1.512,1.512,0,0,1,1.512-1.512h-3.842a1.512,1.512,0,0,0-1.512,1.512v7.708a1.512,1.512,0,0,0,1.512,1.512h3.842A1.512,1.512,0,0,1,309.363,37.884Z" transform="translate(-239.378 -23.382)" fill="#e2e2e2"/><circle cx="12.924" cy="12.924" r="12.924" transform="translate(57.214 54.914)" fill="#f3a225"/><path d="M264.427,316.161a12.929,12.929,0,0,1,2.121-15.672,12.924,12.924,0,1,0,12.511,21.67A12.929,12.929,0,0,1,264.427,316.161Z" transform="translate(-199.85 -245.112)" fill="#e08610"/><path d="M297.988,484.285H284.865a1.538,1.538,0,0,0,0,3.076h6.818a44.679,44.679,0,0,0,7.055-2.88A1.527,1.527,0,0,0,297.988,484.285Z" transform="translate(-221.275 -395.035)" fill="#f3a225"/><path d="M330.519,49.434h-2.612a1.538,1.538,0,0,0,0,3.076h2.612Z" transform="translate(-256.384 -40.324)" fill="#d2d3d6"/><g transform="translate(80.705 1.631)"><path d="M386.892,81.647l-1.752-1.341a1.538,1.538,0,0,1,1.87-2.442l1.752,1.341a1.538,1.538,0,0,1-1.87,2.442Z" transform="translate(-384.537 -64.886)" fill="#f9b430"/><path d="M402.664,49.913h-2.307a1.538,1.538,0,0,1,0-3.076h2.307a1.538,1.538,0,0,1,0,3.076Z" transform="translate(-396.187 -39.836)" fill="#f9b430"/><path d="M384.854,12.665a1.538,1.538,0,0,1,.286-2.156l1.752-1.341a1.538,1.538,0,0,1,1.87,2.442l-1.752,1.341A1.538,1.538,0,0,1,384.854,12.665Z" transform="translate(-384.537 -8.851)" fill="#f9b430"/></g><path d="M263.742,164.011a2.768,2.768,0,0,0-2.768-2.768H229.465a2.768,2.768,0,0,0,0,5.536h31.509A2.768,2.768,0,0,0,263.742,164.011Z" transform="translate(-175.081 -131.527)" fill="#d2d3d6"/><path d="M235.342,164.01a2.768,2.768,0,0,1,2.768-2.768h-8.647a2.768,2.768,0,0,0,0,5.537h8.647A2.768,2.768,0,0,1,235.342,164.01Z" transform="translate(-175.079 -131.526)" fill="#c5c6c9"/></g></svg>