<svg xmlns="http://www.w3.org/2000/svg" width="89.913" height="83.897" viewBox="0 0 89.913 83.897"><g transform="translate(-15.955 -32)"><g transform="translate(15.977 32)"><g transform="translate(0 0)"><path d="M63.941,115.9H57.949a41.949,41.949,0,1,1,0-83.9h5.993a41.949,41.949,0,0,1,0,83.9Z" transform="translate(-16 -32)" fill="#4b9641"/></g></g><g transform="translate(15.954 32.012)"><g transform="translate(0 0)"><circle cx="41.936" cy="41.936" r="41.936" fill="#91c83c"/></g><g transform="translate(9.095 9.095)"><g transform="translate(0 0)"><circle cx="32.842" cy="32.842" r="32.842" fill="#d7e6f0"/></g></g></g><g transform="translate(41.946 45.654)"><g transform="translate(0.999 11.815)"><path d="M189.963,173.993v2.149a10.158,10.158,0,0,1-2.975,7.183l-6.882,6.882a5.993,5.993,0,0,0-1.753,4.095l-.232,9.728a9.061,9.061,0,0,1-18.12-.145v-23.9A11.985,11.985,0,0,1,171.985,168h11.985A5.993,5.993,0,0,1,189.963,173.993Z" transform="translate(-160 -168)" fill="#4b9641"/></g><g transform="translate(22.008 0)"><g transform="translate(0)"><ellipse cx="5.305" cy="5.053" rx="5.305" ry="5.053" fill="#4b9641"/></g></g><g transform="translate(8.49 5.323)"><circle cx="2.497" cy="2.497" r="2.497" fill="#4b9641"/></g><g transform="translate(14.482 3.825)"><circle cx="3.246" cy="3.246" r="3.246" fill="#4b9641"/></g><g transform="translate(3.496 7.82)"><circle cx="2.247" cy="2.247" r="2.247" fill="#4b9641"/></g><g transform="translate(0 12.314)"><circle cx="1.748" cy="1.748" r="1.748" fill="#4b9641"/></g></g><g transform="translate(24.966 64.96)"><path d="M64,208h65.919v23.971H64Z" transform="translate(-64 -208)" fill="#91c83c"/></g><g transform="translate(42.944 69.454)"><path d="M164.494,246.982A4.5,4.5,0,0,1,160,242.487v-5.993a4.494,4.494,0,1,1,8.989,0,1.5,1.5,0,1,1-3,0,1.5,1.5,0,0,0-3,0v5.993a1.5,1.5,0,0,0,3,0,1.5,1.5,0,1,1,3,0A4.5,4.5,0,0,1,164.494,246.982Z" transform="translate(-160 -232)" fill="#d7e6f0"/><g transform="translate(10.487)"><path d="M220.494,246.982A4.5,4.5,0,0,1,216,242.487v-5.993a4.494,4.494,0,1,1,8.989,0v5.993A4.5,4.5,0,0,1,220.494,246.982Zm0-11.985a1.5,1.5,0,0,0-1.5,1.5v5.993a1.5,1.5,0,0,0,3,0v-5.993A1.5,1.5,0,0,0,220.494,235Z" transform="translate(-216 -232)" fill="#d7e6f0"/></g><g transform="translate(20.974 4.494)"><path d="M277.993,266.487H273.5a1.5,1.5,0,0,1-1.5-1.5v-1.873a3.375,3.375,0,0,1,3.371-3.371h.749a.375.375,0,0,0,0-.749H273.5a1.5,1.5,0,1,1,0-3h2.622a3.371,3.371,0,1,1,0,6.742h-.749a.375.375,0,0,0-.375.375v.375h3a1.5,1.5,0,1,1,0,3Z" transform="translate(-272 -256)" fill="#d7e6f0"/></g></g><g transform="translate(15.977 73.949)"><path d="M39.856,279.4a1.5,1.5,0,0,0-1.384-.925H33.978V259a3,3,0,0,0-3-3H24.989a3,3,0,0,0-3,3v19.476H17.5a1.5,1.5,0,0,0-1.059,2.557l7.491,7.491a1.5,1.5,0,0,0,1.059.439h5.993a1.5,1.5,0,0,0,1.059-.439l7.491-7.491a1.5,1.5,0,0,0,.325-1.633Z" transform="translate(-16 -256)" fill="#f06423"/><path d="M33.864,279.4a1.5,1.5,0,0,0-1.384-.925H27.985V259a3,3,0,0,0-5.993,0v19.476H17.5a1.5,1.5,0,0,0-1.059,2.557l7.491,7.491a1.5,1.5,0,0,0,2.119,0l7.491-7.491A1.5,1.5,0,0,0,33.864,279.4Z" transform="translate(-16 -256)" fill="#faa019"/></g><g transform="translate(75.904 73.949)"><path d="M359.856,279.4a1.5,1.5,0,0,0-1.384-.925h-4.494V259a3,3,0,0,0-3-3h-5.993a3,3,0,0,0-3,3v19.476H337.5a1.5,1.5,0,0,0-1.059,2.557l7.491,7.491a1.5,1.5,0,0,0,1.059.439h5.993a1.5,1.5,0,0,0,1.059-.439l7.491-7.491A1.5,1.5,0,0,0,359.856,279.4Z" transform="translate(-336 -256)" fill="#f06423"/><path d="M353.864,279.4a1.5,1.5,0,0,0-1.384-.925h-4.495V259a3,3,0,0,0-5.993,0v19.476H337.5a1.5,1.5,0,0,0-1.059,2.557l7.491,7.491a1.5,1.5,0,0,0,2.119,0l7.491-7.491A1.5,1.5,0,0,0,353.864,279.4Z" transform="translate(-336 -256)" fill="#faa019"/></g></g></svg>