<svg xmlns="http://www.w3.org/2000/svg" width="89.913" height="89.913" viewBox="0 0 89.913 89.913"><path d="M89.913,44.956A44.956,44.956,0,1,1,44.956,0,44.956,44.956,0,0,1,89.913,44.956Z" fill="#007b4e"/><path d="M141.375,74.187A35.747,35.747,0,1,1,105.627,38.44,35.747,35.747,0,0,1,141.375,74.187Z" transform="translate(-57.608 -31.69)" fill="#00915d"/><path d="M83.436,39.46c-1.5,11.391-10.507,13.812-9.37,21.045.842,5.356,6.077,5.4,8.437,13.742.767,2.712,1.931,6.825.052,10.167-2.751,4.893-11,6.3-16.314,5.091C48.329,85.448,35.023,45.286,48.7,28.9a23.948,23.948,0,0,1,15.7-8.252c2.014-.181,11.566-.748,16.515,5.84,3.6,4.786,2.81,10.752,2.519,12.969Zm2.6-38.112C82.164-.324,77.28,2.359,75.13,7.341s-.752,10.376,3.123,12.049,8.759-1.011,10.909-5.993S89.914,3.02,86.039,1.348ZM66.566,16.363c3.2-.134,5.638-3.9,5.449-8.422S69.08-.13,65.882,0s-5.638,3.9-5.449,8.422S63.368,16.5,66.566,16.363ZM55.239,18.113c2.708-.754,4.04-4.465,2.976-8.29s-4.123-6.314-6.831-5.56-4.04,4.465-2.976,8.29S52.531,18.867,55.239,18.113ZM46.694,23.2c1.911-1.442,1.809-4.8-.228-7.5s-5.236-3.717-7.147-2.276-1.809,4.8.228,7.5S44.784,24.641,46.694,23.2ZM40.4,24.78c-2.007-1.229-4.34-1.073-5.21.348s.052,3.57,2.059,4.8,4.34,1.073,5.21-.348S42.41,26.009,40.4,24.78Z" transform="translate(-28.742 0)" fill="#a3e72d"/><path d="M191.309,19.544c-2.84-2.219-3.678-6.9-1.8-11.26a10.931,10.931,0,0,1,5.97-6.024c2.84,2.219,3.678,6.9,1.8,11.26A10.93,10.93,0,0,1,191.309,19.544Zm-12.365-6.07a10.319,10.319,0,0,0,1.187-5.41c-.176-4.213-2.576-7.587-5.493-7.914a10.318,10.318,0,0,0-1.187,5.41C173.628,9.773,176.028,13.147,178.945,13.475Zm11.727,71.063c1.879-3.342.715-7.456-.052-10.167-2.36-8.339-7.595-8.386-8.437-13.742-1.137-7.234,7.872-9.654,9.37-21.045.292-2.217,1.076-8.182-2.519-12.968-2.863-3.811-7.265-5.228-10.858-5.71a44.962,44.962,0,0,0,7.316,67.8,10.077,10.077,0,0,0,5.18-4.166Z" transform="translate(-136.859 -0.124)" fill="#baed6a"/><path d="M264.683,234.585a14.049,14.049,0,0,1-14.049,14.049H226.049a14.051,14.051,0,0,1-3.156-27.742A14.054,14.054,0,0,1,236.585,210H240.1a14.054,14.054,0,0,1,13.693,10.893A14.054,14.054,0,0,1,264.683,234.585Z" transform="translate(-174.771 -173.122)" fill="#87e0ec"/><path d="M312.362,266.586H301.354A14.051,14.051,0,0,1,298,238.844l.033-.139c2.221-9.239,15.421-9.239,17.642,0l.033.139a14.051,14.051,0,0,1-3.349,27.742Z" transform="translate(-236.692 -191.073)" fill="#afeaf2"/><path d="M265.084,311.156a7.7,7.7,0,0,1-6.117,2.759,9.424,9.424,0,1,1,5.27-17.238,1.317,1.317,0,1,1-1.475,2.183,6.791,6.791,0,1,0-3.8,12.422,5.068,5.068,0,0,0,4.1-1.818,1.317,1.317,0,1,1,2.018,1.693Zm26.669,4.866c-.535.007-1.093.012-1.617.015.392-.534.875-1.206,1.465-2.049a6.555,6.555,0,0,0,1.067-2.221,1.283,1.283,0,0,0,.023-.13l.04-.314a1.3,1.3,0,0,0,.011-.167,3.4,3.4,0,0,0-6.726-.657,1.317,1.317,0,0,0,2.585.508.761.761,0,0,1,1.5.086l-.017.135a4.134,4.134,0,0,1-.646,1.25c-1.282,1.831-2.046,2.832-2.456,3.37-.521.682-.865,1.132-.648,1.838a1.367,1.367,0,0,0,.876.89,6.433,6.433,0,0,0,1.936.1c.627,0,1.477-.007,2.636-.021a1.317,1.317,0,1,0-.033-2.633Zm-6.637-11.531a9.424,9.424,0,1,1-9.424-9.424A9.435,9.435,0,0,1,285.116,304.491Zm-2.634,0a6.79,6.79,0,1,0-6.79,6.79A6.8,6.8,0,0,0,282.482,304.491Z" transform="translate(-205.721 -243.25)" fill="#002c5d"/><path d="M232.293,178.385a3.512,3.512,0,0,1-3.512,3.512h-5.268a3.513,3.513,0,0,1-.876-6.914c0-.037,0-.073,0-.11a3.512,3.512,0,0,1,7.024,0c0,.037,0,.074,0,.11A3.513,3.513,0,0,1,232.293,178.385ZM234.224,161a3.512,3.512,0,1,0,3.512,3.512A3.512,3.512,0,0,0,234.224,161Z" transform="translate(-181.366 -132.727)" fill="#fff5f5"/><path d="M379.418,99.617a3.512,3.512,0,0,1-3.512,3.512h-5.268a3.513,3.513,0,0,1-.876-6.914c0-.037,0-.073,0-.11a3.512,3.512,0,0,1,7.024,0c0,.037,0,.074,0,.11A3.513,3.513,0,0,1,379.418,99.617ZM363.291,85.744a3.512,3.512,0,1,0,3.512,3.512A3.512,3.512,0,0,0,363.291,85.744Z" transform="translate(-296.598 -70.686)" fill="#00a86d"/></svg>