<svg xmlns="http://www.w3.org/2000/svg" width="94" height="94" viewBox="0 0 94 94"><g transform="translate(-326 -4006)"><circle cx="47" cy="47" r="47" transform="translate(326 4006)" fill="#fff"/><g transform="translate(329 4019)"><circle cx="33" cy="33" r="33" transform="translate(11 3)" fill="#0593fc"/><circle cx="27" cy="27" r="27" transform="translate(17 9)" fill="#26a6fe"/><g transform="translate(18.497 10.465)"><path d="M77.433,86.26l-5.86-5.86,1.552-1.552a.158.158,0,0,0-.095-.268L67,77.931a.158.158,0,0,0-.174.174l.649,6.028a.158.158,0,0,0,.268.095L69.3,82.676l5.861,5.861A22.8,22.8,0,0,1,77.433,86.26Z" transform="translate(-66.827 -77.93)" fill="#fee903"/><g transform="translate(0 0)"><path d="M68.7,82.909l-.522-4.852L67,77.931a.158.158,0,0,0-.174.174l.649,6.028a.158.158,0,0,0,.268.095L68.969,83A.158.158,0,0,1,68.7,82.909Z" transform="translate(-66.827 -77.93)" fill="#f4d902"/><path d="M91.871,114.788l-5.337-5.337a.688.688,0,0,0-.973,0l-.339.339,5.861,5.861Q91.466,115.209,91.871,114.788Z" transform="translate(-82.752 -105.044)" fill="#f4d902"/></g></g><circle cx="22.726" cy="22.726" r="22.726" transform="translate(21.173 13.127)" fill="#c8effe"/><path d="M89.008,120.483a22.755,22.755,0,0,1,21.6-22.7q-.559-.027-1.125-.028a22.726,22.726,0,0,0,0,45.453q.566,0,1.125-.028a22.755,22.755,0,0,1-21.6-22.7Z" transform="translate(-65.585 -84.63)" fill="#99e6fc"/><g transform="translate(18.025 8.905)"><g transform="translate(10.103)"><g transform="translate(0 0)"><path d="M139.468,72.615l1.552-1.552,5.519,5.519A18.327,18.327,0,0,1,149.9,75.4L143.3,68.787l1.552-1.552a.158.158,0,0,0-.095-.268l-6.028-.649a.158.158,0,0,0-.174.174l.649,6.028A.158.158,0,0,0,139.468,72.615Z" transform="translate(-138.549 -66.317)" fill="#fee903"/></g><g transform="translate(0)"><path d="M140.424,71.3l-.522-4.852-1.177-.127a.158.158,0,0,0-.174.174l.649,6.028a.158.158,0,0,0,.268.095l1.224-1.224a.158.158,0,0,1-.268-.095Z" transform="translate(-138.55 -66.317)" fill="#f4d902"/><g transform="translate(2.47 4.205)"><path d="M163.622,103.2l-5.365-5.365a.688.688,0,0,0-.973,0l-.339.339,5.519,5.519Q163.035,103.429,163.622,103.2Z" transform="translate(-156.945 -97.635)" fill="#f4d902"/></g></g></g><g transform="translate(0 12.279)"><path d="M72.5,164.666l-4.44-4.44,1.552-1.552a.158.158,0,0,0-.095-.268l-6.028-.649a.158.158,0,0,0-.174.174l.649,6.028a.158.158,0,0,0,.268.095l1.552-1.552,5.528,5.528A18.348,18.348,0,0,1,72.5,164.666Z" transform="translate(-63.316 -157.756)" fill="#fee903"/><g transform="translate(0)"><path d="M65.19,162.735l-.522-4.852-1.177-.127a.158.158,0,0,0-.174.174l.649,6.028a.158.158,0,0,0,.268.095l1.224-1.224A.158.158,0,0,1,65.19,162.735Z" transform="translate(-63.316 -157.756)" fill="#f4d902"/><g transform="translate(2.47 4.206)"><path d="M87.606,193.86l-4.583-4.583a.688.688,0,0,0-.973,0l-.339.339,5.528,5.528Q87.4,194.495,87.606,193.86Z" transform="translate(-81.711 -189.075)" fill="#f4d902"/></g></g></g></g><g transform="translate(48.47 0)"><g transform="translate(0 11.491)"><path d="M300.785,99.729c.186.279.362.564.532.851l6.716-6.716-.257-.213a2.3,2.3,0,0,0-2.941,0l-1.581,1.311a.337.337,0,0,1-.218.079.344.344,0,0,1-.334-.259l-.509-1.989a2.3,2.3,0,0,0-2.231-1.734c-.049,0-.1,0-.147,0l-2.05.13h-.023a.343.343,0,0,1-.318-.47l.757-1.911a2.307,2.307,0,0,0-.908-2.795l-.7-.446L290.037,92.1a18.4,18.4,0,0,1,10.748,7.624Z" transform="translate(-290.037 -85.574)" fill="#fef48b"/><g transform="translate(4.673 5.485)"><path d="M328.56,132.241l3.823-3.823-.066-.26a2.3,2.3,0,0,0-2.231-1.734c-.049,0-.1,0-.147,0l-2.05.13h-.023a.338.338,0,0,1-.165-.043l-2.865,2.865A18.393,18.393,0,0,1,328.56,132.241Z" transform="translate(-324.835 -126.424)" fill="#ffface"/></g></g><g transform="translate(5.205 0)"><path d="M350.7,10.95l-1.735,1.1a2.17,2.17,0,0,0-.855,2.632l.757,1.911a.478.478,0,0,1-.474.652l-2.05-.13a2.17,2.17,0,0,0-2.24,1.628l-.509,1.989a.478.478,0,0,1-.768.249l-1.581-1.311a2.17,2.17,0,0,0-2.77,0l-1.581,1.311a.478.478,0,0,1-.768-.249l-.509-1.989a2.17,2.17,0,0,0-2.24-1.628l-2.05.13a.478.478,0,0,1-.474-.653l.757-1.911a2.17,2.17,0,0,0-.855-2.632l-1.735-1.1a.478.478,0,0,1,0-.807l1.735-1.1a2.17,2.17,0,0,0,.855-2.632L330.852,4.5a.478.478,0,0,1,.474-.652l2.05.13a2.17,2.17,0,0,0,2.24-1.628L336.125.36a.478.478,0,0,1,.768-.249l1.581,1.311a2.17,2.17,0,0,0,2.77,0L342.825.11a.478.478,0,0,1,.768.249l.509,1.989a2.17,2.17,0,0,0,2.24,1.628l2.05-.13a.478.478,0,0,1,.474.653l-.757,1.911a2.17,2.17,0,0,0,.855,2.632l1.735,1.1a.478.478,0,0,1,0,.807Z" transform="translate(-328.796 0)" fill="#fee903"/><path d="M332.986,10.546a9.072,9.072,0,0,1,6.421-8.675,2.161,2.161,0,0,1-.933-.45L336.892.11a.478.478,0,0,0-.768.249l-.509,1.989a2.17,2.17,0,0,1-2.24,1.628l-2.05-.13a.478.478,0,0,0-.474.652l.757,1.911a2.17,2.17,0,0,1-.855,2.632l-1.735,1.1a.478.478,0,0,0,0,.807l1.735,1.1a2.17,2.17,0,0,1,.855,2.632l-.757,1.911a.478.478,0,0,0,.474.652l2.05-.13a2.17,2.17,0,0,1,2.24,1.628l.509,1.989a.478.478,0,0,0,.768.249l1.581-1.311a2.161,2.161,0,0,1,.933-.45A9.072,9.072,0,0,1,332.986,10.546Z" transform="translate(-328.795 0)" fill="#f4d902"/><circle cx="5.947" cy="5.947" r="5.947" transform="translate(5.115 4.599)" fill="#fea613"/><path d="M370.8,40.2a5.949,5.949,0,0,1,3.99-5.616,5.947,5.947,0,1,0,0,11.232A5.949,5.949,0,0,1,370.8,40.2Z" transform="translate(-361.773 -29.649)" fill="#fe9901"/></g></g><g transform="translate(25.358 17.313)"><path d="M154.508,151.142H138.733a1.512,1.512,0,0,1-1.51-1.51V149.4a1.512,1.512,0,0,1,1.51-1.51,1.779,1.779,0,0,0,1.777-1.777v-.235a1.512,1.512,0,0,1,1.51-1.51h3.287a1.779,1.779,0,0,0,1.777-1.777v-.235a1.779,1.779,0,0,0-1.777-1.777h-1.878a1.512,1.512,0,0,1-1.51-1.51v-.235a1.512,1.512,0,0,1,1.51-1.51h8.4l.072-.133a18.542,18.542,0,0,0-27.937-3.4l.052.133h7.962a1.628,1.628,0,0,1,0,3.255h-4.9a1.894,1.894,0,1,0,0,3.789H135.8a1.628,1.628,0,0,1,0,3.255H118.348l-.159.133a18.547,18.547,0,0,0,20.522,21.526l.208-.161a1.748,1.748,0,0,0,.087-.547v-.235a1.779,1.779,0,0,0-1.777-1.777h-2.766a1.512,1.512,0,0,1-1.51-1.51v-.235a1.512,1.512,0,0,1,1.51-1.51h9.105a1.779,1.779,0,0,0,1.777-1.777v-.235a1.512,1.512,0,0,1,1.51-1.51h5.722l.224-.133a18.414,18.414,0,0,0,1.814-4.968Z" transform="translate(-117.927 -128.928)" fill="#0593fc"/><g transform="translate(0)"><path d="M167.133,133.78a18.474,18.474,0,0,1,10.37-4.731,18.729,18.729,0,0,0-2.134-.123,18.473,18.473,0,0,0-12.507,4.854Z" transform="translate(-156.829 -128.926)" fill="#0182fc"/><path d="M122.194,246.883a18.653,18.653,0,0,1,.262-3.12h-4.268A18.544,18.544,0,0,0,138.6,265.3,18.543,18.543,0,0,1,122.194,246.883Z" transform="translate(-117.926 -228.342)" fill="#0182fc"/></g><path d="M137.491,172.117h-8.721a1.761,1.761,0,1,1,0-3.522h4.9a1.761,1.761,0,1,0,0-3.522h-8.014a18.508,18.508,0,0,0-5.771,10.566h17.608a1.761,1.761,0,1,0,0-3.522Z" transform="translate(-119.62 -160.219)" fill="#bbf49b"/><path d="M119.884,175.641h4.268a18.5,18.5,0,0,1,5.774-10.566h-4.27A18.507,18.507,0,0,0,119.884,175.641Z" transform="translate(-119.621 -160.221)" fill="#6fd7a3"/><g transform="translate(4.056 8.259)"><path d="M223.627,318.2H216.7a1.761,1.761,0,1,1,0-3.522h6.927a1.761,1.761,0,1,1,0,3.522Z" transform="translate(-205.968 -297.994)" fill="#bbf49b"/><path d="M187.713,273.1h-2.466a1.761,1.761,0,1,1,0-3.522h2.466a1.761,1.761,0,1,1,0,3.522Z" transform="translate(-178.739 -258.949)" fill="#bbf49b"/><path d="M152.88,309.487a1.761,1.761,0,0,0-1.761-1.761h-1.225a1.761,1.761,0,1,0,0,3.522h1.225A1.761,1.761,0,0,0,152.88,309.487Z" transform="translate(-148.132 -291.975)" fill="#bbf49b"/><path d="M265.324,192.072v.235a1.644,1.644,0,0,0,1.644,1.644h1.878a1.644,1.644,0,0,1,1.644,1.644v.235a1.644,1.644,0,0,1-1.644,1.644h-3.287a1.644,1.644,0,0,0-1.644,1.644v.235a1.644,1.644,0,0,1-1.644,1.644,1.644,1.644,0,0,0-1.644,1.644v.235a1.644,1.644,0,0,0,1.644,1.644h15.884a18.581,18.581,0,0,0-2.719-14.089h-8.469A1.644,1.644,0,0,0,265.324,192.072Z" transform="translate(-245.522 -190.428)" fill="#bbf49b"/><path d="M241.235,333.988v.235a1.644,1.644,0,0,1-1.644,1.644h-9.105a1.644,1.644,0,0,0-1.644,1.644v.235a1.644,1.644,0,0,0,1.644,1.644h2.766a1.644,1.644,0,0,1,1.644,1.644v.235a1.634,1.634,0,0,1-.162.708,18.549,18.549,0,0,0,14.091-9.631h-5.946A1.644,1.644,0,0,0,241.235,333.988Z" transform="translate(-218.004 -313.287)" fill="#bbf49b"/></g><path d="M218.319,316.441a1.761,1.761,0,0,1,1.761-1.761H216.7a1.761,1.761,0,1,0,0,3.522h3.38A1.761,1.761,0,0,1,218.319,316.441Z" transform="translate(-201.913 -289.736)" fill="#6fd7a3"/><path d="M185.754,271.338a1.761,1.761,0,0,1,1.761-1.761h-2.268a1.761,1.761,0,1,0,0,3.522h2.268A1.761,1.761,0,0,1,185.754,271.338Z" transform="translate(-174.682 -250.69)" fill="#6fd7a3"/><path d="M149.812,309.488a1.76,1.76,0,0,1,1.534-1.745,1.764,1.764,0,0,0-.227-.016h-1.225a1.761,1.761,0,1,0,0,3.522h1.225a1.763,1.763,0,0,0,.227-.016A1.761,1.761,0,0,1,149.812,309.488Z" transform="translate(-144.076 -283.717)" fill="#6fd7a3"/><g transform="translate(23.859 8.259)"><path d="M297.244,193.951h1.467a1.684,1.684,0,0,1-1.215-1.617v-.241a1.683,1.683,0,0,1,1.442-1.665h-1.694a1.644,1.644,0,0,0-1.644,1.644v.235A1.644,1.644,0,0,0,297.244,193.951Z" transform="translate(-295.6 -190.429)" fill="#6fd7a3"/></g><g transform="translate(19.162 15.303)"><path d="M262.895,248.29v-.235a1.644,1.644,0,0,1,1.644-1.644,1.644,1.644,0,0,0,1.644-1.644v-.235a1.644,1.644,0,0,1,1.644-1.644h-2.268a1.644,1.644,0,0,0-1.644,1.644v.235a1.644,1.644,0,0,1-1.644,1.644,1.644,1.644,0,0,0-1.644,1.644v.235a1.644,1.644,0,0,0,1.644,1.644h2.268A1.644,1.644,0,0,1,262.895,248.29Z" transform="translate(-260.627 -242.889)" fill="#6fd7a3"/></g><g transform="translate(14.894 27.316)"><path d="M312.738,334.224v-.235a1.644,1.644,0,0,1,1.644-1.644h-2.2a1.644,1.644,0,0,0-1.644,1.644v.235a1.644,1.644,0,0,1-1.644,1.644h2.2A1.644,1.644,0,0,0,312.738,334.224Z" transform="translate(-298.141 -332.345)" fill="#6fd7a3"/><path d="M231.046,360.452v-.235a1.644,1.644,0,0,1,1.644-1.644h-2.2a1.644,1.644,0,0,0-1.644,1.644v.235a1.644,1.644,0,0,0,1.644,1.644h2.2A1.643,1.643,0,0,1,231.046,360.452Z" transform="translate(-228.841 -355.052)" fill="#6fd7a3"/></g><path d="M261.22,156.879h-2.466a1.761,1.761,0,0,1,0-3.522h2.466a1.761,1.761,0,1,1,0,3.522Z" transform="translate(-238.319 -150.076)" fill="#bbf49b"/><path d="M259.261,155.118a1.761,1.761,0,0,1,1.761-1.761h-2.268a1.761,1.761,0,0,0,0,3.522h2.268A1.761,1.761,0,0,1,259.261,155.118Z" transform="translate(-238.319 -150.076)" fill="#6fd7a3"/></g><g transform="translate(45.964 7.654)"><path d="M398.215,183.17a1.924,1.924,0,0,0-1.668,1.668.187.187,0,0,1-.362,0,1.924,1.924,0,0,0-1.668-1.668.187.187,0,0,1,0-.362,1.924,1.924,0,0,0,1.668-1.668.187.187,0,0,1,.362,0,1.924,1.924,0,0,0,1.668,1.668A.187.187,0,0,1,398.215,183.17Z" transform="translate(-377.86 -164.349)" fill="#fee903"/><path d="M275.215,98.17a1.924,1.924,0,0,0-1.668,1.668.187.187,0,0,1-.362,0,1.924,1.924,0,0,0-1.668-1.668.187.187,0,0,1,0-.362,1.924,1.924,0,0,0,1.668-1.668.187.187,0,0,1,.362,0,1.924,1.924,0,0,0,1.668,1.668A.187.187,0,0,1,275.215,98.17Z" transform="translate(-271.377 -90.763)" fill="#fee903"/><path d="M303.239,58.831a1.624,1.624,0,0,0-1.408,1.408.158.158,0,0,1-.305,0,1.624,1.624,0,0,0-1.408-1.408.158.158,0,0,1,0-.305,1.624,1.624,0,0,0,1.408-1.408.158.158,0,0,1,.305,0,1.624,1.624,0,0,0,1.408,1.408A.158.158,0,0,1,303.239,58.831Z" transform="translate(-296.156 -57)" fill="#fee903"/></g></g></g></svg>