<svg xmlns="http://www.w3.org/2000/svg" width="111" height="111" viewBox="0 0 111 111"><g transform="translate(-955 -4205)"><circle cx="55.5" cy="55.5" r="55.5" transform="translate(955 4205)" fill="#fff"/><g transform="translate(972 4221)"><path d="M39,0A39,39,0,1,1,0,39,39,39,0,0,1,39,0Z" transform="translate(0 0)" fill="#2e0877"/><path d="M249.841,320.669h-30.47a3.288,3.288,0,0,0-3.288,3.288v5.3h37.046v-5.3A3.288,3.288,0,0,0,249.841,320.669Z" transform="translate(-183.083 -271.697)" fill="#8e6325"/><path d="M229.081,320.669h-9.709a3.288,3.288,0,0,0-3.288,3.288v5.3h8.59v-4.182A4.408,4.408,0,0,1,229.081,320.669Z" transform="translate(-183.083 -271.697)" fill="#7f551d"/><path d="M225.165,380.405a39.143,39.143,0,0,0,4.205-6.442H184.939a1.333,1.333,0,0,0-1.329,1.328v3.785a1.333,1.333,0,0,0,1.329,1.329Z" transform="translate(-155.569 -316.852)" fill="#9e7430"/><g transform="translate(0.459 28.231)"><path d="M192.2,379.077v-3.785a1.332,1.332,0,0,1,1.329-1.328h-8.59a1.332,1.332,0,0,0-1.329,1.328v3.785a1.332,1.332,0,0,0,1.329,1.329h8.59A1.332,1.332,0,0,1,192.2,379.077Z" transform="translate(-156.029 -345.083)" fill="#8e6325"/><path d="M23.825,185.725a2.959,2.959,0,0,0-4.185,0l-16.635,16a38.822,38.822,0,0,0,2.022,7.722l18.8-19.541a2.959,2.959,0,0,0,0-4.185Z" transform="translate(-3.005 -184.859)" fill="#8e6325"/></g><path d="M89.848,189.91a2.959,2.959,0,0,0,0-4.185h0a2.959,2.959,0,0,0-4.185,0l-4.735,4.555,4.365,4.365Z" transform="translate(-68.569 -156.627)" fill="#7f551d"/><path d="M104.822,178.079a2.382,2.382,0,0,0,0-3.369l-2.663-2.663-1.6-1.6a2.382,2.382,0,0,0-3.369,3.369l4.265,4.265A2.382,2.382,0,0,0,104.822,178.079Z" transform="translate(-81.755 -143.824)" fill="#9e7430"/><path d="M100.178,173.436a2.382,2.382,0,0,1,3.369,0l-2.991-2.991a2.382,2.382,0,0,0-3.369,3.369l2.991,2.991A2.382,2.382,0,0,1,100.178,173.436Z" transform="translate(-81.754 -143.824)" fill="#8e6325"/><rect width="28.89" height="17.613" transform="translate(23.056 6.205) rotate(45)" fill="#9e7430"/><g transform="translate(10.601 12.14)"><rect width="28.89" height="9.22" transform="translate(6.519) rotate(45)" fill="#8e6325"/><path d="M216.645,173.585l-2.437-2.437a1.536,1.536,0,0,0-2.165,0l-12.109,12.109a1.536,1.536,0,0,0,0,2.165l2.437,2.437Z" transform="translate(-179.623 -156.772)" fill="#8e6325"/></g><path d="M206.113,212.447l-6.18,6.18a1.536,1.536,0,0,0,0,2.165l2.437,2.437,6.18-6.18-2.437-2.437A1.536,1.536,0,0,1,206.113,212.447Z" transform="translate(-169.02 -180.002)" fill="#7f551d"/><path d="M224.718,178.438a2.382,2.382,0,0,0-3.369,0l-14.127,14.127a2.382,2.382,0,0,0,3.369,3.369l14.127-14.127A2.382,2.382,0,0,0,224.718,178.438Z" transform="translate(-174.984 -150.596)" fill="#9e7430"/><g transform="translate(7.203 2.807)"><path d="M213.443,237.449a2.382,2.382,0,0,1,0-3.369l-6.22,6.22a2.382,2.382,0,0,0,3.369,3.369l6.22-6.22A2.382,2.382,0,0,1,213.443,237.449Z" transform="translate(-182.188 -201.139)" fill="#8e6325"/><path d="M61.443,18.383l2.437,2.437a1.536,1.536,0,0,1,0,2.166L51.77,35.094a1.536,1.536,0,0,1-2.165,0l-2.437-2.437Z" transform="translate(-47.168 -18.383)" fill="#8e6325"/></g><path d="M57.95,73.822,51.77,80A1.536,1.536,0,0,1,49.6,80l-2.437-2.437,6.18-6.18,2.437,2.437A1.536,1.536,0,0,0,57.95,73.822Z" transform="translate(-39.965 -60.483)" fill="#7f551d"/><path d="M46.978.7a2.382,2.382,0,0,1,0,3.369l-9.946,9.946-1.6,1.6-.976.976-1.6,1.6a2.382,2.382,0,0,1-3.369-3.369L43.609.7A2.382,2.382,0,0,1,46.978.7Z" transform="translate(-24.389)" fill="#9e7430"/><path d="M35.7,59.708a2.382,2.382,0,0,0,3.369,0l-2.039,2.039-1.6,1.6-.976.976-1.6,1.6a2.382,2.382,0,0,1-3.369-3.369l6.22-6.22A2.382,2.382,0,0,0,35.7,59.708Z" transform="translate(-24.389 -47.735)" fill="#8e6325"/><g transform="translate(53.798 24.52)"><path d="M353.147,168.371a1.145,1.145,0,0,1-.851-1.378l1.315-5.556a1.145,1.145,0,0,1,2.229.528l-1.315,5.556A1.145,1.145,0,0,1,353.147,168.371Z" transform="translate(-352.265 -160.555)" fill="#e6e6e6"/><path d="M393,211.325a1.145,1.145,0,0,1,.373-1.576l4.859-3a1.145,1.145,0,0,1,1.2,1.949l-4.859,3A1.145,1.145,0,0,1,393,211.325Z" transform="translate(-386.638 -199.551)" fill="#e6e6e6"/><path d="M400.846,276.484a1.145,1.145,0,0,1,1.378-.851l5.556,1.315a1.145,1.145,0,0,1-.528,2.229l-5.556-1.315A1.145,1.145,0,0,1,400.846,276.484Z" transform="translate(-393.401 -258.032)" fill="#e6e6e6"/></g><path d="M125.738,430.21H68.454a39.282,39.282,0,0,0,8.134,6.682H117.6A39.278,39.278,0,0,0,125.738,430.21Z" transform="translate(-58 -364.509)" fill="#0eb0ff"/><g transform="translate(10.454 65.701)"><path d="M90.441,430.21H68.454a39.282,39.282,0,0,0,8.134,6.682H90.441A3.534,3.534,0,0,1,90.441,430.21Z" transform="translate(-68.454 -430.21)" fill="#009cf7"/><path d="M121.713,473.961a39.1,39.1,0,0,0,41.017,0Z" transform="translate(-113.579 -467.279)" fill="#009cf7"/></g><path d="M135.566,473.961H121.713a38.878,38.878,0,0,0,11.8,4.83A3.531,3.531,0,0,1,135.566,473.961Z" transform="translate(-103.125 -401.578)" fill="#168ca8"/><path d="M263.294,402.086H228.863a2.148,2.148,0,0,0-2.148,2.148h0a2.147,2.147,0,0,0,2.148,2.147h30.969A39.249,39.249,0,0,0,263.294,402.086Z" transform="translate(-192.091 -340.68)" fill="#8e6325"/><path d="M180.67,402.087H172.2a2.148,2.148,0,0,0-2.148,2.147h0a2.147,2.147,0,0,0,2.148,2.147h8.474A2.187,2.187,0,0,1,180.67,402.087Z" transform="translate(-144.078 -340.681)" fill="#7f551d"/></g></g></svg>