<svg xmlns="http://www.w3.org/2000/svg" width="89.546" height="89.489" viewBox="0 0 89.546 89.489"><g transform="translate(0 -0.163)"><g transform="translate(3.481 0.163)"><path d="M61.2,52.033c-24.728,0-43.459-19.451-41.089-24.91a44.792,44.792,0,0,1,82.2.039C104.661,32.61,85.924,52.033,61.2,52.033Z" transform="translate(-19.904 -0.163)" fill="#ffdf66"/><path d="M61.62,153.684c-13.595,0-43.451-14.7-41.067-20.171a44.671,44.671,0,0,1,2.185-4.35,44.786,44.786,0,0,0,77.765,0,44.608,44.608,0,0,1,2.186,4.353C105.071,138.987,75.214,153.684,61.62,153.684Z" transform="translate(-20.328 -106.602)" fill="#fec21b"/></g><g transform="translate(0 18.767)"><path d="M44.773,198.648v-44.6H3.707a44.819,44.819,0,0,0,5.152,44.6Z" transform="translate(0 -145.739)" fill="#737b97"/><path d="M88.792,348.518H82.119A8.916,8.916,0,0,1,76.7,346.7l-1.253-.947-1.252.947a9,9,0,0,1-10.841,0l-1.252-.947-1.253.947a8.917,8.917,0,0,1-5.421,1.817H53.35v8.924a45,45,0,0,0,12.555,11.129H88.792Z" transform="translate(-44.019 -303.916)" fill="#9abdc9"/><path d="M20.59,346.7l-1.253-.947-1.2.91a44.9,44.9,0,0,0,14.55,19.1V348.519H26.011A8.919,8.919,0,0,1,20.59,346.7Z" transform="translate(-14.962 -303.917)" fill="#9abdc9"/><path d="M71.492,432.621v-5.835H65.168A45.018,45.018,0,0,0,71.492,432.621Z" transform="translate(-53.77 -370.776)" fill="#bdf3ff"/><path d="M256,154.049v44.6h35.914a44.818,44.818,0,0,0,5.152-44.6H256Z" transform="translate(-211.227 -145.739)" fill="#5a637b"/><path d="M291.442,348.518h-2.077a8.916,8.916,0,0,1-5.421-1.817l-1.253-.947-1.252.947a9,9,0,0,1-10.841,0l-1.252-.947-1.252.947a8.917,8.917,0,0,1-5.421,1.817H256v20.053h22.887a45,45,0,0,0,12.555-11.129Z" transform="translate(-211.227 -303.916)" fill="#80a5af"/><path d="M410.675,365.762a44.9,44.9,0,0,0,14.549-19.1l-1.2-.91-1.252.947a8.917,8.917,0,0,1-5.421,1.817h-6.673Z" transform="translate(-338.85 -303.917)" fill="#80a5af"/><path d="M410.675,432.621A45.019,45.019,0,0,0,417,426.786h-6.324Z" transform="translate(-338.85 -370.776)" fill="#9abdc9"/><path d="M207.013,106.537,196.63,127.3l10.383,20.767a20.767,20.767,0,0,0,0-41.534Z" transform="translate(-162.241 -106.537)" fill="#383d4f"/><path d="M137.26,127.3a20.767,20.767,0,0,0,20.767,20.767V106.537A20.767,20.767,0,0,0,137.26,127.3Z" transform="translate(-113.254 -106.537)" fill="#4e5262"/><path d="M226.608,154.033l-6.23,19.382,18.69-6.922A12.46,12.46,0,0,0,226.608,154.033Z" transform="translate(-181.835 -145.726)" fill="#22273b"/><path d="M250.035,258.094l-1.253.947a9,9,0,0,1-10.841,0l-1.252-.947-1.253.947a8.917,8.917,0,0,1-3.344,1.577V234.147a12.422,12.422,0,0,0,3.71-8.87h-18.69l-.692,45.964,6.922,4.153h2.268a44.653,44.653,0,0,0,30.809-14.543,8.91,8.91,0,0,1-5.133-1.811Z" transform="translate(-178.569 -204.51)" fill="#9abdc9"/><path d="M197.216,154.033a12.46,12.46,0,0,0-12.46,12.46l6.23,4.153,6.23-4.153Z" transform="translate(-152.443 -145.726)" fill="#383d4f"/><path d="M99.949,225.277H87.488a12.422,12.422,0,0,0,3.71,8.87v26.471a8.919,8.919,0,0,1-3.344-1.577l-1.253-.947-1.252.947a9,9,0,0,1-10.841,0l-1.252-.947L72,259.041a8.907,8.907,0,0,1-5.133,1.811A44.653,44.653,0,0,0,97.68,275.395h2.268Z" transform="translate(-55.176 -204.51)" fill="#bdf3ff"/></g></g></svg>