<svg xmlns="http://www.w3.org/2000/svg" width="1327.999" height="96.486" viewBox="0 0 1327.999 96.486"><g transform="translate(-136 -8479.223)"><g transform="translate(1132 8479.223)"><g transform="translate(219.821 0)"><g transform="translate(56.733)"><path d="M4806.521,2729.424s1.2-6.737,2.106-7.9,4.05-2.555,6.837-2.323,5.227,4.152,6.388,4.689,1.51,3.673,1.045,4.6S4807.8,2730.7,4806.521,2729.424Z" transform="translate(-4806.521 -2719.177)" fill="#515c70"/></g><g transform="translate(37.132 3.949)"><path d="M4773.069,2737.379l-13.494-5.25-10.795,1.788-6.558,3.875v4.4h30.4Z" transform="translate(-4742.223 -2732.13)" fill="#434a59"/></g><g transform="translate(65.816 1.59)"><path d="M4865.7,2733.631l-2.385-6.16-13.114-3.08-7.252,3.179-2.719.758a4.421,4.421,0,0,0-3.089,3.14l-.825,3.155s13.125.317,14.8.754S4865.7,2733.631,4865.7,2733.631Z" transform="translate(-4836.314 -2724.391)" fill="#434a59"/></g><g transform="translate(43.035 6.259)"><path d="M4773.038,2745.192a2.722,2.722,0,0,0-1.061-2.994c-1.639-1.017-3.279-2.6-5.464-2.485s-2.782,1.864-4.123,2.485-.6,3.164-.6,3.955S4773.256,2747.318,4773.038,2745.192Z" transform="translate(-4761.588 -2739.708)" fill="#515c70"/></g><g transform="translate(55.511 6.882)"><path d="M4825.41,2747.138s-.278-3.03-1.977-3.577a44.928,44.928,0,0,0-7.76-1.581c-1.639-.059-3.923-.488-5.414,0s-4.57,1.556-5.514,1.866-2.186,2.347-2.235,2.943,6.407,1.815,8.593,2.249S4826.6,2749.174,4825.41,2747.138Z" transform="translate(-4802.51 -2741.75)" fill="#515c70"/></g><g transform="translate(21.882 2.782)"><path d="M4711.151,2735.752l-3.7-7.451-12.667.894-2.583,7.75,15.8,2.284Z" transform="translate(-4692.201 -2728.301)" fill="#515c70"/></g><g transform="translate(87.65 5.392)"><path d="M4907.933,2745.63s1.026-5.762,1.8-6.756,3.465-2.186,5.849-1.987,4.471,3.552,5.464,4.011,1.291,3.141.894,3.936S4909.025,2746.722,4907.933,2745.63Z" transform="translate(-4907.933 -2736.865)" fill="#515c70"/></g><g transform="translate(0 11.426)"><g transform="translate(14.586 65.737)"><g transform="translate(44.594 0)"><g transform="translate(0 0.551)"><path d="M4825.867,2975.018l.076-.329-1.99-.4c-.146-.034-.295-.063-.445-.089l-.061-.012v0a7.675,7.675,0,0,0-3.145,15.008h0l.018,0a7.632,7.632,0,0,0,.834.165l1.313.26.046-.2c.062,0,.123,0,.187-.007a7.674,7.674,0,0,0,3.167-14.412Z" transform="translate(-4814.544 -2974.095)" fill="#1c1f23"/></g><g transform="translate(1.264)"><ellipse cx="7.675" cy="7.675" rx="7.675" ry="7.675" transform="translate(0 2.169) rotate(-8.122)" fill="#2c3038"/></g><g transform="translate(6.403 5.143)"><path d="M4839.091,2989.159v.011c-.075,0-.146-.013-.223-.009a3.536,3.536,0,0,0,.223,7.066v.016H4857.4v-7.084Z" transform="translate(-4835.547 -2989.159)" fill="#515c70"/></g><g transform="translate(23.852 0.072)"><g transform="translate(0 0)"><g transform="translate(0 0.479)"><path d="M4904.107,2975.018l.076-.329-1.99-.4c-.146-.034-.3-.063-.445-.089l-.061-.012v0a7.675,7.675,0,0,0-3.145,15.008h0l.019,0a7.624,7.624,0,0,0,.833.165l1.314.26.046-.2c.062,0,.124,0,.187-.007a7.675,7.675,0,0,0,3.167-14.412Z" transform="translate(-4892.785 -2974.095)" fill="#1c1f23"/></g><g transform="translate(1.337)"><ellipse cx="7.675" cy="7.675" rx="7.675" ry="7.675" transform="translate(0 15.22) rotate(-82.509)" fill="#2c3038"/></g><g transform="translate(5.513 4.176)"><ellipse cx="3.544" cy="3.544" rx="3.544" ry="3.544" transform="matrix(0.955, -0.296, 0.296, 0.955, 0, 2.099)" fill="#5f6e82"/></g></g></g></g><g transform="translate(0 0.551)"><path d="M4679.59,2975.018l.076-.329-1.99-.4c-.146-.034-.295-.063-.445-.089l-.061-.012v0a7.675,7.675,0,0,0-3.146,15.008h0l.018,0a7.618,7.618,0,0,0,.834.165l1.314.26.045-.2c.062,0,.124,0,.187-.007a7.675,7.675,0,0,0,3.167-14.412Z" transform="translate(-4668.267 -2974.095)" fill="#1c1f23"/><g transform="translate(2.272 0.457)"><ellipse cx="7.675" cy="7.675" rx="7.675" ry="7.675" fill="#2c3038"/></g><g transform="translate(6.403 4.592)"><path d="M4692.814,2989.159v.011c-.075,0-.146-.013-.223-.009a3.536,3.536,0,0,0,.223,7.066v.016h18.309v-7.084Z" transform="translate(-4689.27 -2989.159)" fill="#515c70"/></g><g transform="translate(23.852)"><path d="M4757.831,2975.018l.077-.329-1.99-.4c-.146-.034-.3-.063-.445-.089l-.061-.012v0a7.675,7.675,0,0,0-3.146,15.008h0l.018,0a7.624,7.624,0,0,0,.833.165l1.314.26.045-.2c.062,0,.124,0,.187-.007a7.674,7.674,0,0,0,3.166-14.412Z" transform="translate(-4746.508 -2974.095)" fill="#1c1f23"/><g transform="translate(2.272 0.457)"><ellipse cx="7.675" cy="7.675" rx="7.675" ry="7.675" fill="#2c3038"/></g><g transform="translate(4.945 3.13)"><ellipse cx="3.544" cy="3.544" rx="3.544" ry="3.544" transform="matrix(0.661, -0.75, 0.75, 0.661, 0, 5.316)" fill="#5f6e82"/></g></g></g></g><g transform="translate(19.453)"><path d="M4684.234,2756.655v67.413h72.134a20.592,20.592,0,0,0,20.592-20.592v-46.821Z" transform="translate(-4684.234 -2756.655)" fill="#d47328"/></g><path d="M4620.422,2756.655v48.1a19.316,19.316,0,0,0,19.316,19.316h2.2a19.316,19.316,0,0,0,19.317-19.316v-48.1Z" transform="translate(-4620.422 -2756.655)" fill="#ffae43"/><g transform="translate(46.114 12.932)"><path d="M4828.753,2799.077h-52.421a4.647,4.647,0,0,0,0,9.293h52.421a4.647,4.647,0,1,0,0-9.293Z" transform="translate(-4771.686 -2799.077)" fill="#ffe164"/></g><g transform="translate(44.757 0)"><g transform="translate(54.873)"><path d="M4952.2,2756.656l-4.966,7.9h4.761l4.966-7.9Z" transform="translate(-4947.234 -2756.656)" fill="#434a59"/></g><g transform="translate(43.899)"><path d="M4920.96,2756.656H4916.2l-4.966,7.9h4.761Z" transform="translate(-4911.233 -2756.656)" fill="#434a59"/></g><g transform="translate(32.924)"><path d="M4884.961,2756.656H4880.2l-4.966,7.9H4880Z" transform="translate(-4875.234 -2756.656)" fill="#434a59"/></g><g transform="translate(21.949)"><path d="M4848.962,2756.656H4844.2l-4.966,7.9H4844Z" transform="translate(-4839.235 -2756.656)" fill="#434a59"/></g><g transform="translate(10.975)"><path d="M4812.962,2756.656H4808.2l-4.966,7.9H4808Z" transform="translate(-4803.235 -2756.656)" fill="#434a59"/></g><path d="M4776.963,2756.656H4772.2l-4.966,7.9H4772Z" transform="translate(-4767.236 -2756.656)" fill="#434a59"/></g></g></g><rect width="25.113" height="7.958" rx="3.979" transform="translate(223.413 71.649)" fill="#434a59"/><rect width="34.221" height="4.706" rx="2.353" transform="translate(200.035 73.275)" fill="#515c70"/><g transform="translate(110.577 0)"><g transform="translate(56.733)"><path d="M4448.176,2729.424s1.2-6.737,2.106-7.9,4.05-2.555,6.838-2.323,5.226,4.152,6.388,4.689,1.51,3.673,1.045,4.6S4449.453,2730.7,4448.176,2729.424Z" transform="translate(-4448.176 -2719.177)" fill="#515c70"/></g><g transform="translate(37.132 3.949)"><path d="M4414.726,2737.379l-13.495-5.25-10.8,1.788-6.557,3.875v4.4h30.4Z" transform="translate(-4383.878 -2732.13)" fill="#434a59"/></g><g transform="translate(65.816 1.59)"><path d="M4507.354,2733.631l-2.385-6.16-13.114-3.08-7.251,3.179-2.72.758a4.422,4.422,0,0,0-3.09,3.14l-.824,3.155s13.125.317,14.8.754S4507.354,2733.631,4507.354,2733.631Z" transform="translate(-4477.97 -2724.391)" fill="#434a59"/></g><g transform="translate(43.035 6.259)"><path d="M4414.692,2745.192a2.721,2.721,0,0,0-1.059-2.994c-1.64-1.017-3.279-2.6-5.464-2.485s-2.782,1.864-4.123,2.485-.6,3.164-.6,3.955S4414.911,2747.318,4414.692,2745.192Z" transform="translate(-4403.243 -2739.708)" fill="#515c70"/></g><g transform="translate(55.511 6.882)"><path d="M4467.064,2747.138s-.277-3.03-1.976-3.577a44.937,44.937,0,0,0-7.76-1.581c-1.639-.059-3.924-.488-5.414,0s-4.57,1.556-5.514,1.866-2.186,2.347-2.236,2.943,6.408,1.815,8.594,2.249S4468.256,2749.174,4467.064,2747.138Z" transform="translate(-4444.164 -2741.75)" fill="#515c70"/></g><g transform="translate(21.882 2.782)"><path d="M4352.807,2735.752l-3.7-7.451-12.667.894-2.583,7.75,15.8,2.284Z" transform="translate(-4333.856 -2728.301)" fill="#515c70"/></g><g transform="translate(87.649 5.392)"><path d="M4549.588,2745.63s1.026-5.762,1.8-6.756,3.464-2.186,5.848-1.987,4.471,3.552,5.464,4.011,1.292,3.141.895,3.936S4550.681,2746.722,4549.588,2745.63Z" transform="translate(-4549.588 -2736.865)" fill="#515c70"/></g><g transform="translate(0 11.426)"><g transform="translate(14.586 63.779)"><g transform="translate(44.594 2.031)"><g transform="translate(0 0.479)"><path d="M4467.521,2975.018l.077-.329-1.99-.4c-.147-.034-.3-.063-.445-.089l-.06-.012v0a7.675,7.675,0,0,0-3.145,15.008h0l.018,0a7.609,7.609,0,0,0,.834.165l1.313.26.046-.2c.062,0,.124,0,.186-.007a7.674,7.674,0,0,0,3.167-14.412Z" transform="translate(-4456.198 -2974.095)" fill="#1c1f23"/></g><g transform="translate(1.336 0)"><ellipse cx="7.675" cy="7.675" rx="7.675" ry="7.675" transform="translate(0 15.22) rotate(-82.509)" fill="#2c3038"/></g><g transform="translate(6.403 5.071)"><path d="M4480.746,2989.159v.011c-.075,0-.147-.013-.222-.009a3.536,3.536,0,0,0,.222,7.066v.016h18.309v-7.084Z" transform="translate(-4477.202 -2989.159)" fill="#515c70"/></g><g transform="translate(23.852 0.479)"><path d="M4545.763,2975.018l.076-.329-1.99-.4c-.147-.034-.3-.063-.445-.089l-.06-.012v0a7.675,7.675,0,0,0-3.145,15.008h0l.018,0a7.609,7.609,0,0,0,.834.165l1.314.26.046-.2c.062,0,.124,0,.186-.007a7.675,7.675,0,0,0,3.167-14.412Z" transform="translate(-4534.44 -2974.095)" fill="#1c1f23"/><g transform="translate(2.272 0.457)"><ellipse cx="7.675" cy="7.675" rx="7.675" ry="7.675" fill="#2c3038"/></g><g transform="translate(5.271 3.456)"><ellipse cx="3.544" cy="3.544" rx="3.544" ry="3.544" transform="translate(0 6.48) rotate(-66.103)" fill="#5f6e82"/></g></g></g><g transform="translate(0 0)"><g transform="translate(0 2.509)"><path d="M4321.245,2975.018l.076-.329-1.99-.4c-.147-.034-.3-.063-.445-.089l-.06-.012v0a7.675,7.675,0,0,0-3.145,15.008h0l.019,0a7.609,7.609,0,0,0,.834.165l1.314.26.045-.2c.062,0,.124,0,.186-.007a7.675,7.675,0,0,0,3.167-14.412Z" transform="translate(-4309.922 -2974.095)" fill="#1c1f23"/></g><g transform="translate(2.272 2.966)"><ellipse cx="7.675" cy="7.675" rx="7.675" ry="7.675" fill="#2c3038"/></g><g transform="translate(6.403 7.102)"><path d="M4334.47,2989.159v.011c-.075,0-.146-.013-.222-.009a3.536,3.536,0,0,0,.222,7.066v.016h18.309v-7.084Z" transform="translate(-4330.926 -2989.159)" fill="#515c70"/></g><g transform="translate(23.158)"><g transform="translate(0)"><g transform="translate(0.694 2.509)"><path d="M4399.486,2975.018l.076-.329-1.99-.4c-.147-.034-.295-.063-.445-.089l-.06-.012v0a7.675,7.675,0,0,0-3.145,15.008h0l.018,0a7.632,7.632,0,0,0,.834.165l1.314.26.045-.2c.062,0,.124,0,.186-.007a7.675,7.675,0,0,0,3.167-14.412Z" transform="translate(-4388.163 -2974.095)" fill="#1c1f23"/></g><g transform="translate(0)"><ellipse cx="7.675" cy="7.675" rx="7.675" ry="7.675" transform="translate(0 12.782) rotate(-56.372)" fill="#2c3038"/></g><g transform="translate(5.639 5.639)"><ellipse cx="3.544" cy="3.544" rx="3.544" ry="3.544" transform="matrix(0.661, -0.75, 0.75, 0.661, 0, 5.316)" fill="#5f6e82"/></g></g></g></g></g><g transform="translate(19.453)"><path d="M4325.889,2756.655v67.413h72.134a20.592,20.592,0,0,0,20.592-20.592v-46.821Z" transform="translate(-4325.889 -2756.655)" fill="#d47328"/></g><path d="M4262.078,2756.655v48.1a19.316,19.316,0,0,0,19.316,19.316h2.2a19.316,19.316,0,0,0,19.316-19.316v-48.1Z" transform="translate(-4262.078 -2756.655)" fill="#ffae43"/><g transform="translate(46.114 12.932)"><path d="M4470.409,2799.077h-52.421a4.647,4.647,0,1,0,0,9.293h52.421a4.647,4.647,0,1,0,0-9.293Z" transform="translate(-4413.341 -2799.077)" fill="#ffe164"/></g><g transform="translate(44.757 0)"><g transform="translate(54.873)"><path d="M4593.855,2756.656l-4.966,7.9h4.761l4.966-7.9Z" transform="translate(-4588.889 -2756.656)" fill="#434a59"/></g><g transform="translate(43.899)"><path d="M4562.616,2756.656h-4.761l-4.966,7.9h4.761Z" transform="translate(-4552.889 -2756.656)" fill="#434a59"/></g><g transform="translate(32.924)"><path d="M4526.616,2756.656h-4.761l-4.966,7.9h4.761Z" transform="translate(-4516.89 -2756.656)" fill="#434a59"/></g><g transform="translate(21.949)"><path d="M4490.618,2756.656h-4.761l-4.966,7.9h4.76Z" transform="translate(-4480.891 -2756.656)" fill="#434a59"/></g><g transform="translate(10.975)"><path d="M4454.618,2756.656h-4.76l-4.967,7.9h4.761Z" transform="translate(-4444.891 -2756.656)" fill="#434a59"/></g><path d="M4418.618,2756.656h-4.761l-4.966,7.9h4.761Z" transform="translate(-4408.892 -2756.656)" fill="#434a59"/></g></g></g><rect width="25.113" height="7.958" rx="3.979" transform="translate(115.401 71.649)" fill="#434a59"/><rect width="34.221" height="4.706" rx="2.353" transform="translate(92.023 73.275)" fill="#515c70"/><g transform="translate(0 0)"><g transform="translate(56.733)"><path d="M4085.459,2729.424s1.2-6.737,2.106-7.9,4.05-2.555,6.838-2.323,5.226,4.152,6.388,4.689,1.51,3.673,1.045,4.6S4086.736,2730.7,4085.459,2729.424Z" transform="translate(-4085.459 -2719.177)" fill="#515c70"/></g><g transform="translate(37.132 3.949)"><path d="M4052.008,2737.379l-13.494-5.25-10.8,1.788-6.557,3.875v4.4h30.4Z" transform="translate(-4021.161 -2732.13)" fill="#434a59"/></g><g transform="translate(65.816 1.59)"><path d="M4144.635,2733.631l-2.384-6.16-13.115-3.08-7.251,3.179-2.719.758a4.421,4.421,0,0,0-3.089,3.14l-.825,3.155s13.125.317,14.8.754S4144.635,2733.631,4144.635,2733.631Z" transform="translate(-4115.251 -2724.391)" fill="#434a59"/></g><g transform="translate(43.035 6.259)"><path d="M4051.974,2745.192a2.722,2.722,0,0,0-1.06-2.994c-1.639-1.017-3.278-2.6-5.464-2.485s-2.782,1.864-4.123,2.485-.6,3.164-.6,3.955S4052.194,2747.318,4051.974,2745.192Z" transform="translate(-4040.525 -2739.708)" fill="#515c70"/></g><g transform="translate(55.511 6.882)"><path d="M4104.347,2747.138s-.277-3.03-1.977-3.577a44.919,44.919,0,0,0-7.759-1.581c-1.64-.059-3.925-.488-5.415,0s-4.57,1.556-5.514,1.866-2.185,2.347-2.235,2.943,6.407,1.815,8.593,2.249S4105.54,2749.174,4104.347,2747.138Z" transform="translate(-4081.448 -2741.75)" fill="#515c70"/></g><g transform="translate(21.882 2.782)"><path d="M3990.089,2735.752l-3.7-7.451-12.667.894-2.583,7.75,15.8,2.284Z" transform="translate(-3971.138 -2728.301)" fill="#515c70"/></g><g transform="translate(87.649 5.392)"><path d="M4186.871,2745.63s1.026-5.762,1.8-6.756,3.465-2.186,5.849-1.987,4.471,3.552,5.464,4.011,1.291,3.141.894,3.936S4187.963,2746.722,4186.871,2745.63Z" transform="translate(-4186.871 -2736.865)" fill="#515c70"/></g><g transform="translate(0 11.426)"><g transform="translate(14.585 64.169)"><g transform="translate(44.289 0)"><g transform="translate(0.304 2.119)"><path d="M4104.8,2975.018l.077-.329-1.99-.4c-.146-.034-.295-.063-.445-.089l-.06-.012v0a7.675,7.675,0,0,0-3.145,15.008h0l.018,0a7.609,7.609,0,0,0,.834.165l1.313.26.046-.2c.062,0,.124,0,.187-.007a7.674,7.674,0,0,0,3.167-14.412Z" transform="translate(-4093.481 -2974.095)" fill="#1c1f23"/></g><g transform="translate(0)"><ellipse cx="7.675" cy="7.675" rx="7.675" ry="7.675" transform="translate(0 13.819) rotate(-64.191)" fill="#2c3038"/></g><g transform="translate(6.707 6.712)"><path d="M4118.028,2989.159v.011c-.074,0-.147-.013-.222-.009a3.536,3.536,0,0,0,.222,7.066v.016h18.309v-7.084Z" transform="translate(-4114.484 -2989.159)" fill="#515c70"/></g><g transform="translate(24.157 1.569)"><g transform="translate(0 0)"><g transform="translate(0 0.551)"><path d="M4183.044,2975.018l.077-.329-1.99-.4c-.147-.034-.3-.063-.445-.089l-.061-.012v0a7.675,7.675,0,0,0-3.146,15.008h0l.019,0a7.6,7.6,0,0,0,.833.165l1.314.26.045-.2c.063,0,.125,0,.187-.007a7.675,7.675,0,0,0,3.167-14.412Z" transform="translate(-4171.722 -2974.095)" fill="#1c1f23"/></g><g transform="translate(1.265)"><ellipse cx="7.675" cy="7.675" rx="7.675" ry="7.675" transform="translate(0 2.169) rotate(-8.122)" fill="#2c3038"/></g><g transform="translate(5.135 3.87)"><ellipse cx="3.544" cy="3.544" rx="3.544" ry="3.544" transform="matrix(0.876, -0.481, 0.481, 0.876, 0, 3.412)" fill="#5f6e82"/></g></g></g></g><g transform="translate(0 1.641)"><g transform="translate(0 0.479)"><path d="M3958.527,2975.018l.077-.329-1.99-.4c-.147-.034-.3-.063-.445-.089l-.06-.012v0a7.675,7.675,0,0,0-3.146,15.008h0l.018,0a7.587,7.587,0,0,0,.834.165l1.314.26.045-.2c.063,0,.124,0,.187-.007a7.675,7.675,0,0,0,3.167-14.412Z" transform="translate(-3947.204 -2974.095)" fill="#1c1f23"/></g><g transform="translate(1.337 0)"><ellipse cx="7.675" cy="7.675" rx="7.675" ry="7.675" transform="matrix(0.13, -0.991, 0.991, 0.13, 0, 15.22)" fill="#2c3038"/></g><g transform="translate(6.403 5.071)"><path d="M3971.752,2989.159v.011c-.075,0-.146-.013-.222-.009a3.536,3.536,0,0,0,.222,7.066v.016h18.309v-7.084Z" transform="translate(-3968.208 -2989.159)" fill="#515c70"/></g><g transform="translate(23.852 0.479)"><path d="M4036.769,2975.018l.076-.329-1.99-.4c-.146-.034-.3-.063-.445-.089l-.061-.012v0a7.675,7.675,0,0,0-3.146,15.008h0l.018,0a7.644,7.644,0,0,0,.834.165l1.314.26.046-.2c.062,0,.124,0,.187-.007a7.675,7.675,0,0,0,3.167-14.412Z" transform="translate(-4025.446 -2974.095)" fill="#1c1f23"/><g transform="translate(2.272 0.457)"><ellipse cx="7.675" cy="7.675" rx="7.675" ry="7.675" fill="#2c3038"/></g><g transform="translate(5.271 3.456)"><ellipse cx="3.544" cy="3.544" rx="3.544" ry="3.544" transform="translate(0 6.48) rotate(-66.103)" fill="#5f6e82"/></g></g></g></g><g transform="translate(19.453)"><path d="M3963.171,2756.655v67.413h72.134a20.592,20.592,0,0,0,20.592-20.592v-46.821Z" transform="translate(-3963.171 -2756.655)" fill="#d47328"/></g><path d="M3899.361,2756.655v48.1a19.316,19.316,0,0,0,19.316,19.316h2.2a19.316,19.316,0,0,0,19.317-19.316v-48.1Z" transform="translate(-3899.361 -2756.655)" fill="#ffae43"/><g transform="translate(46.113 12.932)"><path d="M4107.691,2799.077H4055.27a4.647,4.647,0,1,0,0,9.293h52.421a4.647,4.647,0,1,0,0-9.293Z" transform="translate(-4050.623 -2799.077)" fill="#ffe164"/></g><g transform="translate(44.757 0)"><g transform="translate(54.873)"><path d="M4231.137,2756.656l-4.966,7.9h4.761l4.966-7.9Z" transform="translate(-4226.171 -2756.656)" fill="#434a59"/></g><g transform="translate(43.899)"><path d="M4199.9,2756.656h-4.761l-4.966,7.9h4.761Z" transform="translate(-4190.172 -2756.656)" fill="#434a59"/></g><g transform="translate(32.924)"><path d="M4163.9,2756.656h-4.761l-4.966,7.9h4.76Z" transform="translate(-4154.173 -2756.656)" fill="#434a59"/></g><g transform="translate(21.949)"><path d="M4127.9,2756.656h-4.761l-4.966,7.9h4.761Z" transform="translate(-4118.173 -2756.656)" fill="#434a59"/></g><g transform="translate(10.975)"><path d="M4091.9,2756.656h-4.761l-4.966,7.9h4.761Z" transform="translate(-4082.173 -2756.656)" fill="#434a59"/></g><path d="M4055.9,2756.656h-4.761l-4.966,7.9h4.761Z" transform="translate(-4046.174 -2756.656)" fill="#434a59"/></g></g></g></g><g transform="translate(800 8479.223)"><g transform="translate(219.821 0)"><g transform="translate(56.733)"><path d="M4806.521,2729.424s1.2-6.737,2.106-7.9,4.05-2.555,6.837-2.323,5.227,4.152,6.388,4.689,1.51,3.673,1.045,4.6S4807.8,2730.7,4806.521,2729.424Z" transform="translate(-4806.521 -2719.177)" fill="#515c70"/></g><g transform="translate(37.132 3.949)"><path d="M4773.069,2737.379l-13.494-5.25-10.795,1.788-6.558,3.875v4.4h30.4Z" transform="translate(-4742.223 -2732.13)" fill="#434a59"/></g><g transform="translate(65.816 1.59)"><path d="M4865.7,2733.631l-2.385-6.16-13.114-3.08-7.252,3.179-2.719.758a4.421,4.421,0,0,0-3.089,3.14l-.825,3.155s13.125.317,14.8.754S4865.7,2733.631,4865.7,2733.631Z" transform="translate(-4836.314 -2724.391)" fill="#434a59"/></g><g transform="translate(43.035 6.259)"><path d="M4773.038,2745.192a2.722,2.722,0,0,0-1.061-2.994c-1.639-1.017-3.279-2.6-5.464-2.485s-2.782,1.864-4.123,2.485-.6,3.164-.6,3.955S4773.256,2747.318,4773.038,2745.192Z" transform="translate(-4761.588 -2739.708)" fill="#515c70"/></g><g transform="translate(55.511 6.882)"><path d="M4825.41,2747.138s-.278-3.03-1.977-3.577a44.928,44.928,0,0,0-7.76-1.581c-1.639-.059-3.923-.488-5.414,0s-4.57,1.556-5.514,1.866-2.186,2.347-2.235,2.943,6.407,1.815,8.593,2.249S4826.6,2749.174,4825.41,2747.138Z" transform="translate(-4802.51 -2741.75)" fill="#515c70"/></g><g transform="translate(21.882 2.782)"><path d="M4711.151,2735.752l-3.7-7.451-12.667.894-2.583,7.75,15.8,2.284Z" transform="translate(-4692.201 -2728.301)" fill="#515c70"/></g><g transform="translate(87.65 5.392)"><path d="M4907.933,2745.63s1.026-5.762,1.8-6.756,3.465-2.186,5.849-1.987,4.471,3.552,5.464,4.011,1.291,3.141.894,3.936S4909.025,2746.722,4907.933,2745.63Z" transform="translate(-4907.933 -2736.865)" fill="#515c70"/></g><g transform="translate(0 11.426)"><g transform="translate(14.586 65.737)"><g transform="translate(44.594 0)"><g transform="translate(0 0.551)"><path d="M4825.867,2975.018l.076-.329-1.99-.4c-.146-.034-.295-.063-.445-.089l-.061-.012v0a7.675,7.675,0,0,0-3.145,15.008h0l.018,0a7.632,7.632,0,0,0,.834.165l1.313.26.046-.2c.062,0,.123,0,.187-.007a7.674,7.674,0,0,0,3.167-14.412Z" transform="translate(-4814.544 -2974.095)" fill="#1c1f23"/></g><g transform="translate(1.264)"><ellipse cx="7.675" cy="7.675" rx="7.675" ry="7.675" transform="translate(0 2.169) rotate(-8.122)" fill="#2c3038"/></g><g transform="translate(6.403 5.143)"><path d="M4839.091,2989.159v.011c-.075,0-.146-.013-.223-.009a3.536,3.536,0,0,0,.223,7.066v.016H4857.4v-7.084Z" transform="translate(-4835.547 -2989.159)" fill="#515c70"/></g><g transform="translate(23.852 0.072)"><g transform="translate(0 0)"><g transform="translate(0 0.479)"><path d="M4904.107,2975.018l.076-.329-1.99-.4c-.146-.034-.3-.063-.445-.089l-.061-.012v0a7.675,7.675,0,0,0-3.145,15.008h0l.019,0a7.624,7.624,0,0,0,.833.165l1.314.26.046-.2c.062,0,.124,0,.187-.007a7.675,7.675,0,0,0,3.167-14.412Z" transform="translate(-4892.785 -2974.095)" fill="#1c1f23"/></g><g transform="translate(1.337)"><ellipse cx="7.675" cy="7.675" rx="7.675" ry="7.675" transform="translate(0 15.22) rotate(-82.509)" fill="#2c3038"/></g><g transform="translate(5.513 4.176)"><ellipse cx="3.544" cy="3.544" rx="3.544" ry="3.544" transform="matrix(0.955, -0.296, 0.296, 0.955, 0, 2.099)" fill="#5f6e82"/></g></g></g></g><g transform="translate(0 0.551)"><path d="M4679.59,2975.018l.076-.329-1.99-.4c-.146-.034-.295-.063-.445-.089l-.061-.012v0a7.675,7.675,0,0,0-3.146,15.008h0l.018,0a7.618,7.618,0,0,0,.834.165l1.314.26.045-.2c.062,0,.124,0,.187-.007a7.675,7.675,0,0,0,3.167-14.412Z" transform="translate(-4668.267 -2974.095)" fill="#1c1f23"/><g transform="translate(2.272 0.457)"><ellipse cx="7.675" cy="7.675" rx="7.675" ry="7.675" fill="#2c3038"/></g><g transform="translate(6.403 4.592)"><path d="M4692.814,2989.159v.011c-.075,0-.146-.013-.223-.009a3.536,3.536,0,0,0,.223,7.066v.016h18.309v-7.084Z" transform="translate(-4689.27 -2989.159)" fill="#515c70"/></g><g transform="translate(23.852)"><path d="M4757.831,2975.018l.077-.329-1.99-.4c-.146-.034-.3-.063-.445-.089l-.061-.012v0a7.675,7.675,0,0,0-3.146,15.008h0l.018,0a7.624,7.624,0,0,0,.833.165l1.314.26.045-.2c.062,0,.124,0,.187-.007a7.674,7.674,0,0,0,3.166-14.412Z" transform="translate(-4746.508 -2974.095)" fill="#1c1f23"/><g transform="translate(2.272 0.457)"><ellipse cx="7.675" cy="7.675" rx="7.675" ry="7.675" fill="#2c3038"/></g><g transform="translate(4.945 3.13)"><ellipse cx="3.544" cy="3.544" rx="3.544" ry="3.544" transform="matrix(0.661, -0.75, 0.75, 0.661, 0, 5.316)" fill="#5f6e82"/></g></g></g></g><g transform="translate(19.453)"><path d="M4684.234,2756.655v67.413h72.134a20.592,20.592,0,0,0,20.592-20.592v-46.821Z" transform="translate(-4684.234 -2756.655)" fill="#d47328"/></g><path d="M4620.422,2756.655v48.1a19.316,19.316,0,0,0,19.316,19.316h2.2a19.316,19.316,0,0,0,19.317-19.316v-48.1Z" transform="translate(-4620.422 -2756.655)" fill="#ffae43"/><g transform="translate(46.114 12.932)"><path d="M4828.753,2799.077h-52.421a4.647,4.647,0,0,0,0,9.293h52.421a4.647,4.647,0,1,0,0-9.293Z" transform="translate(-4771.686 -2799.077)" fill="#ffe164"/></g><g transform="translate(44.757 0)"><g transform="translate(54.873)"><path d="M4952.2,2756.656l-4.966,7.9h4.761l4.966-7.9Z" transform="translate(-4947.234 -2756.656)" fill="#434a59"/></g><g transform="translate(43.899)"><path d="M4920.96,2756.656H4916.2l-4.966,7.9h4.761Z" transform="translate(-4911.233 -2756.656)" fill="#434a59"/></g><g transform="translate(32.924)"><path d="M4884.961,2756.656H4880.2l-4.966,7.9H4880Z" transform="translate(-4875.234 -2756.656)" fill="#434a59"/></g><g transform="translate(21.949)"><path d="M4848.962,2756.656H4844.2l-4.966,7.9H4844Z" transform="translate(-4839.235 -2756.656)" fill="#434a59"/></g><g transform="translate(10.975)"><path d="M4812.962,2756.656H4808.2l-4.966,7.9H4808Z" transform="translate(-4803.235 -2756.656)" fill="#434a59"/></g><path d="M4776.963,2756.656H4772.2l-4.966,7.9H4772Z" transform="translate(-4767.236 -2756.656)" fill="#434a59"/></g></g></g><rect width="25.113" height="7.958" rx="3.979" transform="translate(223.413 71.649)" fill="#434a59"/><rect width="34.221" height="4.706" rx="2.353" transform="translate(200.035 73.275)" fill="#515c70"/><g transform="translate(110.577 0)"><g transform="translate(56.733)"><path d="M4448.176,2729.424s1.2-6.737,2.106-7.9,4.05-2.555,6.838-2.323,5.226,4.152,6.388,4.689,1.51,3.673,1.045,4.6S4449.453,2730.7,4448.176,2729.424Z" transform="translate(-4448.176 -2719.177)" fill="#515c70"/></g><g transform="translate(37.132 3.949)"><path d="M4414.726,2737.379l-13.495-5.25-10.8,1.788-6.557,3.875v4.4h30.4Z" transform="translate(-4383.878 -2732.13)" fill="#434a59"/></g><g transform="translate(65.816 1.59)"><path d="M4507.354,2733.631l-2.385-6.16-13.114-3.08-7.251,3.179-2.72.758a4.422,4.422,0,0,0-3.09,3.14l-.824,3.155s13.125.317,14.8.754S4507.354,2733.631,4507.354,2733.631Z" transform="translate(-4477.97 -2724.391)" fill="#434a59"/></g><g transform="translate(43.035 6.259)"><path d="M4414.692,2745.192a2.721,2.721,0,0,0-1.059-2.994c-1.64-1.017-3.279-2.6-5.464-2.485s-2.782,1.864-4.123,2.485-.6,3.164-.6,3.955S4414.911,2747.318,4414.692,2745.192Z" transform="translate(-4403.243 -2739.708)" fill="#515c70"/></g><g transform="translate(55.511 6.882)"><path d="M4467.064,2747.138s-.277-3.03-1.976-3.577a44.937,44.937,0,0,0-7.76-1.581c-1.639-.059-3.924-.488-5.414,0s-4.57,1.556-5.514,1.866-2.186,2.347-2.236,2.943,6.408,1.815,8.594,2.249S4468.256,2749.174,4467.064,2747.138Z" transform="translate(-4444.164 -2741.75)" fill="#515c70"/></g><g transform="translate(21.882 2.782)"><path d="M4352.807,2735.752l-3.7-7.451-12.667.894-2.583,7.75,15.8,2.284Z" transform="translate(-4333.856 -2728.301)" fill="#515c70"/></g><g transform="translate(87.649 5.392)"><path d="M4549.588,2745.63s1.026-5.762,1.8-6.756,3.464-2.186,5.848-1.987,4.471,3.552,5.464,4.011,1.292,3.141.895,3.936S4550.681,2746.722,4549.588,2745.63Z" transform="translate(-4549.588 -2736.865)" fill="#515c70"/></g><g transform="translate(0 11.426)"><g transform="translate(14.586 63.779)"><g transform="translate(44.594 2.031)"><g transform="translate(0 0.479)"><path d="M4467.521,2975.018l.077-.329-1.99-.4c-.147-.034-.3-.063-.445-.089l-.06-.012v0a7.675,7.675,0,0,0-3.145,15.008h0l.018,0a7.609,7.609,0,0,0,.834.165l1.313.26.046-.2c.062,0,.124,0,.186-.007a7.674,7.674,0,0,0,3.167-14.412Z" transform="translate(-4456.198 -2974.095)" fill="#1c1f23"/></g><g transform="translate(1.336 0)"><ellipse cx="7.675" cy="7.675" rx="7.675" ry="7.675" transform="translate(0 15.22) rotate(-82.509)" fill="#2c3038"/></g><g transform="translate(6.403 5.071)"><path d="M4480.746,2989.159v.011c-.075,0-.147-.013-.222-.009a3.536,3.536,0,0,0,.222,7.066v.016h18.309v-7.084Z" transform="translate(-4477.202 -2989.159)" fill="#515c70"/></g><g transform="translate(23.852 0.479)"><path d="M4545.763,2975.018l.076-.329-1.99-.4c-.147-.034-.3-.063-.445-.089l-.06-.012v0a7.675,7.675,0,0,0-3.145,15.008h0l.018,0a7.609,7.609,0,0,0,.834.165l1.314.26.046-.2c.062,0,.124,0,.186-.007a7.675,7.675,0,0,0,3.167-14.412Z" transform="translate(-4534.44 -2974.095)" fill="#1c1f23"/><g transform="translate(2.272 0.457)"><ellipse cx="7.675" cy="7.675" rx="7.675" ry="7.675" fill="#2c3038"/></g><g transform="translate(5.271 3.456)"><ellipse cx="3.544" cy="3.544" rx="3.544" ry="3.544" transform="translate(0 6.48) rotate(-66.103)" fill="#5f6e82"/></g></g></g><g transform="translate(0 0)"><g transform="translate(0 2.509)"><path d="M4321.245,2975.018l.076-.329-1.99-.4c-.147-.034-.3-.063-.445-.089l-.06-.012v0a7.675,7.675,0,0,0-3.145,15.008h0l.019,0a7.609,7.609,0,0,0,.834.165l1.314.26.045-.2c.062,0,.124,0,.186-.007a7.675,7.675,0,0,0,3.167-14.412Z" transform="translate(-4309.922 -2974.095)" fill="#1c1f23"/></g><g transform="translate(2.272 2.966)"><ellipse cx="7.675" cy="7.675" rx="7.675" ry="7.675" fill="#2c3038"/></g><g transform="translate(6.403 7.102)"><path d="M4334.47,2989.159v.011c-.075,0-.146-.013-.222-.009a3.536,3.536,0,0,0,.222,7.066v.016h18.309v-7.084Z" transform="translate(-4330.926 -2989.159)" fill="#515c70"/></g><g transform="translate(23.158)"><g transform="translate(0)"><g transform="translate(0.694 2.509)"><path d="M4399.486,2975.018l.076-.329-1.99-.4c-.147-.034-.295-.063-.445-.089l-.06-.012v0a7.675,7.675,0,0,0-3.145,15.008h0l.018,0a7.632,7.632,0,0,0,.834.165l1.314.26.045-.2c.062,0,.124,0,.186-.007a7.675,7.675,0,0,0,3.167-14.412Z" transform="translate(-4388.163 -2974.095)" fill="#1c1f23"/></g><g transform="translate(0)"><ellipse cx="7.675" cy="7.675" rx="7.675" ry="7.675" transform="translate(0 12.782) rotate(-56.372)" fill="#2c3038"/></g><g transform="translate(5.639 5.639)"><ellipse cx="3.544" cy="3.544" rx="3.544" ry="3.544" transform="matrix(0.661, -0.75, 0.75, 0.661, 0, 5.316)" fill="#5f6e82"/></g></g></g></g></g><g transform="translate(19.453)"><path d="M4325.889,2756.655v67.413h72.134a20.592,20.592,0,0,0,20.592-20.592v-46.821Z" transform="translate(-4325.889 -2756.655)" fill="#d47328"/></g><path d="M4262.078,2756.655v48.1a19.316,19.316,0,0,0,19.316,19.316h2.2a19.316,19.316,0,0,0,19.316-19.316v-48.1Z" transform="translate(-4262.078 -2756.655)" fill="#ffae43"/><g transform="translate(46.114 12.932)"><path d="M4470.409,2799.077h-52.421a4.647,4.647,0,1,0,0,9.293h52.421a4.647,4.647,0,1,0,0-9.293Z" transform="translate(-4413.341 -2799.077)" fill="#ffe164"/></g><g transform="translate(44.757 0)"><g transform="translate(54.873)"><path d="M4593.855,2756.656l-4.966,7.9h4.761l4.966-7.9Z" transform="translate(-4588.889 -2756.656)" fill="#434a59"/></g><g transform="translate(43.899)"><path d="M4562.616,2756.656h-4.761l-4.966,7.9h4.761Z" transform="translate(-4552.889 -2756.656)" fill="#434a59"/></g><g transform="translate(32.924)"><path d="M4526.616,2756.656h-4.761l-4.966,7.9h4.761Z" transform="translate(-4516.89 -2756.656)" fill="#434a59"/></g><g transform="translate(21.949)"><path d="M4490.618,2756.656h-4.761l-4.966,7.9h4.76Z" transform="translate(-4480.891 -2756.656)" fill="#434a59"/></g><g transform="translate(10.975)"><path d="M4454.618,2756.656h-4.76l-4.967,7.9h4.761Z" transform="translate(-4444.891 -2756.656)" fill="#434a59"/></g><path d="M4418.618,2756.656h-4.761l-4.966,7.9h4.761Z" transform="translate(-4408.892 -2756.656)" fill="#434a59"/></g></g></g><rect width="25.113" height="7.958" rx="3.979" transform="translate(115.401 71.649)" fill="#434a59"/><rect width="34.221" height="4.706" rx="2.353" transform="translate(92.023 73.275)" fill="#515c70"/><g transform="translate(0 0)"><g transform="translate(56.733)"><path d="M4085.459,2729.424s1.2-6.737,2.106-7.9,4.05-2.555,6.838-2.323,5.226,4.152,6.388,4.689,1.51,3.673,1.045,4.6S4086.736,2730.7,4085.459,2729.424Z" transform="translate(-4085.459 -2719.177)" fill="#515c70"/></g><g transform="translate(37.132 3.949)"><path d="M4052.008,2737.379l-13.494-5.25-10.8,1.788-6.557,3.875v4.4h30.4Z" transform="translate(-4021.161 -2732.13)" fill="#434a59"/></g><g transform="translate(65.816 1.59)"><path d="M4144.635,2733.631l-2.384-6.16-13.115-3.08-7.251,3.179-2.719.758a4.421,4.421,0,0,0-3.089,3.14l-.825,3.155s13.125.317,14.8.754S4144.635,2733.631,4144.635,2733.631Z" transform="translate(-4115.251 -2724.391)" fill="#434a59"/></g><g transform="translate(43.035 6.259)"><path d="M4051.974,2745.192a2.722,2.722,0,0,0-1.06-2.994c-1.639-1.017-3.278-2.6-5.464-2.485s-2.782,1.864-4.123,2.485-.6,3.164-.6,3.955S4052.194,2747.318,4051.974,2745.192Z" transform="translate(-4040.525 -2739.708)" fill="#515c70"/></g><g transform="translate(55.511 6.882)"><path d="M4104.347,2747.138s-.277-3.03-1.977-3.577a44.919,44.919,0,0,0-7.759-1.581c-1.64-.059-3.925-.488-5.415,0s-4.57,1.556-5.514,1.866-2.185,2.347-2.235,2.943,6.407,1.815,8.593,2.249S4105.54,2749.174,4104.347,2747.138Z" transform="translate(-4081.448 -2741.75)" fill="#515c70"/></g><g transform="translate(21.882 2.782)"><path d="M3990.089,2735.752l-3.7-7.451-12.667.894-2.583,7.75,15.8,2.284Z" transform="translate(-3971.138 -2728.301)" fill="#515c70"/></g><g transform="translate(87.649 5.392)"><path d="M4186.871,2745.63s1.026-5.762,1.8-6.756,3.465-2.186,5.849-1.987,4.471,3.552,5.464,4.011,1.291,3.141.894,3.936S4187.963,2746.722,4186.871,2745.63Z" transform="translate(-4186.871 -2736.865)" fill="#515c70"/></g><g transform="translate(0 11.426)"><g transform="translate(14.585 64.169)"><g transform="translate(44.289 0)"><g transform="translate(0.304 2.119)"><path d="M4104.8,2975.018l.077-.329-1.99-.4c-.146-.034-.295-.063-.445-.089l-.06-.012v0a7.675,7.675,0,0,0-3.145,15.008h0l.018,0a7.609,7.609,0,0,0,.834.165l1.313.26.046-.2c.062,0,.124,0,.187-.007a7.674,7.674,0,0,0,3.167-14.412Z" transform="translate(-4093.481 -2974.095)" fill="#1c1f23"/></g><g transform="translate(0)"><ellipse cx="7.675" cy="7.675" rx="7.675" ry="7.675" transform="translate(0 13.819) rotate(-64.191)" fill="#2c3038"/></g><g transform="translate(6.707 6.712)"><path d="M4118.028,2989.159v.011c-.074,0-.147-.013-.222-.009a3.536,3.536,0,0,0,.222,7.066v.016h18.309v-7.084Z" transform="translate(-4114.484 -2989.159)" fill="#515c70"/></g><g transform="translate(24.157 1.569)"><g transform="translate(0 0)"><g transform="translate(0 0.551)"><path d="M4183.044,2975.018l.077-.329-1.99-.4c-.147-.034-.3-.063-.445-.089l-.061-.012v0a7.675,7.675,0,0,0-3.146,15.008h0l.019,0a7.6,7.6,0,0,0,.833.165l1.314.26.045-.2c.063,0,.125,0,.187-.007a7.675,7.675,0,0,0,3.167-14.412Z" transform="translate(-4171.722 -2974.095)" fill="#1c1f23"/></g><g transform="translate(1.265)"><ellipse cx="7.675" cy="7.675" rx="7.675" ry="7.675" transform="translate(0 2.169) rotate(-8.122)" fill="#2c3038"/></g><g transform="translate(5.135 3.87)"><ellipse cx="3.544" cy="3.544" rx="3.544" ry="3.544" transform="matrix(0.876, -0.481, 0.481, 0.876, 0, 3.412)" fill="#5f6e82"/></g></g></g></g><g transform="translate(0 1.641)"><g transform="translate(0 0.479)"><path d="M3958.527,2975.018l.077-.329-1.99-.4c-.147-.034-.3-.063-.445-.089l-.06-.012v0a7.675,7.675,0,0,0-3.146,15.008h0l.018,0a7.587,7.587,0,0,0,.834.165l1.314.26.045-.2c.063,0,.124,0,.187-.007a7.675,7.675,0,0,0,3.167-14.412Z" transform="translate(-3947.204 -2974.095)" fill="#1c1f23"/></g><g transform="translate(1.337 0)"><ellipse cx="7.675" cy="7.675" rx="7.675" ry="7.675" transform="matrix(0.13, -0.991, 0.991, 0.13, 0, 15.22)" fill="#2c3038"/></g><g transform="translate(6.403 5.071)"><path d="M3971.752,2989.159v.011c-.075,0-.146-.013-.222-.009a3.536,3.536,0,0,0,.222,7.066v.016h18.309v-7.084Z" transform="translate(-3968.208 -2989.159)" fill="#515c70"/></g><g transform="translate(23.852 0.479)"><path d="M4036.769,2975.018l.076-.329-1.99-.4c-.146-.034-.3-.063-.445-.089l-.061-.012v0a7.675,7.675,0,0,0-3.146,15.008h0l.018,0a7.644,7.644,0,0,0,.834.165l1.314.26.046-.2c.062,0,.124,0,.187-.007a7.675,7.675,0,0,0,3.167-14.412Z" transform="translate(-4025.446 -2974.095)" fill="#1c1f23"/><g transform="translate(2.272 0.457)"><ellipse cx="7.675" cy="7.675" rx="7.675" ry="7.675" fill="#2c3038"/></g><g transform="translate(5.271 3.456)"><ellipse cx="3.544" cy="3.544" rx="3.544" ry="3.544" transform="translate(0 6.48) rotate(-66.103)" fill="#5f6e82"/></g></g></g></g><g transform="translate(19.453)"><path d="M3963.171,2756.655v67.413h72.134a20.592,20.592,0,0,0,20.592-20.592v-46.821Z" transform="translate(-3963.171 -2756.655)" fill="#d47328"/></g><path d="M3899.361,2756.655v48.1a19.316,19.316,0,0,0,19.316,19.316h2.2a19.316,19.316,0,0,0,19.317-19.316v-48.1Z" transform="translate(-3899.361 -2756.655)" fill="#ffae43"/><g transform="translate(46.113 12.932)"><path d="M4107.691,2799.077H4055.27a4.647,4.647,0,1,0,0,9.293h52.421a4.647,4.647,0,1,0,0-9.293Z" transform="translate(-4050.623 -2799.077)" fill="#ffe164"/></g><g transform="translate(44.757 0)"><g transform="translate(54.873)"><path d="M4231.137,2756.656l-4.966,7.9h4.761l4.966-7.9Z" transform="translate(-4226.171 -2756.656)" fill="#434a59"/></g><g transform="translate(43.899)"><path d="M4199.9,2756.656h-4.761l-4.966,7.9h4.761Z" transform="translate(-4190.172 -2756.656)" fill="#434a59"/></g><g transform="translate(32.924)"><path d="M4163.9,2756.656h-4.761l-4.966,7.9h4.76Z" transform="translate(-4154.173 -2756.656)" fill="#434a59"/></g><g transform="translate(21.949)"><path d="M4127.9,2756.656h-4.761l-4.966,7.9h4.761Z" transform="translate(-4118.173 -2756.656)" fill="#434a59"/></g><g transform="translate(10.975)"><path d="M4091.9,2756.656h-4.761l-4.966,7.9h4.761Z" transform="translate(-4082.173 -2756.656)" fill="#434a59"/></g><path d="M4055.9,2756.656h-4.761l-4.966,7.9h4.761Z" transform="translate(-4046.174 -2756.656)" fill="#434a59"/></g></g></g></g><g transform="translate(468 8479.223)"><g transform="translate(219.821 0)"><g transform="translate(56.733)"><path d="M4806.521,2729.424s1.2-6.737,2.106-7.9,4.05-2.555,6.837-2.323,5.227,4.152,6.388,4.689,1.51,3.673,1.045,4.6S4807.8,2730.7,4806.521,2729.424Z" transform="translate(-4806.521 -2719.177)" fill="#515c70"/></g><g transform="translate(37.132 3.949)"><path d="M4773.069,2737.379l-13.494-5.25-10.795,1.788-6.558,3.875v4.4h30.4Z" transform="translate(-4742.223 -2732.13)" fill="#434a59"/></g><g transform="translate(65.816 1.59)"><path d="M4865.7,2733.631l-2.385-6.16-13.114-3.08-7.252,3.179-2.719.758a4.421,4.421,0,0,0-3.089,3.14l-.825,3.155s13.125.317,14.8.754S4865.7,2733.631,4865.7,2733.631Z" transform="translate(-4836.314 -2724.391)" fill="#434a59"/></g><g transform="translate(43.035 6.259)"><path d="M4773.038,2745.192a2.722,2.722,0,0,0-1.061-2.994c-1.639-1.017-3.279-2.6-5.464-2.485s-2.782,1.864-4.123,2.485-.6,3.164-.6,3.955S4773.256,2747.318,4773.038,2745.192Z" transform="translate(-4761.588 -2739.708)" fill="#515c70"/></g><g transform="translate(55.511 6.882)"><path d="M4825.41,2747.138s-.278-3.03-1.977-3.577a44.928,44.928,0,0,0-7.76-1.581c-1.639-.059-3.923-.488-5.414,0s-4.57,1.556-5.514,1.866-2.186,2.347-2.235,2.943,6.407,1.815,8.593,2.249S4826.6,2749.174,4825.41,2747.138Z" transform="translate(-4802.51 -2741.75)" fill="#515c70"/></g><g transform="translate(21.882 2.782)"><path d="M4711.151,2735.752l-3.7-7.451-12.667.894-2.583,7.75,15.8,2.284Z" transform="translate(-4692.201 -2728.301)" fill="#515c70"/></g><g transform="translate(87.65 5.392)"><path d="M4907.933,2745.63s1.026-5.762,1.8-6.756,3.465-2.186,5.849-1.987,4.471,3.552,5.464,4.011,1.291,3.141.894,3.936S4909.025,2746.722,4907.933,2745.63Z" transform="translate(-4907.933 -2736.865)" fill="#515c70"/></g><g transform="translate(0 11.426)"><g transform="translate(14.586 65.737)"><g transform="translate(44.594 0)"><g transform="translate(0 0.551)"><path d="M4825.867,2975.018l.076-.329-1.99-.4c-.146-.034-.295-.063-.445-.089l-.061-.012v0a7.675,7.675,0,0,0-3.145,15.008h0l.018,0a7.632,7.632,0,0,0,.834.165l1.313.26.046-.2c.062,0,.123,0,.187-.007a7.674,7.674,0,0,0,3.167-14.412Z" transform="translate(-4814.544 -2974.095)" fill="#1c1f23"/></g><g transform="translate(1.264)"><ellipse cx="7.675" cy="7.675" rx="7.675" ry="7.675" transform="translate(0 2.169) rotate(-8.122)" fill="#2c3038"/></g><g transform="translate(6.403 5.143)"><path d="M4839.091,2989.159v.011c-.075,0-.146-.013-.223-.009a3.536,3.536,0,0,0,.223,7.066v.016H4857.4v-7.084Z" transform="translate(-4835.547 -2989.159)" fill="#515c70"/></g><g transform="translate(23.852 0.072)"><g transform="translate(0 0)"><g transform="translate(0 0.479)"><path d="M4904.107,2975.018l.076-.329-1.99-.4c-.146-.034-.3-.063-.445-.089l-.061-.012v0a7.675,7.675,0,0,0-3.145,15.008h0l.019,0a7.624,7.624,0,0,0,.833.165l1.314.26.046-.2c.062,0,.124,0,.187-.007a7.675,7.675,0,0,0,3.167-14.412Z" transform="translate(-4892.785 -2974.095)" fill="#1c1f23"/></g><g transform="translate(1.337)"><ellipse cx="7.675" cy="7.675" rx="7.675" ry="7.675" transform="translate(0 15.22) rotate(-82.509)" fill="#2c3038"/></g><g transform="translate(5.513 4.176)"><ellipse cx="3.544" cy="3.544" rx="3.544" ry="3.544" transform="matrix(0.955, -0.296, 0.296, 0.955, 0, 2.099)" fill="#5f6e82"/></g></g></g></g><g transform="translate(0 0.551)"><path d="M4679.59,2975.018l.076-.329-1.99-.4c-.146-.034-.295-.063-.445-.089l-.061-.012v0a7.675,7.675,0,0,0-3.146,15.008h0l.018,0a7.618,7.618,0,0,0,.834.165l1.314.26.045-.2c.062,0,.124,0,.187-.007a7.675,7.675,0,0,0,3.167-14.412Z" transform="translate(-4668.267 -2974.095)" fill="#1c1f23"/><g transform="translate(2.272 0.457)"><ellipse cx="7.675" cy="7.675" rx="7.675" ry="7.675" fill="#2c3038"/></g><g transform="translate(6.403 4.592)"><path d="M4692.814,2989.159v.011c-.075,0-.146-.013-.223-.009a3.536,3.536,0,0,0,.223,7.066v.016h18.309v-7.084Z" transform="translate(-4689.27 -2989.159)" fill="#515c70"/></g><g transform="translate(23.852)"><path d="M4757.831,2975.018l.077-.329-1.99-.4c-.146-.034-.3-.063-.445-.089l-.061-.012v0a7.675,7.675,0,0,0-3.146,15.008h0l.018,0a7.624,7.624,0,0,0,.833.165l1.314.26.045-.2c.062,0,.124,0,.187-.007a7.674,7.674,0,0,0,3.166-14.412Z" transform="translate(-4746.508 -2974.095)" fill="#1c1f23"/><g transform="translate(2.272 0.457)"><ellipse cx="7.675" cy="7.675" rx="7.675" ry="7.675" fill="#2c3038"/></g><g transform="translate(4.945 3.13)"><ellipse cx="3.544" cy="3.544" rx="3.544" ry="3.544" transform="matrix(0.661, -0.75, 0.75, 0.661, 0, 5.316)" fill="#5f6e82"/></g></g></g></g><g transform="translate(19.453)"><path d="M4684.234,2756.655v67.413h72.134a20.592,20.592,0,0,0,20.592-20.592v-46.821Z" transform="translate(-4684.234 -2756.655)" fill="#d47328"/></g><path d="M4620.422,2756.655v48.1a19.316,19.316,0,0,0,19.316,19.316h2.2a19.316,19.316,0,0,0,19.317-19.316v-48.1Z" transform="translate(-4620.422 -2756.655)" fill="#ffae43"/><g transform="translate(46.114 12.932)"><path d="M4828.753,2799.077h-52.421a4.647,4.647,0,0,0,0,9.293h52.421a4.647,4.647,0,1,0,0-9.293Z" transform="translate(-4771.686 -2799.077)" fill="#ffe164"/></g><g transform="translate(44.757 0)"><g transform="translate(54.873)"><path d="M4952.2,2756.656l-4.966,7.9h4.761l4.966-7.9Z" transform="translate(-4947.234 -2756.656)" fill="#434a59"/></g><g transform="translate(43.899)"><path d="M4920.96,2756.656H4916.2l-4.966,7.9h4.761Z" transform="translate(-4911.233 -2756.656)" fill="#434a59"/></g><g transform="translate(32.924)"><path d="M4884.961,2756.656H4880.2l-4.966,7.9H4880Z" transform="translate(-4875.234 -2756.656)" fill="#434a59"/></g><g transform="translate(21.949)"><path d="M4848.962,2756.656H4844.2l-4.966,7.9H4844Z" transform="translate(-4839.235 -2756.656)" fill="#434a59"/></g><g transform="translate(10.975)"><path d="M4812.962,2756.656H4808.2l-4.966,7.9H4808Z" transform="translate(-4803.235 -2756.656)" fill="#434a59"/></g><path d="M4776.963,2756.656H4772.2l-4.966,7.9H4772Z" transform="translate(-4767.236 -2756.656)" fill="#434a59"/></g></g></g><rect width="25.113" height="7.958" rx="3.979" transform="translate(223.413 71.649)" fill="#434a59"/><rect width="34.221" height="4.706" rx="2.353" transform="translate(200.035 73.275)" fill="#515c70"/><g transform="translate(110.577 0)"><g transform="translate(56.733)"><path d="M4448.176,2729.424s1.2-6.737,2.106-7.9,4.05-2.555,6.838-2.323,5.226,4.152,6.388,4.689,1.51,3.673,1.045,4.6S4449.453,2730.7,4448.176,2729.424Z" transform="translate(-4448.176 -2719.177)" fill="#515c70"/></g><g transform="translate(37.132 3.949)"><path d="M4414.726,2737.379l-13.495-5.25-10.8,1.788-6.557,3.875v4.4h30.4Z" transform="translate(-4383.878 -2732.13)" fill="#434a59"/></g><g transform="translate(65.816 1.59)"><path d="M4507.354,2733.631l-2.385-6.16-13.114-3.08-7.251,3.179-2.72.758a4.422,4.422,0,0,0-3.09,3.14l-.824,3.155s13.125.317,14.8.754S4507.354,2733.631,4507.354,2733.631Z" transform="translate(-4477.97 -2724.391)" fill="#434a59"/></g><g transform="translate(43.035 6.259)"><path d="M4414.692,2745.192a2.721,2.721,0,0,0-1.059-2.994c-1.64-1.017-3.279-2.6-5.464-2.485s-2.782,1.864-4.123,2.485-.6,3.164-.6,3.955S4414.911,2747.318,4414.692,2745.192Z" transform="translate(-4403.243 -2739.708)" fill="#515c70"/></g><g transform="translate(55.511 6.882)"><path d="M4467.064,2747.138s-.277-3.03-1.976-3.577a44.937,44.937,0,0,0-7.76-1.581c-1.639-.059-3.924-.488-5.414,0s-4.57,1.556-5.514,1.866-2.186,2.347-2.236,2.943,6.408,1.815,8.594,2.249S4468.256,2749.174,4467.064,2747.138Z" transform="translate(-4444.164 -2741.75)" fill="#515c70"/></g><g transform="translate(21.882 2.782)"><path d="M4352.807,2735.752l-3.7-7.451-12.667.894-2.583,7.75,15.8,2.284Z" transform="translate(-4333.856 -2728.301)" fill="#515c70"/></g><g transform="translate(87.649 5.392)"><path d="M4549.588,2745.63s1.026-5.762,1.8-6.756,3.464-2.186,5.848-1.987,4.471,3.552,5.464,4.011,1.292,3.141.895,3.936S4550.681,2746.722,4549.588,2745.63Z" transform="translate(-4549.588 -2736.865)" fill="#515c70"/></g><g transform="translate(0 11.426)"><g transform="translate(14.586 63.779)"><g transform="translate(44.594 2.031)"><g transform="translate(0 0.479)"><path d="M4467.521,2975.018l.077-.329-1.99-.4c-.147-.034-.3-.063-.445-.089l-.06-.012v0a7.675,7.675,0,0,0-3.145,15.008h0l.018,0a7.609,7.609,0,0,0,.834.165l1.313.26.046-.2c.062,0,.124,0,.186-.007a7.674,7.674,0,0,0,3.167-14.412Z" transform="translate(-4456.198 -2974.095)" fill="#1c1f23"/></g><g transform="translate(1.336 0)"><ellipse cx="7.675" cy="7.675" rx="7.675" ry="7.675" transform="translate(0 15.22) rotate(-82.509)" fill="#2c3038"/></g><g transform="translate(6.403 5.071)"><path d="M4480.746,2989.159v.011c-.075,0-.147-.013-.222-.009a3.536,3.536,0,0,0,.222,7.066v.016h18.309v-7.084Z" transform="translate(-4477.202 -2989.159)" fill="#515c70"/></g><g transform="translate(23.852 0.479)"><path d="M4545.763,2975.018l.076-.329-1.99-.4c-.147-.034-.3-.063-.445-.089l-.06-.012v0a7.675,7.675,0,0,0-3.145,15.008h0l.018,0a7.609,7.609,0,0,0,.834.165l1.314.26.046-.2c.062,0,.124,0,.186-.007a7.675,7.675,0,0,0,3.167-14.412Z" transform="translate(-4534.44 -2974.095)" fill="#1c1f23"/><g transform="translate(2.272 0.457)"><ellipse cx="7.675" cy="7.675" rx="7.675" ry="7.675" fill="#2c3038"/></g><g transform="translate(5.271 3.456)"><ellipse cx="3.544" cy="3.544" rx="3.544" ry="3.544" transform="translate(0 6.48) rotate(-66.103)" fill="#5f6e82"/></g></g></g><g transform="translate(0 0)"><g transform="translate(0 2.509)"><path d="M4321.245,2975.018l.076-.329-1.99-.4c-.147-.034-.3-.063-.445-.089l-.06-.012v0a7.675,7.675,0,0,0-3.145,15.008h0l.019,0a7.609,7.609,0,0,0,.834.165l1.314.26.045-.2c.062,0,.124,0,.186-.007a7.675,7.675,0,0,0,3.167-14.412Z" transform="translate(-4309.922 -2974.095)" fill="#1c1f23"/></g><g transform="translate(2.272 2.966)"><ellipse cx="7.675" cy="7.675" rx="7.675" ry="7.675" fill="#2c3038"/></g><g transform="translate(6.403 7.102)"><path d="M4334.47,2989.159v.011c-.075,0-.146-.013-.222-.009a3.536,3.536,0,0,0,.222,7.066v.016h18.309v-7.084Z" transform="translate(-4330.926 -2989.159)" fill="#515c70"/></g><g transform="translate(23.158)"><g transform="translate(0)"><g transform="translate(0.694 2.509)"><path d="M4399.486,2975.018l.076-.329-1.99-.4c-.147-.034-.295-.063-.445-.089l-.06-.012v0a7.675,7.675,0,0,0-3.145,15.008h0l.018,0a7.632,7.632,0,0,0,.834.165l1.314.26.045-.2c.062,0,.124,0,.186-.007a7.675,7.675,0,0,0,3.167-14.412Z" transform="translate(-4388.163 -2974.095)" fill="#1c1f23"/></g><g transform="translate(0)"><ellipse cx="7.675" cy="7.675" rx="7.675" ry="7.675" transform="translate(0 12.782) rotate(-56.372)" fill="#2c3038"/></g><g transform="translate(5.639 5.639)"><ellipse cx="3.544" cy="3.544" rx="3.544" ry="3.544" transform="matrix(0.661, -0.75, 0.75, 0.661, 0, 5.316)" fill="#5f6e82"/></g></g></g></g></g><g transform="translate(19.453)"><path d="M4325.889,2756.655v67.413h72.134a20.592,20.592,0,0,0,20.592-20.592v-46.821Z" transform="translate(-4325.889 -2756.655)" fill="#d47328"/></g><path d="M4262.078,2756.655v48.1a19.316,19.316,0,0,0,19.316,19.316h2.2a19.316,19.316,0,0,0,19.316-19.316v-48.1Z" transform="translate(-4262.078 -2756.655)" fill="#ffae43"/><g transform="translate(46.114 12.932)"><path d="M4470.409,2799.077h-52.421a4.647,4.647,0,1,0,0,9.293h52.421a4.647,4.647,0,1,0,0-9.293Z" transform="translate(-4413.341 -2799.077)" fill="#ffe164"/></g><g transform="translate(44.757 0)"><g transform="translate(54.873)"><path d="M4593.855,2756.656l-4.966,7.9h4.761l4.966-7.9Z" transform="translate(-4588.889 -2756.656)" fill="#434a59"/></g><g transform="translate(43.899)"><path d="M4562.616,2756.656h-4.761l-4.966,7.9h4.761Z" transform="translate(-4552.889 -2756.656)" fill="#434a59"/></g><g transform="translate(32.924)"><path d="M4526.616,2756.656h-4.761l-4.966,7.9h4.761Z" transform="translate(-4516.89 -2756.656)" fill="#434a59"/></g><g transform="translate(21.949)"><path d="M4490.618,2756.656h-4.761l-4.966,7.9h4.76Z" transform="translate(-4480.891 -2756.656)" fill="#434a59"/></g><g transform="translate(10.975)"><path d="M4454.618,2756.656h-4.76l-4.967,7.9h4.761Z" transform="translate(-4444.891 -2756.656)" fill="#434a59"/></g><path d="M4418.618,2756.656h-4.761l-4.966,7.9h4.761Z" transform="translate(-4408.892 -2756.656)" fill="#434a59"/></g></g></g><rect width="25.113" height="7.958" rx="3.979" transform="translate(115.401 71.649)" fill="#434a59"/><rect width="34.221" height="4.706" rx="2.353" transform="translate(92.023 73.275)" fill="#515c70"/><g transform="translate(0 0)"><g transform="translate(56.733)"><path d="M4085.459,2729.424s1.2-6.737,2.106-7.9,4.05-2.555,6.838-2.323,5.226,4.152,6.388,4.689,1.51,3.673,1.045,4.6S4086.736,2730.7,4085.459,2729.424Z" transform="translate(-4085.459 -2719.177)" fill="#515c70"/></g><g transform="translate(37.132 3.949)"><path d="M4052.008,2737.379l-13.494-5.25-10.8,1.788-6.557,3.875v4.4h30.4Z" transform="translate(-4021.161 -2732.13)" fill="#434a59"/></g><g transform="translate(65.816 1.59)"><path d="M4144.635,2733.631l-2.384-6.16-13.115-3.08-7.251,3.179-2.719.758a4.421,4.421,0,0,0-3.089,3.14l-.825,3.155s13.125.317,14.8.754S4144.635,2733.631,4144.635,2733.631Z" transform="translate(-4115.251 -2724.391)" fill="#434a59"/></g><g transform="translate(43.035 6.259)"><path d="M4051.974,2745.192a2.722,2.722,0,0,0-1.06-2.994c-1.639-1.017-3.278-2.6-5.464-2.485s-2.782,1.864-4.123,2.485-.6,3.164-.6,3.955S4052.194,2747.318,4051.974,2745.192Z" transform="translate(-4040.525 -2739.708)" fill="#515c70"/></g><g transform="translate(55.511 6.882)"><path d="M4104.347,2747.138s-.277-3.03-1.977-3.577a44.919,44.919,0,0,0-7.759-1.581c-1.64-.059-3.925-.488-5.415,0s-4.57,1.556-5.514,1.866-2.185,2.347-2.235,2.943,6.407,1.815,8.593,2.249S4105.54,2749.174,4104.347,2747.138Z" transform="translate(-4081.448 -2741.75)" fill="#515c70"/></g><g transform="translate(21.882 2.782)"><path d="M3990.089,2735.752l-3.7-7.451-12.667.894-2.583,7.75,15.8,2.284Z" transform="translate(-3971.138 -2728.301)" fill="#515c70"/></g><g transform="translate(87.649 5.392)"><path d="M4186.871,2745.63s1.026-5.762,1.8-6.756,3.465-2.186,5.849-1.987,4.471,3.552,5.464,4.011,1.291,3.141.894,3.936S4187.963,2746.722,4186.871,2745.63Z" transform="translate(-4186.871 -2736.865)" fill="#515c70"/></g><g transform="translate(0 11.426)"><g transform="translate(14.585 64.169)"><g transform="translate(44.289 0)"><g transform="translate(0.304 2.119)"><path d="M4104.8,2975.018l.077-.329-1.99-.4c-.146-.034-.295-.063-.445-.089l-.06-.012v0a7.675,7.675,0,0,0-3.145,15.008h0l.018,0a7.609,7.609,0,0,0,.834.165l1.313.26.046-.2c.062,0,.124,0,.187-.007a7.674,7.674,0,0,0,3.167-14.412Z" transform="translate(-4093.481 -2974.095)" fill="#1c1f23"/></g><g transform="translate(0)"><ellipse cx="7.675" cy="7.675" rx="7.675" ry="7.675" transform="translate(0 13.819) rotate(-64.191)" fill="#2c3038"/></g><g transform="translate(6.707 6.712)"><path d="M4118.028,2989.159v.011c-.074,0-.147-.013-.222-.009a3.536,3.536,0,0,0,.222,7.066v.016h18.309v-7.084Z" transform="translate(-4114.484 -2989.159)" fill="#515c70"/></g><g transform="translate(24.157 1.569)"><g transform="translate(0 0)"><g transform="translate(0 0.551)"><path d="M4183.044,2975.018l.077-.329-1.99-.4c-.147-.034-.3-.063-.445-.089l-.061-.012v0a7.675,7.675,0,0,0-3.146,15.008h0l.019,0a7.6,7.6,0,0,0,.833.165l1.314.26.045-.2c.063,0,.125,0,.187-.007a7.675,7.675,0,0,0,3.167-14.412Z" transform="translate(-4171.722 -2974.095)" fill="#1c1f23"/></g><g transform="translate(1.265)"><ellipse cx="7.675" cy="7.675" rx="7.675" ry="7.675" transform="translate(0 2.169) rotate(-8.122)" fill="#2c3038"/></g><g transform="translate(5.135 3.87)"><ellipse cx="3.544" cy="3.544" rx="3.544" ry="3.544" transform="matrix(0.876, -0.481, 0.481, 0.876, 0, 3.412)" fill="#5f6e82"/></g></g></g></g><g transform="translate(0 1.641)"><g transform="translate(0 0.479)"><path d="M3958.527,2975.018l.077-.329-1.99-.4c-.147-.034-.3-.063-.445-.089l-.06-.012v0a7.675,7.675,0,0,0-3.146,15.008h0l.018,0a7.587,7.587,0,0,0,.834.165l1.314.26.045-.2c.063,0,.124,0,.187-.007a7.675,7.675,0,0,0,3.167-14.412Z" transform="translate(-3947.204 -2974.095)" fill="#1c1f23"/></g><g transform="translate(1.337 0)"><ellipse cx="7.675" cy="7.675" rx="7.675" ry="7.675" transform="matrix(0.13, -0.991, 0.991, 0.13, 0, 15.22)" fill="#2c3038"/></g><g transform="translate(6.403 5.071)"><path d="M3971.752,2989.159v.011c-.075,0-.146-.013-.222-.009a3.536,3.536,0,0,0,.222,7.066v.016h18.309v-7.084Z" transform="translate(-3968.208 -2989.159)" fill="#515c70"/></g><g transform="translate(23.852 0.479)"><path d="M4036.769,2975.018l.076-.329-1.99-.4c-.146-.034-.3-.063-.445-.089l-.061-.012v0a7.675,7.675,0,0,0-3.146,15.008h0l.018,0a7.644,7.644,0,0,0,.834.165l1.314.26.046-.2c.062,0,.124,0,.187-.007a7.675,7.675,0,0,0,3.167-14.412Z" transform="translate(-4025.446 -2974.095)" fill="#1c1f23"/><g transform="translate(2.272 0.457)"><ellipse cx="7.675" cy="7.675" rx="7.675" ry="7.675" fill="#2c3038"/></g><g transform="translate(5.271 3.456)"><ellipse cx="3.544" cy="3.544" rx="3.544" ry="3.544" transform="translate(0 6.48) rotate(-66.103)" fill="#5f6e82"/></g></g></g></g><g transform="translate(19.453)"><path d="M3963.171,2756.655v67.413h72.134a20.592,20.592,0,0,0,20.592-20.592v-46.821Z" transform="translate(-3963.171 -2756.655)" fill="#d47328"/></g><path d="M3899.361,2756.655v48.1a19.316,19.316,0,0,0,19.316,19.316h2.2a19.316,19.316,0,0,0,19.317-19.316v-48.1Z" transform="translate(-3899.361 -2756.655)" fill="#ffae43"/><g transform="translate(46.113 12.932)"><path d="M4107.691,2799.077H4055.27a4.647,4.647,0,1,0,0,9.293h52.421a4.647,4.647,0,1,0,0-9.293Z" transform="translate(-4050.623 -2799.077)" fill="#ffe164"/></g><g transform="translate(44.757 0)"><g transform="translate(54.873)"><path d="M4231.137,2756.656l-4.966,7.9h4.761l4.966-7.9Z" transform="translate(-4226.171 -2756.656)" fill="#434a59"/></g><g transform="translate(43.899)"><path d="M4199.9,2756.656h-4.761l-4.966,7.9h4.761Z" transform="translate(-4190.172 -2756.656)" fill="#434a59"/></g><g transform="translate(32.924)"><path d="M4163.9,2756.656h-4.761l-4.966,7.9h4.76Z" transform="translate(-4154.173 -2756.656)" fill="#434a59"/></g><g transform="translate(21.949)"><path d="M4127.9,2756.656h-4.761l-4.966,7.9h4.761Z" transform="translate(-4118.173 -2756.656)" fill="#434a59"/></g><g transform="translate(10.975)"><path d="M4091.9,2756.656h-4.761l-4.966,7.9h4.761Z" transform="translate(-4082.173 -2756.656)" fill="#434a59"/></g><path d="M4055.9,2756.656h-4.761l-4.966,7.9h4.761Z" transform="translate(-4046.174 -2756.656)" fill="#434a59"/></g></g></g></g><g transform="translate(136 8479.223)"><g transform="translate(219.821 0)"><g transform="translate(56.733)"><path d="M4806.521,2729.424s1.2-6.737,2.106-7.9,4.05-2.555,6.837-2.323,5.227,4.152,6.388,4.689,1.51,3.673,1.045,4.6S4807.8,2730.7,4806.521,2729.424Z" transform="translate(-4806.521 -2719.177)" fill="#515c70"/></g><g transform="translate(37.132 3.949)"><path d="M4773.069,2737.379l-13.494-5.25-10.795,1.788-6.558,3.875v4.4h30.4Z" transform="translate(-4742.223 -2732.13)" fill="#434a59"/></g><g transform="translate(65.816 1.59)"><path d="M4865.7,2733.631l-2.385-6.16-13.114-3.08-7.252,3.179-2.719.758a4.421,4.421,0,0,0-3.089,3.14l-.825,3.155s13.125.317,14.8.754S4865.7,2733.631,4865.7,2733.631Z" transform="translate(-4836.314 -2724.391)" fill="#434a59"/></g><g transform="translate(43.035 6.259)"><path d="M4773.038,2745.192a2.722,2.722,0,0,0-1.061-2.994c-1.639-1.017-3.279-2.6-5.464-2.485s-2.782,1.864-4.123,2.485-.6,3.164-.6,3.955S4773.256,2747.318,4773.038,2745.192Z" transform="translate(-4761.588 -2739.708)" fill="#515c70"/></g><g transform="translate(55.511 6.882)"><path d="M4825.41,2747.138s-.278-3.03-1.977-3.577a44.928,44.928,0,0,0-7.76-1.581c-1.639-.059-3.923-.488-5.414,0s-4.57,1.556-5.514,1.866-2.186,2.347-2.235,2.943,6.407,1.815,8.593,2.249S4826.6,2749.174,4825.41,2747.138Z" transform="translate(-4802.51 -2741.75)" fill="#515c70"/></g><g transform="translate(21.882 2.782)"><path d="M4711.151,2735.752l-3.7-7.451-12.667.894-2.583,7.75,15.8,2.284Z" transform="translate(-4692.201 -2728.301)" fill="#515c70"/></g><g transform="translate(87.65 5.392)"><path d="M4907.933,2745.63s1.026-5.762,1.8-6.756,3.465-2.186,5.849-1.987,4.471,3.552,5.464,4.011,1.291,3.141.894,3.936S4909.025,2746.722,4907.933,2745.63Z" transform="translate(-4907.933 -2736.865)" fill="#515c70"/></g><g transform="translate(0 11.426)"><g transform="translate(14.586 65.737)"><g transform="translate(44.594 0)"><g transform="translate(0 0.551)"><path d="M4825.867,2975.018l.076-.329-1.99-.4c-.146-.034-.295-.063-.445-.089l-.061-.012v0a7.675,7.675,0,0,0-3.145,15.008h0l.018,0a7.632,7.632,0,0,0,.834.165l1.313.26.046-.2c.062,0,.123,0,.187-.007a7.674,7.674,0,0,0,3.167-14.412Z" transform="translate(-4814.544 -2974.095)" fill="#1c1f23"/></g><g transform="translate(1.264)"><ellipse cx="7.675" cy="7.675" rx="7.675" ry="7.675" transform="translate(0 2.169) rotate(-8.122)" fill="#2c3038"/></g><g transform="translate(6.403 5.143)"><path d="M4839.091,2989.159v.011c-.075,0-.146-.013-.223-.009a3.536,3.536,0,0,0,.223,7.066v.016H4857.4v-7.084Z" transform="translate(-4835.547 -2989.159)" fill="#515c70"/></g><g transform="translate(23.852 0.072)"><g transform="translate(0 0)"><g transform="translate(0 0.479)"><path d="M4904.107,2975.018l.076-.329-1.99-.4c-.146-.034-.3-.063-.445-.089l-.061-.012v0a7.675,7.675,0,0,0-3.145,15.008h0l.019,0a7.624,7.624,0,0,0,.833.165l1.314.26.046-.2c.062,0,.124,0,.187-.007a7.675,7.675,0,0,0,3.167-14.412Z" transform="translate(-4892.785 -2974.095)" fill="#1c1f23"/></g><g transform="translate(1.337)"><ellipse cx="7.675" cy="7.675" rx="7.675" ry="7.675" transform="translate(0 15.22) rotate(-82.509)" fill="#2c3038"/></g><g transform="translate(5.513 4.176)"><ellipse cx="3.544" cy="3.544" rx="3.544" ry="3.544" transform="matrix(0.955, -0.296, 0.296, 0.955, 0, 2.099)" fill="#5f6e82"/></g></g></g></g><g transform="translate(0 0.551)"><path d="M4679.59,2975.018l.076-.329-1.99-.4c-.146-.034-.295-.063-.445-.089l-.061-.012v0a7.675,7.675,0,0,0-3.146,15.008h0l.018,0a7.618,7.618,0,0,0,.834.165l1.314.26.045-.2c.062,0,.124,0,.187-.007a7.675,7.675,0,0,0,3.167-14.412Z" transform="translate(-4668.267 -2974.095)" fill="#1c1f23"/><g transform="translate(2.272 0.457)"><ellipse cx="7.675" cy="7.675" rx="7.675" ry="7.675" fill="#2c3038"/></g><g transform="translate(6.403 4.592)"><path d="M4692.814,2989.159v.011c-.075,0-.146-.013-.223-.009a3.536,3.536,0,0,0,.223,7.066v.016h18.309v-7.084Z" transform="translate(-4689.27 -2989.159)" fill="#515c70"/></g><g transform="translate(23.852)"><path d="M4757.831,2975.018l.077-.329-1.99-.4c-.146-.034-.3-.063-.445-.089l-.061-.012v0a7.675,7.675,0,0,0-3.146,15.008h0l.018,0a7.624,7.624,0,0,0,.833.165l1.314.26.045-.2c.062,0,.124,0,.187-.007a7.674,7.674,0,0,0,3.166-14.412Z" transform="translate(-4746.508 -2974.095)" fill="#1c1f23"/><g transform="translate(2.272 0.457)"><ellipse cx="7.675" cy="7.675" rx="7.675" ry="7.675" fill="#2c3038"/></g><g transform="translate(4.945 3.13)"><ellipse cx="3.544" cy="3.544" rx="3.544" ry="3.544" transform="matrix(0.661, -0.75, 0.75, 0.661, 0, 5.316)" fill="#5f6e82"/></g></g></g></g><g transform="translate(19.453)"><path d="M4684.234,2756.655v67.413h72.134a20.592,20.592,0,0,0,20.592-20.592v-46.821Z" transform="translate(-4684.234 -2756.655)" fill="#d47328"/></g><path d="M4620.422,2756.655v48.1a19.316,19.316,0,0,0,19.316,19.316h2.2a19.316,19.316,0,0,0,19.317-19.316v-48.1Z" transform="translate(-4620.422 -2756.655)" fill="#ffae43"/><g transform="translate(46.114 12.932)"><path d="M4828.753,2799.077h-52.421a4.647,4.647,0,0,0,0,9.293h52.421a4.647,4.647,0,1,0,0-9.293Z" transform="translate(-4771.686 -2799.077)" fill="#ffe164"/></g><g transform="translate(44.757 0)"><g transform="translate(54.873)"><path d="M4952.2,2756.656l-4.966,7.9h4.761l4.966-7.9Z" transform="translate(-4947.234 -2756.656)" fill="#434a59"/></g><g transform="translate(43.899)"><path d="M4920.96,2756.656H4916.2l-4.966,7.9h4.761Z" transform="translate(-4911.233 -2756.656)" fill="#434a59"/></g><g transform="translate(32.924)"><path d="M4884.961,2756.656H4880.2l-4.966,7.9H4880Z" transform="translate(-4875.234 -2756.656)" fill="#434a59"/></g><g transform="translate(21.949)"><path d="M4848.962,2756.656H4844.2l-4.966,7.9H4844Z" transform="translate(-4839.235 -2756.656)" fill="#434a59"/></g><g transform="translate(10.975)"><path d="M4812.962,2756.656H4808.2l-4.966,7.9H4808Z" transform="translate(-4803.235 -2756.656)" fill="#434a59"/></g><path d="M4776.963,2756.656H4772.2l-4.966,7.9H4772Z" transform="translate(-4767.236 -2756.656)" fill="#434a59"/></g></g></g><rect width="25.113" height="7.958" rx="3.979" transform="translate(223.413 71.649)" fill="#434a59"/><rect width="34.221" height="4.706" rx="2.353" transform="translate(200.035 73.275)" fill="#515c70"/><g transform="translate(110.577 0)"><g transform="translate(56.733)"><path d="M4448.176,2729.424s1.2-6.737,2.106-7.9,4.05-2.555,6.838-2.323,5.226,4.152,6.388,4.689,1.51,3.673,1.045,4.6S4449.453,2730.7,4448.176,2729.424Z" transform="translate(-4448.176 -2719.177)" fill="#515c70"/></g><g transform="translate(37.132 3.949)"><path d="M4414.726,2737.379l-13.495-5.25-10.8,1.788-6.557,3.875v4.4h30.4Z" transform="translate(-4383.878 -2732.13)" fill="#434a59"/></g><g transform="translate(65.816 1.59)"><path d="M4507.354,2733.631l-2.385-6.16-13.114-3.08-7.251,3.179-2.72.758a4.422,4.422,0,0,0-3.09,3.14l-.824,3.155s13.125.317,14.8.754S4507.354,2733.631,4507.354,2733.631Z" transform="translate(-4477.97 -2724.391)" fill="#434a59"/></g><g transform="translate(43.035 6.259)"><path d="M4414.692,2745.192a2.721,2.721,0,0,0-1.059-2.994c-1.64-1.017-3.279-2.6-5.464-2.485s-2.782,1.864-4.123,2.485-.6,3.164-.6,3.955S4414.911,2747.318,4414.692,2745.192Z" transform="translate(-4403.243 -2739.708)" fill="#515c70"/></g><g transform="translate(55.511 6.882)"><path d="M4467.064,2747.138s-.277-3.03-1.976-3.577a44.937,44.937,0,0,0-7.76-1.581c-1.639-.059-3.924-.488-5.414,0s-4.57,1.556-5.514,1.866-2.186,2.347-2.236,2.943,6.408,1.815,8.594,2.249S4468.256,2749.174,4467.064,2747.138Z" transform="translate(-4444.164 -2741.75)" fill="#515c70"/></g><g transform="translate(21.882 2.782)"><path d="M4352.807,2735.752l-3.7-7.451-12.667.894-2.583,7.75,15.8,2.284Z" transform="translate(-4333.856 -2728.301)" fill="#515c70"/></g><g transform="translate(87.649 5.392)"><path d="M4549.588,2745.63s1.026-5.762,1.8-6.756,3.464-2.186,5.848-1.987,4.471,3.552,5.464,4.011,1.292,3.141.895,3.936S4550.681,2746.722,4549.588,2745.63Z" transform="translate(-4549.588 -2736.865)" fill="#515c70"/></g><g transform="translate(0 11.426)"><g transform="translate(14.586 63.779)"><g transform="translate(44.594 2.031)"><g transform="translate(0 0.479)"><path d="M4467.521,2975.018l.077-.329-1.99-.4c-.147-.034-.3-.063-.445-.089l-.06-.012v0a7.675,7.675,0,0,0-3.145,15.008h0l.018,0a7.609,7.609,0,0,0,.834.165l1.313.26.046-.2c.062,0,.124,0,.186-.007a7.674,7.674,0,0,0,3.167-14.412Z" transform="translate(-4456.198 -2974.095)" fill="#1c1f23"/></g><g transform="translate(1.336 0)"><ellipse cx="7.675" cy="7.675" rx="7.675" ry="7.675" transform="translate(0 15.22) rotate(-82.509)" fill="#2c3038"/></g><g transform="translate(6.403 5.071)"><path d="M4480.746,2989.159v.011c-.075,0-.147-.013-.222-.009a3.536,3.536,0,0,0,.222,7.066v.016h18.309v-7.084Z" transform="translate(-4477.202 -2989.159)" fill="#515c70"/></g><g transform="translate(23.852 0.479)"><path d="M4545.763,2975.018l.076-.329-1.99-.4c-.147-.034-.3-.063-.445-.089l-.06-.012v0a7.675,7.675,0,0,0-3.145,15.008h0l.018,0a7.609,7.609,0,0,0,.834.165l1.314.26.046-.2c.062,0,.124,0,.186-.007a7.675,7.675,0,0,0,3.167-14.412Z" transform="translate(-4534.44 -2974.095)" fill="#1c1f23"/><g transform="translate(2.272 0.457)"><ellipse cx="7.675" cy="7.675" rx="7.675" ry="7.675" fill="#2c3038"/></g><g transform="translate(5.271 3.456)"><ellipse cx="3.544" cy="3.544" rx="3.544" ry="3.544" transform="translate(0 6.48) rotate(-66.103)" fill="#5f6e82"/></g></g></g><g transform="translate(0 0)"><g transform="translate(0 2.509)"><path d="M4321.245,2975.018l.076-.329-1.99-.4c-.147-.034-.3-.063-.445-.089l-.06-.012v0a7.675,7.675,0,0,0-3.145,15.008h0l.019,0a7.609,7.609,0,0,0,.834.165l1.314.26.045-.2c.062,0,.124,0,.186-.007a7.675,7.675,0,0,0,3.167-14.412Z" transform="translate(-4309.922 -2974.095)" fill="#1c1f23"/></g><g transform="translate(2.272 2.966)"><ellipse cx="7.675" cy="7.675" rx="7.675" ry="7.675" fill="#2c3038"/></g><g transform="translate(6.403 7.102)"><path d="M4334.47,2989.159v.011c-.075,0-.146-.013-.222-.009a3.536,3.536,0,0,0,.222,7.066v.016h18.309v-7.084Z" transform="translate(-4330.926 -2989.159)" fill="#515c70"/></g><g transform="translate(23.158)"><g transform="translate(0)"><g transform="translate(0.694 2.509)"><path d="M4399.486,2975.018l.076-.329-1.99-.4c-.147-.034-.295-.063-.445-.089l-.06-.012v0a7.675,7.675,0,0,0-3.145,15.008h0l.018,0a7.632,7.632,0,0,0,.834.165l1.314.26.045-.2c.062,0,.124,0,.186-.007a7.675,7.675,0,0,0,3.167-14.412Z" transform="translate(-4388.163 -2974.095)" fill="#1c1f23"/></g><g transform="translate(0)"><ellipse cx="7.675" cy="7.675" rx="7.675" ry="7.675" transform="translate(0 12.782) rotate(-56.372)" fill="#2c3038"/></g><g transform="translate(5.639 5.639)"><ellipse cx="3.544" cy="3.544" rx="3.544" ry="3.544" transform="matrix(0.661, -0.75, 0.75, 0.661, 0, 5.316)" fill="#5f6e82"/></g></g></g></g></g><g transform="translate(19.453)"><path d="M4325.889,2756.655v67.413h72.134a20.592,20.592,0,0,0,20.592-20.592v-46.821Z" transform="translate(-4325.889 -2756.655)" fill="#d47328"/></g><path d="M4262.078,2756.655v48.1a19.316,19.316,0,0,0,19.316,19.316h2.2a19.316,19.316,0,0,0,19.316-19.316v-48.1Z" transform="translate(-4262.078 -2756.655)" fill="#ffae43"/><g transform="translate(46.114 12.932)"><path d="M4470.409,2799.077h-52.421a4.647,4.647,0,1,0,0,9.293h52.421a4.647,4.647,0,1,0,0-9.293Z" transform="translate(-4413.341 -2799.077)" fill="#ffe164"/></g><g transform="translate(44.757 0)"><g transform="translate(54.873)"><path d="M4593.855,2756.656l-4.966,7.9h4.761l4.966-7.9Z" transform="translate(-4588.889 -2756.656)" fill="#434a59"/></g><g transform="translate(43.899)"><path d="M4562.616,2756.656h-4.761l-4.966,7.9h4.761Z" transform="translate(-4552.889 -2756.656)" fill="#434a59"/></g><g transform="translate(32.924)"><path d="M4526.616,2756.656h-4.761l-4.966,7.9h4.761Z" transform="translate(-4516.89 -2756.656)" fill="#434a59"/></g><g transform="translate(21.949)"><path d="M4490.618,2756.656h-4.761l-4.966,7.9h4.76Z" transform="translate(-4480.891 -2756.656)" fill="#434a59"/></g><g transform="translate(10.975)"><path d="M4454.618,2756.656h-4.76l-4.967,7.9h4.761Z" transform="translate(-4444.891 -2756.656)" fill="#434a59"/></g><path d="M4418.618,2756.656h-4.761l-4.966,7.9h4.761Z" transform="translate(-4408.892 -2756.656)" fill="#434a59"/></g></g></g><rect width="25.113" height="7.958" rx="3.979" transform="translate(115.401 71.649)" fill="#434a59"/><rect width="34.221" height="4.706" rx="2.353" transform="translate(92.023 73.275)" fill="#515c70"/><g transform="translate(0 0)"><g transform="translate(56.733)"><path d="M4085.459,2729.424s1.2-6.737,2.106-7.9,4.05-2.555,6.838-2.323,5.226,4.152,6.388,4.689,1.51,3.673,1.045,4.6S4086.736,2730.7,4085.459,2729.424Z" transform="translate(-4085.459 -2719.177)" fill="#515c70"/></g><g transform="translate(37.132 3.949)"><path d="M4052.008,2737.379l-13.494-5.25-10.8,1.788-6.557,3.875v4.4h30.4Z" transform="translate(-4021.161 -2732.13)" fill="#434a59"/></g><g transform="translate(65.816 1.59)"><path d="M4144.635,2733.631l-2.384-6.16-13.115-3.08-7.251,3.179-2.719.758a4.421,4.421,0,0,0-3.089,3.14l-.825,3.155s13.125.317,14.8.754S4144.635,2733.631,4144.635,2733.631Z" transform="translate(-4115.251 -2724.391)" fill="#434a59"/></g><g transform="translate(43.035 6.259)"><path d="M4051.974,2745.192a2.722,2.722,0,0,0-1.06-2.994c-1.639-1.017-3.278-2.6-5.464-2.485s-2.782,1.864-4.123,2.485-.6,3.164-.6,3.955S4052.194,2747.318,4051.974,2745.192Z" transform="translate(-4040.525 -2739.708)" fill="#515c70"/></g><g transform="translate(55.511 6.882)"><path d="M4104.347,2747.138s-.277-3.03-1.977-3.577a44.919,44.919,0,0,0-7.759-1.581c-1.64-.059-3.925-.488-5.415,0s-4.57,1.556-5.514,1.866-2.185,2.347-2.235,2.943,6.407,1.815,8.593,2.249S4105.54,2749.174,4104.347,2747.138Z" transform="translate(-4081.448 -2741.75)" fill="#515c70"/></g><g transform="translate(21.882 2.782)"><path d="M3990.089,2735.752l-3.7-7.451-12.667.894-2.583,7.75,15.8,2.284Z" transform="translate(-3971.138 -2728.301)" fill="#515c70"/></g><g transform="translate(87.649 5.392)"><path d="M4186.871,2745.63s1.026-5.762,1.8-6.756,3.465-2.186,5.849-1.987,4.471,3.552,5.464,4.011,1.291,3.141.894,3.936S4187.963,2746.722,4186.871,2745.63Z" transform="translate(-4186.871 -2736.865)" fill="#515c70"/></g><g transform="translate(0 11.426)"><g transform="translate(14.585 64.169)"><g transform="translate(44.289 0)"><g transform="translate(0.304 2.119)"><path d="M4104.8,2975.018l.077-.329-1.99-.4c-.146-.034-.295-.063-.445-.089l-.06-.012v0a7.675,7.675,0,0,0-3.145,15.008h0l.018,0a7.609,7.609,0,0,0,.834.165l1.313.26.046-.2c.062,0,.124,0,.187-.007a7.674,7.674,0,0,0,3.167-14.412Z" transform="translate(-4093.481 -2974.095)" fill="#1c1f23"/></g><g transform="translate(0)"><ellipse cx="7.675" cy="7.675" rx="7.675" ry="7.675" transform="translate(0 13.819) rotate(-64.191)" fill="#2c3038"/></g><g transform="translate(6.707 6.712)"><path d="M4118.028,2989.159v.011c-.074,0-.147-.013-.222-.009a3.536,3.536,0,0,0,.222,7.066v.016h18.309v-7.084Z" transform="translate(-4114.484 -2989.159)" fill="#515c70"/></g><g transform="translate(24.157 1.569)"><g transform="translate(0 0)"><g transform="translate(0 0.551)"><path d="M4183.044,2975.018l.077-.329-1.99-.4c-.147-.034-.3-.063-.445-.089l-.061-.012v0a7.675,7.675,0,0,0-3.146,15.008h0l.019,0a7.6,7.6,0,0,0,.833.165l1.314.26.045-.2c.063,0,.125,0,.187-.007a7.675,7.675,0,0,0,3.167-14.412Z" transform="translate(-4171.722 -2974.095)" fill="#1c1f23"/></g><g transform="translate(1.265)"><ellipse cx="7.675" cy="7.675" rx="7.675" ry="7.675" transform="translate(0 2.169) rotate(-8.122)" fill="#2c3038"/></g><g transform="translate(5.135 3.87)"><ellipse cx="3.544" cy="3.544" rx="3.544" ry="3.544" transform="matrix(0.876, -0.481, 0.481, 0.876, 0, 3.412)" fill="#5f6e82"/></g></g></g></g><g transform="translate(0 1.641)"><g transform="translate(0 0.479)"><path d="M3958.527,2975.018l.077-.329-1.99-.4c-.147-.034-.3-.063-.445-.089l-.06-.012v0a7.675,7.675,0,0,0-3.146,15.008h0l.018,0a7.587,7.587,0,0,0,.834.165l1.314.26.045-.2c.063,0,.124,0,.187-.007a7.675,7.675,0,0,0,3.167-14.412Z" transform="translate(-3947.204 -2974.095)" fill="#1c1f23"/></g><g transform="translate(1.337 0)"><ellipse cx="7.675" cy="7.675" rx="7.675" ry="7.675" transform="matrix(0.13, -0.991, 0.991, 0.13, 0, 15.22)" fill="#2c3038"/></g><g transform="translate(6.403 5.071)"><path d="M3971.752,2989.159v.011c-.075,0-.146-.013-.222-.009a3.536,3.536,0,0,0,.222,7.066v.016h18.309v-7.084Z" transform="translate(-3968.208 -2989.159)" fill="#515c70"/></g><g transform="translate(23.852 0.479)"><path d="M4036.769,2975.018l.076-.329-1.99-.4c-.146-.034-.3-.063-.445-.089l-.061-.012v0a7.675,7.675,0,0,0-3.146,15.008h0l.018,0a7.644,7.644,0,0,0,.834.165l1.314.26.046-.2c.062,0,.124,0,.187-.007a7.675,7.675,0,0,0,3.167-14.412Z" transform="translate(-4025.446 -2974.095)" fill="#1c1f23"/><g transform="translate(2.272 0.457)"><ellipse cx="7.675" cy="7.675" rx="7.675" ry="7.675" fill="#2c3038"/></g><g transform="translate(5.271 3.456)"><ellipse cx="3.544" cy="3.544" rx="3.544" ry="3.544" transform="translate(0 6.48) rotate(-66.103)" fill="#5f6e82"/></g></g></g></g><g transform="translate(19.453)"><path d="M3963.171,2756.655v67.413h72.134a20.592,20.592,0,0,0,20.592-20.592v-46.821Z" transform="translate(-3963.171 -2756.655)" fill="#d47328"/></g><path d="M3899.361,2756.655v48.1a19.316,19.316,0,0,0,19.316,19.316h2.2a19.316,19.316,0,0,0,19.317-19.316v-48.1Z" transform="translate(-3899.361 -2756.655)" fill="#ffae43"/><g transform="translate(46.113 12.932)"><path d="M4107.691,2799.077H4055.27a4.647,4.647,0,1,0,0,9.293h52.421a4.647,4.647,0,1,0,0-9.293Z" transform="translate(-4050.623 -2799.077)" fill="#ffe164"/></g><g transform="translate(44.757 0)"><g transform="translate(54.873)"><path d="M4231.137,2756.656l-4.966,7.9h4.761l4.966-7.9Z" transform="translate(-4226.171 -2756.656)" fill="#434a59"/></g><g transform="translate(43.899)"><path d="M4199.9,2756.656h-4.761l-4.966,7.9h4.761Z" transform="translate(-4190.172 -2756.656)" fill="#434a59"/></g><g transform="translate(32.924)"><path d="M4163.9,2756.656h-4.761l-4.966,7.9h4.76Z" transform="translate(-4154.173 -2756.656)" fill="#434a59"/></g><g transform="translate(21.949)"><path d="M4127.9,2756.656h-4.761l-4.966,7.9h4.761Z" transform="translate(-4118.173 -2756.656)" fill="#434a59"/></g><g transform="translate(10.975)"><path d="M4091.9,2756.656h-4.761l-4.966,7.9h4.761Z" transform="translate(-4082.173 -2756.656)" fill="#434a59"/></g><path d="M4055.9,2756.656h-4.761l-4.966,7.9h4.761Z" transform="translate(-4046.174 -2756.656)" fill="#434a59"/></g></g></g></g></g></svg>